M48
;GenerationSoftware,Autodesk,EAGLE,9.6.2*%
;CreationDate,2022-05-12T19:57:57Z*%
FMAT,2
ICI,OFF
METRIC,TZ,000.000
T8C0.350
T7C0.711
T6C0.864
T5C1.000
T4C1.016
T3C1.060
T2C1.194
T1C2.250
%
G90
M71
T1
X41750Y43750
X98750Y43750
X98750Y23250
X41750Y23250
T2
X10543Y10238
X10471Y49560
X10543Y15242
X10611Y20869
X10611Y25873
X10471Y44556
T3
X62840Y15000
X39980Y15000
X37440Y15000
X34900Y15000
X32360Y15000
X29820Y15000
X24740Y15000
X60300Y15000
X65380Y15000
X67920Y15000
X70460Y15000
X27280Y15000
X73000Y15000
T4
X57980Y48020
X72800Y47979
X60520Y48020
X63060Y48020
X57980Y50560
X38173Y49808
X70260Y47979
X67720Y47979
X30553Y49808
X33093Y49808
X35633Y49808
X75340Y47979
X67720Y50519
X70260Y50519
X72800Y50519
X63060Y50560
X75340Y50519
X60520Y50560
X78395Y15546
X78395Y18086
X78373Y12389
X78373Y9849
T5
X50925Y23340
X63625Y43660
X56005Y23340
X58545Y23340
X61085Y23340
X63625Y23340
X66165Y23340
X68705Y23340
X71245Y23340
X73785Y23340
X76325Y23340
X78865Y23340
X53465Y23340
X78865Y43660
X76325Y43660
X73785Y43660
X71245Y43660
X68705Y43660
X66165Y43660
X61085Y43660
X58545Y43660
X56005Y43660
X53465Y43660
X50925Y43660
X48385Y43660
X45845Y43660
X45845Y23340
X48385Y23340
T6
X10730Y32472
X10730Y37984
T7
X50381Y49749
X50381Y48479
X49111Y49749
X49111Y48479
X47841Y48479
X46571Y49749
X46571Y48479
X45301Y49749
X45301Y48479
X47841Y49749
T8
X17500Y39500
X27686Y43688
X27178Y42037
X30000Y38500
X28956Y42367
X36119Y44653
X34000Y41500
M30