M48
;GenerationSoftware,Autodesk,EAGLE,9.6.2*%
;CreationDate,2022-09-20T21:27:30Z*%
FMAT,2
ICI,OFF
METRIC,TZ,000.000
T8C0.350
T7C0.711
T6C0.864
T5C1.000
T4C1.016
T3C1.060
T2C1.194
T1C2.250
%
G90
M71
T1
X98750Y43750
X98750Y23250
X41750Y23250
X41750Y43750
T2
X10471Y49560
X10611Y25873
X10611Y20869
X10543Y15242
X10543Y10238
X10471Y44556
T3
X31320Y15000
X41480Y15000
X38940Y15000
X36400Y15000
X33860Y15000
X74500Y15000
X28780Y15000
X26240Y15000
X64340Y15000
X61800Y15000
X66880Y15000
X69420Y15000
X71960Y15000
T4
X67720Y47979
X30553Y49808
X33093Y49808
X35633Y49808
X38173Y49808
X57980Y48020
X70260Y47979
X63060Y48020
X57980Y50560
X60520Y50560
X63060Y50560
X75340Y50519
X70260Y50519
X67720Y50519
X75340Y47979
X72800Y47979
X72800Y50519
X60520Y48020
X78395Y15546
X78395Y18086
X78373Y12389
X78373Y9849
T5
X63625Y43660
X56005Y23340
X58545Y23340
X61085Y23340
X63625Y23340
X66165Y23340
X68705Y23340
X71245Y23340
X73785Y23340
X76325Y23340
X78865Y23340
X53465Y23340
X78865Y43660
X76325Y43660
X73785Y43660
X71245Y43660
X68705Y43660
X66165Y43660
X61085Y43660
X58545Y43660
X56005Y43660
X53465Y43660
X50925Y43660
X48385Y43660
X45845Y43660
X45845Y23340
X48385Y23340
X50925Y23340
T6
X10730Y32472
X10730Y37984
T7
X50381Y49749
X50381Y48479
X49111Y49749
X49111Y48479
X47841Y48479
X46571Y49749
X46571Y48479
X45301Y49749
X45301Y48479
X47841Y49749
T8
X31000Y36625
X28575Y40005
X31875Y48375
X17500Y39500
X27530Y43470
X26984Y42000
M30