G04 EAGLE Gerber RS-274X export*
G75*
%MOMM*%
%FSLAX34Y34*%
%LPD*%
%INTop Copper*%
%IPPOS*%
%AMOC8*
5,1,8,0,0,1.08239X$1,22.5*%
G01*
%ADD10C,0.130000*%
%ADD11C,0.152400*%
%ADD12C,1.524000*%
%ADD13P,1.649562X8X22.500000*%
%ADD14P,1.649562X8X202.500000*%
%ADD15C,1.524000*%
%ADD16R,0.508000X1.524000*%
%ADD17R,1.508000X1.508000*%
%ADD18C,1.508000*%
%ADD19R,0.199200X0.704800*%
%ADD20R,0.704800X0.199200*%
%ADD21R,5.500000X5.500000*%
%ADD22C,1.590000*%
%ADD23R,1.590000X1.590000*%
%ADD24C,1.790700*%
%ADD25R,0.558800X0.711200*%
%ADD26R,0.290000X0.300000*%
%ADD27R,0.250000X0.300000*%
%ADD28R,0.500000X0.300000*%
%ADD29C,1.219200*%
%ADD30R,3.454400X1.397000*%
%ADD31C,0.286200*%
%ADD32R,1.371600X1.371600*%
%ADD33C,1.371600*%
%ADD34C,0.304800*%
%ADD35C,0.609600*%
%ADD36C,2.540000*%
%ADD37C,1.270000*%
%ADD38C,0.254000*%
%ADD39C,0.756400*%


D10*
X811270Y523730D02*
X811270Y689500D01*
X51270Y689500D02*
X51270Y523730D01*
X51920Y670000D02*
X810620Y670000D01*
X785270Y673192D01*
X785270Y666808D01*
X810620Y670000D01*
X785270Y671300D01*
X785270Y668700D02*
X810620Y670000D01*
X785270Y672600D01*
X785270Y667400D02*
X810620Y670000D01*
X77270Y673192D02*
X51920Y670000D01*
X77270Y673192D02*
X77270Y666808D01*
X51920Y670000D01*
X77270Y671300D01*
X77270Y668700D02*
X51920Y670000D01*
X77270Y672600D01*
X77270Y667400D02*
X51920Y670000D01*
D11*
X400122Y690957D02*
X400122Y692763D01*
X409153Y692763D01*
X404638Y676507D01*
X415753Y685538D02*
X421172Y685538D01*
X421290Y685536D01*
X421408Y685530D01*
X421526Y685521D01*
X421643Y685507D01*
X421760Y685490D01*
X421877Y685469D01*
X421992Y685444D01*
X422107Y685415D01*
X422221Y685382D01*
X422333Y685346D01*
X422444Y685306D01*
X422554Y685263D01*
X422663Y685216D01*
X422770Y685166D01*
X422875Y685111D01*
X422978Y685054D01*
X423079Y684993D01*
X423179Y684929D01*
X423276Y684862D01*
X423371Y684792D01*
X423463Y684718D01*
X423554Y684642D01*
X423641Y684562D01*
X423726Y684480D01*
X423808Y684395D01*
X423888Y684308D01*
X423964Y684217D01*
X424038Y684125D01*
X424108Y684030D01*
X424175Y683933D01*
X424239Y683833D01*
X424300Y683732D01*
X424357Y683629D01*
X424412Y683524D01*
X424462Y683417D01*
X424509Y683308D01*
X424552Y683198D01*
X424592Y683087D01*
X424628Y682975D01*
X424661Y682861D01*
X424690Y682746D01*
X424715Y682631D01*
X424736Y682514D01*
X424753Y682397D01*
X424767Y682280D01*
X424776Y682162D01*
X424782Y682044D01*
X424784Y681926D01*
X424784Y681023D01*
X424785Y681023D02*
X424783Y680890D01*
X424777Y680758D01*
X424767Y680626D01*
X424754Y680494D01*
X424736Y680362D01*
X424715Y680232D01*
X424690Y680101D01*
X424661Y679972D01*
X424628Y679844D01*
X424592Y679716D01*
X424552Y679590D01*
X424508Y679465D01*
X424460Y679341D01*
X424409Y679219D01*
X424354Y679098D01*
X424296Y678979D01*
X424234Y678861D01*
X424169Y678746D01*
X424100Y678632D01*
X424029Y678521D01*
X423953Y678412D01*
X423875Y678305D01*
X423794Y678200D01*
X423709Y678098D01*
X423622Y677998D01*
X423532Y677901D01*
X423439Y677806D01*
X423343Y677715D01*
X423245Y677626D01*
X423144Y677540D01*
X423040Y677457D01*
X422934Y677377D01*
X422826Y677301D01*
X422716Y677227D01*
X422603Y677157D01*
X422489Y677090D01*
X422372Y677027D01*
X422254Y676967D01*
X422134Y676910D01*
X422012Y676857D01*
X421889Y676808D01*
X421765Y676762D01*
X421639Y676720D01*
X421512Y676682D01*
X421384Y676647D01*
X421255Y676616D01*
X421126Y676589D01*
X420995Y676566D01*
X420864Y676546D01*
X420732Y676531D01*
X420600Y676519D01*
X420468Y676511D01*
X420335Y676507D01*
X420203Y676507D01*
X420070Y676511D01*
X419938Y676519D01*
X419806Y676531D01*
X419674Y676546D01*
X419543Y676566D01*
X419412Y676589D01*
X419283Y676616D01*
X419154Y676647D01*
X419026Y676682D01*
X418899Y676720D01*
X418773Y676762D01*
X418649Y676808D01*
X418526Y676857D01*
X418404Y676910D01*
X418284Y676967D01*
X418166Y677027D01*
X418049Y677090D01*
X417935Y677157D01*
X417822Y677227D01*
X417712Y677301D01*
X417604Y677377D01*
X417498Y677457D01*
X417394Y677540D01*
X417293Y677626D01*
X417195Y677715D01*
X417099Y677806D01*
X417006Y677901D01*
X416916Y677998D01*
X416829Y678098D01*
X416744Y678200D01*
X416663Y678305D01*
X416585Y678412D01*
X416509Y678521D01*
X416438Y678632D01*
X416369Y678746D01*
X416304Y678861D01*
X416242Y678979D01*
X416184Y679098D01*
X416129Y679219D01*
X416078Y679341D01*
X416030Y679465D01*
X415986Y679590D01*
X415946Y679716D01*
X415910Y679844D01*
X415877Y679972D01*
X415848Y680101D01*
X415823Y680232D01*
X415802Y680362D01*
X415784Y680494D01*
X415771Y680626D01*
X415761Y680758D01*
X415755Y680890D01*
X415753Y681023D01*
X415753Y685538D01*
X415755Y685715D01*
X415762Y685893D01*
X415773Y686070D01*
X415788Y686246D01*
X415807Y686422D01*
X415831Y686598D01*
X415859Y686773D01*
X415892Y686948D01*
X415929Y687121D01*
X415970Y687294D01*
X416015Y687465D01*
X416064Y687635D01*
X416118Y687804D01*
X416175Y687972D01*
X416237Y688138D01*
X416303Y688303D01*
X416373Y688466D01*
X416447Y688627D01*
X416524Y688786D01*
X416606Y688944D01*
X416692Y689099D01*
X416781Y689252D01*
X416874Y689403D01*
X416971Y689552D01*
X417071Y689698D01*
X417175Y689842D01*
X417282Y689983D01*
X417393Y690121D01*
X417507Y690257D01*
X417625Y690390D01*
X417745Y690520D01*
X417869Y690647D01*
X417996Y690771D01*
X418126Y690891D01*
X418259Y691009D01*
X418394Y691123D01*
X418533Y691234D01*
X418674Y691341D01*
X418818Y691445D01*
X418964Y691545D01*
X419113Y691642D01*
X419264Y691735D01*
X419417Y691824D01*
X419572Y691910D01*
X419730Y691992D01*
X419889Y692069D01*
X420050Y692143D01*
X420213Y692213D01*
X420378Y692279D01*
X420544Y692341D01*
X420712Y692398D01*
X420881Y692452D01*
X421051Y692501D01*
X421222Y692546D01*
X421395Y692587D01*
X421568Y692624D01*
X421743Y692657D01*
X421918Y692685D01*
X422094Y692709D01*
X422270Y692728D01*
X422446Y692743D01*
X422623Y692754D01*
X422801Y692761D01*
X422978Y692763D01*
X430759Y677410D02*
X430759Y676507D01*
X430759Y677410D02*
X431662Y677410D01*
X431662Y676507D01*
X430759Y676507D01*
X437637Y684635D02*
X437641Y684955D01*
X437652Y685274D01*
X437671Y685594D01*
X437698Y685912D01*
X437732Y686230D01*
X437774Y686547D01*
X437824Y686863D01*
X437881Y687178D01*
X437945Y687491D01*
X438017Y687803D01*
X438096Y688113D01*
X438183Y688420D01*
X438277Y688726D01*
X438378Y689029D01*
X438487Y689330D01*
X438602Y689628D01*
X438725Y689924D01*
X438855Y690216D01*
X438992Y690505D01*
X438991Y690506D02*
X439030Y690614D01*
X439073Y690721D01*
X439119Y690826D01*
X439170Y690930D01*
X439223Y691032D01*
X439280Y691132D01*
X439341Y691230D01*
X439405Y691325D01*
X439472Y691419D01*
X439543Y691510D01*
X439616Y691599D01*
X439693Y691685D01*
X439772Y691768D01*
X439854Y691849D01*
X439939Y691927D01*
X440027Y692001D01*
X440117Y692073D01*
X440209Y692141D01*
X440304Y692207D01*
X440401Y692269D01*
X440500Y692327D01*
X440602Y692383D01*
X440704Y692434D01*
X440809Y692482D01*
X440915Y692527D01*
X441023Y692568D01*
X441132Y692605D01*
X441242Y692638D01*
X441354Y692667D01*
X441466Y692693D01*
X441579Y692715D01*
X441693Y692732D01*
X441807Y692746D01*
X441922Y692756D01*
X442037Y692762D01*
X442152Y692764D01*
X442152Y692763D02*
X442267Y692761D01*
X442382Y692755D01*
X442497Y692745D01*
X442611Y692731D01*
X442725Y692714D01*
X442838Y692692D01*
X442950Y692666D01*
X443062Y692637D01*
X443172Y692604D01*
X443281Y692567D01*
X443389Y692526D01*
X443495Y692481D01*
X443600Y692433D01*
X443702Y692382D01*
X443803Y692326D01*
X443903Y692268D01*
X444000Y692206D01*
X444094Y692141D01*
X444187Y692072D01*
X444277Y692000D01*
X444365Y691926D01*
X444450Y691848D01*
X444532Y691767D01*
X444611Y691684D01*
X444688Y691598D01*
X444761Y691509D01*
X444832Y691418D01*
X444899Y691324D01*
X444963Y691229D01*
X445024Y691131D01*
X445081Y691031D01*
X445134Y690929D01*
X445185Y690825D01*
X445231Y690720D01*
X445274Y690613D01*
X445313Y690505D01*
X445450Y690216D01*
X445580Y689924D01*
X445703Y689628D01*
X445818Y689330D01*
X445927Y689029D01*
X446028Y688726D01*
X446122Y688420D01*
X446209Y688113D01*
X446288Y687803D01*
X446360Y687491D01*
X446424Y687178D01*
X446481Y686863D01*
X446531Y686547D01*
X446573Y686230D01*
X446607Y685912D01*
X446634Y685594D01*
X446653Y685274D01*
X446664Y684955D01*
X446668Y684635D01*
X437637Y684635D02*
X437641Y684315D01*
X437652Y683996D01*
X437671Y683676D01*
X437698Y683358D01*
X437732Y683040D01*
X437774Y682723D01*
X437824Y682407D01*
X437881Y682092D01*
X437945Y681779D01*
X438017Y681467D01*
X438096Y681157D01*
X438183Y680850D01*
X438277Y680544D01*
X438378Y680241D01*
X438487Y679940D01*
X438602Y679642D01*
X438725Y679346D01*
X438855Y679054D01*
X438992Y678765D01*
X438991Y678765D02*
X439030Y678657D01*
X439073Y678550D01*
X439119Y678445D01*
X439170Y678341D01*
X439223Y678239D01*
X439280Y678139D01*
X439341Y678041D01*
X439405Y677946D01*
X439472Y677852D01*
X439543Y677761D01*
X439616Y677672D01*
X439693Y677586D01*
X439772Y677503D01*
X439854Y677422D01*
X439939Y677344D01*
X440027Y677270D01*
X440117Y677198D01*
X440210Y677129D01*
X440304Y677064D01*
X440401Y677002D01*
X440501Y676944D01*
X440602Y676888D01*
X440704Y676837D01*
X440809Y676789D01*
X440915Y676744D01*
X441023Y676703D01*
X441132Y676666D01*
X441242Y676633D01*
X441354Y676604D01*
X441466Y676578D01*
X441579Y676556D01*
X441693Y676539D01*
X441807Y676525D01*
X441922Y676515D01*
X442037Y676509D01*
X442152Y676507D01*
X445313Y678765D02*
X445450Y679054D01*
X445580Y679346D01*
X445703Y679642D01*
X445818Y679940D01*
X445927Y680241D01*
X446028Y680544D01*
X446122Y680850D01*
X446209Y681157D01*
X446288Y681467D01*
X446360Y681779D01*
X446424Y682092D01*
X446481Y682407D01*
X446531Y682723D01*
X446573Y683040D01*
X446607Y683358D01*
X446634Y683676D01*
X446653Y683996D01*
X446664Y684315D01*
X446668Y684635D01*
X445313Y678765D02*
X445274Y678657D01*
X445231Y678550D01*
X445185Y678445D01*
X445134Y678341D01*
X445081Y678239D01*
X445024Y678139D01*
X444963Y678041D01*
X444899Y677946D01*
X444832Y677852D01*
X444761Y677761D01*
X444688Y677672D01*
X444611Y677586D01*
X444532Y677503D01*
X444450Y677422D01*
X444365Y677344D01*
X444277Y677270D01*
X444187Y677198D01*
X444094Y677129D01*
X444000Y677064D01*
X443903Y677002D01*
X443803Y676944D01*
X443702Y676888D01*
X443599Y676837D01*
X443495Y676789D01*
X443389Y676744D01*
X443281Y676703D01*
X443172Y676666D01*
X443062Y676633D01*
X442950Y676604D01*
X442838Y676578D01*
X442725Y676556D01*
X442611Y676539D01*
X442497Y676525D01*
X442382Y676515D01*
X442267Y676509D01*
X442152Y676507D01*
X438540Y680119D02*
X445765Y689151D01*
X453268Y684635D02*
X453272Y684955D01*
X453283Y685274D01*
X453302Y685594D01*
X453329Y685912D01*
X453363Y686230D01*
X453405Y686547D01*
X453455Y686863D01*
X453512Y687178D01*
X453576Y687491D01*
X453648Y687803D01*
X453727Y688113D01*
X453814Y688420D01*
X453908Y688726D01*
X454009Y689029D01*
X454118Y689330D01*
X454233Y689628D01*
X454356Y689924D01*
X454486Y690216D01*
X454623Y690505D01*
X454623Y690506D02*
X454662Y690614D01*
X454705Y690721D01*
X454751Y690826D01*
X454802Y690930D01*
X454855Y691032D01*
X454912Y691132D01*
X454973Y691230D01*
X455037Y691325D01*
X455104Y691419D01*
X455175Y691510D01*
X455248Y691599D01*
X455325Y691685D01*
X455404Y691768D01*
X455486Y691849D01*
X455571Y691927D01*
X455659Y692001D01*
X455749Y692073D01*
X455841Y692141D01*
X455936Y692207D01*
X456033Y692269D01*
X456132Y692327D01*
X456234Y692383D01*
X456336Y692434D01*
X456441Y692482D01*
X456547Y692527D01*
X456655Y692568D01*
X456764Y692605D01*
X456874Y692638D01*
X456986Y692667D01*
X457098Y692693D01*
X457211Y692715D01*
X457325Y692732D01*
X457439Y692746D01*
X457554Y692756D01*
X457669Y692762D01*
X457784Y692764D01*
X457784Y692763D02*
X457899Y692761D01*
X458014Y692755D01*
X458129Y692745D01*
X458243Y692731D01*
X458357Y692714D01*
X458470Y692692D01*
X458582Y692666D01*
X458694Y692637D01*
X458804Y692604D01*
X458913Y692567D01*
X459021Y692526D01*
X459127Y692481D01*
X459232Y692433D01*
X459334Y692382D01*
X459435Y692326D01*
X459535Y692268D01*
X459632Y692206D01*
X459726Y692141D01*
X459819Y692072D01*
X459909Y692000D01*
X459997Y691926D01*
X460082Y691848D01*
X460164Y691767D01*
X460243Y691684D01*
X460320Y691598D01*
X460393Y691509D01*
X460464Y691418D01*
X460531Y691324D01*
X460595Y691229D01*
X460656Y691131D01*
X460713Y691031D01*
X460766Y690929D01*
X460817Y690825D01*
X460863Y690720D01*
X460906Y690613D01*
X460945Y690505D01*
X460944Y690505D02*
X461081Y690216D01*
X461211Y689924D01*
X461334Y689628D01*
X461449Y689330D01*
X461558Y689029D01*
X461659Y688726D01*
X461753Y688420D01*
X461840Y688113D01*
X461919Y687803D01*
X461991Y687491D01*
X462055Y687178D01*
X462112Y686863D01*
X462162Y686547D01*
X462204Y686230D01*
X462238Y685912D01*
X462265Y685594D01*
X462284Y685274D01*
X462295Y684955D01*
X462299Y684635D01*
X453268Y684635D02*
X453272Y684315D01*
X453283Y683996D01*
X453302Y683676D01*
X453329Y683358D01*
X453363Y683040D01*
X453405Y682723D01*
X453455Y682407D01*
X453512Y682092D01*
X453576Y681779D01*
X453648Y681467D01*
X453727Y681157D01*
X453814Y680850D01*
X453908Y680544D01*
X454009Y680241D01*
X454118Y679940D01*
X454233Y679642D01*
X454356Y679346D01*
X454486Y679054D01*
X454623Y678765D01*
X454662Y678657D01*
X454705Y678550D01*
X454751Y678445D01*
X454802Y678341D01*
X454855Y678239D01*
X454912Y678139D01*
X454973Y678041D01*
X455037Y677946D01*
X455104Y677852D01*
X455175Y677761D01*
X455248Y677672D01*
X455325Y677586D01*
X455404Y677503D01*
X455486Y677422D01*
X455571Y677344D01*
X455659Y677270D01*
X455749Y677198D01*
X455842Y677129D01*
X455936Y677064D01*
X456033Y677002D01*
X456133Y676944D01*
X456234Y676888D01*
X456336Y676837D01*
X456441Y676789D01*
X456547Y676744D01*
X456655Y676703D01*
X456764Y676666D01*
X456874Y676633D01*
X456986Y676604D01*
X457098Y676578D01*
X457211Y676556D01*
X457325Y676539D01*
X457439Y676525D01*
X457554Y676515D01*
X457669Y676509D01*
X457784Y676507D01*
X460944Y678765D02*
X461081Y679054D01*
X461211Y679346D01*
X461334Y679642D01*
X461449Y679940D01*
X461558Y680241D01*
X461659Y680544D01*
X461753Y680850D01*
X461840Y681157D01*
X461919Y681467D01*
X461991Y681779D01*
X462055Y682092D01*
X462112Y682407D01*
X462162Y682723D01*
X462204Y683040D01*
X462238Y683358D01*
X462265Y683676D01*
X462284Y683996D01*
X462295Y684315D01*
X462299Y684635D01*
X460945Y678765D02*
X460906Y678657D01*
X460863Y678550D01*
X460817Y678445D01*
X460766Y678341D01*
X460713Y678239D01*
X460656Y678139D01*
X460595Y678041D01*
X460531Y677946D01*
X460464Y677852D01*
X460393Y677761D01*
X460320Y677672D01*
X460243Y677586D01*
X460164Y677503D01*
X460082Y677422D01*
X459997Y677344D01*
X459909Y677270D01*
X459819Y677198D01*
X459726Y677129D01*
X459632Y677064D01*
X459535Y677002D01*
X459435Y676944D01*
X459334Y676888D01*
X459231Y676837D01*
X459127Y676789D01*
X459021Y676744D01*
X458913Y676703D01*
X458804Y676666D01*
X458694Y676633D01*
X458582Y676604D01*
X458470Y676578D01*
X458357Y676556D01*
X458243Y676539D01*
X458129Y676525D01*
X458014Y676515D01*
X457899Y676509D01*
X457784Y676507D01*
X454171Y680119D02*
X461396Y689151D01*
D10*
X811210Y73660D02*
X919466Y73646D01*
X919526Y523716D02*
X811270Y523730D01*
X900026Y523068D02*
X899966Y74298D01*
X896777Y99649D01*
X903162Y99648D01*
X899966Y74298D01*
X898669Y99648D01*
X901269Y99648D02*
X899966Y74298D01*
X897369Y99649D01*
X902569Y99648D02*
X899966Y74298D01*
X896830Y497719D02*
X900026Y523068D01*
X896830Y497719D02*
X903215Y497718D01*
X900026Y523068D01*
X898722Y497718D01*
X901322Y497718D02*
X900026Y523068D01*
X897422Y497719D01*
X902622Y497718D02*
X900026Y523068D01*
D11*
X877229Y271148D02*
X889872Y267536D01*
X889872Y276567D01*
X886260Y273858D02*
X893485Y273858D01*
X893485Y283167D02*
X893485Y288586D01*
X893484Y288586D02*
X893482Y288704D01*
X893476Y288822D01*
X893467Y288940D01*
X893453Y289057D01*
X893436Y289174D01*
X893415Y289291D01*
X893390Y289406D01*
X893361Y289521D01*
X893328Y289635D01*
X893292Y289747D01*
X893252Y289858D01*
X893209Y289968D01*
X893162Y290077D01*
X893112Y290184D01*
X893057Y290289D01*
X893000Y290392D01*
X892939Y290493D01*
X892875Y290593D01*
X892808Y290690D01*
X892738Y290785D01*
X892664Y290877D01*
X892588Y290968D01*
X892508Y291055D01*
X892426Y291140D01*
X892341Y291222D01*
X892254Y291302D01*
X892163Y291378D01*
X892071Y291452D01*
X891976Y291522D01*
X891879Y291589D01*
X891779Y291653D01*
X891678Y291714D01*
X891575Y291771D01*
X891470Y291826D01*
X891363Y291876D01*
X891254Y291923D01*
X891144Y291966D01*
X891033Y292006D01*
X890921Y292042D01*
X890807Y292075D01*
X890692Y292104D01*
X890577Y292129D01*
X890460Y292150D01*
X890343Y292167D01*
X890226Y292181D01*
X890108Y292190D01*
X889990Y292196D01*
X889872Y292198D01*
X888066Y292198D01*
X887948Y292196D01*
X887830Y292190D01*
X887712Y292181D01*
X887595Y292167D01*
X887478Y292150D01*
X887361Y292129D01*
X887246Y292104D01*
X887131Y292075D01*
X887017Y292042D01*
X886905Y292006D01*
X886794Y291966D01*
X886684Y291923D01*
X886575Y291876D01*
X886468Y291826D01*
X886363Y291771D01*
X886260Y291714D01*
X886159Y291653D01*
X886059Y291589D01*
X885962Y291522D01*
X885867Y291452D01*
X885775Y291378D01*
X885684Y291302D01*
X885597Y291222D01*
X885512Y291140D01*
X885430Y291055D01*
X885350Y290968D01*
X885274Y290877D01*
X885200Y290785D01*
X885130Y290690D01*
X885063Y290593D01*
X884999Y290493D01*
X884938Y290392D01*
X884881Y290289D01*
X884826Y290184D01*
X884776Y290077D01*
X884729Y289968D01*
X884686Y289858D01*
X884646Y289747D01*
X884610Y289635D01*
X884577Y289521D01*
X884548Y289406D01*
X884523Y289291D01*
X884502Y289174D01*
X884485Y289057D01*
X884471Y288940D01*
X884462Y288822D01*
X884456Y288704D01*
X884454Y288586D01*
X884453Y288586D02*
X884453Y283167D01*
X877229Y283167D01*
X877229Y292198D01*
X892581Y298173D02*
X893485Y298173D01*
X892581Y298173D02*
X892581Y299076D01*
X893485Y299076D01*
X893485Y298173D01*
X885357Y305051D02*
X885037Y305055D01*
X884718Y305066D01*
X884398Y305085D01*
X884080Y305112D01*
X883762Y305146D01*
X883445Y305188D01*
X883129Y305238D01*
X882814Y305295D01*
X882501Y305359D01*
X882189Y305431D01*
X881879Y305510D01*
X881572Y305597D01*
X881266Y305691D01*
X880963Y305792D01*
X880662Y305901D01*
X880364Y306016D01*
X880068Y306139D01*
X879776Y306269D01*
X879487Y306406D01*
X879486Y306406D02*
X879378Y306445D01*
X879271Y306488D01*
X879166Y306534D01*
X879063Y306584D01*
X878961Y306638D01*
X878861Y306695D01*
X878763Y306756D01*
X878667Y306820D01*
X878574Y306887D01*
X878483Y306957D01*
X878394Y307031D01*
X878308Y307107D01*
X878225Y307187D01*
X878144Y307269D01*
X878066Y307354D01*
X877992Y307441D01*
X877920Y307532D01*
X877851Y307624D01*
X877786Y307719D01*
X877724Y307816D01*
X877665Y307915D01*
X877610Y308016D01*
X877559Y308119D01*
X877511Y308224D01*
X877466Y308330D01*
X877425Y308437D01*
X877388Y308546D01*
X877355Y308657D01*
X877326Y308768D01*
X877300Y308880D01*
X877278Y308993D01*
X877261Y309107D01*
X877247Y309221D01*
X877237Y309336D01*
X877231Y309451D01*
X877229Y309566D01*
X877228Y309566D02*
X877230Y309681D01*
X877236Y309796D01*
X877246Y309911D01*
X877260Y310025D01*
X877277Y310139D01*
X877299Y310252D01*
X877325Y310364D01*
X877354Y310476D01*
X877387Y310586D01*
X877424Y310695D01*
X877465Y310803D01*
X877510Y310909D01*
X877558Y311014D01*
X877609Y311116D01*
X877665Y311218D01*
X877723Y311317D01*
X877785Y311414D01*
X877851Y311509D01*
X877919Y311601D01*
X877991Y311691D01*
X878065Y311779D01*
X878143Y311864D01*
X878224Y311946D01*
X878307Y312025D01*
X878393Y312102D01*
X878482Y312175D01*
X878573Y312246D01*
X878667Y312313D01*
X878762Y312377D01*
X878860Y312438D01*
X878960Y312495D01*
X879062Y312548D01*
X879166Y312599D01*
X879271Y312645D01*
X879378Y312688D01*
X879486Y312727D01*
X879487Y312727D02*
X879776Y312864D01*
X880068Y312994D01*
X880364Y313117D01*
X880662Y313232D01*
X880963Y313341D01*
X881266Y313442D01*
X881572Y313536D01*
X881879Y313623D01*
X882189Y313702D01*
X882501Y313774D01*
X882814Y313838D01*
X883129Y313895D01*
X883445Y313945D01*
X883762Y313987D01*
X884080Y314021D01*
X884398Y314048D01*
X884718Y314067D01*
X885037Y314078D01*
X885357Y314082D01*
X885357Y305051D02*
X885677Y305055D01*
X885996Y305066D01*
X886316Y305085D01*
X886634Y305112D01*
X886952Y305146D01*
X887269Y305188D01*
X887585Y305238D01*
X887900Y305295D01*
X888213Y305359D01*
X888525Y305431D01*
X888835Y305510D01*
X889142Y305597D01*
X889448Y305691D01*
X889751Y305792D01*
X890052Y305901D01*
X890350Y306016D01*
X890646Y306139D01*
X890938Y306269D01*
X891227Y306406D01*
X891227Y306405D02*
X891335Y306444D01*
X891442Y306487D01*
X891547Y306533D01*
X891651Y306584D01*
X891753Y306637D01*
X891853Y306694D01*
X891951Y306755D01*
X892046Y306819D01*
X892140Y306886D01*
X892231Y306957D01*
X892320Y307030D01*
X892406Y307107D01*
X892489Y307186D01*
X892570Y307268D01*
X892648Y307353D01*
X892722Y307441D01*
X892794Y307531D01*
X892863Y307624D01*
X892928Y307718D01*
X892990Y307815D01*
X893048Y307915D01*
X893104Y308016D01*
X893155Y308118D01*
X893203Y308223D01*
X893248Y308329D01*
X893289Y308437D01*
X893326Y308546D01*
X893359Y308656D01*
X893388Y308768D01*
X893414Y308880D01*
X893436Y308993D01*
X893453Y309107D01*
X893467Y309221D01*
X893477Y309336D01*
X893483Y309451D01*
X893485Y309566D01*
X891227Y312727D02*
X890938Y312864D01*
X890646Y312994D01*
X890350Y313117D01*
X890052Y313232D01*
X889751Y313341D01*
X889448Y313442D01*
X889142Y313536D01*
X888835Y313623D01*
X888525Y313702D01*
X888213Y313774D01*
X887900Y313838D01*
X887585Y313895D01*
X887269Y313945D01*
X886952Y313987D01*
X886634Y314021D01*
X886316Y314048D01*
X885996Y314067D01*
X885677Y314078D01*
X885357Y314082D01*
X891227Y312727D02*
X891335Y312688D01*
X891442Y312645D01*
X891547Y312599D01*
X891651Y312548D01*
X891753Y312495D01*
X891853Y312438D01*
X891951Y312377D01*
X892046Y312313D01*
X892140Y312246D01*
X892231Y312175D01*
X892320Y312102D01*
X892406Y312025D01*
X892489Y311946D01*
X892570Y311864D01*
X892648Y311779D01*
X892722Y311691D01*
X892794Y311601D01*
X892863Y311508D01*
X892928Y311414D01*
X892990Y311317D01*
X893048Y311217D01*
X893104Y311116D01*
X893155Y311013D01*
X893203Y310909D01*
X893248Y310803D01*
X893289Y310695D01*
X893326Y310586D01*
X893359Y310476D01*
X893388Y310364D01*
X893414Y310252D01*
X893436Y310139D01*
X893453Y310025D01*
X893467Y309911D01*
X893477Y309796D01*
X893483Y309681D01*
X893485Y309566D01*
X889872Y305954D02*
X880841Y313179D01*
X880841Y320682D02*
X877229Y325198D01*
X893485Y325198D01*
X893485Y329713D02*
X893485Y320682D01*
D12*
X579800Y480200D03*
D13*
X605200Y480200D03*
X630600Y480200D03*
X579800Y505600D03*
X605200Y505600D03*
X630600Y505600D03*
D14*
X753400Y505190D03*
X728000Y505190D03*
X702600Y505190D03*
X677200Y505190D03*
X753400Y479790D03*
X728000Y479790D03*
X702600Y479790D03*
X677200Y479790D03*
D15*
X305530Y490460D02*
X305530Y505700D01*
X330930Y505700D02*
X330930Y490460D01*
X356330Y490460D02*
X356330Y505700D01*
X381730Y505700D02*
X381730Y490460D01*
D16*
X289180Y401290D03*
X301880Y401290D03*
X314580Y401290D03*
X327280Y401290D03*
X289180Y457170D03*
X301880Y457170D03*
X314580Y457170D03*
X327280Y457170D03*
D17*
X788652Y436600D03*
D18*
X763252Y436600D03*
X737852Y436600D03*
X712452Y436600D03*
X687052Y436600D03*
X661652Y436600D03*
X636252Y436600D03*
X610852Y436600D03*
X585452Y436600D03*
X560052Y436600D03*
X534652Y436600D03*
X509252Y436600D03*
X483852Y436600D03*
X458452Y436600D03*
X458452Y233400D03*
X483852Y233400D03*
X509252Y233400D03*
X534652Y233400D03*
X560052Y233400D03*
X585452Y233400D03*
X610852Y233400D03*
X636252Y233400D03*
X661652Y233400D03*
X687052Y233400D03*
X712452Y233400D03*
X737852Y233400D03*
X763252Y233400D03*
X788652Y233400D03*
D16*
X342140Y402060D03*
X354840Y402060D03*
X367540Y402060D03*
X380240Y402060D03*
X342140Y457940D03*
X354840Y457940D03*
X367540Y457940D03*
X380240Y457940D03*
D19*
X247500Y439524D03*
X242500Y439524D03*
X237500Y439524D03*
X232500Y439524D03*
X227500Y439524D03*
X222500Y439524D03*
X217500Y439524D03*
X212500Y439524D03*
X207500Y439524D03*
X202500Y439524D03*
X197500Y439524D03*
X192500Y439524D03*
D20*
X185476Y432500D03*
X185476Y427500D03*
X185476Y422500D03*
X185476Y417500D03*
X185476Y412500D03*
X185476Y407500D03*
X185476Y402500D03*
X185476Y397500D03*
X185476Y392500D03*
X185476Y387500D03*
X185476Y382500D03*
X185476Y377500D03*
D19*
X192500Y370476D03*
X197500Y370476D03*
X202500Y370476D03*
X207500Y370476D03*
X212500Y370476D03*
X217500Y370476D03*
X222500Y370476D03*
X227500Y370476D03*
X232500Y370476D03*
X237500Y370476D03*
X242500Y370476D03*
X247500Y370476D03*
D20*
X254524Y377500D03*
X254524Y382500D03*
X254524Y387500D03*
X254524Y392500D03*
X254524Y397500D03*
X254524Y402500D03*
X254524Y407500D03*
X254524Y412500D03*
X254524Y417500D03*
X254524Y422500D03*
X254524Y427500D03*
X254524Y432500D03*
D21*
X220000Y405000D03*
D22*
X247400Y150000D03*
X272800Y150000D03*
X298200Y150000D03*
X323600Y150000D03*
X349000Y150000D03*
X374400Y150000D03*
X399800Y150000D03*
X628400Y150000D03*
X603000Y150000D03*
X653800Y150000D03*
X679200Y150000D03*
X704600Y150000D03*
D23*
X730000Y150000D03*
D24*
X106110Y258730D03*
X106110Y208692D03*
X105430Y152420D03*
X105430Y102382D03*
X104710Y495600D03*
X104710Y445562D03*
D25*
X162000Y299586D03*
X162000Y310000D03*
D26*
X274900Y405570D03*
X270460Y405570D03*
D27*
X302390Y470870D03*
X308390Y470870D03*
D28*
X316730Y470780D03*
X324730Y470780D03*
D29*
X503810Y497490D03*
X503810Y484790D03*
X491110Y497490D03*
X491110Y484790D03*
X478410Y497490D03*
X478410Y484790D03*
X465710Y497490D03*
X465710Y484790D03*
X453010Y497490D03*
X453010Y484790D03*
D30*
X214030Y286489D03*
X214030Y343131D03*
D31*
X338581Y386541D02*
X338581Y389679D01*
X341119Y389679D01*
X341119Y386541D01*
X338581Y386541D01*
X338581Y389260D02*
X341119Y389260D01*
X329981Y389679D02*
X329981Y386541D01*
X329981Y389679D02*
X332519Y389679D01*
X332519Y386541D01*
X329981Y386541D01*
X329981Y389260D02*
X332519Y389260D01*
X334249Y470831D02*
X334249Y473969D01*
X334249Y470831D02*
X331711Y470831D01*
X331711Y473969D01*
X334249Y473969D01*
X334249Y473550D02*
X331711Y473550D01*
X342849Y473969D02*
X342849Y470831D01*
X340311Y470831D01*
X340311Y473969D01*
X342849Y473969D01*
X342849Y473550D02*
X340311Y473550D01*
D15*
X776330Y155460D02*
X791570Y155460D01*
X791570Y180860D02*
X776330Y180860D01*
X776110Y123890D02*
X791350Y123890D01*
X791350Y98490D02*
X776110Y98490D01*
D32*
X107300Y379840D03*
D33*
X107300Y324722D03*
D26*
X272590Y396320D03*
X277030Y396320D03*
D11*
X534652Y233400D02*
X535000Y233750D01*
X605000Y471250D02*
X605000Y480000D01*
X605200Y480200D01*
X561250Y397500D02*
X561250Y233750D01*
X561250Y397500D02*
X600000Y436250D01*
X600000Y466250D01*
X605000Y471250D01*
X561250Y233750D02*
X560052Y233400D01*
X510000Y233750D02*
X509252Y233400D01*
X200000Y410000D02*
X198276Y408276D01*
X197500Y407500D01*
X200000Y405000D02*
X197500Y402500D01*
D34*
X197500Y422500D02*
X185476Y422500D01*
D11*
X197500Y422500D02*
X200000Y420000D01*
X227500Y425000D02*
X227500Y412500D01*
X225254Y410254D01*
X225000Y410000D01*
X220000Y392500D02*
X240000Y392500D01*
X220000Y392500D02*
X217500Y392500D01*
X215000Y395000D01*
D34*
X215000Y387500D02*
X185476Y387500D01*
D11*
X215000Y387500D02*
X220000Y392500D01*
X185476Y407500D02*
X182500Y407500D01*
X182500Y402500D02*
X185476Y402500D01*
D35*
X152188Y405000D02*
X133594Y386406D01*
X198120Y405000D02*
X200000Y405000D01*
X198120Y405000D02*
X185928Y405000D01*
X152188Y405000D01*
D34*
X134688Y387500D02*
X185476Y387500D01*
X134688Y387500D02*
X133594Y386406D01*
D35*
X162000Y299586D02*
X121144Y258730D01*
X106110Y258730D01*
D34*
X247500Y377500D02*
X254524Y377500D01*
X247500Y377500D02*
X240110Y384890D01*
X240000Y385000D01*
D36*
X347182Y102382D02*
X105430Y102382D01*
D37*
X348512Y103712D02*
X354862Y110062D01*
X348512Y103712D02*
X347182Y102382D01*
D34*
X227500Y425000D02*
X227500Y439524D01*
X245000Y397500D02*
X254524Y397500D01*
X245000Y397500D02*
X240000Y392500D01*
X240792Y392500D02*
X254524Y392500D01*
X240792Y392500D02*
X240000Y392500D01*
D35*
X133594Y386406D02*
X127028Y379840D01*
X107300Y379840D01*
D36*
X372400Y122600D02*
X399800Y150000D01*
X372400Y122600D02*
X353512Y103712D01*
X348512Y103712D01*
D37*
X374400Y124600D02*
X374400Y150000D01*
X374400Y124600D02*
X372400Y122600D01*
D34*
X109681Y457564D02*
X99739Y457564D01*
X92709Y450533D01*
X92709Y440591D01*
X107300Y425999D01*
X109681Y457564D02*
X144745Y422500D01*
X185476Y422500D01*
X107300Y425999D02*
X107300Y379840D01*
X254524Y397500D02*
X254696Y397672D01*
X327280Y401290D02*
X327280Y392080D01*
X327280Y457170D02*
X327280Y468230D01*
X324730Y470780D01*
X327280Y466700D02*
X327280Y457170D01*
X327280Y466700D02*
X332980Y472400D01*
X336726Y382062D02*
X342974Y382062D01*
X347728Y386816D01*
X347728Y409419D02*
X353310Y415000D01*
X375000Y415000D01*
X380240Y409760D01*
X380240Y402060D01*
X347728Y409419D02*
X347728Y386816D01*
X380240Y496590D02*
X381730Y498080D01*
X380240Y496590D02*
X380240Y480000D01*
X380240Y457940D01*
D11*
X258082Y397500D02*
X254524Y397500D01*
X277030Y396320D02*
X284354Y403644D01*
X284354Y409857D01*
D34*
X257112Y397500D02*
X254524Y397500D01*
X257112Y397500D02*
X262112Y392500D01*
X268422Y386190D01*
X262112Y392500D02*
X254524Y392500D01*
X332598Y386190D02*
X336726Y382062D01*
X331250Y388110D02*
X327280Y392080D01*
D11*
X327280Y452783D02*
X327280Y457170D01*
X309867Y435369D02*
X284354Y409857D01*
X309867Y435369D02*
X327280Y452783D01*
D34*
X294768Y405000D02*
X294768Y392408D01*
X294768Y405000D02*
X294768Y408302D01*
X288551Y386190D02*
X268422Y386190D01*
X288551Y386190D02*
X294768Y392408D01*
X294768Y408302D02*
X295733Y409267D01*
D38*
X294514Y405254D02*
X294768Y405000D01*
X295733Y409267D02*
X301466Y415000D01*
X325000Y415000D01*
X327280Y412720D01*
X327280Y401290D01*
D11*
X381000Y484632D02*
X381730Y498080D01*
X379476Y457200D02*
X373380Y451104D01*
X373380Y449580D01*
X364236Y440436D01*
X339852Y440436D01*
X327660Y452628D01*
X379476Y457200D02*
X380240Y457940D01*
X327660Y452628D02*
X327280Y457170D01*
X198120Y408432D02*
X198120Y406908D01*
X198276Y408276D02*
X198120Y408432D01*
X220980Y405384D02*
X225552Y409956D01*
X225254Y410254D01*
X220980Y405384D02*
X220000Y405000D01*
X665988Y505968D02*
X676656Y505968D01*
X677200Y505190D01*
X185928Y402336D02*
X185476Y402500D01*
X185928Y402336D02*
X185928Y405000D01*
X331250Y388110D02*
X332232Y387096D01*
X332598Y386190D01*
X185928Y406908D02*
X185476Y407500D01*
X185928Y406908D02*
X185928Y405000D01*
X240792Y392500D02*
X240792Y385572D01*
X240110Y384890D01*
X601980Y150876D02*
X603000Y150000D01*
X411480Y150876D02*
X399800Y150000D01*
X220000Y405000D02*
X198120Y406908D01*
X198120Y405000D01*
X294132Y451104D02*
X309867Y435369D01*
X294132Y451104D02*
X294132Y466344D01*
X292608Y467868D01*
X252984Y467868D01*
X228600Y443484D01*
X228600Y440436D01*
X227500Y439524D01*
X380000Y480000D02*
X380240Y480000D01*
X381250Y485000D02*
X452500Y485000D01*
X453010Y484790D01*
X381250Y485000D02*
X381730Y498080D01*
X650000Y506250D02*
X666250Y506250D01*
X650000Y506250D02*
X631250Y506250D01*
X630600Y505600D01*
X665988Y505968D02*
X666250Y506250D01*
D34*
X650000Y506250D02*
X650000Y296404D01*
X630600Y505600D02*
X676790Y505600D01*
X677200Y505190D01*
X712452Y233952D02*
X712452Y233400D01*
X712452Y233952D02*
X650000Y296404D01*
X603000Y150000D02*
X399800Y150000D01*
X289180Y401290D02*
X289180Y409180D01*
X305000Y425000D01*
X325000Y425000D02*
X335000Y415000D01*
X342140Y407860D01*
X342140Y402060D01*
X325000Y425000D02*
X305000Y425000D01*
X342140Y402060D02*
X342140Y390400D01*
X339850Y388110D01*
D11*
X289180Y401290D02*
X287970Y402500D01*
X257500Y402500D02*
X254524Y402500D01*
X257500Y402500D02*
X270000Y390000D01*
X285000Y390000D01*
X290000Y395000D01*
X290000Y400470D01*
X289180Y401290D01*
X335000Y415000D02*
X340000Y415000D01*
D39*
X340000Y415000D03*
D11*
X606250Y498750D02*
X606250Y505000D01*
X605200Y505600D01*
X586250Y397500D02*
X586250Y233750D01*
X586250Y397500D02*
X621250Y432500D01*
X621250Y475000D01*
X616250Y480000D01*
X616250Y488750D01*
X606250Y498750D01*
X586250Y233750D02*
X585452Y233400D01*
X606250Y498750D02*
X605200Y505600D01*
X713232Y437388D02*
X754380Y478536D01*
X713232Y437388D02*
X712452Y436600D01*
X754380Y478536D02*
X753400Y479790D01*
X687324Y449580D02*
X687324Y437388D01*
X687324Y449580D02*
X717804Y480060D01*
X717804Y495300D01*
X726948Y504444D01*
X687324Y437388D02*
X687052Y436600D01*
X726948Y504444D02*
X728000Y505190D01*
X354840Y402060D02*
X355092Y400812D01*
X354840Y402060D02*
X354840Y390160D01*
X358048Y386952D02*
X408804Y386952D01*
X458452Y436600D01*
X358048Y386952D02*
X354840Y390160D01*
X303276Y397764D02*
X303276Y400812D01*
X301880Y401290D01*
X322788Y378252D02*
X450904Y378252D01*
X509252Y436600D01*
X322788Y378252D02*
X303276Y397764D01*
D34*
X308390Y470870D02*
X316640Y470870D01*
X316730Y470780D01*
X308390Y470870D02*
X308390Y495220D01*
X305530Y498080D01*
X356330Y498080D02*
X367540Y486870D01*
X367540Y457940D01*
X302390Y457680D02*
X302390Y470870D01*
X302390Y457680D02*
X301880Y457170D01*
D11*
X367540Y402060D02*
X368808Y400812D01*
X367540Y392460D02*
X370000Y390000D01*
X367540Y392460D02*
X367540Y402060D01*
X448626Y440670D02*
X454382Y446426D01*
X448626Y440670D02*
X448626Y437270D01*
X401356Y390000D01*
X370000Y390000D01*
X474026Y446426D02*
X483852Y436600D01*
X474026Y446426D02*
X454382Y446426D01*
X653800Y150000D02*
X679200Y150000D01*
X680000Y150000D01*
X704600Y150000D01*
X730000Y150000D01*
D37*
X680000Y150000D02*
X653800Y150000D01*
X680000Y150000D02*
X730000Y150000D01*
D34*
X289180Y457156D02*
X289180Y457170D01*
D36*
X731510Y98490D02*
X783730Y98490D01*
X731510Y98490D02*
X680000Y150000D01*
X763252Y183252D02*
X763252Y233400D01*
X763252Y183252D02*
X730000Y150000D01*
X653800Y150000D01*
X760860Y180860D02*
X783950Y180860D01*
X760860Y180860D02*
X730000Y150000D01*
D34*
X341580Y458500D02*
X341580Y472400D01*
X341580Y458500D02*
X342140Y457940D01*
X259510Y427500D02*
X254524Y427500D01*
X254524Y422514D02*
X254524Y422500D01*
X254524Y422514D02*
X259510Y427500D01*
X265000Y432990D01*
X265000Y450000D01*
X272170Y457170D01*
X289180Y457170D01*
D11*
X289180Y423672D01*
X289180Y419850D01*
X274900Y405570D01*
X237744Y370332D02*
X237744Y367284D01*
X240792Y364236D01*
X260604Y364236D01*
X260604Y365000D02*
X260604Y385572D01*
X260604Y365000D02*
X260604Y364236D01*
X260604Y385572D02*
X259080Y387096D01*
X256032Y387096D01*
X237744Y370332D02*
X237500Y370476D01*
X254524Y387500D02*
X256032Y387096D01*
X342900Y457200D02*
X348996Y451104D01*
X348996Y449580D01*
X352044Y446532D01*
X361188Y446532D01*
X342900Y457200D02*
X342140Y457940D01*
X289560Y423672D02*
X289180Y423672D01*
D39*
X361188Y446532D03*
X289560Y423672D03*
D34*
X260604Y365000D02*
X270302Y355302D01*
X390000Y235604D01*
X390000Y210000D01*
X425000Y175000D01*
X628800Y175000D02*
X653800Y150000D01*
X628800Y175000D02*
X425000Y175000D01*
D11*
X270000Y355000D02*
X270302Y355302D01*
D39*
X300000Y385000D03*
D34*
X270302Y355302D01*
X676464Y440986D02*
X676656Y441178D01*
X676656Y478536D01*
X676464Y440986D02*
X676464Y320188D01*
X763252Y233400D01*
D11*
X676656Y478536D02*
X676250Y480000D01*
D34*
X676460Y479790D02*
X677200Y479790D01*
X676460Y479790D02*
X676250Y480000D01*
D35*
X162000Y319580D02*
X162000Y310000D01*
D36*
X106110Y208692D02*
X105430Y208012D01*
X105430Y152420D01*
D34*
X227500Y358229D02*
X227500Y370476D01*
D36*
X218461Y152420D02*
X105430Y152420D01*
D37*
X323600Y150000D02*
X349000Y150000D01*
D36*
X329559Y150000D01*
X307385Y172174D01*
X238215Y172174D01*
X218461Y152420D01*
D37*
X156858Y324722D02*
X107300Y324722D01*
D34*
X226144Y286489D02*
X237490Y297835D01*
X226144Y286489D02*
X215000Y286489D01*
X237490Y348239D02*
X227500Y358229D01*
X237490Y348239D02*
X237490Y297835D01*
D37*
X214030Y286489D02*
X213014Y287505D01*
X194075Y287505D01*
X166876Y314704D02*
X156858Y324722D01*
X166876Y314704D02*
X194075Y287505D01*
X191527Y286489D02*
X214030Y286489D01*
X215000Y286489D01*
D36*
X178573Y281155D02*
X106110Y208692D01*
X178573Y281155D02*
X214884Y281155D01*
X225000Y281155D01*
D11*
X163068Y310896D02*
X162000Y310000D01*
X163068Y310896D02*
X166876Y314704D01*
X214030Y286489D02*
X214884Y286512D01*
X214884Y281155D01*
D34*
X354840Y474170D02*
X330930Y498080D01*
X354840Y474170D02*
X354840Y457940D01*
D11*
X257500Y407500D02*
X254524Y407500D01*
X268680Y396320D02*
X272590Y396320D01*
X268680Y396320D02*
X259430Y405570D01*
X270460Y405570D01*
X259430Y405570D02*
X257500Y407500D01*
D34*
X212611Y344551D02*
X214030Y343131D01*
X212390Y351491D02*
X212500Y351601D01*
X212390Y351491D02*
X210450Y349551D01*
X212500Y439524D02*
X212500Y442500D01*
X215000Y445000D01*
X217500Y442500D01*
X217500Y439524D01*
D35*
X165981Y509796D02*
X95668Y509796D01*
X72380Y486508D01*
X72380Y379464D02*
X104221Y347623D01*
X209538Y347623D02*
X214030Y343131D01*
X72380Y379464D02*
X72380Y486508D01*
X104221Y347623D02*
X209538Y347623D01*
D34*
X212500Y367500D02*
X212500Y370476D01*
X212500Y367500D02*
X215000Y365000D01*
X217500Y367500D01*
X217500Y370476D01*
D35*
X215000Y365000D02*
X215000Y350520D01*
X215000Y344101D01*
X214030Y343131D01*
X215000Y445000D02*
X215000Y460776D01*
X165981Y509796D01*
D11*
X212390Y351491D02*
X213360Y350520D01*
X215000Y350520D01*
X254524Y412500D02*
X263910Y412500D01*
X271780Y420370D01*
D39*
X271780Y420370D03*
D11*
X256538Y417500D02*
X254524Y417500D01*
X257500Y417500D01*
X276860Y436860D02*
X276860Y436880D01*
D39*
X276860Y436880D03*
D11*
X276860Y436860D02*
X257500Y417500D01*
D34*
X185476Y412500D02*
X177500Y412500D01*
X175000Y415000D01*
X177500Y417500D02*
X185476Y417500D01*
X177500Y417500D02*
X175000Y415000D01*
X177500Y397500D02*
X185476Y397500D01*
X177500Y397500D02*
X175000Y395000D01*
D39*
X175000Y395000D03*
D34*
X177500Y392500D02*
X185476Y392500D01*
X177500Y392500D02*
X175000Y395000D01*
D35*
X175000Y415000D02*
X135272Y415000D01*
X104710Y445562D01*
X104710Y495600D02*
X164400Y495600D01*
X200000Y460000D01*
X200000Y445000D01*
D34*
X197500Y442500D01*
D11*
X197500Y439524D01*
D34*
X202500Y442500D02*
X200000Y445000D01*
D11*
X202500Y442500D02*
X202500Y439524D01*
D34*
X202500Y370476D02*
X202500Y365476D01*
X197500Y360476D01*
D35*
X193294Y356270D01*
X107540Y356270D01*
D34*
X197500Y360476D02*
X197500Y370476D01*
D35*
X107540Y356270D02*
X80000Y383810D01*
X80000Y470890D02*
X104710Y495600D01*
X80000Y470890D02*
X80000Y383810D01*
D11*
X483852Y233400D02*
X483750Y232500D01*
X466250Y497500D02*
X475000Y506250D01*
X507500Y506250D01*
X523750Y490000D01*
X523750Y363750D01*
X458750Y298750D01*
X458750Y233750D01*
X465710Y497490D02*
X466250Y497500D01*
X458750Y233750D02*
X458452Y233400D01*
X453750Y497500D02*
X466250Y510000D01*
X512500Y510000D01*
X585000Y437500D01*
X453750Y497500D02*
X453010Y497490D01*
X585000Y437500D02*
X585452Y436600D01*
M02*
