G04 EAGLE Gerber RS-274X export*
G75*
%MOMM*%
%FSLAX34Y34*%
%LPD*%
%INTop Copper*%
%IPPOS*%
%AMOC8*
5,1,8,0,0,1.08239X$1,22.5*%
G01*
%ADD10C,1.524000*%
%ADD11P,1.649562X8X22.500000*%
%ADD12P,1.649562X8X202.500000*%
%ADD13C,1.524000*%
%ADD14R,1.508000X1.508000*%
%ADD15C,1.508000*%
%ADD16R,0.199200X0.704800*%
%ADD17R,0.704800X0.199200*%
%ADD18R,5.500000X5.500000*%
%ADD19C,1.590000*%
%ADD20R,1.590000X1.590000*%
%ADD21C,1.790700*%
%ADD22R,0.558800X0.711200*%
%ADD23R,0.600000X0.700000*%
%ADD24R,0.250000X0.300000*%
%ADD25R,0.500000X0.300000*%
%ADD26C,1.219200*%
%ADD27R,3.454400X1.397000*%
%ADD28C,0.286200*%
%ADD29R,1.371600X1.371600*%
%ADD30C,1.371600*%
%ADD31R,0.290000X0.300000*%
%ADD32R,0.660400X2.032000*%
%ADD33C,0.152400*%
%ADD34C,0.304800*%
%ADD35C,0.609600*%
%ADD36C,1.270000*%
%ADD37C,2.540000*%
%ADD38C,0.756400*%
%ADD39C,0.406400*%


D10*
X579800Y480200D03*
D11*
X605200Y480200D03*
X630600Y480200D03*
X579800Y505600D03*
X605200Y505600D03*
X630600Y505600D03*
D12*
X753400Y505190D03*
X728000Y505190D03*
X702600Y505190D03*
X677200Y505190D03*
X753400Y479790D03*
X728000Y479790D03*
X702600Y479790D03*
X677200Y479790D03*
D13*
X305530Y490460D02*
X305530Y505700D01*
X330930Y505700D02*
X330930Y490460D01*
X356330Y490460D02*
X356330Y505700D01*
X381730Y505700D02*
X381730Y490460D01*
D14*
X788652Y436600D03*
D15*
X763252Y436600D03*
X737852Y436600D03*
X712452Y436600D03*
X687052Y436600D03*
X661652Y436600D03*
X636252Y436600D03*
X610852Y436600D03*
X585452Y436600D03*
X560052Y436600D03*
X534652Y436600D03*
X509252Y436600D03*
X483852Y436600D03*
X458452Y436600D03*
X458452Y233400D03*
X483852Y233400D03*
X509252Y233400D03*
X534652Y233400D03*
X560052Y233400D03*
X585452Y233400D03*
X610852Y233400D03*
X636252Y233400D03*
X661652Y233400D03*
X687052Y233400D03*
X712452Y233400D03*
X737852Y233400D03*
X763252Y233400D03*
X788652Y233400D03*
D16*
X247500Y439524D03*
X242500Y439524D03*
X237500Y439524D03*
X232500Y439524D03*
X227500Y439524D03*
X222500Y439524D03*
X217500Y439524D03*
X212500Y439524D03*
X207500Y439524D03*
X202500Y439524D03*
X197500Y439524D03*
X192500Y439524D03*
D17*
X185476Y432500D03*
X185476Y427500D03*
X185476Y422500D03*
X185476Y417500D03*
X185476Y412500D03*
X185476Y407500D03*
X185476Y402500D03*
X185476Y397500D03*
X185476Y392500D03*
X185476Y387500D03*
X185476Y382500D03*
X185476Y377500D03*
D16*
X192500Y370476D03*
X197500Y370476D03*
X202500Y370476D03*
X207500Y370476D03*
X212500Y370476D03*
X217500Y370476D03*
X222500Y370476D03*
X227500Y370476D03*
X232500Y370476D03*
X237500Y370476D03*
X242500Y370476D03*
X247500Y370476D03*
D17*
X254524Y377500D03*
X254524Y382500D03*
X254524Y387500D03*
X254524Y392500D03*
X254524Y397500D03*
X254524Y402500D03*
X254524Y407500D03*
X254524Y412500D03*
X254524Y417500D03*
X254524Y422500D03*
X254524Y427500D03*
X254524Y432500D03*
D18*
X220000Y405000D03*
D19*
X262400Y150000D03*
X287800Y150000D03*
X313200Y150000D03*
X338600Y150000D03*
X364000Y150000D03*
X389400Y150000D03*
X414800Y150000D03*
X643400Y150000D03*
X618000Y150000D03*
X668800Y150000D03*
X694200Y150000D03*
X719600Y150000D03*
D20*
X745000Y150000D03*
D21*
X106110Y258730D03*
X106110Y208692D03*
X105430Y152420D03*
X105430Y102382D03*
X104710Y495600D03*
X104710Y445562D03*
D22*
X162000Y299586D03*
X162000Y310000D03*
D23*
X277680Y408110D03*
X267680Y408110D03*
D24*
X302430Y473310D03*
X308430Y473310D03*
D25*
X316770Y473220D03*
X324770Y473220D03*
D26*
X503810Y497490D03*
X503810Y484790D03*
X491110Y497490D03*
X491110Y484790D03*
X478410Y497490D03*
X478410Y484790D03*
X465710Y497490D03*
X465710Y484790D03*
X453010Y497490D03*
X453010Y484790D03*
D27*
X214030Y286489D03*
X214030Y343131D03*
D28*
X348301Y374191D02*
X348301Y377329D01*
X350839Y377329D01*
X350839Y374191D01*
X348301Y374191D01*
X348301Y376910D02*
X350839Y376910D01*
X339701Y377329D02*
X339701Y374191D01*
X339701Y377329D02*
X342239Y377329D01*
X342239Y374191D01*
X339701Y374191D01*
X339701Y376910D02*
X342239Y376910D01*
X334289Y473271D02*
X334289Y476409D01*
X334289Y473271D02*
X331751Y473271D01*
X331751Y476409D01*
X334289Y476409D01*
X334289Y475990D02*
X331751Y475990D01*
X342889Y476409D02*
X342889Y473271D01*
X340351Y473271D01*
X340351Y476409D01*
X342889Y476409D01*
X342889Y475990D02*
X340351Y475990D01*
D13*
X776330Y155460D02*
X791570Y155460D01*
X791570Y180860D02*
X776330Y180860D01*
X776110Y123890D02*
X791350Y123890D01*
X791350Y98490D02*
X776110Y98490D01*
D29*
X107300Y379840D03*
D30*
X107300Y324722D03*
D31*
X272590Y396320D03*
X277030Y396320D03*
D32*
X295950Y394266D03*
X295950Y455734D03*
X308650Y394266D03*
X321350Y394266D03*
X308650Y455734D03*
X321350Y455734D03*
X334050Y394266D03*
X334050Y455734D03*
X355950Y394266D03*
X355950Y455734D03*
X368650Y394266D03*
X381350Y394266D03*
X368650Y455734D03*
X381350Y455734D03*
X394050Y394266D03*
X394050Y455734D03*
D33*
X534652Y359652D02*
X534652Y233400D01*
X600000Y471391D02*
X595294Y476097D01*
X595294Y490106D02*
X579800Y505600D01*
X595294Y490106D02*
X595294Y476097D01*
X600000Y425000D02*
X534652Y359652D01*
X600000Y425000D02*
X600000Y471391D01*
X561250Y233750D02*
X560052Y233400D01*
X623202Y462198D02*
X605200Y480200D01*
X623202Y428763D02*
X583202Y388763D01*
X583202Y256550D02*
X560052Y233400D01*
X583202Y256550D02*
X583202Y388763D01*
X623202Y428763D02*
X623202Y462198D01*
X595278Y464722D02*
X579800Y480200D01*
X509252Y339252D02*
X509252Y233400D01*
X595278Y425278D02*
X595278Y464722D01*
X595278Y425278D02*
X509252Y339252D01*
X200000Y410000D02*
X198276Y408276D01*
X197500Y407500D01*
X200000Y405000D02*
X197500Y402500D01*
D34*
X197500Y422500D02*
X185476Y422500D01*
D33*
X197500Y422500D02*
X200000Y420000D01*
X227500Y425000D02*
X227500Y412500D01*
X225254Y410254D01*
X225000Y410000D01*
X220000Y392500D02*
X240000Y392500D01*
X220000Y392500D02*
X217500Y392500D01*
X215000Y395000D01*
D34*
X215000Y387500D02*
X185476Y387500D01*
D33*
X215000Y387500D02*
X220000Y392500D01*
X185476Y407500D02*
X182500Y407500D01*
X182500Y402500D02*
X185476Y402500D01*
D35*
X152188Y405000D02*
X133594Y386406D01*
X198120Y405000D02*
X200000Y405000D01*
X198120Y405000D02*
X190000Y405000D01*
X185928Y405000D01*
X152188Y405000D01*
D34*
X134688Y387500D02*
X185476Y387500D01*
X134688Y387500D02*
X133594Y386406D01*
D35*
X162000Y299586D02*
X121144Y258730D01*
X106110Y258730D01*
D34*
X247500Y377500D02*
X254524Y377500D01*
X247500Y377500D02*
X240110Y384890D01*
X240000Y385000D01*
X227500Y425000D02*
X227500Y439524D01*
X245000Y397500D02*
X254524Y397500D01*
X245000Y397500D02*
X240000Y392500D01*
X240792Y392500D01*
D35*
X133594Y386406D02*
X127028Y379840D01*
X107300Y379840D01*
D36*
X389400Y150000D02*
X389400Y139600D01*
D34*
X109681Y457564D02*
X99739Y457564D01*
X92709Y450533D01*
X92709Y440591D01*
X107300Y425999D01*
X109681Y457564D02*
X144745Y422500D01*
X185476Y422500D01*
X107300Y425999D02*
X107300Y379840D01*
X254524Y397500D02*
X257112Y397500D01*
D33*
X198120Y406908D02*
X198120Y408432D01*
X198276Y408276D01*
X225298Y409702D02*
X225552Y409956D01*
X225254Y410254D01*
X185928Y402336D02*
X185476Y402500D01*
X185928Y402336D02*
X185928Y405000D01*
X185928Y406908D02*
X185476Y407500D01*
X185928Y406908D02*
X185928Y405000D01*
X240792Y392500D02*
X240792Y385572D01*
X240110Y384890D01*
X616980Y150876D02*
X618000Y150000D01*
X426480Y150876D02*
X414800Y150000D01*
X220000Y405000D02*
X198120Y406908D01*
X198120Y405000D01*
X228600Y440436D02*
X228600Y443484D01*
X228600Y440436D02*
X227500Y439524D01*
D34*
X414800Y150000D02*
X618000Y150000D01*
D37*
X414800Y150000D02*
X401150Y136350D01*
X367182Y102382D01*
X105430Y102382D01*
D33*
X325000Y473750D02*
X332500Y473750D01*
X325000Y473750D02*
X324770Y473220D01*
X332500Y473750D02*
X333020Y474840D01*
X333750Y473750D02*
X333750Y456250D01*
X333750Y473750D02*
X333020Y474840D01*
X333750Y456250D02*
X334050Y455734D01*
X333020Y474840D02*
X333750Y475000D01*
X334050Y394266D02*
X333750Y393750D01*
X393750Y395000D02*
X394050Y394266D01*
X393750Y455000D02*
X394050Y455734D01*
X335000Y395000D02*
X334050Y394266D01*
X394050Y455734D02*
X393750Y456250D01*
X255000Y396250D02*
X255000Y392500D01*
X254524Y392500D01*
X255000Y396250D02*
X254524Y397500D01*
D34*
X220596Y405000D02*
X220000Y405000D01*
X220596Y405000D02*
X225298Y409702D01*
D33*
X277030Y397030D02*
X277030Y396320D01*
X254524Y397500D02*
X197500Y397500D01*
X190000Y405000D01*
X323750Y473750D02*
X323750Y478750D01*
X318750Y483750D01*
X323750Y473750D02*
X324770Y473220D01*
D38*
X318750Y483750D03*
D33*
X334050Y394266D02*
X334050Y381820D01*
X304401Y381820D01*
X303062Y383159D01*
X303062Y406938D01*
X394050Y405950D02*
X394050Y394266D01*
X394050Y405950D02*
X385000Y415000D01*
X340110Y375760D02*
X334050Y381820D01*
X340110Y375760D02*
X340970Y375760D01*
D34*
X393750Y486060D02*
X381730Y498080D01*
X393750Y486060D02*
X393750Y456250D01*
X395020Y484790D02*
X393750Y486060D01*
X395020Y484790D02*
X453010Y484790D01*
D39*
X630600Y505600D02*
X650000Y505600D01*
X676790Y505600D01*
X677200Y505190D01*
X650000Y295852D02*
X712452Y233400D01*
X650000Y295852D02*
X650000Y505600D01*
D33*
X280760Y400050D02*
X277030Y396320D01*
X280760Y400050D02*
X285750Y400050D01*
D38*
X285750Y400050D03*
D34*
X285750Y405750D01*
D33*
X295000Y415000D02*
X303062Y406938D01*
D34*
X295000Y415000D02*
X285750Y405750D01*
D33*
X295000Y415000D02*
X385000Y415000D01*
X389400Y150000D02*
X392500Y145000D01*
X401150Y136350D01*
X355000Y393750D02*
X355950Y394266D01*
X270000Y392500D02*
X260000Y402500D01*
X270000Y392500D02*
X293750Y392500D01*
X295000Y393750D01*
X260000Y402500D02*
X254524Y402500D01*
X295000Y393750D02*
X295524Y394035D01*
X295950Y394266D01*
D38*
X310000Y366250D03*
D33*
X349570Y375760D02*
X355950Y382140D01*
X355950Y394266D01*
X349570Y375760D02*
X340060Y366250D01*
X310000Y366250D01*
X295524Y380726D01*
X295524Y394035D01*
X606250Y498750D02*
X606250Y505000D01*
X605200Y505600D01*
X586250Y387500D02*
X586250Y233750D01*
X586250Y387500D02*
X626250Y427500D01*
X626250Y470000D01*
X616250Y480000D01*
X616250Y488750D01*
X606250Y498750D01*
X586250Y233750D02*
X585452Y233400D01*
X606250Y498750D02*
X605200Y505600D01*
X713232Y437388D02*
X754380Y478536D01*
X713232Y437388D02*
X712452Y436600D01*
X754380Y478536D02*
X753400Y479790D01*
X687324Y449580D02*
X687324Y437388D01*
X687324Y449580D02*
X717804Y480060D01*
X717804Y495300D01*
X726948Y504444D01*
X687324Y437388D02*
X687052Y436600D01*
X726948Y504444D02*
X728000Y505190D01*
X368750Y393750D02*
X368750Y390000D01*
X381250Y377500D01*
X410000Y377500D01*
X368750Y393750D02*
X368650Y394266D01*
X410000Y377500D02*
X458452Y425952D01*
X458452Y436600D01*
X308750Y398750D02*
X308750Y395000D01*
X308650Y394266D01*
X497748Y436600D02*
X509252Y436600D01*
X371769Y374452D02*
X363062Y383159D01*
X371769Y374452D02*
X435600Y374452D01*
X497748Y436600D01*
X363062Y403849D02*
X363062Y383159D01*
X308650Y394266D02*
X308650Y408650D01*
X310000Y410000D01*
X356911Y410000D01*
X363062Y403849D01*
X316250Y473750D02*
X308750Y473750D01*
X308430Y473310D01*
X316250Y473750D02*
X316770Y473220D01*
X307500Y473750D02*
X307500Y496250D01*
X306250Y497500D01*
X307500Y473750D02*
X308430Y473310D01*
X306250Y497500D02*
X305530Y498080D01*
X381250Y456250D02*
X381350Y455734D01*
X381350Y473650D01*
X356920Y498080D02*
X356330Y498080D01*
X356920Y498080D02*
X381350Y473650D01*
X302500Y472500D02*
X302500Y461250D01*
X307500Y456250D01*
X302500Y472500D02*
X302430Y473310D01*
X307500Y456250D02*
X308650Y455734D01*
X382500Y393750D02*
X382500Y388750D01*
X390000Y381250D01*
X408750Y381250D01*
X447500Y420000D01*
X447500Y440000D01*
X455000Y447500D01*
X473750Y447500D01*
X483750Y437500D01*
X382500Y393750D02*
X381350Y394266D01*
X483852Y436600D02*
X483750Y437500D01*
X694200Y150000D02*
X694200Y135800D01*
X694200Y150000D02*
X719600Y150000D01*
X720000Y150000D01*
D37*
X694200Y150000D02*
X668800Y150000D01*
X694200Y150000D02*
X720000Y150000D01*
X745000Y150000D01*
D34*
X259510Y427500D02*
X254524Y427500D01*
X254524Y422514D02*
X254524Y422500D01*
X254524Y422514D02*
X259510Y427500D01*
D33*
X237744Y370332D02*
X237744Y367284D01*
X240792Y364236D01*
X260604Y364236D01*
X260604Y365000D02*
X260604Y385572D01*
X260604Y365000D02*
X260604Y364236D01*
X260604Y385572D02*
X259080Y387096D01*
X256032Y387096D01*
X237744Y370332D02*
X237500Y370476D01*
X254524Y387500D02*
X256032Y387096D01*
D34*
X260604Y365000D02*
X270302Y355302D01*
X390000Y235604D01*
X390000Y210000D01*
X425000Y175000D01*
X643800Y175000D02*
X668800Y150000D01*
X643800Y175000D02*
X425000Y175000D01*
D33*
X270000Y355000D02*
X270302Y355302D01*
D34*
X676464Y320188D02*
X676464Y440986D01*
X676464Y320188D02*
X763252Y233400D01*
D37*
X750860Y180860D02*
X783950Y180860D01*
X750860Y180860D02*
X720000Y150000D01*
D36*
X763252Y193252D02*
X763252Y233400D01*
X763252Y193252D02*
X750860Y180860D01*
D37*
X745710Y98490D02*
X783730Y98490D01*
X745710Y98490D02*
X694200Y150000D01*
D33*
X355000Y456250D02*
X353750Y457500D01*
X342500Y473750D02*
X341620Y474840D01*
X355000Y456250D02*
X355950Y455734D01*
X295950Y455734D02*
X295000Y455000D01*
X353750Y457500D02*
X355950Y455734D01*
X278750Y408750D02*
X277680Y408110D01*
X295950Y449050D02*
X295950Y455734D01*
X355000Y456684D02*
X355950Y455734D01*
X355000Y456684D02*
X355000Y469699D01*
X350949Y473750D02*
X342500Y473750D01*
X350949Y473750D02*
X355000Y469699D01*
X355950Y455734D02*
X358062Y453622D01*
X358062Y449627D01*
D34*
X676464Y440986D02*
X677200Y441722D01*
X677200Y479790D01*
X522380Y466386D02*
X504383Y484383D01*
X503976Y484790D01*
X503810Y484790D01*
X522380Y466386D02*
X522380Y377768D01*
X390000Y245388D02*
X390000Y235604D01*
X390000Y245388D02*
X522380Y377768D01*
X272467Y441534D02*
X268466Y437533D01*
X268466Y436456D02*
X259510Y427500D01*
X268466Y436456D02*
X268466Y437533D01*
X272467Y441534D02*
X300000Y441534D01*
X408000Y414566D02*
X427000Y414566D01*
X443690Y441578D02*
X453422Y451310D01*
X471310Y451310D02*
X504383Y484383D01*
X471310Y451310D02*
X453422Y451310D01*
X408000Y414566D02*
X381032Y441534D01*
X427000Y414566D02*
X443690Y431256D01*
X443690Y441578D01*
X355000Y441534D02*
X300000Y441534D01*
X355000Y441534D02*
X381032Y441534D01*
D33*
X355950Y442484D02*
X355950Y455734D01*
X355950Y442484D02*
X355000Y441534D01*
X300000Y430430D02*
X277680Y408110D01*
X300000Y430430D02*
X300000Y441534D01*
X295950Y445584D02*
X295950Y455734D01*
X295950Y445584D02*
X300000Y441534D01*
D35*
X162000Y319580D02*
X162000Y310000D01*
D37*
X106110Y208692D02*
X105430Y208012D01*
X105430Y152420D01*
D34*
X227500Y358229D02*
X227500Y370476D01*
D37*
X218461Y152420D02*
X105430Y152420D01*
D36*
X338600Y150000D02*
X364000Y150000D01*
D37*
X344559Y150000D01*
X317385Y177174D01*
X243215Y177174D01*
X218461Y152420D01*
D36*
X156858Y324722D02*
X107300Y324722D01*
D34*
X226144Y286489D02*
X237490Y297835D01*
X226144Y286489D02*
X215000Y286489D01*
X237490Y348239D02*
X227500Y358229D01*
X237490Y348239D02*
X237490Y297835D01*
D36*
X214030Y286489D02*
X213014Y287505D01*
X194075Y287505D01*
X166876Y314704D02*
X156858Y324722D01*
X166876Y314704D02*
X194075Y287505D01*
X191527Y286489D02*
X214030Y286489D01*
X215000Y286489D01*
D37*
X178573Y281155D02*
X106110Y208692D01*
X178573Y281155D02*
X214884Y281155D01*
X225000Y281155D01*
D33*
X163068Y310896D02*
X162000Y310000D01*
X163068Y310896D02*
X166876Y314704D01*
X214030Y286489D02*
X214884Y286512D01*
X214884Y281155D01*
X367500Y456250D02*
X368650Y455734D01*
X368650Y460360D01*
X330930Y498080D01*
X267500Y407500D02*
X254524Y407500D01*
X267500Y407500D02*
X267680Y408110D01*
X267680Y401230D01*
X272590Y396320D01*
D34*
X214030Y343131D02*
X212611Y344551D01*
X212390Y351491D02*
X212500Y351601D01*
X212390Y351491D02*
X210450Y349551D01*
X212500Y439524D02*
X212500Y442500D01*
X215000Y445000D01*
X217500Y442500D01*
X217500Y439524D01*
D35*
X165981Y509796D02*
X95668Y509796D01*
X72380Y486508D01*
X72380Y379464D02*
X104221Y347623D01*
X209538Y347623D02*
X214030Y343131D01*
X72380Y379464D02*
X72380Y486508D01*
X104221Y347623D02*
X209538Y347623D01*
D34*
X212500Y367500D02*
X212500Y370476D01*
X212500Y367500D02*
X215000Y365000D01*
X217500Y367500D01*
X217500Y370476D01*
D35*
X215000Y365000D02*
X215000Y350520D01*
X215000Y344101D01*
X214030Y343131D01*
X215000Y445000D02*
X215000Y460776D01*
X165981Y509796D01*
D33*
X212390Y351491D02*
X213360Y350520D01*
X215000Y350520D01*
X262337Y412500D02*
X269837Y420000D01*
X262337Y412500D02*
X254524Y412500D01*
D38*
X269837Y420000D03*
D33*
X256538Y417500D02*
X254524Y417500D01*
X560000Y436250D02*
X560052Y436600D01*
X257500Y417500D02*
X254524Y417500D01*
X257500Y417500D02*
X275000Y435000D01*
X275296Y434704D01*
D38*
X275296Y434704D03*
D34*
X185476Y412500D02*
X177500Y412500D01*
X175000Y415000D01*
X177500Y417500D02*
X185476Y417500D01*
X177500Y417500D02*
X175000Y415000D01*
X177500Y397500D02*
X185476Y397500D01*
X177500Y397500D02*
X175000Y395000D01*
D38*
X175000Y395000D03*
D34*
X177500Y392500D02*
X185476Y392500D01*
X177500Y392500D02*
X175000Y395000D01*
D35*
X175000Y415000D02*
X135272Y415000D01*
X104710Y445562D01*
X104710Y495600D02*
X164400Y495600D01*
X200000Y460000D01*
X200000Y445000D01*
D34*
X197500Y442500D01*
D33*
X197500Y439524D01*
D34*
X202500Y442500D02*
X200000Y445000D01*
D33*
X202500Y442500D02*
X202500Y439524D01*
D34*
X202500Y370476D02*
X202500Y365476D01*
X197500Y360476D01*
D35*
X193294Y356270D01*
X107540Y356270D01*
D34*
X197500Y360476D02*
X197500Y370476D01*
D35*
X107540Y356270D02*
X80000Y383810D01*
X80000Y470890D02*
X104710Y495600D01*
X80000Y470890D02*
X80000Y383810D01*
D33*
X478410Y497490D02*
X479256Y497490D01*
X487638Y505872D01*
X510507Y505872D01*
X546952Y469427D01*
X483852Y233400D02*
X470452Y220000D01*
X455000Y220000D01*
X445000Y230000D01*
X546952Y391952D02*
X546952Y469427D01*
X445000Y290000D02*
X445000Y230000D01*
X445000Y290000D02*
X546952Y391952D01*
X458750Y298750D02*
X458750Y233750D01*
X458452Y233400D01*
X458750Y298750D02*
X550000Y390000D01*
X550000Y470689D01*
X477980Y509760D02*
X465710Y497490D01*
X510929Y509760D02*
X550000Y470689D01*
X510929Y509760D02*
X477980Y509760D01*
X585452Y439548D02*
X585452Y436600D01*
X469058Y512808D02*
X453750Y497500D01*
X512192Y512808D02*
X585452Y439548D01*
X512192Y512808D02*
X469058Y512808D01*
X453750Y497500D02*
X453010Y497490D01*
M02*
