G04 EAGLE Gerber RS-274X export*
G75*
%MOMM*%
%FSLAX34Y34*%
%LPD*%
%INBottom Copper*%
%IPPOS*%
%AMOC8*
5,1,8,0,0,1.08239X$1,22.5*%
G01*
%ADD10C,1.524000*%
%ADD11P,1.649562X8X22.500000*%
%ADD12P,1.649562X8X202.500000*%
%ADD13C,1.524000*%
%ADD14R,1.508000X1.508000*%
%ADD15C,1.508000*%
%ADD16C,1.590000*%
%ADD17R,1.590000X1.590000*%
%ADD18C,1.790700*%
%ADD19C,1.219200*%
%ADD20R,1.371600X1.371600*%
%ADD21C,1.371600*%
%ADD22C,2.540000*%
%ADD23C,0.152400*%
%ADD24C,0.304800*%
%ADD25C,0.756400*%
%ADD26C,0.406400*%
%ADD27C,0.609600*%


D10*
X579800Y480200D03*
D11*
X605200Y480200D03*
X630600Y480200D03*
X579800Y505600D03*
X605200Y505600D03*
X630600Y505600D03*
D12*
X753400Y505190D03*
X728000Y505190D03*
X702600Y505190D03*
X677200Y505190D03*
X753400Y479790D03*
X728000Y479790D03*
X702600Y479790D03*
X677200Y479790D03*
D13*
X305530Y490460D02*
X305530Y505700D01*
X330930Y505700D02*
X330930Y490460D01*
X356330Y490460D02*
X356330Y505700D01*
X381730Y505700D02*
X381730Y490460D01*
D14*
X788652Y436600D03*
D15*
X763252Y436600D03*
X737852Y436600D03*
X712452Y436600D03*
X687052Y436600D03*
X661652Y436600D03*
X636252Y436600D03*
X610852Y436600D03*
X585452Y436600D03*
X560052Y436600D03*
X534652Y436600D03*
X509252Y436600D03*
X483852Y436600D03*
X458452Y436600D03*
X458452Y233400D03*
X483852Y233400D03*
X509252Y233400D03*
X534652Y233400D03*
X560052Y233400D03*
X585452Y233400D03*
X610852Y233400D03*
X636252Y233400D03*
X661652Y233400D03*
X687052Y233400D03*
X712452Y233400D03*
X737852Y233400D03*
X763252Y233400D03*
X788652Y233400D03*
D16*
X262400Y150000D03*
X287800Y150000D03*
X313200Y150000D03*
X338600Y150000D03*
X364000Y150000D03*
X389400Y150000D03*
X414800Y150000D03*
X643400Y150000D03*
X618000Y150000D03*
X668800Y150000D03*
X694200Y150000D03*
X719600Y150000D03*
D17*
X745000Y150000D03*
D18*
X106110Y258730D03*
X106110Y208692D03*
X105430Y152420D03*
X105430Y102382D03*
X104710Y495600D03*
X104710Y445562D03*
D19*
X503810Y497490D03*
X503810Y484790D03*
X491110Y497490D03*
X491110Y484790D03*
X478410Y497490D03*
X478410Y484790D03*
X465710Y497490D03*
X465710Y484790D03*
X453010Y497490D03*
X453010Y484790D03*
D13*
X776330Y155460D02*
X791570Y155460D01*
X791570Y180860D02*
X776330Y180860D01*
X776110Y123890D02*
X791350Y123890D01*
X791350Y98490D02*
X776110Y98490D01*
D20*
X107300Y379840D03*
D21*
X107300Y324722D03*
D22*
X75000Y132812D02*
X105430Y102382D01*
X618000Y150000D02*
X622441Y150000D01*
X756316Y127826D02*
X783950Y155460D01*
X756316Y127826D02*
X644615Y127826D01*
X622441Y150000D01*
X779794Y127826D02*
X783730Y123890D01*
X779794Y127826D02*
X756316Y127826D01*
X712452Y212452D02*
X712452Y233400D01*
X662441Y190000D02*
X622441Y150000D01*
X690000Y190000D02*
X712452Y212452D01*
X690000Y190000D02*
X662441Y190000D01*
X75000Y227620D02*
X75000Y132812D01*
X75000Y227620D02*
X106110Y258730D01*
X75000Y347540D02*
X107300Y379840D01*
X75000Y347540D02*
X75000Y227620D01*
D23*
X643400Y150000D02*
X646960Y153081D01*
X622441Y150000D01*
X390000Y150000D02*
X389400Y150000D01*
D24*
X173750Y385000D02*
X118750Y385000D01*
D23*
X107300Y379840D01*
X377959Y498080D02*
X381730Y498080D01*
X377959Y498080D02*
X360433Y480554D01*
X318750Y480554D02*
X269304Y480554D01*
X318750Y480554D02*
X360433Y480554D01*
D24*
X231875Y443125D02*
X173750Y385000D01*
D23*
X231875Y443125D02*
X269304Y480554D01*
X318750Y480554D02*
X318750Y483750D01*
D25*
X318750Y483750D03*
D26*
X456058Y480792D02*
X461712Y475138D01*
X523556Y432004D02*
X530056Y425504D01*
X564648Y425504D02*
X571148Y432004D01*
X456058Y481742D02*
X453010Y484790D01*
X456058Y481742D02*
X456058Y480792D01*
X616376Y491376D02*
X630600Y505600D01*
X616376Y491376D02*
X575171Y491376D01*
X571148Y458437D02*
X571148Y432004D01*
X571148Y458437D02*
X568624Y460961D01*
X568624Y484829D01*
X575171Y491376D01*
X486406Y475138D02*
X461712Y475138D01*
X486406Y475138D02*
X523556Y437988D01*
X523556Y432004D01*
X530056Y425504D02*
X564648Y425504D01*
D25*
X285750Y400050D03*
D24*
X274950Y400050D01*
X231875Y443125D01*
X737852Y345426D02*
X737852Y233400D01*
D23*
X589522Y223574D02*
X588574Y223574D01*
D24*
X646840Y436438D02*
X646840Y440986D01*
X630600Y457226D02*
X630600Y480200D01*
X630600Y457226D02*
X646840Y440986D01*
X646840Y436438D02*
X737852Y345426D01*
X576592Y209566D02*
X405434Y209566D01*
X310000Y305000D01*
X576592Y209566D02*
X590388Y223362D01*
X600264Y233238D01*
X600264Y237786D01*
X716252Y255000D02*
X737852Y233400D01*
X310000Y305000D02*
X310000Y366250D01*
D25*
X310000Y366250D03*
D24*
X600264Y237786D02*
X617478Y255000D01*
X716252Y255000D01*
D23*
X590000Y223750D02*
X589522Y223574D01*
X590000Y223750D02*
X590388Y223362D01*
X739140Y437388D02*
X739140Y490728D01*
X752856Y504444D01*
X739140Y437388D02*
X737852Y436600D01*
X752856Y504444D02*
X753400Y505190D01*
X673608Y437388D02*
X662940Y437388D01*
X673608Y437388D02*
X705612Y469392D01*
X717804Y469392D01*
X726948Y478536D01*
X662940Y437388D02*
X661652Y436600D01*
X726948Y478536D02*
X728000Y479790D01*
X534652Y483409D02*
X534652Y436600D01*
X534652Y483409D02*
X508301Y509760D01*
X419760Y509760D01*
X385000Y475000D01*
X384458Y474458D01*
X384048Y474458D02*
X384590Y475000D01*
X385000Y475000D01*
D25*
X269837Y420000D03*
D23*
X324295Y474458D01*
X384048Y474458D01*
X560000Y463750D02*
X560000Y437500D01*
X560052Y436600D01*
X560000Y463750D02*
X560052Y464019D01*
D25*
X275296Y434704D03*
D23*
X318098Y477506D01*
X382785Y477506D01*
X418087Y512808D01*
X537700Y486371D02*
X537700Y486050D01*
X560000Y463750D01*
X537700Y486371D02*
X511263Y512808D01*
X418087Y512808D01*
D25*
X175000Y395000D03*
D27*
X155272Y395000D02*
X104710Y445562D01*
X155272Y395000D02*
X175000Y395000D01*
D23*
X458724Y234696D02*
X458452Y233400D01*
M02*
