G04 EAGLE Gerber RS-274X export*
G75*
%MOMM*%
%FSLAX34Y34*%
%LPD*%
%INSilkscreen Bottom*%
%IPPOS*%
%AMOC8*
5,1,8,0,0,1.08239X$1,22.5*%
G01*
%ADD10C,0.508000*%


D10*
X106110Y306482D02*
X105988Y306480D01*
X105866Y306474D01*
X105744Y306464D01*
X105623Y306451D01*
X105502Y306433D01*
X105382Y306412D01*
X105262Y306386D01*
X105144Y306357D01*
X105026Y306325D01*
X104909Y306288D01*
X104794Y306248D01*
X104680Y306204D01*
X104568Y306156D01*
X104457Y306105D01*
X104348Y306050D01*
X104240Y305992D01*
X104135Y305930D01*
X104032Y305865D01*
X103930Y305797D01*
X103831Y305725D01*
X103735Y305651D01*
X103640Y305573D01*
X103549Y305492D01*
X103459Y305409D01*
X103373Y305323D01*
X103290Y305233D01*
X103209Y305142D01*
X103131Y305047D01*
X103057Y304951D01*
X102985Y304852D01*
X102917Y304750D01*
X102852Y304647D01*
X102790Y304542D01*
X102732Y304434D01*
X102677Y304325D01*
X102626Y304214D01*
X102578Y304102D01*
X102534Y303988D01*
X102494Y303873D01*
X102457Y303756D01*
X102425Y303638D01*
X102396Y303520D01*
X102370Y303400D01*
X102349Y303280D01*
X102331Y303159D01*
X102318Y303038D01*
X102308Y302916D01*
X102302Y302794D01*
X102300Y302672D01*
X102302Y302550D01*
X102308Y302428D01*
X102318Y302306D01*
X102331Y302185D01*
X102349Y302064D01*
X102370Y301944D01*
X102396Y301824D01*
X102425Y301706D01*
X102457Y301588D01*
X102494Y301471D01*
X102534Y301356D01*
X102578Y301242D01*
X102626Y301130D01*
X102677Y301019D01*
X102732Y300910D01*
X102790Y300802D01*
X102852Y300697D01*
X102917Y300594D01*
X102985Y300492D01*
X103057Y300393D01*
X103131Y300297D01*
X103209Y300202D01*
X103290Y300111D01*
X103373Y300021D01*
X103459Y299935D01*
X103549Y299852D01*
X103640Y299771D01*
X103735Y299693D01*
X103831Y299619D01*
X103930Y299547D01*
X104032Y299479D01*
X104135Y299414D01*
X104240Y299352D01*
X104348Y299294D01*
X104457Y299239D01*
X104568Y299188D01*
X104680Y299140D01*
X104794Y299096D01*
X104909Y299056D01*
X105026Y299019D01*
X105144Y298987D01*
X105262Y298958D01*
X105382Y298932D01*
X105502Y298911D01*
X105623Y298893D01*
X105744Y298880D01*
X105866Y298870D01*
X105988Y298864D01*
X106110Y298862D01*
X106232Y298864D01*
X106354Y298870D01*
X106476Y298880D01*
X106597Y298893D01*
X106718Y298911D01*
X106838Y298932D01*
X106958Y298958D01*
X107076Y298987D01*
X107194Y299019D01*
X107311Y299056D01*
X107426Y299096D01*
X107540Y299140D01*
X107652Y299188D01*
X107763Y299239D01*
X107872Y299294D01*
X107980Y299352D01*
X108085Y299414D01*
X108188Y299479D01*
X108290Y299547D01*
X108389Y299619D01*
X108485Y299693D01*
X108580Y299771D01*
X108671Y299852D01*
X108761Y299935D01*
X108847Y300021D01*
X108930Y300111D01*
X109011Y300202D01*
X109089Y300297D01*
X109163Y300393D01*
X109235Y300492D01*
X109303Y300594D01*
X109368Y300697D01*
X109430Y300802D01*
X109488Y300910D01*
X109543Y301019D01*
X109594Y301130D01*
X109642Y301242D01*
X109686Y301356D01*
X109726Y301471D01*
X109763Y301588D01*
X109795Y301706D01*
X109824Y301824D01*
X109850Y301944D01*
X109871Y302064D01*
X109889Y302185D01*
X109902Y302306D01*
X109912Y302428D01*
X109918Y302550D01*
X109920Y302672D01*
X109918Y302794D01*
X109912Y302916D01*
X109902Y303038D01*
X109889Y303159D01*
X109871Y303280D01*
X109850Y303400D01*
X109824Y303520D01*
X109795Y303638D01*
X109763Y303756D01*
X109726Y303873D01*
X109686Y303988D01*
X109642Y304102D01*
X109594Y304214D01*
X109543Y304325D01*
X109488Y304434D01*
X109430Y304542D01*
X109368Y304647D01*
X109303Y304750D01*
X109235Y304852D01*
X109163Y304951D01*
X109089Y305047D01*
X109011Y305142D01*
X108930Y305233D01*
X108847Y305323D01*
X108761Y305409D01*
X108671Y305492D01*
X108580Y305573D01*
X108485Y305651D01*
X108389Y305725D01*
X108290Y305797D01*
X108188Y305865D01*
X108085Y305930D01*
X107980Y305992D01*
X107872Y306050D01*
X107763Y306105D01*
X107652Y306156D01*
X107540Y306204D01*
X107426Y306248D01*
X107311Y306288D01*
X107194Y306325D01*
X107076Y306357D01*
X106958Y306386D01*
X106838Y306412D01*
X106718Y306433D01*
X106597Y306451D01*
X106476Y306464D01*
X106354Y306474D01*
X106232Y306480D01*
X106110Y306482D01*
X105430Y200172D02*
X105308Y200170D01*
X105186Y200164D01*
X105064Y200154D01*
X104943Y200141D01*
X104822Y200123D01*
X104702Y200102D01*
X104582Y200076D01*
X104464Y200047D01*
X104346Y200015D01*
X104229Y199978D01*
X104114Y199938D01*
X104000Y199894D01*
X103888Y199846D01*
X103777Y199795D01*
X103668Y199740D01*
X103560Y199682D01*
X103455Y199620D01*
X103352Y199555D01*
X103250Y199487D01*
X103151Y199415D01*
X103055Y199341D01*
X102960Y199263D01*
X102869Y199182D01*
X102779Y199099D01*
X102693Y199013D01*
X102610Y198923D01*
X102529Y198832D01*
X102451Y198737D01*
X102377Y198641D01*
X102305Y198542D01*
X102237Y198440D01*
X102172Y198337D01*
X102110Y198232D01*
X102052Y198124D01*
X101997Y198015D01*
X101946Y197904D01*
X101898Y197792D01*
X101854Y197678D01*
X101814Y197563D01*
X101777Y197446D01*
X101745Y197328D01*
X101716Y197210D01*
X101690Y197090D01*
X101669Y196970D01*
X101651Y196849D01*
X101638Y196728D01*
X101628Y196606D01*
X101622Y196484D01*
X101620Y196362D01*
X101622Y196240D01*
X101628Y196118D01*
X101638Y195996D01*
X101651Y195875D01*
X101669Y195754D01*
X101690Y195634D01*
X101716Y195514D01*
X101745Y195396D01*
X101777Y195278D01*
X101814Y195161D01*
X101854Y195046D01*
X101898Y194932D01*
X101946Y194820D01*
X101997Y194709D01*
X102052Y194600D01*
X102110Y194492D01*
X102172Y194387D01*
X102237Y194284D01*
X102305Y194182D01*
X102377Y194083D01*
X102451Y193987D01*
X102529Y193892D01*
X102610Y193801D01*
X102693Y193711D01*
X102779Y193625D01*
X102869Y193542D01*
X102960Y193461D01*
X103055Y193383D01*
X103151Y193309D01*
X103250Y193237D01*
X103352Y193169D01*
X103455Y193104D01*
X103560Y193042D01*
X103668Y192984D01*
X103777Y192929D01*
X103888Y192878D01*
X104000Y192830D01*
X104114Y192786D01*
X104229Y192746D01*
X104346Y192709D01*
X104464Y192677D01*
X104582Y192648D01*
X104702Y192622D01*
X104822Y192601D01*
X104943Y192583D01*
X105064Y192570D01*
X105186Y192560D01*
X105308Y192554D01*
X105430Y192552D01*
X105552Y192554D01*
X105674Y192560D01*
X105796Y192570D01*
X105917Y192583D01*
X106038Y192601D01*
X106158Y192622D01*
X106278Y192648D01*
X106396Y192677D01*
X106514Y192709D01*
X106631Y192746D01*
X106746Y192786D01*
X106860Y192830D01*
X106972Y192878D01*
X107083Y192929D01*
X107192Y192984D01*
X107300Y193042D01*
X107405Y193104D01*
X107508Y193169D01*
X107610Y193237D01*
X107709Y193309D01*
X107805Y193383D01*
X107900Y193461D01*
X107991Y193542D01*
X108081Y193625D01*
X108167Y193711D01*
X108250Y193801D01*
X108331Y193892D01*
X108409Y193987D01*
X108483Y194083D01*
X108555Y194182D01*
X108623Y194284D01*
X108688Y194387D01*
X108750Y194492D01*
X108808Y194600D01*
X108863Y194709D01*
X108914Y194820D01*
X108962Y194932D01*
X109006Y195046D01*
X109046Y195161D01*
X109083Y195278D01*
X109115Y195396D01*
X109144Y195514D01*
X109170Y195634D01*
X109191Y195754D01*
X109209Y195875D01*
X109222Y195996D01*
X109232Y196118D01*
X109238Y196240D01*
X109240Y196362D01*
X109238Y196484D01*
X109232Y196606D01*
X109222Y196728D01*
X109209Y196849D01*
X109191Y196970D01*
X109170Y197090D01*
X109144Y197210D01*
X109115Y197328D01*
X109083Y197446D01*
X109046Y197563D01*
X109006Y197678D01*
X108962Y197792D01*
X108914Y197904D01*
X108863Y198015D01*
X108808Y198124D01*
X108750Y198232D01*
X108688Y198337D01*
X108623Y198440D01*
X108555Y198542D01*
X108483Y198641D01*
X108409Y198737D01*
X108331Y198832D01*
X108250Y198923D01*
X108167Y199013D01*
X108081Y199099D01*
X107991Y199182D01*
X107900Y199263D01*
X107805Y199341D01*
X107709Y199415D01*
X107610Y199487D01*
X107508Y199555D01*
X107405Y199620D01*
X107300Y199682D01*
X107192Y199740D01*
X107083Y199795D01*
X106972Y199846D01*
X106860Y199894D01*
X106746Y199938D01*
X106631Y199978D01*
X106514Y200015D01*
X106396Y200047D01*
X106278Y200076D01*
X106158Y200102D01*
X106038Y200123D01*
X105917Y200141D01*
X105796Y200154D01*
X105674Y200164D01*
X105552Y200170D01*
X105430Y200172D01*
X104710Y535732D02*
X104588Y535734D01*
X104466Y535740D01*
X104344Y535750D01*
X104223Y535763D01*
X104102Y535781D01*
X103982Y535802D01*
X103862Y535828D01*
X103744Y535857D01*
X103626Y535889D01*
X103509Y535926D01*
X103394Y535966D01*
X103280Y536010D01*
X103168Y536058D01*
X103057Y536109D01*
X102948Y536164D01*
X102840Y536222D01*
X102735Y536284D01*
X102632Y536349D01*
X102530Y536417D01*
X102431Y536489D01*
X102335Y536563D01*
X102240Y536641D01*
X102149Y536722D01*
X102059Y536805D01*
X101973Y536891D01*
X101890Y536981D01*
X101809Y537072D01*
X101731Y537167D01*
X101657Y537263D01*
X101585Y537362D01*
X101517Y537464D01*
X101452Y537567D01*
X101390Y537672D01*
X101332Y537780D01*
X101277Y537889D01*
X101226Y538000D01*
X101178Y538112D01*
X101134Y538226D01*
X101094Y538341D01*
X101057Y538458D01*
X101025Y538576D01*
X100996Y538694D01*
X100970Y538814D01*
X100949Y538934D01*
X100931Y539055D01*
X100918Y539176D01*
X100908Y539298D01*
X100902Y539420D01*
X100900Y539542D01*
X100902Y539664D01*
X100908Y539786D01*
X100918Y539908D01*
X100931Y540029D01*
X100949Y540150D01*
X100970Y540270D01*
X100996Y540390D01*
X101025Y540508D01*
X101057Y540626D01*
X101094Y540743D01*
X101134Y540858D01*
X101178Y540972D01*
X101226Y541084D01*
X101277Y541195D01*
X101332Y541304D01*
X101390Y541412D01*
X101452Y541517D01*
X101517Y541620D01*
X101585Y541722D01*
X101657Y541821D01*
X101731Y541917D01*
X101809Y542012D01*
X101890Y542103D01*
X101973Y542193D01*
X102059Y542279D01*
X102149Y542362D01*
X102240Y542443D01*
X102335Y542521D01*
X102431Y542595D01*
X102530Y542667D01*
X102632Y542735D01*
X102735Y542800D01*
X102840Y542862D01*
X102948Y542920D01*
X103057Y542975D01*
X103168Y543026D01*
X103280Y543074D01*
X103394Y543118D01*
X103509Y543158D01*
X103626Y543195D01*
X103744Y543227D01*
X103862Y543256D01*
X103982Y543282D01*
X104102Y543303D01*
X104223Y543321D01*
X104344Y543334D01*
X104466Y543344D01*
X104588Y543350D01*
X104710Y543352D01*
X104832Y543350D01*
X104954Y543344D01*
X105076Y543334D01*
X105197Y543321D01*
X105318Y543303D01*
X105438Y543282D01*
X105558Y543256D01*
X105676Y543227D01*
X105794Y543195D01*
X105911Y543158D01*
X106026Y543118D01*
X106140Y543074D01*
X106252Y543026D01*
X106363Y542975D01*
X106472Y542920D01*
X106580Y542862D01*
X106685Y542800D01*
X106788Y542735D01*
X106890Y542667D01*
X106989Y542595D01*
X107085Y542521D01*
X107180Y542443D01*
X107271Y542362D01*
X107361Y542279D01*
X107447Y542193D01*
X107530Y542103D01*
X107611Y542012D01*
X107689Y541917D01*
X107763Y541821D01*
X107835Y541722D01*
X107903Y541620D01*
X107968Y541517D01*
X108030Y541412D01*
X108088Y541304D01*
X108143Y541195D01*
X108194Y541084D01*
X108242Y540972D01*
X108286Y540858D01*
X108326Y540743D01*
X108363Y540626D01*
X108395Y540508D01*
X108424Y540390D01*
X108450Y540270D01*
X108471Y540150D01*
X108489Y540029D01*
X108502Y539908D01*
X108512Y539786D01*
X108518Y539664D01*
X108520Y539542D01*
X108518Y539420D01*
X108512Y539298D01*
X108502Y539176D01*
X108489Y539055D01*
X108471Y538934D01*
X108450Y538814D01*
X108424Y538694D01*
X108395Y538576D01*
X108363Y538458D01*
X108326Y538341D01*
X108286Y538226D01*
X108242Y538112D01*
X108194Y538000D01*
X108143Y537889D01*
X108088Y537780D01*
X108030Y537672D01*
X107968Y537567D01*
X107903Y537464D01*
X107835Y537362D01*
X107763Y537263D01*
X107689Y537167D01*
X107611Y537072D01*
X107530Y536981D01*
X107447Y536891D01*
X107361Y536805D01*
X107271Y536722D01*
X107180Y536641D01*
X107085Y536563D01*
X106989Y536489D01*
X106890Y536417D01*
X106788Y536349D01*
X106685Y536284D01*
X106580Y536222D01*
X106472Y536164D01*
X106363Y536109D01*
X106252Y536058D01*
X106140Y536010D01*
X106026Y535966D01*
X105911Y535926D01*
X105794Y535889D01*
X105676Y535857D01*
X105558Y535828D01*
X105438Y535802D01*
X105318Y535781D01*
X105197Y535763D01*
X105076Y535750D01*
X104954Y535740D01*
X104832Y535734D01*
X104710Y535732D01*
X548260Y497490D02*
X548262Y497612D01*
X548268Y497734D01*
X548278Y497856D01*
X548291Y497977D01*
X548309Y498098D01*
X548330Y498218D01*
X548356Y498338D01*
X548385Y498456D01*
X548417Y498574D01*
X548454Y498691D01*
X548494Y498806D01*
X548538Y498920D01*
X548586Y499032D01*
X548637Y499143D01*
X548692Y499252D01*
X548750Y499360D01*
X548812Y499465D01*
X548877Y499568D01*
X548945Y499670D01*
X549017Y499769D01*
X549091Y499865D01*
X549169Y499960D01*
X549250Y500051D01*
X549333Y500141D01*
X549419Y500227D01*
X549509Y500310D01*
X549600Y500391D01*
X549695Y500469D01*
X549791Y500543D01*
X549890Y500615D01*
X549992Y500683D01*
X550095Y500748D01*
X550200Y500810D01*
X550308Y500868D01*
X550417Y500923D01*
X550528Y500974D01*
X550640Y501022D01*
X550754Y501066D01*
X550869Y501106D01*
X550986Y501143D01*
X551104Y501175D01*
X551222Y501204D01*
X551342Y501230D01*
X551462Y501251D01*
X551583Y501269D01*
X551704Y501282D01*
X551826Y501292D01*
X551948Y501298D01*
X552070Y501300D01*
X552192Y501298D01*
X552314Y501292D01*
X552436Y501282D01*
X552557Y501269D01*
X552678Y501251D01*
X552798Y501230D01*
X552918Y501204D01*
X553036Y501175D01*
X553154Y501143D01*
X553271Y501106D01*
X553386Y501066D01*
X553500Y501022D01*
X553612Y500974D01*
X553723Y500923D01*
X553832Y500868D01*
X553940Y500810D01*
X554045Y500748D01*
X554148Y500683D01*
X554250Y500615D01*
X554349Y500543D01*
X554445Y500469D01*
X554540Y500391D01*
X554631Y500310D01*
X554721Y500227D01*
X554807Y500141D01*
X554890Y500051D01*
X554971Y499960D01*
X555049Y499865D01*
X555123Y499769D01*
X555195Y499670D01*
X555263Y499568D01*
X555328Y499465D01*
X555390Y499360D01*
X555448Y499252D01*
X555503Y499143D01*
X555554Y499032D01*
X555602Y498920D01*
X555646Y498806D01*
X555686Y498691D01*
X555723Y498574D01*
X555755Y498456D01*
X555784Y498338D01*
X555810Y498218D01*
X555831Y498098D01*
X555849Y497977D01*
X555862Y497856D01*
X555872Y497734D01*
X555878Y497612D01*
X555880Y497490D01*
X555878Y497368D01*
X555872Y497246D01*
X555862Y497124D01*
X555849Y497003D01*
X555831Y496882D01*
X555810Y496762D01*
X555784Y496642D01*
X555755Y496524D01*
X555723Y496406D01*
X555686Y496289D01*
X555646Y496174D01*
X555602Y496060D01*
X555554Y495948D01*
X555503Y495837D01*
X555448Y495728D01*
X555390Y495620D01*
X555328Y495515D01*
X555263Y495412D01*
X555195Y495310D01*
X555123Y495211D01*
X555049Y495115D01*
X554971Y495020D01*
X554890Y494929D01*
X554807Y494839D01*
X554721Y494753D01*
X554631Y494670D01*
X554540Y494589D01*
X554445Y494511D01*
X554349Y494437D01*
X554250Y494365D01*
X554148Y494297D01*
X554045Y494232D01*
X553940Y494170D01*
X553832Y494112D01*
X553723Y494057D01*
X553612Y494006D01*
X553500Y493958D01*
X553386Y493914D01*
X553271Y493874D01*
X553154Y493837D01*
X553036Y493805D01*
X552918Y493776D01*
X552798Y493750D01*
X552678Y493729D01*
X552557Y493711D01*
X552436Y493698D01*
X552314Y493688D01*
X552192Y493682D01*
X552070Y493680D01*
X551948Y493682D01*
X551826Y493688D01*
X551704Y493698D01*
X551583Y493711D01*
X551462Y493729D01*
X551342Y493750D01*
X551222Y493776D01*
X551104Y493805D01*
X550986Y493837D01*
X550869Y493874D01*
X550754Y493914D01*
X550640Y493958D01*
X550528Y494006D01*
X550417Y494057D01*
X550308Y494112D01*
X550200Y494170D01*
X550095Y494232D01*
X549992Y494297D01*
X549890Y494365D01*
X549791Y494437D01*
X549695Y494511D01*
X549600Y494589D01*
X549509Y494670D01*
X549419Y494753D01*
X549333Y494839D01*
X549250Y494929D01*
X549169Y495020D01*
X549091Y495115D01*
X549017Y495211D01*
X548945Y495310D01*
X548877Y495412D01*
X548812Y495515D01*
X548750Y495620D01*
X548692Y495728D01*
X548637Y495837D01*
X548586Y495948D01*
X548538Y496060D01*
X548494Y496174D01*
X548454Y496289D01*
X548417Y496406D01*
X548385Y496524D01*
X548356Y496642D01*
X548330Y496762D01*
X548309Y496882D01*
X548291Y497003D01*
X548278Y497124D01*
X548268Y497246D01*
X548262Y497368D01*
X548260Y497490D01*
X548262Y497612D01*
X548268Y497734D01*
X548278Y497856D01*
X548291Y497977D01*
X548309Y498098D01*
X548330Y498218D01*
X548356Y498338D01*
X548385Y498456D01*
X548417Y498574D01*
X548454Y498691D01*
X548494Y498806D01*
X548538Y498920D01*
X548586Y499032D01*
X548637Y499143D01*
X548692Y499252D01*
X548750Y499360D01*
X548812Y499465D01*
X548877Y499568D01*
X548945Y499670D01*
X549017Y499769D01*
X549091Y499865D01*
X549169Y499960D01*
X549250Y500051D01*
X549333Y500141D01*
X549419Y500227D01*
X549509Y500310D01*
X549600Y500391D01*
X549695Y500469D01*
X549791Y500543D01*
X549890Y500615D01*
X549992Y500683D01*
X550095Y500748D01*
X550200Y500810D01*
X550308Y500868D01*
X550417Y500923D01*
X550528Y500974D01*
X550640Y501022D01*
X550754Y501066D01*
X550869Y501106D01*
X550986Y501143D01*
X551104Y501175D01*
X551222Y501204D01*
X551342Y501230D01*
X551462Y501251D01*
X551583Y501269D01*
X551704Y501282D01*
X551826Y501292D01*
X551948Y501298D01*
X552070Y501300D01*
X552192Y501298D01*
X552314Y501292D01*
X552436Y501282D01*
X552557Y501269D01*
X552678Y501251D01*
X552798Y501230D01*
X552918Y501204D01*
X553036Y501175D01*
X553154Y501143D01*
X553271Y501106D01*
X553386Y501066D01*
X553500Y501022D01*
X553612Y500974D01*
X553723Y500923D01*
X553832Y500868D01*
X553940Y500810D01*
X554045Y500748D01*
X554148Y500683D01*
X554250Y500615D01*
X554349Y500543D01*
X554445Y500469D01*
X554540Y500391D01*
X554631Y500310D01*
X554721Y500227D01*
X554807Y500141D01*
X554890Y500051D01*
X554971Y499960D01*
X555049Y499865D01*
X555123Y499769D01*
X555195Y499670D01*
X555263Y499568D01*
X555328Y499465D01*
X555390Y499360D01*
X555448Y499252D01*
X555503Y499143D01*
X555554Y499032D01*
X555602Y498920D01*
X555646Y498806D01*
X555686Y498691D01*
X555723Y498574D01*
X555755Y498456D01*
X555784Y498338D01*
X555810Y498218D01*
X555831Y498098D01*
X555849Y497977D01*
X555862Y497856D01*
X555872Y497734D01*
X555878Y497612D01*
X555880Y497490D01*
X555878Y497368D01*
X555872Y497246D01*
X555862Y497124D01*
X555849Y497003D01*
X555831Y496882D01*
X555810Y496762D01*
X555784Y496642D01*
X555755Y496524D01*
X555723Y496406D01*
X555686Y496289D01*
X555646Y496174D01*
X555602Y496060D01*
X555554Y495948D01*
X555503Y495837D01*
X555448Y495728D01*
X555390Y495620D01*
X555328Y495515D01*
X555263Y495412D01*
X555195Y495310D01*
X555123Y495211D01*
X555049Y495115D01*
X554971Y495020D01*
X554890Y494929D01*
X554807Y494839D01*
X554721Y494753D01*
X554631Y494670D01*
X554540Y494589D01*
X554445Y494511D01*
X554349Y494437D01*
X554250Y494365D01*
X554148Y494297D01*
X554045Y494232D01*
X553940Y494170D01*
X553832Y494112D01*
X553723Y494057D01*
X553612Y494006D01*
X553500Y493958D01*
X553386Y493914D01*
X553271Y493874D01*
X553154Y493837D01*
X553036Y493805D01*
X552918Y493776D01*
X552798Y493750D01*
X552678Y493729D01*
X552557Y493711D01*
X552436Y493698D01*
X552314Y493688D01*
X552192Y493682D01*
X552070Y493680D01*
X551948Y493682D01*
X551826Y493688D01*
X551704Y493698D01*
X551583Y493711D01*
X551462Y493729D01*
X551342Y493750D01*
X551222Y493776D01*
X551104Y493805D01*
X550986Y493837D01*
X550869Y493874D01*
X550754Y493914D01*
X550640Y493958D01*
X550528Y494006D01*
X550417Y494057D01*
X550308Y494112D01*
X550200Y494170D01*
X550095Y494232D01*
X549992Y494297D01*
X549890Y494365D01*
X549791Y494437D01*
X549695Y494511D01*
X549600Y494589D01*
X549509Y494670D01*
X549419Y494753D01*
X549333Y494839D01*
X549250Y494929D01*
X549169Y495020D01*
X549091Y495115D01*
X549017Y495211D01*
X548945Y495310D01*
X548877Y495412D01*
X548812Y495515D01*
X548750Y495620D01*
X548692Y495728D01*
X548637Y495837D01*
X548586Y495948D01*
X548538Y496060D01*
X548494Y496174D01*
X548454Y496289D01*
X548417Y496406D01*
X548385Y496524D01*
X548356Y496642D01*
X548330Y496762D01*
X548309Y496882D01*
X548291Y497003D01*
X548278Y497124D01*
X548268Y497246D01*
X548262Y497368D01*
X548260Y497490D01*
M02*
