G04 EAGLE Gerber RS-274X export*
G75*
%MOMM*%
%FSLAX34Y34*%
%LPD*%
%INSilkscreen Top*%
%IPPOS*%
%AMOC8*
5,1,8,0,0,1.08239X$1,22.5*%
G01*
%ADD10C,0.152400*%
%ADD11C,0.127000*%
%ADD12C,0.050800*%
%ADD13C,0.076200*%
%ADD14C,0.200000*%
%ADD15C,0.508000*%
%ADD16C,0.025400*%

G36*
X204407Y445463D02*
X204407Y445463D01*
X204409Y445462D01*
X204452Y445482D01*
X204496Y445500D01*
X204496Y445502D01*
X204498Y445503D01*
X204531Y445588D01*
X204531Y448128D01*
X204530Y448130D01*
X204531Y448132D01*
X204511Y448175D01*
X204493Y448219D01*
X204491Y448219D01*
X204490Y448221D01*
X204405Y448254D01*
X200595Y448254D01*
X200593Y448253D01*
X200591Y448254D01*
X200548Y448234D01*
X200504Y448216D01*
X200504Y448214D01*
X200502Y448213D01*
X200469Y448128D01*
X200469Y445588D01*
X200470Y445586D01*
X200469Y445584D01*
X200489Y445541D01*
X200507Y445497D01*
X200509Y445497D01*
X200510Y445495D01*
X200595Y445462D01*
X204405Y445462D01*
X204407Y445463D01*
G37*
G36*
X179414Y395470D02*
X179414Y395470D01*
X179416Y395469D01*
X179459Y395489D01*
X179503Y395507D01*
X179503Y395509D01*
X179505Y395510D01*
X179538Y395595D01*
X179538Y399405D01*
X179537Y399407D01*
X179538Y399409D01*
X179518Y399452D01*
X179500Y399496D01*
X179498Y399496D01*
X179497Y399498D01*
X179412Y399531D01*
X176872Y399531D01*
X176870Y399530D01*
X176868Y399531D01*
X176825Y399511D01*
X176781Y399493D01*
X176781Y399491D01*
X176779Y399490D01*
X176746Y399405D01*
X176746Y395595D01*
X176747Y395593D01*
X176746Y395591D01*
X176766Y395548D01*
X176784Y395504D01*
X176786Y395504D01*
X176787Y395502D01*
X176872Y395469D01*
X179412Y395469D01*
X179414Y395470D01*
G37*
G36*
X263130Y390470D02*
X263130Y390470D01*
X263132Y390469D01*
X263175Y390489D01*
X263219Y390507D01*
X263219Y390509D01*
X263221Y390510D01*
X263254Y390595D01*
X263254Y394405D01*
X263253Y394407D01*
X263254Y394409D01*
X263234Y394452D01*
X263216Y394496D01*
X263214Y394496D01*
X263213Y394498D01*
X263128Y394531D01*
X260588Y394531D01*
X260586Y394530D01*
X260584Y394531D01*
X260541Y394511D01*
X260497Y394493D01*
X260497Y394491D01*
X260495Y394490D01*
X260462Y394405D01*
X260462Y390595D01*
X260463Y390593D01*
X260462Y390591D01*
X260482Y390548D01*
X260500Y390504D01*
X260502Y390504D01*
X260503Y390502D01*
X260588Y390469D01*
X263128Y390469D01*
X263130Y390470D01*
G37*
G36*
X219407Y361747D02*
X219407Y361747D01*
X219409Y361746D01*
X219452Y361766D01*
X219496Y361784D01*
X219496Y361786D01*
X219498Y361787D01*
X219531Y361872D01*
X219531Y364412D01*
X219530Y364414D01*
X219531Y364416D01*
X219511Y364459D01*
X219493Y364503D01*
X219491Y364503D01*
X219490Y364505D01*
X219405Y364538D01*
X215595Y364538D01*
X215593Y364537D01*
X215591Y364538D01*
X215548Y364518D01*
X215504Y364500D01*
X215504Y364498D01*
X215502Y364497D01*
X215469Y364412D01*
X215469Y361872D01*
X215470Y361870D01*
X215469Y361868D01*
X215489Y361825D01*
X215507Y361781D01*
X215509Y361781D01*
X215510Y361779D01*
X215595Y361746D01*
X219405Y361746D01*
X219407Y361747D01*
G37*
D10*
X573450Y518300D02*
X586150Y518300D01*
X592500Y511950D01*
X598850Y518300D01*
X611550Y518300D01*
X617900Y511950D01*
X573450Y518300D02*
X567100Y511950D01*
X617900Y511950D02*
X624250Y518300D01*
X636950Y518300D01*
X643300Y511950D01*
X643300Y473850D01*
X592500Y473850D02*
X586150Y467500D01*
X611550Y467500D02*
X617900Y473850D01*
X611550Y467500D02*
X598850Y467500D01*
X592500Y473850D01*
X567100Y473850D02*
X567100Y511950D01*
X567100Y473850D02*
X573450Y467500D01*
X586150Y467500D01*
X636950Y467500D02*
X643300Y473850D01*
X636950Y467500D02*
X624250Y467500D01*
X617900Y473850D01*
D11*
X577260Y463055D02*
X574085Y460515D01*
X577260Y463055D02*
X577260Y451625D01*
X574085Y451625D02*
X580435Y451625D01*
X646475Y506235D02*
X650285Y506235D01*
X650385Y506233D01*
X650484Y506227D01*
X650584Y506217D01*
X650682Y506204D01*
X650781Y506186D01*
X650878Y506165D01*
X650974Y506140D01*
X651070Y506111D01*
X651164Y506078D01*
X651257Y506042D01*
X651348Y506002D01*
X651438Y505958D01*
X651526Y505911D01*
X651612Y505861D01*
X651696Y505807D01*
X651778Y505750D01*
X651857Y505690D01*
X651935Y505626D01*
X652009Y505560D01*
X652081Y505491D01*
X652150Y505419D01*
X652216Y505345D01*
X652280Y505267D01*
X652340Y505188D01*
X652397Y505106D01*
X652451Y505022D01*
X652501Y504936D01*
X652548Y504848D01*
X652592Y504758D01*
X652632Y504667D01*
X652668Y504574D01*
X652701Y504480D01*
X652730Y504384D01*
X652755Y504288D01*
X652776Y504191D01*
X652794Y504092D01*
X652807Y503994D01*
X652817Y503894D01*
X652823Y503795D01*
X652825Y503695D01*
X652825Y503060D01*
X652823Y502949D01*
X652817Y502839D01*
X652808Y502728D01*
X652794Y502618D01*
X652777Y502509D01*
X652756Y502400D01*
X652731Y502292D01*
X652702Y502185D01*
X652670Y502079D01*
X652634Y501974D01*
X652594Y501871D01*
X652551Y501769D01*
X652504Y501668D01*
X652453Y501569D01*
X652400Y501472D01*
X652343Y501378D01*
X652282Y501285D01*
X652219Y501194D01*
X652152Y501105D01*
X652082Y501019D01*
X652009Y500936D01*
X651934Y500854D01*
X651856Y500776D01*
X651774Y500701D01*
X651691Y500628D01*
X651605Y500558D01*
X651516Y500491D01*
X651425Y500428D01*
X651332Y500367D01*
X651238Y500310D01*
X651141Y500257D01*
X651042Y500206D01*
X650941Y500159D01*
X650839Y500116D01*
X650736Y500076D01*
X650631Y500040D01*
X650525Y500008D01*
X650418Y499979D01*
X650310Y499954D01*
X650201Y499933D01*
X650092Y499916D01*
X649982Y499902D01*
X649871Y499893D01*
X649761Y499887D01*
X649650Y499885D01*
X649539Y499887D01*
X649429Y499893D01*
X649318Y499902D01*
X649208Y499916D01*
X649099Y499933D01*
X648990Y499954D01*
X648882Y499979D01*
X648775Y500008D01*
X648669Y500040D01*
X648564Y500076D01*
X648461Y500116D01*
X648359Y500159D01*
X648258Y500206D01*
X648159Y500257D01*
X648063Y500310D01*
X647968Y500367D01*
X647875Y500428D01*
X647784Y500491D01*
X647695Y500558D01*
X647609Y500628D01*
X647526Y500701D01*
X647444Y500776D01*
X647366Y500854D01*
X647291Y500936D01*
X647218Y501019D01*
X647148Y501105D01*
X647081Y501194D01*
X647018Y501285D01*
X646957Y501378D01*
X646900Y501473D01*
X646847Y501569D01*
X646796Y501668D01*
X646749Y501769D01*
X646706Y501871D01*
X646666Y501974D01*
X646630Y502079D01*
X646598Y502185D01*
X646569Y502292D01*
X646544Y502400D01*
X646523Y502509D01*
X646506Y502618D01*
X646492Y502728D01*
X646483Y502839D01*
X646477Y502949D01*
X646475Y503060D01*
X646475Y506235D01*
X646477Y506375D01*
X646483Y506515D01*
X646492Y506655D01*
X646506Y506794D01*
X646523Y506933D01*
X646544Y507071D01*
X646569Y507209D01*
X646598Y507346D01*
X646630Y507482D01*
X646667Y507617D01*
X646707Y507751D01*
X646750Y507884D01*
X646798Y508016D01*
X646848Y508147D01*
X646903Y508276D01*
X646961Y508403D01*
X647022Y508529D01*
X647087Y508653D01*
X647156Y508775D01*
X647227Y508895D01*
X647302Y509013D01*
X647380Y509130D01*
X647462Y509244D01*
X647546Y509355D01*
X647634Y509464D01*
X647724Y509571D01*
X647818Y509676D01*
X647914Y509777D01*
X648013Y509876D01*
X648114Y509972D01*
X648219Y510066D01*
X648326Y510156D01*
X648435Y510244D01*
X648546Y510328D01*
X648660Y510410D01*
X648777Y510488D01*
X648895Y510563D01*
X649015Y510634D01*
X649137Y510703D01*
X649261Y510768D01*
X649387Y510829D01*
X649514Y510887D01*
X649643Y510942D01*
X649774Y510992D01*
X649906Y511040D01*
X650039Y511083D01*
X650173Y511123D01*
X650308Y511160D01*
X650444Y511192D01*
X650581Y511221D01*
X650719Y511246D01*
X650857Y511267D01*
X650996Y511284D01*
X651135Y511298D01*
X651275Y511307D01*
X651415Y511313D01*
X651555Y511315D01*
D12*
X602853Y496856D02*
X602853Y492364D01*
X602354Y492364D02*
X603352Y492364D01*
X603352Y496856D02*
X602354Y496856D01*
X605406Y496856D02*
X605406Y492364D01*
X606903Y494360D02*
X605406Y496856D01*
X606903Y494360D02*
X608400Y496856D01*
X608400Y492364D01*
X610755Y493612D02*
X610755Y496856D01*
X610755Y493612D02*
X610757Y493543D01*
X610763Y493475D01*
X610772Y493407D01*
X610785Y493339D01*
X610802Y493272D01*
X610823Y493207D01*
X610847Y493142D01*
X610874Y493079D01*
X610905Y493018D01*
X610940Y492958D01*
X610977Y492901D01*
X611018Y492845D01*
X611062Y492792D01*
X611108Y492742D01*
X611158Y492694D01*
X611210Y492649D01*
X611264Y492606D01*
X611320Y492567D01*
X611379Y492531D01*
X611439Y492498D01*
X611502Y492469D01*
X611565Y492443D01*
X611630Y492421D01*
X611697Y492402D01*
X611764Y492387D01*
X611832Y492376D01*
X611900Y492368D01*
X611969Y492364D01*
X612037Y492364D01*
X612106Y492368D01*
X612174Y492376D01*
X612242Y492387D01*
X612309Y492402D01*
X612376Y492421D01*
X612441Y492443D01*
X612504Y492469D01*
X612567Y492498D01*
X612627Y492531D01*
X612686Y492567D01*
X612742Y492606D01*
X612796Y492649D01*
X612848Y492694D01*
X612898Y492742D01*
X612944Y492792D01*
X612988Y492845D01*
X613029Y492901D01*
X613066Y492958D01*
X613101Y493018D01*
X613132Y493079D01*
X613159Y493142D01*
X613183Y493207D01*
X613204Y493272D01*
X613221Y493339D01*
X613234Y493407D01*
X613243Y493475D01*
X613249Y493543D01*
X613251Y493612D01*
X613251Y496856D01*
D10*
X747050Y467090D02*
X759750Y467090D01*
X747050Y467090D02*
X740700Y473440D01*
X734350Y467090D01*
X721650Y467090D01*
X715300Y473440D01*
X759750Y467090D02*
X766100Y473440D01*
X715300Y473440D02*
X708950Y467090D01*
X696250Y467090D01*
X689900Y473440D01*
X683550Y467090D02*
X670850Y467090D01*
X683550Y467090D02*
X689900Y473440D01*
X670850Y467090D02*
X664500Y473440D01*
X664500Y511540D01*
X740700Y511540D02*
X747050Y517890D01*
X721650Y517890D02*
X715300Y511540D01*
X721650Y517890D02*
X734350Y517890D01*
X740700Y511540D01*
X766100Y511540D02*
X766100Y473440D01*
X766100Y511540D02*
X759750Y517890D01*
X747050Y517890D01*
X696250Y517890D02*
X689900Y511540D01*
X696250Y517890D02*
X708950Y517890D01*
X715300Y511540D01*
X689900Y511540D02*
X683550Y517890D01*
X670850Y517890D01*
X664500Y511540D01*
D11*
X751495Y531225D02*
X754670Y533765D01*
X754670Y522335D01*
X751495Y522335D02*
X757845Y522335D01*
X676565Y454390D02*
X676563Y454501D01*
X676557Y454611D01*
X676548Y454722D01*
X676534Y454832D01*
X676517Y454941D01*
X676496Y455050D01*
X676471Y455158D01*
X676442Y455265D01*
X676410Y455371D01*
X676374Y455476D01*
X676334Y455579D01*
X676291Y455681D01*
X676244Y455782D01*
X676193Y455881D01*
X676140Y455978D01*
X676083Y456072D01*
X676022Y456165D01*
X675959Y456256D01*
X675892Y456345D01*
X675822Y456431D01*
X675749Y456514D01*
X675674Y456596D01*
X675596Y456674D01*
X675514Y456749D01*
X675431Y456822D01*
X675345Y456892D01*
X675256Y456959D01*
X675165Y457022D01*
X675072Y457083D01*
X674978Y457140D01*
X674881Y457193D01*
X674782Y457244D01*
X674681Y457291D01*
X674579Y457334D01*
X674476Y457374D01*
X674371Y457410D01*
X674265Y457442D01*
X674158Y457471D01*
X674050Y457496D01*
X673941Y457517D01*
X673832Y457534D01*
X673722Y457548D01*
X673611Y457557D01*
X673501Y457563D01*
X673390Y457565D01*
X673279Y457563D01*
X673169Y457557D01*
X673058Y457548D01*
X672948Y457534D01*
X672839Y457517D01*
X672730Y457496D01*
X672622Y457471D01*
X672515Y457442D01*
X672409Y457410D01*
X672304Y457374D01*
X672201Y457334D01*
X672099Y457291D01*
X671998Y457244D01*
X671899Y457193D01*
X671803Y457140D01*
X671708Y457083D01*
X671615Y457022D01*
X671524Y456959D01*
X671435Y456892D01*
X671349Y456822D01*
X671266Y456749D01*
X671184Y456674D01*
X671106Y456596D01*
X671031Y456514D01*
X670958Y456431D01*
X670888Y456345D01*
X670821Y456256D01*
X670758Y456165D01*
X670697Y456072D01*
X670640Y455978D01*
X670587Y455881D01*
X670536Y455782D01*
X670489Y455681D01*
X670446Y455579D01*
X670406Y455476D01*
X670370Y455371D01*
X670338Y455265D01*
X670309Y455158D01*
X670284Y455050D01*
X670263Y454941D01*
X670246Y454832D01*
X670232Y454722D01*
X670223Y454611D01*
X670217Y454501D01*
X670215Y454390D01*
X670217Y454279D01*
X670223Y454169D01*
X670232Y454058D01*
X670246Y453948D01*
X670263Y453839D01*
X670284Y453730D01*
X670309Y453622D01*
X670338Y453515D01*
X670370Y453409D01*
X670406Y453304D01*
X670446Y453201D01*
X670489Y453099D01*
X670536Y452998D01*
X670587Y452899D01*
X670640Y452803D01*
X670697Y452708D01*
X670758Y452615D01*
X670821Y452524D01*
X670888Y452435D01*
X670958Y452349D01*
X671031Y452266D01*
X671106Y452184D01*
X671184Y452106D01*
X671266Y452031D01*
X671349Y451958D01*
X671435Y451888D01*
X671524Y451821D01*
X671615Y451758D01*
X671708Y451697D01*
X671803Y451640D01*
X671899Y451587D01*
X671998Y451536D01*
X672099Y451489D01*
X672201Y451446D01*
X672304Y451406D01*
X672409Y451370D01*
X672515Y451338D01*
X672622Y451309D01*
X672730Y451284D01*
X672839Y451263D01*
X672948Y451246D01*
X673058Y451232D01*
X673169Y451223D01*
X673279Y451217D01*
X673390Y451215D01*
X673501Y451217D01*
X673611Y451223D01*
X673722Y451232D01*
X673832Y451246D01*
X673941Y451263D01*
X674050Y451284D01*
X674158Y451309D01*
X674265Y451338D01*
X674371Y451370D01*
X674476Y451406D01*
X674579Y451446D01*
X674681Y451489D01*
X674782Y451536D01*
X674881Y451587D01*
X674978Y451640D01*
X675072Y451697D01*
X675165Y451758D01*
X675256Y451821D01*
X675345Y451888D01*
X675431Y451958D01*
X675514Y452031D01*
X675596Y452106D01*
X675674Y452184D01*
X675749Y452266D01*
X675822Y452349D01*
X675892Y452435D01*
X675959Y452524D01*
X676022Y452615D01*
X676083Y452708D01*
X676140Y452802D01*
X676193Y452899D01*
X676244Y452998D01*
X676291Y453099D01*
X676334Y453201D01*
X676374Y453304D01*
X676410Y453409D01*
X676442Y453515D01*
X676471Y453622D01*
X676496Y453730D01*
X676517Y453839D01*
X676534Y453948D01*
X676548Y454058D01*
X676557Y454169D01*
X676563Y454279D01*
X676565Y454390D01*
X675930Y460105D02*
X675928Y460205D01*
X675922Y460304D01*
X675912Y460404D01*
X675899Y460502D01*
X675881Y460601D01*
X675860Y460698D01*
X675835Y460794D01*
X675806Y460890D01*
X675773Y460984D01*
X675737Y461077D01*
X675697Y461168D01*
X675653Y461258D01*
X675606Y461346D01*
X675556Y461432D01*
X675502Y461516D01*
X675445Y461598D01*
X675385Y461677D01*
X675321Y461755D01*
X675255Y461829D01*
X675186Y461901D01*
X675114Y461970D01*
X675040Y462036D01*
X674962Y462100D01*
X674883Y462160D01*
X674801Y462217D01*
X674717Y462271D01*
X674631Y462321D01*
X674543Y462368D01*
X674453Y462412D01*
X674362Y462452D01*
X674269Y462488D01*
X674175Y462521D01*
X674079Y462550D01*
X673983Y462575D01*
X673886Y462596D01*
X673787Y462614D01*
X673689Y462627D01*
X673589Y462637D01*
X673490Y462643D01*
X673390Y462645D01*
X673290Y462643D01*
X673191Y462637D01*
X673091Y462627D01*
X672993Y462614D01*
X672894Y462596D01*
X672797Y462575D01*
X672701Y462550D01*
X672605Y462521D01*
X672511Y462488D01*
X672418Y462452D01*
X672327Y462412D01*
X672237Y462368D01*
X672149Y462321D01*
X672063Y462271D01*
X671979Y462217D01*
X671897Y462160D01*
X671818Y462100D01*
X671740Y462036D01*
X671666Y461970D01*
X671594Y461901D01*
X671525Y461829D01*
X671459Y461755D01*
X671395Y461677D01*
X671335Y461598D01*
X671278Y461516D01*
X671224Y461432D01*
X671174Y461346D01*
X671127Y461258D01*
X671083Y461168D01*
X671043Y461077D01*
X671007Y460984D01*
X670974Y460890D01*
X670945Y460794D01*
X670920Y460698D01*
X670899Y460601D01*
X670881Y460502D01*
X670868Y460404D01*
X670858Y460304D01*
X670852Y460205D01*
X670850Y460105D01*
X670852Y460005D01*
X670858Y459906D01*
X670868Y459806D01*
X670881Y459708D01*
X670899Y459609D01*
X670920Y459512D01*
X670945Y459416D01*
X670974Y459320D01*
X671007Y459226D01*
X671043Y459133D01*
X671083Y459042D01*
X671127Y458952D01*
X671174Y458864D01*
X671224Y458778D01*
X671278Y458694D01*
X671335Y458612D01*
X671395Y458533D01*
X671459Y458455D01*
X671525Y458381D01*
X671594Y458309D01*
X671666Y458240D01*
X671740Y458174D01*
X671818Y458110D01*
X671897Y458050D01*
X671979Y457993D01*
X672063Y457939D01*
X672149Y457889D01*
X672237Y457842D01*
X672327Y457798D01*
X672418Y457758D01*
X672511Y457722D01*
X672605Y457689D01*
X672701Y457660D01*
X672797Y457635D01*
X672894Y457614D01*
X672993Y457596D01*
X673091Y457583D01*
X673191Y457573D01*
X673290Y457567D01*
X673390Y457565D01*
X673490Y457567D01*
X673589Y457573D01*
X673689Y457583D01*
X673787Y457596D01*
X673886Y457614D01*
X673983Y457635D01*
X674079Y457660D01*
X674175Y457689D01*
X674269Y457722D01*
X674362Y457758D01*
X674453Y457798D01*
X674543Y457842D01*
X674631Y457889D01*
X674717Y457939D01*
X674801Y457993D01*
X674883Y458050D01*
X674962Y458110D01*
X675040Y458174D01*
X675114Y458240D01*
X675186Y458309D01*
X675255Y458381D01*
X675321Y458455D01*
X675385Y458533D01*
X675445Y458612D01*
X675502Y458694D01*
X675556Y458778D01*
X675606Y458864D01*
X675653Y458952D01*
X675697Y459042D01*
X675737Y459133D01*
X675773Y459226D01*
X675806Y459320D01*
X675835Y459416D01*
X675860Y459512D01*
X675881Y459609D01*
X675899Y459708D01*
X675912Y459806D01*
X675922Y459906D01*
X675928Y460005D01*
X675930Y460105D01*
D12*
X759397Y458534D02*
X759397Y463026D01*
X760645Y463026D01*
X760714Y463024D01*
X760782Y463018D01*
X760850Y463009D01*
X760918Y462996D01*
X760985Y462979D01*
X761050Y462958D01*
X761115Y462934D01*
X761178Y462907D01*
X761239Y462876D01*
X761299Y462841D01*
X761356Y462804D01*
X761412Y462763D01*
X761465Y462719D01*
X761515Y462673D01*
X761563Y462623D01*
X761608Y462571D01*
X761651Y462517D01*
X761690Y462461D01*
X761726Y462402D01*
X761759Y462342D01*
X761788Y462279D01*
X761814Y462216D01*
X761836Y462151D01*
X761855Y462084D01*
X761870Y462017D01*
X761881Y461949D01*
X761889Y461881D01*
X761893Y461812D01*
X761893Y461744D01*
X761889Y461675D01*
X761881Y461607D01*
X761870Y461539D01*
X761855Y461472D01*
X761836Y461405D01*
X761814Y461340D01*
X761788Y461277D01*
X761759Y461214D01*
X761726Y461154D01*
X761690Y461095D01*
X761651Y461039D01*
X761608Y460985D01*
X761563Y460933D01*
X761515Y460883D01*
X761465Y460837D01*
X761412Y460793D01*
X761356Y460752D01*
X761299Y460715D01*
X761239Y460680D01*
X761178Y460649D01*
X761115Y460622D01*
X761050Y460598D01*
X760985Y460577D01*
X760918Y460560D01*
X760850Y460547D01*
X760782Y460538D01*
X760714Y460532D01*
X760645Y460530D01*
X759397Y460530D01*
X760895Y460530D02*
X761893Y458534D01*
X764848Y458534D02*
X765846Y458534D01*
X764848Y458534D02*
X764788Y458536D01*
X764728Y458541D01*
X764668Y458550D01*
X764609Y458563D01*
X764551Y458579D01*
X764494Y458599D01*
X764438Y458622D01*
X764384Y458648D01*
X764332Y458678D01*
X764281Y458711D01*
X764233Y458746D01*
X764186Y458785D01*
X764142Y458826D01*
X764101Y458870D01*
X764062Y458917D01*
X764027Y458965D01*
X763994Y459016D01*
X763964Y459068D01*
X763938Y459122D01*
X763915Y459178D01*
X763895Y459235D01*
X763879Y459293D01*
X763866Y459352D01*
X763857Y459412D01*
X763852Y459472D01*
X763850Y459532D01*
X763850Y462028D01*
X763852Y462091D01*
X763858Y462153D01*
X763868Y462215D01*
X763881Y462276D01*
X763899Y462336D01*
X763920Y462395D01*
X763945Y462453D01*
X763973Y462509D01*
X764005Y462563D01*
X764041Y462615D01*
X764079Y462664D01*
X764120Y462711D01*
X764165Y462755D01*
X764212Y462797D01*
X764261Y462835D01*
X764313Y462871D01*
X764367Y462903D01*
X764423Y462931D01*
X764481Y462956D01*
X764540Y462977D01*
X764600Y462995D01*
X764661Y463008D01*
X764723Y463018D01*
X764785Y463024D01*
X764848Y463026D01*
X765846Y463026D01*
D10*
X311880Y510780D02*
X299180Y510780D01*
X311880Y510780D02*
X318230Y504430D01*
X318230Y491730D02*
X311880Y485380D01*
X318230Y504430D02*
X324580Y510780D01*
X337280Y510780D01*
X343630Y504430D01*
X343630Y491730D02*
X337280Y485380D01*
X324580Y485380D01*
X318230Y491730D01*
X292830Y491730D02*
X292830Y504430D01*
X299180Y510780D01*
X292830Y491730D02*
X299180Y485380D01*
X311880Y485380D01*
X343630Y504430D02*
X349980Y510780D01*
X362680Y510780D01*
X369030Y504430D01*
X369030Y491730D02*
X362680Y485380D01*
X349980Y485380D01*
X343630Y491730D01*
X375380Y510780D02*
X388080Y510780D01*
X394430Y504430D01*
X394430Y491730D01*
X388080Y485380D01*
X369030Y504430D02*
X375380Y510780D01*
X369030Y491730D02*
X375380Y485380D01*
X388080Y485380D01*
D11*
X285210Y503795D02*
X282035Y501255D01*
X285210Y503795D02*
X285210Y492365D01*
X282035Y492365D02*
X288385Y492365D01*
X397605Y494905D02*
X400145Y503795D01*
X397605Y494905D02*
X403955Y494905D01*
X402050Y497445D02*
X402050Y492365D01*
D12*
X293084Y514844D02*
X293084Y519336D01*
X294332Y519336D01*
X294401Y519334D01*
X294469Y519328D01*
X294537Y519319D01*
X294605Y519306D01*
X294672Y519289D01*
X294737Y519268D01*
X294802Y519244D01*
X294865Y519217D01*
X294926Y519186D01*
X294986Y519151D01*
X295043Y519114D01*
X295099Y519073D01*
X295152Y519029D01*
X295202Y518983D01*
X295250Y518933D01*
X295295Y518881D01*
X295338Y518827D01*
X295377Y518771D01*
X295413Y518712D01*
X295446Y518652D01*
X295475Y518589D01*
X295501Y518526D01*
X295523Y518461D01*
X295542Y518394D01*
X295557Y518327D01*
X295568Y518259D01*
X295576Y518191D01*
X295580Y518122D01*
X295580Y518054D01*
X295576Y517985D01*
X295568Y517917D01*
X295557Y517849D01*
X295542Y517782D01*
X295523Y517715D01*
X295501Y517650D01*
X295475Y517587D01*
X295446Y517524D01*
X295413Y517464D01*
X295377Y517405D01*
X295338Y517349D01*
X295295Y517295D01*
X295250Y517243D01*
X295202Y517193D01*
X295152Y517147D01*
X295099Y517103D01*
X295043Y517062D01*
X294986Y517025D01*
X294926Y516990D01*
X294865Y516959D01*
X294802Y516932D01*
X294737Y516908D01*
X294672Y516887D01*
X294605Y516870D01*
X294537Y516857D01*
X294469Y516848D01*
X294401Y516842D01*
X294332Y516840D01*
X293084Y516840D01*
X294581Y516840D02*
X295580Y514844D01*
X297711Y514844D02*
X299708Y514844D01*
X297711Y514844D02*
X297711Y519336D01*
X299708Y519336D01*
X299208Y517340D02*
X297711Y517340D01*
X301201Y514844D02*
X302699Y519336D01*
X304196Y514844D01*
X303822Y515967D02*
X301576Y515967D01*
X306134Y514844D02*
X306134Y519336D01*
X307382Y519336D01*
X307451Y519334D01*
X307519Y519328D01*
X307587Y519319D01*
X307655Y519306D01*
X307722Y519289D01*
X307787Y519268D01*
X307852Y519244D01*
X307915Y519217D01*
X307976Y519186D01*
X308036Y519151D01*
X308093Y519114D01*
X308149Y519073D01*
X308202Y519029D01*
X308252Y518983D01*
X308300Y518933D01*
X308345Y518881D01*
X308388Y518827D01*
X308427Y518771D01*
X308463Y518712D01*
X308496Y518652D01*
X308525Y518589D01*
X308551Y518526D01*
X308573Y518461D01*
X308592Y518394D01*
X308607Y518327D01*
X308618Y518259D01*
X308626Y518191D01*
X308630Y518122D01*
X308630Y518054D01*
X308626Y517985D01*
X308618Y517917D01*
X308607Y517849D01*
X308592Y517782D01*
X308573Y517715D01*
X308551Y517650D01*
X308525Y517587D01*
X308496Y517524D01*
X308463Y517464D01*
X308427Y517405D01*
X308388Y517349D01*
X308345Y517295D01*
X308300Y517243D01*
X308252Y517193D01*
X308202Y517147D01*
X308149Y517103D01*
X308093Y517062D01*
X308036Y517025D01*
X307976Y516990D01*
X307915Y516959D01*
X307852Y516932D01*
X307787Y516908D01*
X307722Y516887D01*
X307655Y516870D01*
X307587Y516857D01*
X307519Y516848D01*
X307451Y516842D01*
X307382Y516840D01*
X306134Y516840D01*
X307631Y516840D02*
X308629Y514844D01*
X310651Y516591D02*
X313646Y516591D01*
X315901Y514844D02*
X315901Y519336D01*
X317399Y516840D01*
X318896Y519336D01*
X318896Y514844D01*
X321101Y516092D02*
X321101Y518088D01*
X321103Y518157D01*
X321109Y518225D01*
X321118Y518293D01*
X321131Y518361D01*
X321148Y518428D01*
X321169Y518493D01*
X321193Y518558D01*
X321220Y518621D01*
X321251Y518682D01*
X321286Y518742D01*
X321323Y518799D01*
X321364Y518855D01*
X321408Y518908D01*
X321454Y518958D01*
X321504Y519006D01*
X321556Y519051D01*
X321610Y519094D01*
X321666Y519133D01*
X321725Y519169D01*
X321785Y519202D01*
X321848Y519231D01*
X321911Y519257D01*
X321976Y519279D01*
X322043Y519298D01*
X322110Y519313D01*
X322178Y519324D01*
X322246Y519332D01*
X322315Y519336D01*
X322383Y519336D01*
X322452Y519332D01*
X322520Y519324D01*
X322588Y519313D01*
X322655Y519298D01*
X322722Y519279D01*
X322787Y519257D01*
X322850Y519231D01*
X322913Y519202D01*
X322973Y519169D01*
X323032Y519133D01*
X323088Y519094D01*
X323142Y519051D01*
X323194Y519006D01*
X323244Y518958D01*
X323290Y518908D01*
X323334Y518855D01*
X323375Y518799D01*
X323412Y518742D01*
X323447Y518682D01*
X323478Y518621D01*
X323505Y518558D01*
X323529Y518493D01*
X323550Y518428D01*
X323567Y518361D01*
X323580Y518293D01*
X323589Y518225D01*
X323595Y518157D01*
X323597Y518088D01*
X323596Y518088D02*
X323596Y516092D01*
X323597Y516092D02*
X323595Y516023D01*
X323589Y515955D01*
X323580Y515887D01*
X323567Y515819D01*
X323550Y515752D01*
X323529Y515687D01*
X323505Y515622D01*
X323478Y515559D01*
X323447Y515498D01*
X323412Y515438D01*
X323375Y515381D01*
X323334Y515325D01*
X323290Y515272D01*
X323244Y515222D01*
X323194Y515174D01*
X323142Y515129D01*
X323088Y515086D01*
X323032Y515047D01*
X322973Y515011D01*
X322913Y514978D01*
X322850Y514949D01*
X322787Y514923D01*
X322722Y514901D01*
X322655Y514882D01*
X322588Y514867D01*
X322520Y514856D01*
X322452Y514848D01*
X322383Y514844D01*
X322315Y514844D01*
X322246Y514848D01*
X322178Y514856D01*
X322110Y514867D01*
X322043Y514882D01*
X321976Y514901D01*
X321911Y514923D01*
X321848Y514949D01*
X321785Y514978D01*
X321725Y515011D01*
X321666Y515047D01*
X321610Y515086D01*
X321556Y515129D01*
X321504Y515174D01*
X321454Y515222D01*
X321408Y515272D01*
X321364Y515325D01*
X321323Y515381D01*
X321286Y515438D01*
X321251Y515498D01*
X321220Y515559D01*
X321193Y515622D01*
X321169Y515687D01*
X321148Y515752D01*
X321131Y515819D01*
X321118Y515887D01*
X321109Y515955D01*
X321103Y516023D01*
X321101Y516092D01*
X326549Y514844D02*
X326549Y519336D01*
X327796Y519336D02*
X325301Y519336D01*
X329501Y518088D02*
X329501Y516092D01*
X329501Y518088D02*
X329503Y518157D01*
X329509Y518225D01*
X329518Y518293D01*
X329531Y518361D01*
X329548Y518428D01*
X329569Y518493D01*
X329593Y518558D01*
X329620Y518621D01*
X329651Y518682D01*
X329686Y518742D01*
X329723Y518799D01*
X329764Y518855D01*
X329808Y518908D01*
X329854Y518958D01*
X329904Y519006D01*
X329956Y519051D01*
X330010Y519094D01*
X330066Y519133D01*
X330125Y519169D01*
X330185Y519202D01*
X330248Y519231D01*
X330311Y519257D01*
X330376Y519279D01*
X330443Y519298D01*
X330510Y519313D01*
X330578Y519324D01*
X330646Y519332D01*
X330715Y519336D01*
X330783Y519336D01*
X330852Y519332D01*
X330920Y519324D01*
X330988Y519313D01*
X331055Y519298D01*
X331122Y519279D01*
X331187Y519257D01*
X331250Y519231D01*
X331313Y519202D01*
X331373Y519169D01*
X331432Y519133D01*
X331488Y519094D01*
X331542Y519051D01*
X331594Y519006D01*
X331644Y518958D01*
X331690Y518908D01*
X331734Y518855D01*
X331775Y518799D01*
X331812Y518742D01*
X331847Y518682D01*
X331878Y518621D01*
X331905Y518558D01*
X331929Y518493D01*
X331950Y518428D01*
X331967Y518361D01*
X331980Y518293D01*
X331989Y518225D01*
X331995Y518157D01*
X331997Y518088D01*
X331996Y518088D02*
X331996Y516092D01*
X331997Y516092D02*
X331995Y516023D01*
X331989Y515955D01*
X331980Y515887D01*
X331967Y515819D01*
X331950Y515752D01*
X331929Y515687D01*
X331905Y515622D01*
X331878Y515559D01*
X331847Y515498D01*
X331812Y515438D01*
X331775Y515381D01*
X331734Y515325D01*
X331690Y515272D01*
X331644Y515222D01*
X331594Y515174D01*
X331542Y515129D01*
X331488Y515086D01*
X331432Y515047D01*
X331373Y515011D01*
X331313Y514978D01*
X331250Y514949D01*
X331187Y514923D01*
X331122Y514901D01*
X331055Y514882D01*
X330988Y514867D01*
X330920Y514856D01*
X330852Y514848D01*
X330783Y514844D01*
X330715Y514844D01*
X330646Y514848D01*
X330578Y514856D01*
X330510Y514867D01*
X330443Y514882D01*
X330376Y514901D01*
X330311Y514923D01*
X330248Y514949D01*
X330185Y514978D01*
X330125Y515011D01*
X330066Y515047D01*
X330010Y515086D01*
X329956Y515129D01*
X329904Y515174D01*
X329854Y515222D01*
X329808Y515272D01*
X329764Y515325D01*
X329723Y515381D01*
X329686Y515438D01*
X329651Y515498D01*
X329620Y515559D01*
X329593Y515622D01*
X329569Y515687D01*
X329548Y515752D01*
X329531Y515819D01*
X329518Y515887D01*
X329509Y515955D01*
X329503Y516023D01*
X329501Y516092D01*
X334184Y514844D02*
X334184Y519336D01*
X335431Y519336D01*
X335500Y519334D01*
X335568Y519328D01*
X335636Y519319D01*
X335704Y519306D01*
X335771Y519289D01*
X335836Y519268D01*
X335901Y519244D01*
X335964Y519217D01*
X336025Y519186D01*
X336085Y519151D01*
X336142Y519114D01*
X336198Y519073D01*
X336251Y519029D01*
X336301Y518983D01*
X336349Y518933D01*
X336394Y518881D01*
X336437Y518827D01*
X336476Y518771D01*
X336512Y518712D01*
X336545Y518652D01*
X336574Y518589D01*
X336600Y518526D01*
X336622Y518461D01*
X336641Y518394D01*
X336656Y518327D01*
X336667Y518259D01*
X336675Y518191D01*
X336679Y518122D01*
X336679Y518054D01*
X336675Y517985D01*
X336667Y517917D01*
X336656Y517849D01*
X336641Y517782D01*
X336622Y517715D01*
X336600Y517650D01*
X336574Y517587D01*
X336545Y517524D01*
X336512Y517464D01*
X336476Y517405D01*
X336437Y517349D01*
X336394Y517295D01*
X336349Y517243D01*
X336301Y517193D01*
X336251Y517147D01*
X336198Y517103D01*
X336142Y517062D01*
X336085Y517025D01*
X336025Y516990D01*
X335964Y516959D01*
X335901Y516932D01*
X335836Y516908D01*
X335771Y516887D01*
X335704Y516870D01*
X335636Y516857D01*
X335568Y516848D01*
X335500Y516842D01*
X335431Y516840D01*
X334184Y516840D01*
X335681Y516840D02*
X336679Y514844D01*
D11*
X1010000Y460000D02*
X1010000Y375500D01*
X1010000Y294500D01*
X1010000Y210000D01*
X395000Y210000D01*
X395000Y283000D01*
X395000Y393000D01*
X395000Y460000D01*
X1010000Y460000D01*
D12*
X993601Y200746D02*
X993601Y197502D01*
X993600Y197502D02*
X993602Y197433D01*
X993608Y197365D01*
X993617Y197297D01*
X993630Y197229D01*
X993647Y197162D01*
X993668Y197097D01*
X993692Y197032D01*
X993719Y196969D01*
X993750Y196908D01*
X993785Y196848D01*
X993822Y196791D01*
X993863Y196735D01*
X993907Y196682D01*
X993953Y196632D01*
X994003Y196584D01*
X994055Y196539D01*
X994109Y196496D01*
X994165Y196457D01*
X994224Y196421D01*
X994284Y196388D01*
X994347Y196359D01*
X994410Y196333D01*
X994475Y196311D01*
X994542Y196292D01*
X994609Y196277D01*
X994677Y196266D01*
X994745Y196258D01*
X994814Y196254D01*
X994882Y196254D01*
X994951Y196258D01*
X995019Y196266D01*
X995087Y196277D01*
X995154Y196292D01*
X995221Y196311D01*
X995286Y196333D01*
X995349Y196359D01*
X995412Y196388D01*
X995472Y196421D01*
X995531Y196457D01*
X995587Y196496D01*
X995641Y196539D01*
X995693Y196584D01*
X995743Y196632D01*
X995789Y196682D01*
X995833Y196735D01*
X995874Y196791D01*
X995911Y196848D01*
X995946Y196908D01*
X995977Y196969D01*
X996004Y197032D01*
X996028Y197097D01*
X996049Y197162D01*
X996066Y197229D01*
X996079Y197297D01*
X996088Y197365D01*
X996094Y197433D01*
X996096Y197502D01*
X996096Y200746D01*
X999623Y200746D02*
X999688Y200744D01*
X999753Y200738D01*
X999818Y200729D01*
X999882Y200716D01*
X999945Y200699D01*
X1000007Y200678D01*
X1000068Y200654D01*
X1000127Y200627D01*
X1000185Y200596D01*
X1000240Y200561D01*
X1000294Y200524D01*
X1000345Y200483D01*
X1000394Y200440D01*
X1000440Y200394D01*
X1000483Y200345D01*
X1000524Y200294D01*
X1000561Y200240D01*
X1000596Y200185D01*
X1000627Y200127D01*
X1000654Y200068D01*
X1000678Y200007D01*
X1000699Y199945D01*
X1000716Y199882D01*
X1000729Y199818D01*
X1000738Y199753D01*
X1000744Y199688D01*
X1000746Y199623D01*
X999623Y200746D02*
X999550Y200744D01*
X999478Y200739D01*
X999406Y200730D01*
X999335Y200717D01*
X999264Y200701D01*
X999194Y200681D01*
X999125Y200657D01*
X999058Y200631D01*
X998992Y200601D01*
X998927Y200567D01*
X998865Y200531D01*
X998804Y200491D01*
X998745Y200448D01*
X998689Y200403D01*
X998635Y200354D01*
X998583Y200303D01*
X998534Y200250D01*
X998488Y200194D01*
X998444Y200136D01*
X998404Y200075D01*
X998367Y200013D01*
X998333Y199949D01*
X998302Y199883D01*
X998274Y199816D01*
X998250Y199748D01*
X1000372Y198750D02*
X1000418Y198796D01*
X1000461Y198844D01*
X1000502Y198895D01*
X1000540Y198948D01*
X1000575Y199003D01*
X1000606Y199060D01*
X1000635Y199118D01*
X1000661Y199178D01*
X1000683Y199239D01*
X1000702Y199301D01*
X1000718Y199365D01*
X1000730Y199429D01*
X1000739Y199493D01*
X1000744Y199558D01*
X1000746Y199623D01*
X1000372Y198750D02*
X998250Y196254D01*
X1000746Y196254D01*
D10*
X183678Y436750D02*
X183678Y441322D01*
X183678Y368678D02*
X188250Y368678D01*
X256322Y368678D02*
X256322Y373250D01*
X256322Y441322D02*
X251750Y441322D01*
X188250Y441322D02*
X183678Y441322D01*
X183678Y373250D02*
X183678Y368678D01*
X251750Y368678D02*
X256322Y368678D01*
X256322Y436750D02*
X256322Y441322D01*
D13*
X252625Y451009D02*
X248646Y451009D01*
X245661Y448688D01*
X248646Y451009D02*
X245661Y453331D01*
X248646Y451009D02*
X249972Y447362D01*
X248646Y451009D02*
X249972Y454657D01*
X225969Y418575D02*
X214031Y418575D01*
X225969Y421891D02*
X225969Y415259D01*
X220663Y410694D02*
X220663Y407378D01*
X220661Y407264D01*
X220655Y407149D01*
X220645Y407035D01*
X220631Y406922D01*
X220614Y406808D01*
X220592Y406696D01*
X220567Y406584D01*
X220537Y406474D01*
X220504Y406364D01*
X220467Y406256D01*
X220427Y406149D01*
X220382Y406043D01*
X220335Y405939D01*
X220283Y405837D01*
X220228Y405737D01*
X220170Y405638D01*
X220108Y405542D01*
X220043Y405447D01*
X219975Y405356D01*
X219903Y405266D01*
X219829Y405179D01*
X219752Y405095D01*
X219671Y405013D01*
X219588Y404934D01*
X219503Y404858D01*
X219414Y404785D01*
X219324Y404716D01*
X219231Y404649D01*
X219135Y404586D01*
X219038Y404526D01*
X218938Y404469D01*
X218837Y404416D01*
X218734Y404366D01*
X218629Y404320D01*
X218523Y404277D01*
X218415Y404239D01*
X218306Y404204D01*
X218196Y404173D01*
X218085Y404145D01*
X217973Y404122D01*
X217860Y404102D01*
X217747Y404086D01*
X217633Y404074D01*
X217519Y404066D01*
X217404Y404062D01*
X217290Y404062D01*
X217175Y404066D01*
X217061Y404074D01*
X216947Y404086D01*
X216834Y404102D01*
X216721Y404122D01*
X216609Y404145D01*
X216498Y404173D01*
X216388Y404204D01*
X216279Y404239D01*
X216171Y404277D01*
X216065Y404320D01*
X215960Y404366D01*
X215857Y404416D01*
X215756Y404469D01*
X215656Y404526D01*
X215559Y404586D01*
X215463Y404649D01*
X215370Y404716D01*
X215280Y404785D01*
X215191Y404858D01*
X215106Y404934D01*
X215023Y405013D01*
X214942Y405095D01*
X214865Y405179D01*
X214791Y405266D01*
X214719Y405356D01*
X214651Y405447D01*
X214586Y405542D01*
X214524Y405638D01*
X214466Y405737D01*
X214411Y405837D01*
X214359Y405939D01*
X214312Y406043D01*
X214267Y406149D01*
X214227Y406256D01*
X214190Y406364D01*
X214157Y406474D01*
X214127Y406584D01*
X214102Y406696D01*
X214080Y406808D01*
X214063Y406922D01*
X214049Y407035D01*
X214039Y407149D01*
X214033Y407264D01*
X214031Y407378D01*
X214031Y410694D01*
X225969Y410694D01*
X225969Y407378D01*
X225967Y407276D01*
X225961Y407175D01*
X225951Y407074D01*
X225938Y406973D01*
X225920Y406873D01*
X225899Y406774D01*
X225874Y406675D01*
X225845Y406578D01*
X225813Y406481D01*
X225777Y406386D01*
X225737Y406293D01*
X225694Y406201D01*
X225647Y406111D01*
X225596Y406022D01*
X225543Y405936D01*
X225486Y405852D01*
X225426Y405770D01*
X225363Y405690D01*
X225297Y405613D01*
X225228Y405538D01*
X225156Y405466D01*
X225081Y405397D01*
X225004Y405331D01*
X224924Y405268D01*
X224842Y405208D01*
X224758Y405151D01*
X224672Y405098D01*
X224583Y405047D01*
X224493Y405000D01*
X224401Y404957D01*
X224308Y404917D01*
X224213Y404881D01*
X224116Y404849D01*
X224019Y404820D01*
X223920Y404795D01*
X223821Y404774D01*
X223721Y404756D01*
X223620Y404743D01*
X223519Y404733D01*
X223418Y404727D01*
X223316Y404725D01*
X223214Y404727D01*
X223113Y404733D01*
X223012Y404743D01*
X222911Y404756D01*
X222811Y404774D01*
X222712Y404795D01*
X222613Y404820D01*
X222516Y404849D01*
X222419Y404881D01*
X222324Y404917D01*
X222231Y404957D01*
X222139Y405000D01*
X222049Y405047D01*
X221960Y405098D01*
X221874Y405151D01*
X221790Y405208D01*
X221708Y405268D01*
X221628Y405331D01*
X221551Y405397D01*
X221476Y405466D01*
X221404Y405538D01*
X221335Y405613D01*
X221269Y405690D01*
X221206Y405770D01*
X221146Y405852D01*
X221089Y405936D01*
X221036Y406022D01*
X220985Y406111D01*
X220938Y406201D01*
X220895Y406293D01*
X220855Y406386D01*
X220819Y406481D01*
X220787Y406578D01*
X220758Y406675D01*
X220733Y406774D01*
X220712Y406873D01*
X220694Y406973D01*
X220681Y407074D01*
X220671Y407175D01*
X220665Y407276D01*
X220663Y407378D01*
X220663Y399793D02*
X220663Y395814D01*
X220661Y395712D01*
X220655Y395611D01*
X220645Y395510D01*
X220632Y395409D01*
X220614Y395309D01*
X220593Y395210D01*
X220568Y395111D01*
X220539Y395014D01*
X220507Y394917D01*
X220471Y394822D01*
X220431Y394729D01*
X220388Y394637D01*
X220341Y394547D01*
X220290Y394458D01*
X220237Y394372D01*
X220180Y394288D01*
X220120Y394206D01*
X220057Y394126D01*
X219991Y394049D01*
X219922Y393974D01*
X219850Y393902D01*
X219775Y393833D01*
X219698Y393767D01*
X219618Y393704D01*
X219536Y393644D01*
X219452Y393587D01*
X219366Y393534D01*
X219277Y393483D01*
X219187Y393436D01*
X219095Y393393D01*
X219002Y393353D01*
X218907Y393317D01*
X218810Y393285D01*
X218713Y393256D01*
X218615Y393231D01*
X218515Y393210D01*
X218415Y393192D01*
X218314Y393179D01*
X218213Y393169D01*
X218112Y393163D01*
X218010Y393161D01*
X217347Y393161D01*
X217233Y393163D01*
X217118Y393169D01*
X217004Y393179D01*
X216891Y393193D01*
X216777Y393210D01*
X216665Y393232D01*
X216553Y393257D01*
X216443Y393287D01*
X216333Y393320D01*
X216225Y393357D01*
X216118Y393397D01*
X216012Y393442D01*
X215908Y393489D01*
X215806Y393541D01*
X215706Y393596D01*
X215607Y393654D01*
X215511Y393716D01*
X215416Y393781D01*
X215325Y393849D01*
X215235Y393921D01*
X215148Y393995D01*
X215064Y394072D01*
X214982Y394153D01*
X214903Y394236D01*
X214827Y394321D01*
X214754Y394410D01*
X214685Y394500D01*
X214618Y394593D01*
X214555Y394689D01*
X214495Y394786D01*
X214438Y394886D01*
X214385Y394987D01*
X214335Y395090D01*
X214289Y395195D01*
X214246Y395301D01*
X214208Y395409D01*
X214173Y395518D01*
X214142Y395628D01*
X214114Y395739D01*
X214091Y395851D01*
X214071Y395964D01*
X214055Y396077D01*
X214043Y396191D01*
X214035Y396305D01*
X214031Y396420D01*
X214031Y396534D01*
X214035Y396649D01*
X214043Y396763D01*
X214055Y396877D01*
X214071Y396990D01*
X214091Y397103D01*
X214114Y397215D01*
X214142Y397326D01*
X214173Y397436D01*
X214208Y397545D01*
X214246Y397653D01*
X214289Y397759D01*
X214335Y397864D01*
X214385Y397967D01*
X214438Y398068D01*
X214495Y398168D01*
X214555Y398265D01*
X214618Y398361D01*
X214685Y398454D01*
X214754Y398544D01*
X214827Y398633D01*
X214903Y398718D01*
X214982Y398801D01*
X215064Y398882D01*
X215148Y398959D01*
X215235Y399033D01*
X215325Y399105D01*
X215416Y399173D01*
X215511Y399238D01*
X215607Y399300D01*
X215706Y399358D01*
X215806Y399413D01*
X215908Y399465D01*
X216012Y399512D01*
X216118Y399557D01*
X216225Y399597D01*
X216333Y399634D01*
X216443Y399667D01*
X216553Y399697D01*
X216665Y399722D01*
X216777Y399744D01*
X216891Y399761D01*
X217004Y399775D01*
X217118Y399785D01*
X217233Y399791D01*
X217347Y399793D01*
X220663Y399793D01*
X220807Y399791D01*
X220950Y399785D01*
X221094Y399775D01*
X221237Y399762D01*
X221379Y399744D01*
X221521Y399723D01*
X221663Y399698D01*
X221804Y399669D01*
X221944Y399636D01*
X222083Y399600D01*
X222220Y399559D01*
X222357Y399515D01*
X222493Y399468D01*
X222627Y399416D01*
X222760Y399361D01*
X222891Y399303D01*
X223021Y399241D01*
X223148Y399175D01*
X223274Y399106D01*
X223399Y399033D01*
X223521Y398958D01*
X223641Y398879D01*
X223758Y398796D01*
X223874Y398711D01*
X223987Y398623D01*
X224098Y398531D01*
X224206Y398437D01*
X224312Y398339D01*
X224415Y398239D01*
X224515Y398136D01*
X224613Y398030D01*
X224707Y397922D01*
X224799Y397811D01*
X224887Y397698D01*
X224972Y397583D01*
X225055Y397465D01*
X225134Y397345D01*
X225209Y397223D01*
X225282Y397098D01*
X225351Y396972D01*
X225416Y396845D01*
X225479Y396715D01*
X225537Y396584D01*
X225592Y396451D01*
X225644Y396317D01*
X225691Y396181D01*
X225735Y396044D01*
X225776Y395907D01*
X225812Y395768D01*
X225845Y395628D01*
X225874Y395487D01*
X225899Y395345D01*
X225920Y395203D01*
X225938Y395061D01*
X225951Y394918D01*
X225961Y394774D01*
X225967Y394631D01*
X225969Y394487D01*
X225969Y388363D02*
X224643Y388363D01*
X225969Y388363D02*
X225969Y381731D01*
X214031Y385047D01*
X214031Y376552D02*
X225969Y376552D01*
X220663Y376552D02*
X220663Y369920D01*
X225969Y369920D02*
X214031Y369920D01*
X216684Y364741D02*
X225969Y362088D01*
X216684Y364741D02*
X216684Y358109D01*
X219337Y360099D02*
X214031Y360099D01*
X220000Y353311D02*
X220235Y353308D01*
X220470Y353300D01*
X220704Y353286D01*
X220938Y353266D01*
X221172Y353241D01*
X221404Y353210D01*
X221636Y353174D01*
X221868Y353132D01*
X222098Y353085D01*
X222326Y353032D01*
X222554Y352974D01*
X222780Y352910D01*
X223004Y352841D01*
X223227Y352767D01*
X223448Y352687D01*
X223667Y352602D01*
X223884Y352512D01*
X224099Y352417D01*
X224311Y352316D01*
X224403Y352283D01*
X224494Y352245D01*
X224583Y352204D01*
X224671Y352160D01*
X224756Y352112D01*
X224840Y352061D01*
X224922Y352006D01*
X225001Y351948D01*
X225078Y351887D01*
X225152Y351823D01*
X225224Y351756D01*
X225293Y351686D01*
X225359Y351614D01*
X225423Y351539D01*
X225483Y351461D01*
X225540Y351381D01*
X225594Y351299D01*
X225644Y351215D01*
X225691Y351129D01*
X225735Y351041D01*
X225775Y350951D01*
X225812Y350860D01*
X225844Y350767D01*
X225873Y350673D01*
X225899Y350579D01*
X225920Y350483D01*
X225938Y350386D01*
X225951Y350289D01*
X225961Y350191D01*
X225967Y350093D01*
X225969Y349995D01*
X225967Y349897D01*
X225961Y349799D01*
X225951Y349701D01*
X225938Y349604D01*
X225920Y349507D01*
X225899Y349411D01*
X225873Y349317D01*
X225844Y349223D01*
X225812Y349130D01*
X225775Y349039D01*
X225735Y348949D01*
X225691Y348861D01*
X225644Y348775D01*
X225594Y348691D01*
X225540Y348609D01*
X225483Y348529D01*
X225423Y348451D01*
X225359Y348376D01*
X225293Y348304D01*
X225224Y348234D01*
X225152Y348167D01*
X225078Y348103D01*
X225001Y348042D01*
X224922Y347984D01*
X224840Y347929D01*
X224756Y347878D01*
X224671Y347830D01*
X224583Y347786D01*
X224494Y347745D01*
X224403Y347707D01*
X224311Y347674D01*
X224099Y347573D01*
X223884Y347478D01*
X223667Y347388D01*
X223448Y347303D01*
X223227Y347223D01*
X223005Y347149D01*
X222780Y347080D01*
X222554Y347016D01*
X222326Y346958D01*
X222098Y346905D01*
X221868Y346858D01*
X221636Y346816D01*
X221404Y346780D01*
X221172Y346749D01*
X220938Y346724D01*
X220704Y346704D01*
X220470Y346690D01*
X220235Y346682D01*
X220000Y346679D01*
X220000Y353311D02*
X219765Y353308D01*
X219530Y353300D01*
X219296Y353286D01*
X219062Y353266D01*
X218828Y353241D01*
X218596Y353210D01*
X218364Y353174D01*
X218133Y353132D01*
X217902Y353085D01*
X217674Y353032D01*
X217446Y352974D01*
X217220Y352910D01*
X216996Y352841D01*
X216773Y352767D01*
X216552Y352687D01*
X216333Y352602D01*
X216116Y352512D01*
X215901Y352417D01*
X215689Y352316D01*
X215597Y352283D01*
X215506Y352245D01*
X215417Y352204D01*
X215329Y352160D01*
X215244Y352112D01*
X215160Y352061D01*
X215078Y352006D01*
X214999Y351948D01*
X214922Y351887D01*
X214848Y351823D01*
X214776Y351756D01*
X214707Y351686D01*
X214641Y351614D01*
X214577Y351539D01*
X214517Y351461D01*
X214460Y351381D01*
X214406Y351299D01*
X214356Y351215D01*
X214309Y351129D01*
X214265Y351041D01*
X214225Y350951D01*
X214188Y350860D01*
X214156Y350767D01*
X214127Y350673D01*
X214101Y350579D01*
X214080Y350483D01*
X214062Y350386D01*
X214049Y350289D01*
X214039Y350191D01*
X214033Y350093D01*
X214031Y349995D01*
X215689Y347674D02*
X215901Y347573D01*
X216116Y347478D01*
X216333Y347388D01*
X216552Y347303D01*
X216773Y347223D01*
X216996Y347149D01*
X217220Y347080D01*
X217446Y347016D01*
X217674Y346958D01*
X217902Y346905D01*
X218132Y346858D01*
X218364Y346816D01*
X218596Y346780D01*
X218828Y346749D01*
X219062Y346724D01*
X219296Y346704D01*
X219530Y346690D01*
X219765Y346682D01*
X220000Y346679D01*
X215689Y347674D02*
X215597Y347707D01*
X215506Y347745D01*
X215417Y347786D01*
X215329Y347830D01*
X215244Y347878D01*
X215160Y347930D01*
X215078Y347984D01*
X214999Y348042D01*
X214922Y348103D01*
X214848Y348167D01*
X214776Y348234D01*
X214707Y348304D01*
X214641Y348376D01*
X214577Y348451D01*
X214517Y348529D01*
X214460Y348609D01*
X214406Y348691D01*
X214356Y348775D01*
X214309Y348861D01*
X214265Y348949D01*
X214225Y349039D01*
X214188Y349130D01*
X214156Y349223D01*
X214127Y349317D01*
X214101Y349411D01*
X214080Y349507D01*
X214062Y349604D01*
X214049Y349701D01*
X214039Y349799D01*
X214033Y349897D01*
X214031Y349995D01*
X216684Y352648D02*
X223316Y347342D01*
X223316Y341881D02*
X225969Y338565D01*
X214031Y338565D01*
X214031Y341881D02*
X214031Y335249D01*
X214031Y330050D02*
X225969Y330050D01*
X225969Y324745D01*
X220663Y324745D02*
X220663Y330050D01*
X225969Y317991D02*
X214031Y317991D01*
X225969Y321307D02*
X225969Y314675D01*
X220663Y305616D02*
X220663Y303626D01*
X214031Y303626D01*
X214031Y307605D01*
X214033Y307707D01*
X214039Y307808D01*
X214049Y307909D01*
X214062Y308010D01*
X214080Y308110D01*
X214101Y308209D01*
X214126Y308308D01*
X214155Y308405D01*
X214187Y308502D01*
X214223Y308597D01*
X214263Y308690D01*
X214306Y308782D01*
X214353Y308872D01*
X214404Y308961D01*
X214457Y309047D01*
X214514Y309131D01*
X214574Y309213D01*
X214637Y309293D01*
X214703Y309370D01*
X214772Y309445D01*
X214844Y309517D01*
X214919Y309586D01*
X214996Y309652D01*
X215076Y309715D01*
X215158Y309775D01*
X215242Y309832D01*
X215328Y309885D01*
X215417Y309936D01*
X215507Y309983D01*
X215599Y310026D01*
X215692Y310066D01*
X215787Y310102D01*
X215884Y310134D01*
X215981Y310163D01*
X216080Y310188D01*
X216179Y310209D01*
X216279Y310227D01*
X216380Y310240D01*
X216481Y310250D01*
X216582Y310256D01*
X216684Y310258D01*
X223316Y310258D01*
X223418Y310256D01*
X223519Y310250D01*
X223620Y310240D01*
X223721Y310227D01*
X223821Y310209D01*
X223920Y310188D01*
X224019Y310163D01*
X224116Y310134D01*
X224213Y310102D01*
X224308Y310066D01*
X224401Y310026D01*
X224493Y309983D01*
X224583Y309936D01*
X224672Y309885D01*
X224758Y309832D01*
X224842Y309775D01*
X224924Y309715D01*
X225004Y309652D01*
X225081Y309586D01*
X225156Y309517D01*
X225228Y309445D01*
X225297Y309370D01*
X225363Y309293D01*
X225426Y309213D01*
X225486Y309131D01*
X225543Y309047D01*
X225596Y308961D01*
X225647Y308872D01*
X225694Y308782D01*
X225737Y308690D01*
X225777Y308597D01*
X225813Y308502D01*
X225845Y308405D01*
X225874Y308308D01*
X225899Y308210D01*
X225920Y308110D01*
X225938Y308010D01*
X225951Y307909D01*
X225961Y307808D01*
X225967Y307707D01*
X225969Y307605D01*
X225969Y303626D01*
X220000Y298337D02*
X220273Y298334D01*
X220546Y298324D01*
X220819Y298307D01*
X221091Y298284D01*
X221363Y298255D01*
X221633Y298219D01*
X221903Y298176D01*
X222172Y298127D01*
X222440Y298072D01*
X222706Y298010D01*
X222970Y297942D01*
X223233Y297867D01*
X223494Y297786D01*
X223753Y297699D01*
X224010Y297606D01*
X224264Y297506D01*
X224516Y297401D01*
X224765Y297289D01*
X225012Y297171D01*
X225256Y297048D01*
X225496Y296919D01*
X225734Y296784D01*
X225968Y296643D01*
X226199Y296496D01*
X226426Y296345D01*
X226649Y296187D01*
X226869Y296025D01*
X227084Y295857D01*
X227296Y295684D01*
X220000Y298337D02*
X219727Y298334D01*
X219454Y298324D01*
X219181Y298307D01*
X218909Y298284D01*
X218637Y298255D01*
X218367Y298219D01*
X218097Y298176D01*
X217828Y298127D01*
X217560Y298072D01*
X217294Y298010D01*
X217030Y297942D01*
X216767Y297867D01*
X216506Y297786D01*
X216247Y297699D01*
X215990Y297606D01*
X215736Y297506D01*
X215484Y297401D01*
X215235Y297289D01*
X214988Y297171D01*
X214744Y297048D01*
X214504Y296919D01*
X214266Y296784D01*
X214032Y296643D01*
X213801Y296496D01*
X213574Y296345D01*
X213351Y296187D01*
X213131Y296025D01*
X212916Y295857D01*
X212704Y295684D01*
X217347Y291208D02*
X222653Y291208D01*
X222767Y291206D01*
X222882Y291200D01*
X222996Y291190D01*
X223109Y291176D01*
X223223Y291159D01*
X223335Y291137D01*
X223447Y291112D01*
X223557Y291082D01*
X223667Y291049D01*
X223775Y291012D01*
X223882Y290972D01*
X223988Y290927D01*
X224092Y290880D01*
X224194Y290828D01*
X224294Y290773D01*
X224393Y290715D01*
X224489Y290653D01*
X224584Y290588D01*
X224675Y290520D01*
X224765Y290448D01*
X224852Y290374D01*
X224936Y290297D01*
X225018Y290216D01*
X225097Y290133D01*
X225173Y290048D01*
X225246Y289959D01*
X225315Y289869D01*
X225382Y289776D01*
X225445Y289680D01*
X225505Y289583D01*
X225562Y289483D01*
X225615Y289382D01*
X225665Y289279D01*
X225711Y289174D01*
X225754Y289068D01*
X225792Y288960D01*
X225827Y288851D01*
X225858Y288741D01*
X225886Y288630D01*
X225909Y288518D01*
X225929Y288405D01*
X225945Y288292D01*
X225957Y288178D01*
X225965Y288064D01*
X225969Y287949D01*
X225969Y287835D01*
X225965Y287720D01*
X225957Y287606D01*
X225945Y287492D01*
X225929Y287379D01*
X225909Y287266D01*
X225886Y287154D01*
X225858Y287043D01*
X225827Y286933D01*
X225792Y286824D01*
X225754Y286716D01*
X225711Y286610D01*
X225665Y286505D01*
X225615Y286402D01*
X225562Y286301D01*
X225505Y286201D01*
X225445Y286104D01*
X225382Y286008D01*
X225315Y285915D01*
X225246Y285825D01*
X225173Y285736D01*
X225097Y285651D01*
X225018Y285568D01*
X224936Y285487D01*
X224852Y285410D01*
X224765Y285336D01*
X224675Y285264D01*
X224584Y285196D01*
X224489Y285131D01*
X224393Y285069D01*
X224294Y285011D01*
X224194Y284956D01*
X224092Y284904D01*
X223988Y284857D01*
X223882Y284812D01*
X223775Y284772D01*
X223667Y284735D01*
X223557Y284702D01*
X223447Y284672D01*
X223335Y284647D01*
X223223Y284625D01*
X223109Y284608D01*
X222996Y284594D01*
X222882Y284584D01*
X222767Y284578D01*
X222653Y284576D01*
X217347Y284576D01*
X217233Y284578D01*
X217118Y284584D01*
X217004Y284594D01*
X216891Y284608D01*
X216777Y284625D01*
X216665Y284647D01*
X216553Y284672D01*
X216443Y284702D01*
X216333Y284735D01*
X216225Y284772D01*
X216118Y284812D01*
X216012Y284857D01*
X215908Y284904D01*
X215806Y284956D01*
X215706Y285011D01*
X215607Y285069D01*
X215511Y285131D01*
X215416Y285196D01*
X215325Y285264D01*
X215235Y285336D01*
X215148Y285410D01*
X215064Y285487D01*
X214982Y285568D01*
X214903Y285651D01*
X214827Y285736D01*
X214754Y285825D01*
X214685Y285915D01*
X214618Y286008D01*
X214555Y286104D01*
X214495Y286201D01*
X214438Y286301D01*
X214385Y286402D01*
X214335Y286505D01*
X214289Y286610D01*
X214246Y286716D01*
X214208Y286824D01*
X214173Y286933D01*
X214142Y287043D01*
X214114Y287154D01*
X214091Y287266D01*
X214071Y287379D01*
X214055Y287492D01*
X214043Y287606D01*
X214035Y287720D01*
X214031Y287835D01*
X214031Y287949D01*
X214035Y288064D01*
X214043Y288178D01*
X214055Y288292D01*
X214071Y288405D01*
X214091Y288518D01*
X214114Y288630D01*
X214142Y288741D01*
X214173Y288851D01*
X214208Y288960D01*
X214246Y289068D01*
X214289Y289174D01*
X214335Y289279D01*
X214385Y289382D01*
X214438Y289483D01*
X214495Y289583D01*
X214555Y289680D01*
X214618Y289776D01*
X214685Y289869D01*
X214754Y289959D01*
X214827Y290048D01*
X214903Y290133D01*
X214982Y290216D01*
X215064Y290297D01*
X215148Y290374D01*
X215235Y290448D01*
X215325Y290520D01*
X215416Y290588D01*
X215511Y290653D01*
X215607Y290715D01*
X215706Y290773D01*
X215806Y290828D01*
X215908Y290880D01*
X216012Y290927D01*
X216118Y290972D01*
X216225Y291012D01*
X216333Y291049D01*
X216443Y291082D01*
X216553Y291112D01*
X216665Y291137D01*
X216777Y291159D01*
X216891Y291176D01*
X217004Y291190D01*
X217118Y291200D01*
X217233Y291206D01*
X217347Y291208D01*
X214031Y280261D02*
X214031Y279597D01*
X214031Y280261D02*
X214694Y280261D01*
X214694Y279597D01*
X214031Y279597D01*
X211378Y280592D01*
X214031Y274806D02*
X214031Y269500D01*
X214031Y274806D02*
X225969Y274806D01*
X225969Y269500D01*
X220663Y270826D02*
X220663Y274806D01*
X225969Y264900D02*
X214031Y264900D01*
X214031Y259594D01*
X212704Y255716D02*
X212916Y255543D01*
X213131Y255375D01*
X213351Y255213D01*
X213574Y255055D01*
X213801Y254904D01*
X214032Y254757D01*
X214266Y254616D01*
X214504Y254481D01*
X214744Y254352D01*
X214988Y254229D01*
X215235Y254111D01*
X215484Y253999D01*
X215736Y253894D01*
X215990Y253794D01*
X216247Y253701D01*
X216506Y253614D01*
X216767Y253533D01*
X217030Y253458D01*
X217294Y253390D01*
X217560Y253328D01*
X217828Y253273D01*
X218097Y253224D01*
X218367Y253181D01*
X218637Y253145D01*
X218909Y253116D01*
X219181Y253093D01*
X219454Y253076D01*
X219727Y253066D01*
X220000Y253063D01*
X220273Y253066D01*
X220546Y253076D01*
X220819Y253093D01*
X221091Y253116D01*
X221363Y253145D01*
X221633Y253181D01*
X221903Y253224D01*
X222172Y253273D01*
X222440Y253328D01*
X222706Y253390D01*
X222970Y253458D01*
X223233Y253533D01*
X223494Y253614D01*
X223753Y253701D01*
X224010Y253794D01*
X224264Y253894D01*
X224516Y253999D01*
X224765Y254111D01*
X225012Y254229D01*
X225256Y254352D01*
X225496Y254481D01*
X225734Y254616D01*
X225968Y254757D01*
X226199Y254904D01*
X226426Y255055D01*
X226649Y255213D01*
X226869Y255375D01*
X227084Y255543D01*
X227296Y255716D01*
D11*
X246200Y200000D02*
X754200Y200000D01*
X246200Y200000D02*
X246200Y80000D01*
X754200Y80000D01*
X754200Y139000D01*
X754200Y161000D02*
X754200Y200000D01*
D14*
X759000Y150000D02*
X759002Y150063D01*
X759008Y150125D01*
X759018Y150187D01*
X759031Y150249D01*
X759049Y150309D01*
X759070Y150368D01*
X759095Y150426D01*
X759124Y150482D01*
X759156Y150536D01*
X759191Y150588D01*
X759229Y150637D01*
X759271Y150685D01*
X759315Y150729D01*
X759363Y150771D01*
X759412Y150809D01*
X759464Y150844D01*
X759518Y150876D01*
X759574Y150905D01*
X759632Y150930D01*
X759691Y150951D01*
X759751Y150969D01*
X759813Y150982D01*
X759875Y150992D01*
X759937Y150998D01*
X760000Y151000D01*
X760063Y150998D01*
X760125Y150992D01*
X760187Y150982D01*
X760249Y150969D01*
X760309Y150951D01*
X760368Y150930D01*
X760426Y150905D01*
X760482Y150876D01*
X760536Y150844D01*
X760588Y150809D01*
X760637Y150771D01*
X760685Y150729D01*
X760729Y150685D01*
X760771Y150637D01*
X760809Y150588D01*
X760844Y150536D01*
X760876Y150482D01*
X760905Y150426D01*
X760930Y150368D01*
X760951Y150309D01*
X760969Y150249D01*
X760982Y150187D01*
X760992Y150125D01*
X760998Y150063D01*
X761000Y150000D01*
X760998Y149937D01*
X760992Y149875D01*
X760982Y149813D01*
X760969Y149751D01*
X760951Y149691D01*
X760930Y149632D01*
X760905Y149574D01*
X760876Y149518D01*
X760844Y149464D01*
X760809Y149412D01*
X760771Y149363D01*
X760729Y149315D01*
X760685Y149271D01*
X760637Y149229D01*
X760588Y149191D01*
X760536Y149156D01*
X760482Y149124D01*
X760426Y149095D01*
X760368Y149070D01*
X760309Y149049D01*
X760249Y149031D01*
X760187Y149018D01*
X760125Y149008D01*
X760063Y149002D01*
X760000Y149000D01*
X759937Y149002D01*
X759875Y149008D01*
X759813Y149018D01*
X759751Y149031D01*
X759691Y149049D01*
X759632Y149070D01*
X759574Y149095D01*
X759518Y149124D01*
X759464Y149156D01*
X759412Y149191D01*
X759363Y149229D01*
X759315Y149271D01*
X759271Y149315D01*
X759229Y149363D01*
X759191Y149412D01*
X759156Y149464D01*
X759124Y149518D01*
X759095Y149574D01*
X759070Y149632D01*
X759049Y149691D01*
X759031Y149751D01*
X759018Y149813D01*
X759008Y149875D01*
X759002Y149937D01*
X759000Y150000D01*
D12*
X746176Y73546D02*
X746176Y69054D01*
X746176Y73546D02*
X747424Y73546D01*
X747493Y73544D01*
X747561Y73538D01*
X747629Y73529D01*
X747697Y73516D01*
X747764Y73499D01*
X747829Y73478D01*
X747894Y73454D01*
X747957Y73427D01*
X748018Y73396D01*
X748078Y73361D01*
X748135Y73324D01*
X748191Y73283D01*
X748244Y73239D01*
X748294Y73193D01*
X748342Y73143D01*
X748387Y73091D01*
X748430Y73037D01*
X748469Y72981D01*
X748505Y72922D01*
X748538Y72862D01*
X748567Y72799D01*
X748593Y72736D01*
X748615Y72671D01*
X748634Y72604D01*
X748649Y72537D01*
X748660Y72469D01*
X748668Y72401D01*
X748672Y72332D01*
X748672Y72264D01*
X748668Y72195D01*
X748660Y72127D01*
X748649Y72059D01*
X748634Y71992D01*
X748615Y71925D01*
X748593Y71860D01*
X748567Y71797D01*
X748538Y71734D01*
X748505Y71674D01*
X748469Y71615D01*
X748430Y71559D01*
X748387Y71505D01*
X748342Y71453D01*
X748294Y71403D01*
X748244Y71357D01*
X748191Y71313D01*
X748135Y71272D01*
X748078Y71235D01*
X748018Y71200D01*
X747957Y71169D01*
X747894Y71142D01*
X747829Y71118D01*
X747764Y71097D01*
X747697Y71080D01*
X747629Y71067D01*
X747561Y71058D01*
X747493Y71052D01*
X747424Y71050D01*
X746176Y71050D01*
X751798Y69054D02*
X751861Y69056D01*
X751923Y69062D01*
X751985Y69072D01*
X752046Y69085D01*
X752106Y69103D01*
X752165Y69124D01*
X752223Y69149D01*
X752279Y69177D01*
X752333Y69209D01*
X752385Y69245D01*
X752434Y69283D01*
X752481Y69325D01*
X752526Y69369D01*
X752567Y69416D01*
X752605Y69465D01*
X752641Y69517D01*
X752673Y69571D01*
X752701Y69627D01*
X752726Y69685D01*
X752747Y69744D01*
X752765Y69804D01*
X752778Y69865D01*
X752788Y69927D01*
X752794Y69989D01*
X752796Y70052D01*
X751798Y69054D02*
X751710Y69056D01*
X751623Y69061D01*
X751536Y69070D01*
X751449Y69083D01*
X751363Y69099D01*
X751278Y69119D01*
X751193Y69143D01*
X751110Y69169D01*
X751027Y69200D01*
X750947Y69234D01*
X750867Y69271D01*
X750789Y69311D01*
X750713Y69354D01*
X750639Y69401D01*
X750567Y69451D01*
X750497Y69503D01*
X750429Y69559D01*
X750363Y69617D01*
X750300Y69678D01*
X750426Y72548D02*
X750428Y72608D01*
X750433Y72668D01*
X750442Y72728D01*
X750455Y72787D01*
X750471Y72845D01*
X750491Y72902D01*
X750514Y72958D01*
X750540Y73012D01*
X750570Y73064D01*
X750603Y73115D01*
X750638Y73163D01*
X750677Y73210D01*
X750718Y73254D01*
X750762Y73295D01*
X750809Y73334D01*
X750857Y73369D01*
X750908Y73402D01*
X750960Y73432D01*
X751014Y73458D01*
X751070Y73481D01*
X751127Y73501D01*
X751185Y73517D01*
X751244Y73530D01*
X751304Y73539D01*
X751364Y73544D01*
X751424Y73546D01*
X751510Y73544D01*
X751596Y73538D01*
X751681Y73528D01*
X751766Y73514D01*
X751850Y73497D01*
X751934Y73475D01*
X752016Y73450D01*
X752097Y73421D01*
X752177Y73388D01*
X752254Y73352D01*
X752331Y73312D01*
X752405Y73268D01*
X752477Y73222D01*
X752547Y73172D01*
X750924Y71674D02*
X750872Y71707D01*
X750822Y71744D01*
X750774Y71783D01*
X750728Y71825D01*
X750685Y71870D01*
X750645Y71917D01*
X750608Y71966D01*
X750574Y72018D01*
X750544Y72072D01*
X750516Y72128D01*
X750492Y72185D01*
X750472Y72243D01*
X750455Y72303D01*
X750442Y72363D01*
X750433Y72424D01*
X750427Y72486D01*
X750425Y72548D01*
X752297Y70926D02*
X752349Y70893D01*
X752399Y70856D01*
X752447Y70817D01*
X752493Y70775D01*
X752536Y70730D01*
X752576Y70683D01*
X752613Y70634D01*
X752647Y70582D01*
X752677Y70528D01*
X752705Y70472D01*
X752729Y70415D01*
X752749Y70357D01*
X752766Y70297D01*
X752779Y70237D01*
X752788Y70176D01*
X752794Y70114D01*
X752796Y70052D01*
X752297Y70926D02*
X750924Y71674D01*
X754650Y72548D02*
X755898Y73546D01*
X755898Y69054D01*
X754650Y69054D02*
X757146Y69054D01*
D10*
X55310Y182530D02*
X55310Y284892D01*
X55310Y182530D02*
X163006Y182530D01*
X163006Y284892D01*
X55310Y284892D01*
D15*
X106110Y298862D02*
X105988Y298864D01*
X105866Y298870D01*
X105744Y298880D01*
X105623Y298893D01*
X105502Y298911D01*
X105382Y298932D01*
X105262Y298958D01*
X105144Y298987D01*
X105026Y299019D01*
X104909Y299056D01*
X104794Y299096D01*
X104680Y299140D01*
X104568Y299188D01*
X104457Y299239D01*
X104348Y299294D01*
X104240Y299352D01*
X104135Y299414D01*
X104032Y299479D01*
X103930Y299547D01*
X103831Y299619D01*
X103735Y299693D01*
X103640Y299771D01*
X103549Y299852D01*
X103459Y299935D01*
X103373Y300021D01*
X103290Y300111D01*
X103209Y300202D01*
X103131Y300297D01*
X103057Y300393D01*
X102985Y300492D01*
X102917Y300594D01*
X102852Y300697D01*
X102790Y300802D01*
X102732Y300910D01*
X102677Y301019D01*
X102626Y301130D01*
X102578Y301242D01*
X102534Y301356D01*
X102494Y301471D01*
X102457Y301588D01*
X102425Y301706D01*
X102396Y301824D01*
X102370Y301944D01*
X102349Y302064D01*
X102331Y302185D01*
X102318Y302306D01*
X102308Y302428D01*
X102302Y302550D01*
X102300Y302672D01*
X102302Y302794D01*
X102308Y302916D01*
X102318Y303038D01*
X102331Y303159D01*
X102349Y303280D01*
X102370Y303400D01*
X102396Y303520D01*
X102425Y303638D01*
X102457Y303756D01*
X102494Y303873D01*
X102534Y303988D01*
X102578Y304102D01*
X102626Y304214D01*
X102677Y304325D01*
X102732Y304434D01*
X102790Y304542D01*
X102852Y304647D01*
X102917Y304750D01*
X102985Y304852D01*
X103057Y304951D01*
X103131Y305047D01*
X103209Y305142D01*
X103290Y305233D01*
X103373Y305323D01*
X103459Y305409D01*
X103549Y305492D01*
X103640Y305573D01*
X103735Y305651D01*
X103831Y305725D01*
X103930Y305797D01*
X104032Y305865D01*
X104135Y305930D01*
X104240Y305992D01*
X104348Y306050D01*
X104457Y306105D01*
X104568Y306156D01*
X104680Y306204D01*
X104794Y306248D01*
X104909Y306288D01*
X105026Y306325D01*
X105144Y306357D01*
X105262Y306386D01*
X105382Y306412D01*
X105502Y306433D01*
X105623Y306451D01*
X105744Y306464D01*
X105866Y306474D01*
X105988Y306480D01*
X106110Y306482D01*
X106232Y306480D01*
X106354Y306474D01*
X106476Y306464D01*
X106597Y306451D01*
X106718Y306433D01*
X106838Y306412D01*
X106958Y306386D01*
X107076Y306357D01*
X107194Y306325D01*
X107311Y306288D01*
X107426Y306248D01*
X107540Y306204D01*
X107652Y306156D01*
X107763Y306105D01*
X107872Y306050D01*
X107980Y305992D01*
X108085Y305930D01*
X108188Y305865D01*
X108290Y305797D01*
X108389Y305725D01*
X108485Y305651D01*
X108580Y305573D01*
X108671Y305492D01*
X108761Y305409D01*
X108847Y305323D01*
X108930Y305233D01*
X109011Y305142D01*
X109089Y305047D01*
X109163Y304951D01*
X109235Y304852D01*
X109303Y304750D01*
X109368Y304647D01*
X109430Y304542D01*
X109488Y304434D01*
X109543Y304325D01*
X109594Y304214D01*
X109642Y304102D01*
X109686Y303988D01*
X109726Y303873D01*
X109763Y303756D01*
X109795Y303638D01*
X109824Y303520D01*
X109850Y303400D01*
X109871Y303280D01*
X109889Y303159D01*
X109902Y303038D01*
X109912Y302916D01*
X109918Y302794D01*
X109920Y302672D01*
X109918Y302550D01*
X109912Y302428D01*
X109902Y302306D01*
X109889Y302185D01*
X109871Y302064D01*
X109850Y301944D01*
X109824Y301824D01*
X109795Y301706D01*
X109763Y301588D01*
X109726Y301471D01*
X109686Y301356D01*
X109642Y301242D01*
X109594Y301130D01*
X109543Y301019D01*
X109488Y300910D01*
X109430Y300802D01*
X109368Y300697D01*
X109303Y300594D01*
X109235Y300492D01*
X109163Y300393D01*
X109089Y300297D01*
X109011Y300202D01*
X108930Y300111D01*
X108847Y300021D01*
X108761Y299935D01*
X108671Y299852D01*
X108580Y299771D01*
X108485Y299693D01*
X108389Y299619D01*
X108290Y299547D01*
X108188Y299479D01*
X108085Y299414D01*
X107980Y299352D01*
X107872Y299294D01*
X107763Y299239D01*
X107652Y299188D01*
X107540Y299140D01*
X107426Y299096D01*
X107311Y299056D01*
X107194Y299019D01*
X107076Y298987D01*
X106958Y298958D01*
X106838Y298932D01*
X106718Y298911D01*
X106597Y298893D01*
X106476Y298880D01*
X106354Y298870D01*
X106232Y298864D01*
X106110Y298862D01*
D10*
X54630Y178582D02*
X54630Y76220D01*
X162326Y76220D01*
X162326Y178582D01*
X54630Y178582D01*
D15*
X105430Y192552D02*
X105308Y192554D01*
X105186Y192560D01*
X105064Y192570D01*
X104943Y192583D01*
X104822Y192601D01*
X104702Y192622D01*
X104582Y192648D01*
X104464Y192677D01*
X104346Y192709D01*
X104229Y192746D01*
X104114Y192786D01*
X104000Y192830D01*
X103888Y192878D01*
X103777Y192929D01*
X103668Y192984D01*
X103560Y193042D01*
X103455Y193104D01*
X103352Y193169D01*
X103250Y193237D01*
X103151Y193309D01*
X103055Y193383D01*
X102960Y193461D01*
X102869Y193542D01*
X102779Y193625D01*
X102693Y193711D01*
X102610Y193801D01*
X102529Y193892D01*
X102451Y193987D01*
X102377Y194083D01*
X102305Y194182D01*
X102237Y194284D01*
X102172Y194387D01*
X102110Y194492D01*
X102052Y194600D01*
X101997Y194709D01*
X101946Y194820D01*
X101898Y194932D01*
X101854Y195046D01*
X101814Y195161D01*
X101777Y195278D01*
X101745Y195396D01*
X101716Y195514D01*
X101690Y195634D01*
X101669Y195754D01*
X101651Y195875D01*
X101638Y195996D01*
X101628Y196118D01*
X101622Y196240D01*
X101620Y196362D01*
X101622Y196484D01*
X101628Y196606D01*
X101638Y196728D01*
X101651Y196849D01*
X101669Y196970D01*
X101690Y197090D01*
X101716Y197210D01*
X101745Y197328D01*
X101777Y197446D01*
X101814Y197563D01*
X101854Y197678D01*
X101898Y197792D01*
X101946Y197904D01*
X101997Y198015D01*
X102052Y198124D01*
X102110Y198232D01*
X102172Y198337D01*
X102237Y198440D01*
X102305Y198542D01*
X102377Y198641D01*
X102451Y198737D01*
X102529Y198832D01*
X102610Y198923D01*
X102693Y199013D01*
X102779Y199099D01*
X102869Y199182D01*
X102960Y199263D01*
X103055Y199341D01*
X103151Y199415D01*
X103250Y199487D01*
X103352Y199555D01*
X103455Y199620D01*
X103560Y199682D01*
X103668Y199740D01*
X103777Y199795D01*
X103888Y199846D01*
X104000Y199894D01*
X104114Y199938D01*
X104229Y199978D01*
X104346Y200015D01*
X104464Y200047D01*
X104582Y200076D01*
X104702Y200102D01*
X104822Y200123D01*
X104943Y200141D01*
X105064Y200154D01*
X105186Y200164D01*
X105308Y200170D01*
X105430Y200172D01*
X105552Y200170D01*
X105674Y200164D01*
X105796Y200154D01*
X105917Y200141D01*
X106038Y200123D01*
X106158Y200102D01*
X106278Y200076D01*
X106396Y200047D01*
X106514Y200015D01*
X106631Y199978D01*
X106746Y199938D01*
X106860Y199894D01*
X106972Y199846D01*
X107083Y199795D01*
X107192Y199740D01*
X107300Y199682D01*
X107405Y199620D01*
X107508Y199555D01*
X107610Y199487D01*
X107709Y199415D01*
X107805Y199341D01*
X107900Y199263D01*
X107991Y199182D01*
X108081Y199099D01*
X108167Y199013D01*
X108250Y198923D01*
X108331Y198832D01*
X108409Y198737D01*
X108483Y198641D01*
X108555Y198542D01*
X108623Y198440D01*
X108688Y198337D01*
X108750Y198232D01*
X108808Y198124D01*
X108863Y198015D01*
X108914Y197904D01*
X108962Y197792D01*
X109006Y197678D01*
X109046Y197563D01*
X109083Y197446D01*
X109115Y197328D01*
X109144Y197210D01*
X109170Y197090D01*
X109191Y196970D01*
X109209Y196849D01*
X109222Y196728D01*
X109232Y196606D01*
X109238Y196484D01*
X109240Y196362D01*
X109238Y196240D01*
X109232Y196118D01*
X109222Y195996D01*
X109209Y195875D01*
X109191Y195754D01*
X109170Y195634D01*
X109144Y195514D01*
X109115Y195396D01*
X109083Y195278D01*
X109046Y195161D01*
X109006Y195046D01*
X108962Y194932D01*
X108914Y194820D01*
X108863Y194709D01*
X108808Y194600D01*
X108750Y194492D01*
X108688Y194387D01*
X108623Y194284D01*
X108555Y194182D01*
X108483Y194083D01*
X108409Y193987D01*
X108331Y193892D01*
X108250Y193801D01*
X108167Y193711D01*
X108081Y193625D01*
X107991Y193542D01*
X107900Y193461D01*
X107805Y193383D01*
X107709Y193309D01*
X107610Y193237D01*
X107508Y193169D01*
X107405Y193104D01*
X107300Y193042D01*
X107192Y192984D01*
X107083Y192929D01*
X106972Y192878D01*
X106860Y192830D01*
X106746Y192786D01*
X106631Y192746D01*
X106514Y192709D01*
X106396Y192677D01*
X106278Y192648D01*
X106158Y192622D01*
X106038Y192601D01*
X105917Y192583D01*
X105796Y192570D01*
X105674Y192560D01*
X105552Y192554D01*
X105430Y192552D01*
D10*
X53910Y419400D02*
X53910Y521762D01*
X53910Y419400D02*
X161606Y419400D01*
X161606Y521762D01*
X53910Y521762D01*
D15*
X104710Y535732D02*
X104588Y535734D01*
X104466Y535740D01*
X104344Y535750D01*
X104223Y535763D01*
X104102Y535781D01*
X103982Y535802D01*
X103862Y535828D01*
X103744Y535857D01*
X103626Y535889D01*
X103509Y535926D01*
X103394Y535966D01*
X103280Y536010D01*
X103168Y536058D01*
X103057Y536109D01*
X102948Y536164D01*
X102840Y536222D01*
X102735Y536284D01*
X102632Y536349D01*
X102530Y536417D01*
X102431Y536489D01*
X102335Y536563D01*
X102240Y536641D01*
X102149Y536722D01*
X102059Y536805D01*
X101973Y536891D01*
X101890Y536981D01*
X101809Y537072D01*
X101731Y537167D01*
X101657Y537263D01*
X101585Y537362D01*
X101517Y537464D01*
X101452Y537567D01*
X101390Y537672D01*
X101332Y537780D01*
X101277Y537889D01*
X101226Y538000D01*
X101178Y538112D01*
X101134Y538226D01*
X101094Y538341D01*
X101057Y538458D01*
X101025Y538576D01*
X100996Y538694D01*
X100970Y538814D01*
X100949Y538934D01*
X100931Y539055D01*
X100918Y539176D01*
X100908Y539298D01*
X100902Y539420D01*
X100900Y539542D01*
X100902Y539664D01*
X100908Y539786D01*
X100918Y539908D01*
X100931Y540029D01*
X100949Y540150D01*
X100970Y540270D01*
X100996Y540390D01*
X101025Y540508D01*
X101057Y540626D01*
X101094Y540743D01*
X101134Y540858D01*
X101178Y540972D01*
X101226Y541084D01*
X101277Y541195D01*
X101332Y541304D01*
X101390Y541412D01*
X101452Y541517D01*
X101517Y541620D01*
X101585Y541722D01*
X101657Y541821D01*
X101731Y541917D01*
X101809Y542012D01*
X101890Y542103D01*
X101973Y542193D01*
X102059Y542279D01*
X102149Y542362D01*
X102240Y542443D01*
X102335Y542521D01*
X102431Y542595D01*
X102530Y542667D01*
X102632Y542735D01*
X102735Y542800D01*
X102840Y542862D01*
X102948Y542920D01*
X103057Y542975D01*
X103168Y543026D01*
X103280Y543074D01*
X103394Y543118D01*
X103509Y543158D01*
X103626Y543195D01*
X103744Y543227D01*
X103862Y543256D01*
X103982Y543282D01*
X104102Y543303D01*
X104223Y543321D01*
X104344Y543334D01*
X104466Y543344D01*
X104588Y543350D01*
X104710Y543352D01*
X104832Y543350D01*
X104954Y543344D01*
X105076Y543334D01*
X105197Y543321D01*
X105318Y543303D01*
X105438Y543282D01*
X105558Y543256D01*
X105676Y543227D01*
X105794Y543195D01*
X105911Y543158D01*
X106026Y543118D01*
X106140Y543074D01*
X106252Y543026D01*
X106363Y542975D01*
X106472Y542920D01*
X106580Y542862D01*
X106685Y542800D01*
X106788Y542735D01*
X106890Y542667D01*
X106989Y542595D01*
X107085Y542521D01*
X107180Y542443D01*
X107271Y542362D01*
X107361Y542279D01*
X107447Y542193D01*
X107530Y542103D01*
X107611Y542012D01*
X107689Y541917D01*
X107763Y541821D01*
X107835Y541722D01*
X107903Y541620D01*
X107968Y541517D01*
X108030Y541412D01*
X108088Y541304D01*
X108143Y541195D01*
X108194Y541084D01*
X108242Y540972D01*
X108286Y540858D01*
X108326Y540743D01*
X108363Y540626D01*
X108395Y540508D01*
X108424Y540390D01*
X108450Y540270D01*
X108471Y540150D01*
X108489Y540029D01*
X108502Y539908D01*
X108512Y539786D01*
X108518Y539664D01*
X108520Y539542D01*
X108518Y539420D01*
X108512Y539298D01*
X108502Y539176D01*
X108489Y539055D01*
X108471Y538934D01*
X108450Y538814D01*
X108424Y538694D01*
X108395Y538576D01*
X108363Y538458D01*
X108326Y538341D01*
X108286Y538226D01*
X108242Y538112D01*
X108194Y538000D01*
X108143Y537889D01*
X108088Y537780D01*
X108030Y537672D01*
X107968Y537567D01*
X107903Y537464D01*
X107835Y537362D01*
X107763Y537263D01*
X107689Y537167D01*
X107611Y537072D01*
X107530Y536981D01*
X107447Y536891D01*
X107361Y536805D01*
X107271Y536722D01*
X107180Y536641D01*
X107085Y536563D01*
X106989Y536489D01*
X106890Y536417D01*
X106788Y536349D01*
X106685Y536284D01*
X106580Y536222D01*
X106472Y536164D01*
X106363Y536109D01*
X106252Y536058D01*
X106140Y536010D01*
X106026Y535966D01*
X105911Y535926D01*
X105794Y535889D01*
X105676Y535857D01*
X105558Y535828D01*
X105438Y535802D01*
X105318Y535781D01*
X105197Y535763D01*
X105076Y535750D01*
X104954Y535740D01*
X104832Y535734D01*
X104710Y535732D01*
D12*
X188477Y403256D02*
X188477Y398764D01*
X188477Y403256D02*
X189725Y403256D01*
X189794Y403254D01*
X189862Y403248D01*
X189930Y403239D01*
X189998Y403226D01*
X190065Y403209D01*
X190130Y403188D01*
X190195Y403164D01*
X190258Y403137D01*
X190319Y403106D01*
X190379Y403071D01*
X190436Y403034D01*
X190492Y402993D01*
X190545Y402949D01*
X190595Y402903D01*
X190643Y402853D01*
X190688Y402801D01*
X190731Y402747D01*
X190770Y402691D01*
X190806Y402632D01*
X190839Y402572D01*
X190868Y402509D01*
X190894Y402446D01*
X190916Y402381D01*
X190935Y402314D01*
X190950Y402247D01*
X190961Y402179D01*
X190969Y402111D01*
X190973Y402042D01*
X190973Y401974D01*
X190969Y401905D01*
X190961Y401837D01*
X190950Y401769D01*
X190935Y401702D01*
X190916Y401635D01*
X190894Y401570D01*
X190868Y401507D01*
X190839Y401444D01*
X190806Y401384D01*
X190770Y401325D01*
X190731Y401269D01*
X190688Y401215D01*
X190643Y401163D01*
X190595Y401113D01*
X190545Y401067D01*
X190492Y401023D01*
X190436Y400982D01*
X190379Y400945D01*
X190319Y400910D01*
X190258Y400879D01*
X190195Y400852D01*
X190130Y400828D01*
X190065Y400807D01*
X189998Y400790D01*
X189930Y400777D01*
X189862Y400768D01*
X189794Y400762D01*
X189725Y400760D01*
X188477Y400760D01*
X189975Y400760D02*
X190973Y398764D01*
X192944Y400012D02*
X192944Y402008D01*
X192946Y402077D01*
X192952Y402145D01*
X192961Y402213D01*
X192974Y402281D01*
X192991Y402348D01*
X193012Y402413D01*
X193036Y402478D01*
X193063Y402541D01*
X193094Y402602D01*
X193129Y402662D01*
X193166Y402719D01*
X193207Y402775D01*
X193251Y402828D01*
X193297Y402878D01*
X193347Y402926D01*
X193399Y402971D01*
X193453Y403014D01*
X193509Y403053D01*
X193568Y403089D01*
X193628Y403122D01*
X193691Y403151D01*
X193754Y403177D01*
X193819Y403199D01*
X193886Y403218D01*
X193953Y403233D01*
X194021Y403244D01*
X194089Y403252D01*
X194158Y403256D01*
X194226Y403256D01*
X194295Y403252D01*
X194363Y403244D01*
X194431Y403233D01*
X194498Y403218D01*
X194565Y403199D01*
X194630Y403177D01*
X194693Y403151D01*
X194756Y403122D01*
X194816Y403089D01*
X194875Y403053D01*
X194931Y403014D01*
X194985Y402971D01*
X195037Y402926D01*
X195087Y402878D01*
X195133Y402828D01*
X195177Y402775D01*
X195218Y402719D01*
X195255Y402662D01*
X195290Y402602D01*
X195321Y402541D01*
X195348Y402478D01*
X195372Y402413D01*
X195393Y402348D01*
X195410Y402281D01*
X195423Y402213D01*
X195432Y402145D01*
X195438Y402077D01*
X195440Y402008D01*
X195440Y400012D01*
X195438Y399943D01*
X195432Y399875D01*
X195423Y399807D01*
X195410Y399739D01*
X195393Y399672D01*
X195372Y399607D01*
X195348Y399542D01*
X195321Y399479D01*
X195290Y399418D01*
X195255Y399358D01*
X195218Y399301D01*
X195177Y399245D01*
X195133Y399192D01*
X195087Y399142D01*
X195037Y399094D01*
X194985Y399049D01*
X194931Y399006D01*
X194875Y398967D01*
X194816Y398931D01*
X194756Y398898D01*
X194693Y398869D01*
X194630Y398843D01*
X194565Y398821D01*
X194498Y398802D01*
X194431Y398787D01*
X194363Y398776D01*
X194295Y398768D01*
X194226Y398764D01*
X194158Y398764D01*
X194089Y398768D01*
X194021Y398776D01*
X193953Y398787D01*
X193886Y398802D01*
X193819Y398821D01*
X193754Y398843D01*
X193691Y398869D01*
X193628Y398898D01*
X193568Y398931D01*
X193509Y398967D01*
X193453Y399006D01*
X193399Y399049D01*
X193347Y399094D01*
X193297Y399142D01*
X193251Y399192D01*
X193207Y399245D01*
X193166Y399301D01*
X193129Y399358D01*
X193094Y399418D01*
X193063Y399479D01*
X193036Y399542D01*
X193012Y399607D01*
X192991Y399672D01*
X192974Y399739D01*
X192961Y399807D01*
X192952Y399875D01*
X192946Y399943D01*
X192944Y400012D01*
X198792Y398764D02*
X198855Y398766D01*
X198917Y398772D01*
X198979Y398782D01*
X199040Y398795D01*
X199100Y398813D01*
X199159Y398834D01*
X199217Y398859D01*
X199273Y398887D01*
X199327Y398919D01*
X199379Y398955D01*
X199428Y398993D01*
X199475Y399035D01*
X199520Y399079D01*
X199561Y399126D01*
X199599Y399175D01*
X199635Y399227D01*
X199667Y399281D01*
X199695Y399337D01*
X199720Y399395D01*
X199741Y399454D01*
X199759Y399514D01*
X199772Y399575D01*
X199782Y399637D01*
X199788Y399699D01*
X199790Y399762D01*
X198792Y398764D02*
X198704Y398766D01*
X198617Y398771D01*
X198530Y398780D01*
X198443Y398793D01*
X198357Y398809D01*
X198272Y398829D01*
X198187Y398853D01*
X198104Y398879D01*
X198021Y398910D01*
X197941Y398944D01*
X197861Y398981D01*
X197783Y399021D01*
X197707Y399064D01*
X197633Y399111D01*
X197561Y399161D01*
X197491Y399213D01*
X197423Y399269D01*
X197357Y399327D01*
X197294Y399388D01*
X197419Y402258D02*
X197421Y402318D01*
X197426Y402378D01*
X197435Y402438D01*
X197448Y402497D01*
X197464Y402555D01*
X197484Y402612D01*
X197507Y402668D01*
X197533Y402722D01*
X197563Y402774D01*
X197596Y402825D01*
X197631Y402873D01*
X197670Y402920D01*
X197711Y402964D01*
X197755Y403005D01*
X197802Y403044D01*
X197850Y403079D01*
X197901Y403112D01*
X197953Y403142D01*
X198007Y403168D01*
X198063Y403191D01*
X198120Y403211D01*
X198178Y403227D01*
X198237Y403240D01*
X198297Y403249D01*
X198357Y403254D01*
X198417Y403256D01*
X198503Y403254D01*
X198589Y403248D01*
X198674Y403238D01*
X198759Y403224D01*
X198843Y403207D01*
X198927Y403185D01*
X199009Y403160D01*
X199090Y403131D01*
X199170Y403098D01*
X199247Y403062D01*
X199324Y403022D01*
X199398Y402978D01*
X199470Y402932D01*
X199540Y402882D01*
X197918Y401384D02*
X197866Y401417D01*
X197816Y401454D01*
X197768Y401493D01*
X197722Y401535D01*
X197679Y401580D01*
X197639Y401627D01*
X197602Y401676D01*
X197568Y401728D01*
X197538Y401782D01*
X197510Y401838D01*
X197486Y401895D01*
X197466Y401953D01*
X197449Y402013D01*
X197436Y402073D01*
X197427Y402134D01*
X197421Y402196D01*
X197419Y402258D01*
X199291Y400636D02*
X199343Y400603D01*
X199393Y400566D01*
X199441Y400527D01*
X199487Y400485D01*
X199530Y400440D01*
X199570Y400393D01*
X199607Y400344D01*
X199641Y400292D01*
X199671Y400238D01*
X199699Y400182D01*
X199723Y400125D01*
X199743Y400067D01*
X199760Y400007D01*
X199773Y399947D01*
X199782Y399886D01*
X199788Y399824D01*
X199790Y399762D01*
X199291Y400636D02*
X197918Y401384D01*
X202628Y398764D02*
X203626Y398764D01*
X202628Y398764D02*
X202568Y398766D01*
X202508Y398771D01*
X202448Y398780D01*
X202389Y398793D01*
X202331Y398809D01*
X202274Y398829D01*
X202218Y398852D01*
X202164Y398878D01*
X202112Y398908D01*
X202061Y398941D01*
X202013Y398976D01*
X201966Y399015D01*
X201922Y399056D01*
X201881Y399100D01*
X201842Y399147D01*
X201807Y399195D01*
X201774Y399246D01*
X201744Y399298D01*
X201718Y399352D01*
X201695Y399408D01*
X201675Y399465D01*
X201659Y399523D01*
X201646Y399582D01*
X201637Y399642D01*
X201632Y399702D01*
X201630Y399762D01*
X201630Y402258D01*
X201632Y402321D01*
X201638Y402383D01*
X201648Y402445D01*
X201661Y402506D01*
X201679Y402566D01*
X201700Y402625D01*
X201725Y402683D01*
X201753Y402739D01*
X201785Y402793D01*
X201821Y402845D01*
X201859Y402894D01*
X201900Y402941D01*
X201945Y402985D01*
X201992Y403027D01*
X202041Y403065D01*
X202093Y403101D01*
X202147Y403133D01*
X202203Y403161D01*
X202261Y403186D01*
X202320Y403207D01*
X202380Y403225D01*
X202441Y403238D01*
X202503Y403248D01*
X202565Y403254D01*
X202628Y403256D01*
X203626Y403256D01*
X296434Y477564D02*
X296434Y482056D01*
X297682Y482056D01*
X297751Y482054D01*
X297819Y482048D01*
X297887Y482039D01*
X297955Y482026D01*
X298022Y482009D01*
X298087Y481988D01*
X298152Y481964D01*
X298215Y481937D01*
X298276Y481906D01*
X298336Y481871D01*
X298393Y481834D01*
X298449Y481793D01*
X298502Y481749D01*
X298552Y481703D01*
X298600Y481653D01*
X298645Y481601D01*
X298688Y481547D01*
X298727Y481491D01*
X298763Y481432D01*
X298796Y481372D01*
X298825Y481309D01*
X298851Y481246D01*
X298873Y481181D01*
X298892Y481114D01*
X298907Y481047D01*
X298918Y480979D01*
X298926Y480911D01*
X298930Y480842D01*
X298930Y480774D01*
X298926Y480705D01*
X298918Y480637D01*
X298907Y480569D01*
X298892Y480502D01*
X298873Y480435D01*
X298851Y480370D01*
X298825Y480307D01*
X298796Y480244D01*
X298763Y480184D01*
X298727Y480125D01*
X298688Y480069D01*
X298645Y480015D01*
X298600Y479963D01*
X298552Y479913D01*
X298502Y479867D01*
X298449Y479823D01*
X298393Y479782D01*
X298336Y479745D01*
X298276Y479710D01*
X298215Y479679D01*
X298152Y479652D01*
X298087Y479628D01*
X298022Y479607D01*
X297955Y479590D01*
X297887Y479577D01*
X297819Y479568D01*
X297751Y479562D01*
X297682Y479560D01*
X296434Y479560D01*
X300560Y482056D02*
X301558Y477564D01*
X302556Y480559D01*
X303554Y477564D01*
X304553Y482056D01*
X306609Y482056D02*
X306609Y477564D01*
X308106Y479560D02*
X306609Y482056D01*
X308106Y479560D02*
X309603Y482056D01*
X309603Y477564D01*
D10*
X306546Y473220D02*
X306544Y473166D01*
X306538Y473112D01*
X306529Y473058D01*
X306515Y473005D01*
X306498Y472954D01*
X306477Y472903D01*
X306453Y472855D01*
X306425Y472808D01*
X306394Y472763D01*
X306360Y472721D01*
X306323Y472681D01*
X306283Y472644D01*
X306241Y472610D01*
X306196Y472579D01*
X306149Y472551D01*
X306101Y472527D01*
X306050Y472506D01*
X305999Y472489D01*
X305946Y472475D01*
X305892Y472466D01*
X305838Y472460D01*
X305784Y472458D01*
X305730Y472460D01*
X305676Y472466D01*
X305622Y472475D01*
X305569Y472489D01*
X305518Y472506D01*
X305467Y472527D01*
X305419Y472551D01*
X305372Y472579D01*
X305327Y472610D01*
X305285Y472644D01*
X305245Y472681D01*
X305208Y472721D01*
X305174Y472763D01*
X305143Y472808D01*
X305115Y472855D01*
X305091Y472903D01*
X305070Y472954D01*
X305053Y473005D01*
X305039Y473058D01*
X305030Y473112D01*
X305024Y473166D01*
X305022Y473220D01*
X305024Y473274D01*
X305030Y473328D01*
X305039Y473382D01*
X305053Y473435D01*
X305070Y473486D01*
X305091Y473537D01*
X305115Y473585D01*
X305143Y473632D01*
X305174Y473677D01*
X305208Y473719D01*
X305245Y473759D01*
X305285Y473796D01*
X305327Y473830D01*
X305372Y473861D01*
X305419Y473889D01*
X305467Y473913D01*
X305518Y473934D01*
X305569Y473951D01*
X305622Y473965D01*
X305676Y473974D01*
X305730Y473980D01*
X305784Y473982D01*
X305838Y473980D01*
X305892Y473974D01*
X305946Y473965D01*
X305999Y473951D01*
X306050Y473934D01*
X306101Y473913D01*
X306149Y473889D01*
X306196Y473861D01*
X306241Y473830D01*
X306283Y473796D01*
X306323Y473759D01*
X306360Y473719D01*
X306394Y473677D01*
X306425Y473632D01*
X306453Y473585D01*
X306477Y473537D01*
X306498Y473486D01*
X306515Y473435D01*
X306529Y473382D01*
X306538Y473328D01*
X306544Y473274D01*
X306546Y473220D01*
D15*
X548260Y497490D02*
X548262Y497612D01*
X548268Y497734D01*
X548278Y497856D01*
X548291Y497977D01*
X548309Y498098D01*
X548330Y498218D01*
X548356Y498338D01*
X548385Y498456D01*
X548417Y498574D01*
X548454Y498691D01*
X548494Y498806D01*
X548538Y498920D01*
X548586Y499032D01*
X548637Y499143D01*
X548692Y499252D01*
X548750Y499360D01*
X548812Y499465D01*
X548877Y499568D01*
X548945Y499670D01*
X549017Y499769D01*
X549091Y499865D01*
X549169Y499960D01*
X549250Y500051D01*
X549333Y500141D01*
X549419Y500227D01*
X549509Y500310D01*
X549600Y500391D01*
X549695Y500469D01*
X549791Y500543D01*
X549890Y500615D01*
X549992Y500683D01*
X550095Y500748D01*
X550200Y500810D01*
X550308Y500868D01*
X550417Y500923D01*
X550528Y500974D01*
X550640Y501022D01*
X550754Y501066D01*
X550869Y501106D01*
X550986Y501143D01*
X551104Y501175D01*
X551222Y501204D01*
X551342Y501230D01*
X551462Y501251D01*
X551583Y501269D01*
X551704Y501282D01*
X551826Y501292D01*
X551948Y501298D01*
X552070Y501300D01*
X552192Y501298D01*
X552314Y501292D01*
X552436Y501282D01*
X552557Y501269D01*
X552678Y501251D01*
X552798Y501230D01*
X552918Y501204D01*
X553036Y501175D01*
X553154Y501143D01*
X553271Y501106D01*
X553386Y501066D01*
X553500Y501022D01*
X553612Y500974D01*
X553723Y500923D01*
X553832Y500868D01*
X553940Y500810D01*
X554045Y500748D01*
X554148Y500683D01*
X554250Y500615D01*
X554349Y500543D01*
X554445Y500469D01*
X554540Y500391D01*
X554631Y500310D01*
X554721Y500227D01*
X554807Y500141D01*
X554890Y500051D01*
X554971Y499960D01*
X555049Y499865D01*
X555123Y499769D01*
X555195Y499670D01*
X555263Y499568D01*
X555328Y499465D01*
X555390Y499360D01*
X555448Y499252D01*
X555503Y499143D01*
X555554Y499032D01*
X555602Y498920D01*
X555646Y498806D01*
X555686Y498691D01*
X555723Y498574D01*
X555755Y498456D01*
X555784Y498338D01*
X555810Y498218D01*
X555831Y498098D01*
X555849Y497977D01*
X555862Y497856D01*
X555872Y497734D01*
X555878Y497612D01*
X555880Y497490D01*
X555878Y497368D01*
X555872Y497246D01*
X555862Y497124D01*
X555849Y497003D01*
X555831Y496882D01*
X555810Y496762D01*
X555784Y496642D01*
X555755Y496524D01*
X555723Y496406D01*
X555686Y496289D01*
X555646Y496174D01*
X555602Y496060D01*
X555554Y495948D01*
X555503Y495837D01*
X555448Y495728D01*
X555390Y495620D01*
X555328Y495515D01*
X555263Y495412D01*
X555195Y495310D01*
X555123Y495211D01*
X555049Y495115D01*
X554971Y495020D01*
X554890Y494929D01*
X554807Y494839D01*
X554721Y494753D01*
X554631Y494670D01*
X554540Y494589D01*
X554445Y494511D01*
X554349Y494437D01*
X554250Y494365D01*
X554148Y494297D01*
X554045Y494232D01*
X553940Y494170D01*
X553832Y494112D01*
X553723Y494057D01*
X553612Y494006D01*
X553500Y493958D01*
X553386Y493914D01*
X553271Y493874D01*
X553154Y493837D01*
X553036Y493805D01*
X552918Y493776D01*
X552798Y493750D01*
X552678Y493729D01*
X552557Y493711D01*
X552436Y493698D01*
X552314Y493688D01*
X552192Y493682D01*
X552070Y493680D01*
X551948Y493682D01*
X551826Y493688D01*
X551704Y493698D01*
X551583Y493711D01*
X551462Y493729D01*
X551342Y493750D01*
X551222Y493776D01*
X551104Y493805D01*
X550986Y493837D01*
X550869Y493874D01*
X550754Y493914D01*
X550640Y493958D01*
X550528Y494006D01*
X550417Y494057D01*
X550308Y494112D01*
X550200Y494170D01*
X550095Y494232D01*
X549992Y494297D01*
X549890Y494365D01*
X549791Y494437D01*
X549695Y494511D01*
X549600Y494589D01*
X549509Y494670D01*
X549419Y494753D01*
X549333Y494839D01*
X549250Y494929D01*
X549169Y495020D01*
X549091Y495115D01*
X549017Y495211D01*
X548945Y495310D01*
X548877Y495412D01*
X548812Y495515D01*
X548750Y495620D01*
X548692Y495728D01*
X548637Y495837D01*
X548586Y495948D01*
X548538Y496060D01*
X548494Y496174D01*
X548454Y496289D01*
X548417Y496406D01*
X548385Y496524D01*
X548356Y496642D01*
X548330Y496762D01*
X548309Y496882D01*
X548291Y497003D01*
X548278Y497124D01*
X548268Y497246D01*
X548262Y497368D01*
X548260Y497490D01*
D10*
X545720Y517302D02*
X411100Y517302D01*
X411100Y464978D01*
X545720Y464978D01*
X545720Y517302D01*
D15*
X548260Y497490D02*
X548262Y497612D01*
X548268Y497734D01*
X548278Y497856D01*
X548291Y497977D01*
X548309Y498098D01*
X548330Y498218D01*
X548356Y498338D01*
X548385Y498456D01*
X548417Y498574D01*
X548454Y498691D01*
X548494Y498806D01*
X548538Y498920D01*
X548586Y499032D01*
X548637Y499143D01*
X548692Y499252D01*
X548750Y499360D01*
X548812Y499465D01*
X548877Y499568D01*
X548945Y499670D01*
X549017Y499769D01*
X549091Y499865D01*
X549169Y499960D01*
X549250Y500051D01*
X549333Y500141D01*
X549419Y500227D01*
X549509Y500310D01*
X549600Y500391D01*
X549695Y500469D01*
X549791Y500543D01*
X549890Y500615D01*
X549992Y500683D01*
X550095Y500748D01*
X550200Y500810D01*
X550308Y500868D01*
X550417Y500923D01*
X550528Y500974D01*
X550640Y501022D01*
X550754Y501066D01*
X550869Y501106D01*
X550986Y501143D01*
X551104Y501175D01*
X551222Y501204D01*
X551342Y501230D01*
X551462Y501251D01*
X551583Y501269D01*
X551704Y501282D01*
X551826Y501292D01*
X551948Y501298D01*
X552070Y501300D01*
X552192Y501298D01*
X552314Y501292D01*
X552436Y501282D01*
X552557Y501269D01*
X552678Y501251D01*
X552798Y501230D01*
X552918Y501204D01*
X553036Y501175D01*
X553154Y501143D01*
X553271Y501106D01*
X553386Y501066D01*
X553500Y501022D01*
X553612Y500974D01*
X553723Y500923D01*
X553832Y500868D01*
X553940Y500810D01*
X554045Y500748D01*
X554148Y500683D01*
X554250Y500615D01*
X554349Y500543D01*
X554445Y500469D01*
X554540Y500391D01*
X554631Y500310D01*
X554721Y500227D01*
X554807Y500141D01*
X554890Y500051D01*
X554971Y499960D01*
X555049Y499865D01*
X555123Y499769D01*
X555195Y499670D01*
X555263Y499568D01*
X555328Y499465D01*
X555390Y499360D01*
X555448Y499252D01*
X555503Y499143D01*
X555554Y499032D01*
X555602Y498920D01*
X555646Y498806D01*
X555686Y498691D01*
X555723Y498574D01*
X555755Y498456D01*
X555784Y498338D01*
X555810Y498218D01*
X555831Y498098D01*
X555849Y497977D01*
X555862Y497856D01*
X555872Y497734D01*
X555878Y497612D01*
X555880Y497490D01*
X555878Y497368D01*
X555872Y497246D01*
X555862Y497124D01*
X555849Y497003D01*
X555831Y496882D01*
X555810Y496762D01*
X555784Y496642D01*
X555755Y496524D01*
X555723Y496406D01*
X555686Y496289D01*
X555646Y496174D01*
X555602Y496060D01*
X555554Y495948D01*
X555503Y495837D01*
X555448Y495728D01*
X555390Y495620D01*
X555328Y495515D01*
X555263Y495412D01*
X555195Y495310D01*
X555123Y495211D01*
X555049Y495115D01*
X554971Y495020D01*
X554890Y494929D01*
X554807Y494839D01*
X554721Y494753D01*
X554631Y494670D01*
X554540Y494589D01*
X554445Y494511D01*
X554349Y494437D01*
X554250Y494365D01*
X554148Y494297D01*
X554045Y494232D01*
X553940Y494170D01*
X553832Y494112D01*
X553723Y494057D01*
X553612Y494006D01*
X553500Y493958D01*
X553386Y493914D01*
X553271Y493874D01*
X553154Y493837D01*
X553036Y493805D01*
X552918Y493776D01*
X552798Y493750D01*
X552678Y493729D01*
X552557Y493711D01*
X552436Y493698D01*
X552314Y493688D01*
X552192Y493682D01*
X552070Y493680D01*
X551948Y493682D01*
X551826Y493688D01*
X551704Y493698D01*
X551583Y493711D01*
X551462Y493729D01*
X551342Y493750D01*
X551222Y493776D01*
X551104Y493805D01*
X550986Y493837D01*
X550869Y493874D01*
X550754Y493914D01*
X550640Y493958D01*
X550528Y494006D01*
X550417Y494057D01*
X550308Y494112D01*
X550200Y494170D01*
X550095Y494232D01*
X549992Y494297D01*
X549890Y494365D01*
X549791Y494437D01*
X549695Y494511D01*
X549600Y494589D01*
X549509Y494670D01*
X549419Y494753D01*
X549333Y494839D01*
X549250Y494929D01*
X549169Y495020D01*
X549091Y495115D01*
X549017Y495211D01*
X548945Y495310D01*
X548877Y495412D01*
X548812Y495515D01*
X548750Y495620D01*
X548692Y495728D01*
X548637Y495837D01*
X548586Y495948D01*
X548538Y496060D01*
X548494Y496174D01*
X548454Y496289D01*
X548417Y496406D01*
X548385Y496524D01*
X548356Y496642D01*
X548330Y496762D01*
X548309Y496882D01*
X548291Y497003D01*
X548278Y497124D01*
X548268Y497246D01*
X548262Y497368D01*
X548260Y497490D01*
D10*
X232572Y333098D02*
X232572Y296522D01*
X195488Y296522D02*
X195488Y333098D01*
D11*
X340270Y370960D02*
X350270Y370960D01*
X350270Y380560D02*
X340270Y380560D01*
D16*
X349938Y366800D02*
X350562Y366800D01*
X349938Y366800D02*
X349889Y366802D01*
X349840Y366808D01*
X349792Y366817D01*
X349745Y366831D01*
X349699Y366847D01*
X349655Y366868D01*
X349612Y366892D01*
X349571Y366919D01*
X349533Y366950D01*
X349497Y366983D01*
X349464Y367019D01*
X349433Y367057D01*
X349406Y367098D01*
X349382Y367141D01*
X349361Y367185D01*
X349345Y367231D01*
X349331Y367278D01*
X349322Y367326D01*
X349316Y367375D01*
X349314Y367424D01*
X349314Y368983D01*
X349316Y369032D01*
X349322Y369081D01*
X349331Y369129D01*
X349345Y369176D01*
X349361Y369222D01*
X349382Y369266D01*
X349406Y369309D01*
X349433Y369350D01*
X349463Y369388D01*
X349497Y369424D01*
X349533Y369457D01*
X349571Y369488D01*
X349612Y369515D01*
X349655Y369539D01*
X349699Y369559D01*
X349745Y369576D01*
X349792Y369590D01*
X349840Y369599D01*
X349889Y369605D01*
X349938Y369607D01*
X350562Y369607D01*
X351618Y368983D02*
X352398Y369607D01*
X352398Y366800D01*
X353177Y366800D02*
X351618Y366800D01*
D11*
X342320Y479640D02*
X332320Y479640D01*
X332320Y470040D02*
X342320Y470040D01*
D16*
X330660Y480993D02*
X330036Y480993D01*
X329987Y480995D01*
X329938Y481001D01*
X329890Y481010D01*
X329843Y481024D01*
X329797Y481040D01*
X329753Y481061D01*
X329710Y481085D01*
X329669Y481112D01*
X329631Y481143D01*
X329595Y481176D01*
X329562Y481212D01*
X329531Y481250D01*
X329504Y481291D01*
X329480Y481334D01*
X329459Y481378D01*
X329443Y481424D01*
X329429Y481471D01*
X329420Y481519D01*
X329414Y481568D01*
X329412Y481617D01*
X329413Y481617D02*
X329413Y483176D01*
X329412Y483176D02*
X329414Y483225D01*
X329420Y483274D01*
X329429Y483322D01*
X329443Y483369D01*
X329459Y483415D01*
X329480Y483459D01*
X329504Y483502D01*
X329531Y483543D01*
X329561Y483581D01*
X329595Y483617D01*
X329631Y483650D01*
X329669Y483681D01*
X329710Y483708D01*
X329753Y483732D01*
X329797Y483752D01*
X329843Y483769D01*
X329890Y483783D01*
X329938Y483792D01*
X329987Y483798D01*
X330036Y483800D01*
X330660Y483800D01*
X332574Y483800D02*
X332624Y483798D01*
X332674Y483793D01*
X332723Y483784D01*
X332772Y483772D01*
X332819Y483756D01*
X332866Y483737D01*
X332910Y483714D01*
X332954Y483689D01*
X332995Y483660D01*
X333034Y483629D01*
X333070Y483594D01*
X333105Y483558D01*
X333136Y483519D01*
X333165Y483478D01*
X333190Y483434D01*
X333213Y483390D01*
X333232Y483343D01*
X333248Y483296D01*
X333260Y483247D01*
X333269Y483198D01*
X333274Y483148D01*
X333276Y483098D01*
X332574Y483800D02*
X332517Y483798D01*
X332461Y483793D01*
X332405Y483784D01*
X332350Y483772D01*
X332295Y483756D01*
X332242Y483737D01*
X332190Y483714D01*
X332139Y483688D01*
X332090Y483659D01*
X332043Y483627D01*
X331999Y483593D01*
X331956Y483555D01*
X331916Y483515D01*
X331879Y483472D01*
X331844Y483428D01*
X331812Y483381D01*
X331783Y483332D01*
X331757Y483281D01*
X331735Y483229D01*
X331716Y483176D01*
X333042Y482552D02*
X333078Y482588D01*
X333111Y482627D01*
X333141Y482668D01*
X333169Y482710D01*
X333193Y482755D01*
X333215Y482801D01*
X333233Y482848D01*
X333249Y482897D01*
X333261Y482946D01*
X333269Y482997D01*
X333274Y483047D01*
X333276Y483098D01*
X333042Y482552D02*
X331717Y480993D01*
X333276Y480993D01*
D10*
X771250Y161810D02*
X771250Y149110D01*
X771250Y161810D02*
X777600Y168160D01*
X790300Y168160D01*
X796650Y161810D01*
X790300Y142760D02*
X777600Y142760D01*
X771250Y149110D01*
X790300Y142760D02*
X796650Y149110D01*
X796650Y161810D01*
X777600Y168160D02*
X771250Y174510D01*
X771250Y187210D01*
X777600Y193560D01*
X790300Y193560D01*
X796650Y187210D01*
X796650Y174510D01*
X790300Y168160D01*
D11*
X765027Y146443D02*
X765027Y142633D01*
X765027Y146443D02*
X765025Y146543D01*
X765019Y146642D01*
X765009Y146742D01*
X764996Y146840D01*
X764978Y146939D01*
X764957Y147036D01*
X764932Y147132D01*
X764903Y147228D01*
X764870Y147322D01*
X764834Y147415D01*
X764794Y147506D01*
X764750Y147596D01*
X764703Y147684D01*
X764653Y147770D01*
X764599Y147854D01*
X764542Y147936D01*
X764482Y148015D01*
X764418Y148093D01*
X764352Y148167D01*
X764283Y148239D01*
X764211Y148308D01*
X764137Y148374D01*
X764059Y148438D01*
X763980Y148498D01*
X763898Y148555D01*
X763814Y148609D01*
X763728Y148659D01*
X763640Y148706D01*
X763550Y148750D01*
X763459Y148790D01*
X763366Y148826D01*
X763272Y148859D01*
X763176Y148888D01*
X763080Y148913D01*
X762983Y148934D01*
X762884Y148952D01*
X762786Y148965D01*
X762686Y148975D01*
X762587Y148981D01*
X762487Y148983D01*
X761217Y148983D01*
X761117Y148981D01*
X761018Y148975D01*
X760918Y148965D01*
X760820Y148952D01*
X760721Y148934D01*
X760624Y148913D01*
X760528Y148888D01*
X760432Y148859D01*
X760338Y148826D01*
X760245Y148790D01*
X760154Y148750D01*
X760064Y148706D01*
X759976Y148659D01*
X759890Y148609D01*
X759806Y148555D01*
X759724Y148498D01*
X759645Y148438D01*
X759567Y148374D01*
X759493Y148308D01*
X759421Y148239D01*
X759352Y148167D01*
X759286Y148093D01*
X759222Y148015D01*
X759162Y147936D01*
X759105Y147854D01*
X759051Y147770D01*
X759001Y147684D01*
X758954Y147596D01*
X758910Y147506D01*
X758870Y147415D01*
X758834Y147322D01*
X758801Y147228D01*
X758772Y147132D01*
X758747Y147036D01*
X758726Y146939D01*
X758708Y146840D01*
X758695Y146742D01*
X758685Y146642D01*
X758679Y146543D01*
X758677Y146443D01*
X758677Y142633D01*
X753597Y142633D01*
X753597Y148983D01*
X753597Y153428D02*
X765027Y157238D01*
X753597Y161048D01*
X756137Y165493D02*
X753597Y168668D01*
X765027Y168668D01*
X765027Y165493D02*
X765027Y171843D01*
D10*
X796430Y130240D02*
X796430Y117540D01*
X790080Y111190D01*
X777380Y111190D01*
X771030Y117540D01*
X777380Y136590D02*
X790080Y136590D01*
X796430Y130240D01*
X777380Y136590D02*
X771030Y130240D01*
X771030Y117540D01*
X790080Y111190D02*
X796430Y104840D01*
X796430Y92140D01*
X790080Y85790D01*
X777380Y85790D01*
X771030Y92140D01*
X771030Y104840D01*
X777380Y111190D01*
D11*
X814083Y111317D02*
X814083Y107507D01*
X814083Y111317D02*
X814081Y111417D01*
X814075Y111516D01*
X814065Y111616D01*
X814052Y111714D01*
X814034Y111813D01*
X814013Y111910D01*
X813988Y112006D01*
X813959Y112102D01*
X813926Y112196D01*
X813890Y112289D01*
X813850Y112380D01*
X813806Y112470D01*
X813759Y112558D01*
X813709Y112644D01*
X813655Y112728D01*
X813598Y112810D01*
X813538Y112889D01*
X813474Y112967D01*
X813408Y113041D01*
X813339Y113113D01*
X813267Y113182D01*
X813193Y113248D01*
X813115Y113312D01*
X813036Y113372D01*
X812954Y113429D01*
X812870Y113483D01*
X812784Y113533D01*
X812696Y113580D01*
X812606Y113624D01*
X812515Y113664D01*
X812422Y113700D01*
X812328Y113733D01*
X812232Y113762D01*
X812136Y113787D01*
X812039Y113808D01*
X811940Y113826D01*
X811842Y113839D01*
X811742Y113849D01*
X811643Y113855D01*
X811543Y113857D01*
X810273Y113857D01*
X810173Y113855D01*
X810074Y113849D01*
X809974Y113839D01*
X809876Y113826D01*
X809777Y113808D01*
X809680Y113787D01*
X809584Y113762D01*
X809488Y113733D01*
X809394Y113700D01*
X809301Y113664D01*
X809210Y113624D01*
X809120Y113580D01*
X809032Y113533D01*
X808946Y113483D01*
X808862Y113429D01*
X808780Y113372D01*
X808701Y113312D01*
X808623Y113248D01*
X808549Y113182D01*
X808477Y113113D01*
X808408Y113041D01*
X808342Y112967D01*
X808278Y112889D01*
X808218Y112810D01*
X808161Y112728D01*
X808107Y112644D01*
X808057Y112558D01*
X808010Y112470D01*
X807966Y112380D01*
X807926Y112289D01*
X807890Y112196D01*
X807857Y112102D01*
X807828Y112006D01*
X807803Y111910D01*
X807782Y111813D01*
X807764Y111714D01*
X807751Y111616D01*
X807741Y111516D01*
X807735Y111417D01*
X807733Y111317D01*
X807733Y107507D01*
X802653Y107507D01*
X802653Y113857D01*
X802653Y118302D02*
X814083Y122112D01*
X802653Y125922D01*
X802653Y133860D02*
X802655Y133964D01*
X802661Y134069D01*
X802670Y134173D01*
X802683Y134276D01*
X802701Y134379D01*
X802721Y134481D01*
X802746Y134583D01*
X802774Y134683D01*
X802806Y134783D01*
X802842Y134881D01*
X802881Y134978D01*
X802923Y135073D01*
X802969Y135167D01*
X803019Y135259D01*
X803071Y135349D01*
X803127Y135437D01*
X803187Y135523D01*
X803249Y135607D01*
X803314Y135688D01*
X803382Y135767D01*
X803454Y135844D01*
X803527Y135917D01*
X803604Y135989D01*
X803683Y136057D01*
X803764Y136122D01*
X803848Y136184D01*
X803934Y136244D01*
X804022Y136300D01*
X804112Y136352D01*
X804204Y136402D01*
X804298Y136448D01*
X804393Y136490D01*
X804490Y136529D01*
X804588Y136565D01*
X804688Y136597D01*
X804788Y136625D01*
X804890Y136650D01*
X804992Y136670D01*
X805095Y136688D01*
X805198Y136701D01*
X805302Y136710D01*
X805407Y136716D01*
X805511Y136718D01*
X802653Y133860D02*
X802655Y133742D01*
X802661Y133623D01*
X802670Y133505D01*
X802683Y133388D01*
X802701Y133271D01*
X802721Y133154D01*
X802746Y133038D01*
X802774Y132923D01*
X802807Y132810D01*
X802842Y132697D01*
X802882Y132585D01*
X802924Y132475D01*
X802971Y132366D01*
X803021Y132258D01*
X803074Y132153D01*
X803131Y132049D01*
X803191Y131947D01*
X803254Y131847D01*
X803321Y131749D01*
X803390Y131653D01*
X803463Y131560D01*
X803539Y131469D01*
X803617Y131380D01*
X803699Y131294D01*
X803783Y131211D01*
X803869Y131130D01*
X803959Y131053D01*
X804050Y130978D01*
X804144Y130906D01*
X804241Y130837D01*
X804339Y130772D01*
X804440Y130709D01*
X804543Y130650D01*
X804647Y130594D01*
X804753Y130542D01*
X804861Y130493D01*
X804970Y130448D01*
X805081Y130406D01*
X805193Y130368D01*
X807733Y135765D02*
X807658Y135841D01*
X807579Y135916D01*
X807498Y135987D01*
X807414Y136056D01*
X807328Y136121D01*
X807240Y136183D01*
X807150Y136243D01*
X807058Y136299D01*
X806963Y136352D01*
X806867Y136401D01*
X806769Y136447D01*
X806670Y136490D01*
X806569Y136529D01*
X806467Y136564D01*
X806364Y136596D01*
X806260Y136624D01*
X806155Y136649D01*
X806048Y136670D01*
X805942Y136687D01*
X805835Y136700D01*
X805727Y136709D01*
X805619Y136715D01*
X805511Y136717D01*
X807733Y135765D02*
X814083Y130367D01*
X814083Y136717D01*
D10*
X107300Y417432D02*
X107300Y430132D01*
X113650Y423528D02*
X100950Y423528D01*
X107300Y415908D02*
X105748Y415889D01*
X104196Y415832D01*
X102646Y415738D01*
X101099Y415606D01*
X99556Y415436D01*
X98017Y415229D01*
X96484Y414984D01*
X94957Y414702D01*
X93438Y414383D01*
X91927Y414027D01*
X90425Y413634D01*
X88933Y413205D01*
X87451Y412739D01*
X85982Y412238D01*
X84525Y411701D01*
X83082Y411129D01*
X81653Y410522D01*
X80239Y409880D01*
X78842Y409204D01*
X77461Y408494D01*
X76098Y407751D01*
X74753Y406974D01*
X73428Y406166D01*
X72123Y405325D01*
X70838Y404452D01*
X69576Y403549D01*
X68335Y402615D01*
X67118Y401651D01*
X65925Y400658D01*
X64756Y399636D01*
X63612Y398586D01*
X62494Y397509D01*
X61403Y396404D01*
X60339Y395273D01*
X59303Y394117D01*
X58296Y392936D01*
X57317Y391730D01*
X56368Y390501D01*
X55450Y389250D01*
X54562Y387976D01*
X53705Y386681D01*
X52880Y385366D01*
X52087Y384031D01*
X51328Y382677D01*
X50601Y381305D01*
X49908Y379916D01*
X49249Y378510D01*
X48624Y377088D01*
X48034Y375652D01*
X47480Y374202D01*
X46961Y372739D01*
X46477Y371263D01*
X46030Y369777D01*
X45619Y368280D01*
X45245Y366773D01*
X44907Y365257D01*
X44607Y363734D01*
X44343Y362204D01*
X44117Y360668D01*
X43928Y359127D01*
X43777Y357582D01*
X43664Y356033D01*
X43589Y354482D01*
X43551Y352930D01*
X43551Y351378D01*
X43589Y349826D01*
X43664Y348275D01*
X43777Y346726D01*
X43928Y345181D01*
X44117Y343640D01*
X44343Y342104D01*
X44607Y340574D01*
X44907Y339051D01*
X45245Y337535D01*
X45619Y336028D01*
X46030Y334531D01*
X46477Y333045D01*
X46961Y331569D01*
X47480Y330106D01*
X48034Y328656D01*
X48624Y327220D01*
X49249Y325798D01*
X49908Y324392D01*
X50601Y323003D01*
X51328Y321631D01*
X52087Y320277D01*
X52880Y318942D01*
X53705Y317627D01*
X54562Y316332D01*
X55450Y315058D01*
X56368Y313807D01*
X57317Y312578D01*
X58296Y311372D01*
X59303Y310191D01*
X60339Y309035D01*
X61403Y307904D01*
X62494Y306799D01*
X63612Y305722D01*
X64756Y304672D01*
X65925Y303650D01*
X67118Y302657D01*
X68335Y301693D01*
X69576Y300759D01*
X70838Y299856D01*
X72123Y298983D01*
X73428Y298142D01*
X74753Y297334D01*
X76098Y296557D01*
X77461Y295814D01*
X78842Y295104D01*
X80239Y294428D01*
X81653Y293786D01*
X83082Y293179D01*
X84525Y292607D01*
X85982Y292070D01*
X87451Y291569D01*
X88933Y291103D01*
X90425Y290674D01*
X91927Y290281D01*
X93438Y289925D01*
X94957Y289606D01*
X96484Y289324D01*
X98017Y289079D01*
X99556Y288872D01*
X101099Y288702D01*
X102646Y288570D01*
X104196Y288476D01*
X105748Y288419D01*
X107300Y288400D01*
X108852Y288419D01*
X110404Y288476D01*
X111954Y288570D01*
X113501Y288702D01*
X115044Y288872D01*
X116583Y289079D01*
X118116Y289324D01*
X119643Y289606D01*
X121162Y289925D01*
X122673Y290281D01*
X124175Y290674D01*
X125667Y291103D01*
X127149Y291569D01*
X128618Y292070D01*
X130075Y292607D01*
X131518Y293179D01*
X132947Y293786D01*
X134361Y294428D01*
X135758Y295104D01*
X137139Y295814D01*
X138502Y296557D01*
X139847Y297334D01*
X141172Y298142D01*
X142477Y298983D01*
X143762Y299856D01*
X145024Y300759D01*
X146265Y301693D01*
X147482Y302657D01*
X148675Y303650D01*
X149844Y304672D01*
X150988Y305722D01*
X152106Y306799D01*
X153197Y307904D01*
X154261Y309035D01*
X155297Y310191D01*
X156304Y311372D01*
X157283Y312578D01*
X158232Y313807D01*
X159150Y315058D01*
X160038Y316332D01*
X160895Y317627D01*
X161720Y318942D01*
X162513Y320277D01*
X163272Y321631D01*
X163999Y323003D01*
X164692Y324392D01*
X165351Y325798D01*
X165976Y327220D01*
X166566Y328656D01*
X167120Y330106D01*
X167639Y331569D01*
X168123Y333045D01*
X168570Y334531D01*
X168981Y336028D01*
X169355Y337535D01*
X169693Y339051D01*
X169993Y340574D01*
X170257Y342104D01*
X170483Y343640D01*
X170672Y345181D01*
X170823Y346726D01*
X170936Y348275D01*
X171011Y349826D01*
X171049Y351378D01*
X171049Y352930D01*
X171011Y354482D01*
X170936Y356033D01*
X170823Y357582D01*
X170672Y359127D01*
X170483Y360668D01*
X170257Y362204D01*
X169993Y363734D01*
X169693Y365257D01*
X169355Y366773D01*
X168981Y368280D01*
X168570Y369777D01*
X168123Y371263D01*
X167639Y372739D01*
X167120Y374202D01*
X166566Y375652D01*
X165976Y377088D01*
X165351Y378510D01*
X164692Y379916D01*
X163999Y381305D01*
X163272Y382677D01*
X162513Y384031D01*
X161720Y385366D01*
X160895Y386681D01*
X160038Y387976D01*
X159150Y389250D01*
X158232Y390501D01*
X157283Y391730D01*
X156304Y392936D01*
X155297Y394117D01*
X154261Y395273D01*
X153197Y396404D01*
X152106Y397509D01*
X150988Y398586D01*
X149844Y399636D01*
X148675Y400658D01*
X147482Y401651D01*
X146265Y402615D01*
X145024Y403549D01*
X143762Y404452D01*
X142477Y405325D01*
X141172Y406166D01*
X139847Y406974D01*
X138502Y407751D01*
X137139Y408494D01*
X135758Y409204D01*
X134361Y409880D01*
X132947Y410522D01*
X131518Y411129D01*
X130075Y411701D01*
X128618Y412238D01*
X127149Y412739D01*
X125667Y413205D01*
X124175Y413634D01*
X122673Y414027D01*
X121162Y414383D01*
X119643Y414702D01*
X118116Y414984D01*
X116583Y415229D01*
X115044Y415436D01*
X113501Y415606D01*
X111954Y415738D01*
X110404Y415832D01*
X108852Y415889D01*
X107300Y415908D01*
D13*
X104647Y369299D02*
X113269Y369299D01*
X104647Y369299D02*
X104533Y369297D01*
X104418Y369291D01*
X104304Y369281D01*
X104191Y369267D01*
X104077Y369250D01*
X103965Y369228D01*
X103853Y369203D01*
X103743Y369173D01*
X103633Y369140D01*
X103525Y369103D01*
X103418Y369063D01*
X103312Y369018D01*
X103208Y368971D01*
X103106Y368919D01*
X103006Y368864D01*
X102907Y368806D01*
X102811Y368744D01*
X102716Y368679D01*
X102625Y368611D01*
X102535Y368539D01*
X102448Y368465D01*
X102364Y368388D01*
X102282Y368307D01*
X102203Y368224D01*
X102127Y368139D01*
X102054Y368050D01*
X101985Y367960D01*
X101918Y367867D01*
X101855Y367771D01*
X101795Y367674D01*
X101738Y367574D01*
X101685Y367473D01*
X101635Y367370D01*
X101589Y367265D01*
X101546Y367159D01*
X101508Y367051D01*
X101473Y366942D01*
X101442Y366832D01*
X101414Y366721D01*
X101391Y366609D01*
X101371Y366496D01*
X101355Y366383D01*
X101343Y366269D01*
X101335Y366155D01*
X101331Y366040D01*
X101331Y365926D01*
X101335Y365811D01*
X101343Y365697D01*
X101355Y365583D01*
X101371Y365470D01*
X101391Y365357D01*
X101414Y365245D01*
X101442Y365134D01*
X101473Y365024D01*
X101508Y364915D01*
X101546Y364807D01*
X101589Y364701D01*
X101635Y364596D01*
X101685Y364493D01*
X101738Y364392D01*
X101795Y364292D01*
X101855Y364195D01*
X101918Y364099D01*
X101985Y364006D01*
X102054Y363916D01*
X102127Y363827D01*
X102203Y363742D01*
X102282Y363659D01*
X102364Y363578D01*
X102448Y363501D01*
X102535Y363427D01*
X102625Y363355D01*
X102716Y363287D01*
X102811Y363222D01*
X102907Y363160D01*
X103006Y363102D01*
X103106Y363047D01*
X103208Y362995D01*
X103312Y362948D01*
X103418Y362903D01*
X103525Y362863D01*
X103633Y362826D01*
X103743Y362793D01*
X103853Y362763D01*
X103965Y362738D01*
X104077Y362716D01*
X104191Y362699D01*
X104304Y362685D01*
X104418Y362675D01*
X104533Y362669D01*
X104647Y362667D01*
X113269Y362667D01*
X113269Y358151D02*
X101331Y354172D01*
X113269Y350193D01*
X113269Y346721D02*
X107632Y342742D01*
X113269Y338763D01*
X107632Y342742D02*
X101331Y342742D01*
X110616Y334628D02*
X113269Y331312D01*
X101331Y331312D01*
X101331Y334628D02*
X101331Y327996D01*
X101331Y322817D02*
X113269Y322817D01*
X107963Y322817D02*
X107963Y316185D01*
X113269Y316185D02*
X101331Y316185D01*
X110616Y311006D02*
X113269Y307690D01*
X101331Y307690D01*
X101331Y311006D02*
X101331Y304374D01*
X107300Y299576D02*
X107535Y299573D01*
X107770Y299565D01*
X108004Y299551D01*
X108238Y299531D01*
X108472Y299506D01*
X108704Y299475D01*
X108936Y299439D01*
X109168Y299397D01*
X109398Y299350D01*
X109626Y299297D01*
X109854Y299239D01*
X110080Y299175D01*
X110304Y299106D01*
X110527Y299032D01*
X110748Y298952D01*
X110967Y298867D01*
X111184Y298777D01*
X111399Y298682D01*
X111611Y298581D01*
X111703Y298548D01*
X111794Y298510D01*
X111883Y298469D01*
X111971Y298425D01*
X112056Y298377D01*
X112140Y298326D01*
X112222Y298271D01*
X112301Y298213D01*
X112378Y298152D01*
X112452Y298088D01*
X112524Y298021D01*
X112593Y297951D01*
X112659Y297879D01*
X112723Y297804D01*
X112783Y297726D01*
X112840Y297646D01*
X112894Y297564D01*
X112944Y297480D01*
X112991Y297394D01*
X113035Y297306D01*
X113075Y297216D01*
X113112Y297125D01*
X113144Y297032D01*
X113173Y296938D01*
X113199Y296844D01*
X113220Y296748D01*
X113238Y296651D01*
X113251Y296554D01*
X113261Y296456D01*
X113267Y296358D01*
X113269Y296260D01*
X113267Y296162D01*
X113261Y296064D01*
X113251Y295966D01*
X113238Y295869D01*
X113220Y295772D01*
X113199Y295676D01*
X113173Y295582D01*
X113144Y295488D01*
X113112Y295395D01*
X113075Y295304D01*
X113035Y295214D01*
X112991Y295126D01*
X112944Y295040D01*
X112894Y294956D01*
X112840Y294874D01*
X112783Y294794D01*
X112723Y294716D01*
X112659Y294641D01*
X112593Y294569D01*
X112524Y294499D01*
X112452Y294432D01*
X112378Y294368D01*
X112301Y294307D01*
X112222Y294249D01*
X112140Y294194D01*
X112056Y294143D01*
X111971Y294095D01*
X111883Y294051D01*
X111794Y294010D01*
X111703Y293972D01*
X111611Y293939D01*
X111399Y293838D01*
X111184Y293743D01*
X110967Y293653D01*
X110748Y293568D01*
X110527Y293488D01*
X110305Y293414D01*
X110080Y293345D01*
X109854Y293281D01*
X109626Y293223D01*
X109398Y293170D01*
X109168Y293123D01*
X108936Y293081D01*
X108704Y293045D01*
X108472Y293014D01*
X108238Y292989D01*
X108004Y292969D01*
X107770Y292955D01*
X107535Y292947D01*
X107300Y292944D01*
X107300Y299576D02*
X107065Y299573D01*
X106830Y299565D01*
X106596Y299551D01*
X106362Y299531D01*
X106128Y299506D01*
X105896Y299475D01*
X105664Y299439D01*
X105433Y299397D01*
X105202Y299350D01*
X104974Y299297D01*
X104746Y299239D01*
X104520Y299175D01*
X104296Y299106D01*
X104073Y299032D01*
X103852Y298952D01*
X103633Y298867D01*
X103416Y298777D01*
X103201Y298682D01*
X102989Y298581D01*
X102897Y298548D01*
X102806Y298510D01*
X102717Y298469D01*
X102629Y298425D01*
X102544Y298377D01*
X102460Y298326D01*
X102378Y298271D01*
X102299Y298213D01*
X102222Y298152D01*
X102148Y298088D01*
X102076Y298021D01*
X102007Y297951D01*
X101941Y297879D01*
X101877Y297804D01*
X101817Y297726D01*
X101760Y297646D01*
X101706Y297564D01*
X101656Y297480D01*
X101609Y297394D01*
X101565Y297306D01*
X101525Y297216D01*
X101488Y297125D01*
X101456Y297032D01*
X101427Y296938D01*
X101401Y296844D01*
X101380Y296748D01*
X101362Y296651D01*
X101349Y296554D01*
X101339Y296456D01*
X101333Y296358D01*
X101331Y296260D01*
X102989Y293939D02*
X103201Y293838D01*
X103416Y293743D01*
X103633Y293653D01*
X103852Y293568D01*
X104073Y293488D01*
X104296Y293414D01*
X104520Y293345D01*
X104746Y293281D01*
X104974Y293223D01*
X105202Y293170D01*
X105432Y293123D01*
X105664Y293081D01*
X105896Y293045D01*
X106128Y293014D01*
X106362Y292989D01*
X106596Y292969D01*
X106830Y292955D01*
X107065Y292947D01*
X107300Y292944D01*
X102989Y293939D02*
X102897Y293972D01*
X102806Y294010D01*
X102717Y294051D01*
X102629Y294095D01*
X102544Y294143D01*
X102460Y294195D01*
X102378Y294249D01*
X102299Y294307D01*
X102222Y294368D01*
X102148Y294432D01*
X102076Y294499D01*
X102007Y294569D01*
X101941Y294641D01*
X101877Y294716D01*
X101817Y294794D01*
X101760Y294874D01*
X101706Y294956D01*
X101656Y295040D01*
X101609Y295126D01*
X101565Y295214D01*
X101525Y295304D01*
X101488Y295395D01*
X101456Y295488D01*
X101427Y295582D01*
X101401Y295676D01*
X101380Y295772D01*
X101362Y295869D01*
X101349Y295966D01*
X101339Y296064D01*
X101333Y296162D01*
X101331Y296260D01*
X103984Y298913D02*
X110616Y293607D01*
X113270Y284499D02*
X113268Y284392D01*
X113262Y284286D01*
X113253Y284180D01*
X113240Y284074D01*
X113223Y283969D01*
X113202Y283864D01*
X113177Y283761D01*
X113149Y283658D01*
X113117Y283556D01*
X113082Y283456D01*
X113043Y283357D01*
X113000Y283259D01*
X112954Y283163D01*
X112905Y283068D01*
X112852Y282976D01*
X112796Y282885D01*
X112737Y282797D01*
X112675Y282710D01*
X112609Y282626D01*
X112541Y282544D01*
X112470Y282465D01*
X112396Y282388D01*
X112319Y282314D01*
X112240Y282243D01*
X112158Y282175D01*
X112074Y282109D01*
X111987Y282047D01*
X111899Y281988D01*
X111808Y281932D01*
X111716Y281879D01*
X111621Y281830D01*
X111525Y281784D01*
X111427Y281741D01*
X111328Y281702D01*
X111228Y281667D01*
X111126Y281635D01*
X111023Y281607D01*
X110920Y281582D01*
X110815Y281561D01*
X110710Y281544D01*
X110604Y281531D01*
X110498Y281522D01*
X110392Y281516D01*
X110285Y281514D01*
X113269Y284499D02*
X113267Y284620D01*
X113261Y284740D01*
X113252Y284860D01*
X113239Y284980D01*
X113222Y285099D01*
X113201Y285218D01*
X113177Y285336D01*
X113148Y285453D01*
X113117Y285569D01*
X113081Y285685D01*
X113042Y285799D01*
X112999Y285911D01*
X112953Y286023D01*
X112904Y286133D01*
X112850Y286241D01*
X112794Y286347D01*
X112734Y286452D01*
X112671Y286555D01*
X112605Y286655D01*
X112536Y286754D01*
X112463Y286850D01*
X112388Y286944D01*
X112310Y287036D01*
X112228Y287125D01*
X112144Y287212D01*
X112058Y287296D01*
X111969Y287377D01*
X111877Y287455D01*
X111783Y287530D01*
X111686Y287602D01*
X111588Y287672D01*
X111487Y287738D01*
X111384Y287801D01*
X111279Y287860D01*
X111173Y287917D01*
X111064Y287970D01*
X110955Y288019D01*
X110843Y288065D01*
X110730Y288108D01*
X110616Y288146D01*
X107963Y282509D02*
X108043Y282429D01*
X108125Y282351D01*
X108209Y282277D01*
X108297Y282205D01*
X108387Y282137D01*
X108479Y282071D01*
X108573Y282009D01*
X108669Y281951D01*
X108768Y281896D01*
X108868Y281844D01*
X108970Y281796D01*
X109074Y281751D01*
X109179Y281711D01*
X109286Y281674D01*
X109394Y281640D01*
X109503Y281611D01*
X109613Y281585D01*
X109724Y281564D01*
X109835Y281546D01*
X109947Y281532D01*
X110059Y281522D01*
X110172Y281516D01*
X110285Y281514D01*
X107963Y282509D02*
X101331Y288146D01*
X101331Y281514D01*
X101331Y276236D02*
X113269Y276236D01*
X106637Y272257D01*
X113269Y268278D01*
X101331Y268278D01*
X101331Y262619D02*
X113269Y262619D01*
X107963Y262619D02*
X107963Y255987D01*
X113269Y255987D02*
X101331Y255987D01*
X101331Y250427D02*
X113269Y250427D01*
X113269Y247111D01*
X113267Y246998D01*
X113261Y246885D01*
X113252Y246772D01*
X113238Y246659D01*
X113221Y246548D01*
X113200Y246436D01*
X113175Y246326D01*
X113146Y246216D01*
X113114Y246108D01*
X113078Y246001D01*
X113038Y245895D01*
X112994Y245790D01*
X112948Y245687D01*
X112897Y245585D01*
X112843Y245486D01*
X112786Y245388D01*
X112726Y245292D01*
X112662Y245199D01*
X112595Y245107D01*
X112525Y245018D01*
X112452Y244932D01*
X112376Y244848D01*
X112298Y244766D01*
X112216Y244688D01*
X112132Y244612D01*
X112046Y244539D01*
X111957Y244469D01*
X111865Y244402D01*
X111772Y244338D01*
X111676Y244278D01*
X111578Y244221D01*
X111479Y244167D01*
X111377Y244116D01*
X111274Y244070D01*
X111169Y244026D01*
X111063Y243986D01*
X110956Y243950D01*
X110848Y243918D01*
X110738Y243889D01*
X110628Y243864D01*
X110516Y243843D01*
X110405Y243826D01*
X110292Y243812D01*
X110179Y243803D01*
X110066Y243797D01*
X109953Y243795D01*
X104647Y243795D01*
X104534Y243797D01*
X104421Y243803D01*
X104308Y243812D01*
X104195Y243826D01*
X104084Y243843D01*
X103972Y243864D01*
X103862Y243889D01*
X103752Y243918D01*
X103644Y243950D01*
X103537Y243986D01*
X103431Y244026D01*
X103326Y244070D01*
X103223Y244116D01*
X103121Y244167D01*
X103022Y244221D01*
X102924Y244278D01*
X102828Y244338D01*
X102735Y244402D01*
X102643Y244469D01*
X102554Y244539D01*
X102468Y244612D01*
X102384Y244688D01*
X102302Y244766D01*
X102224Y244848D01*
X102148Y244932D01*
X102075Y245018D01*
X102005Y245107D01*
X101938Y245199D01*
X101874Y245292D01*
X101814Y245388D01*
X101757Y245486D01*
X101703Y245585D01*
X101652Y245687D01*
X101606Y245790D01*
X101562Y245895D01*
X101522Y246001D01*
X101486Y246108D01*
X101454Y246216D01*
X101425Y246326D01*
X101400Y246436D01*
X101379Y246548D01*
X101362Y246659D01*
X101348Y246772D01*
X101339Y246885D01*
X101333Y246998D01*
X101331Y247111D01*
X101331Y250427D01*
D12*
X269862Y401174D02*
X270860Y401174D01*
X269862Y401174D02*
X269802Y401176D01*
X269742Y401181D01*
X269682Y401190D01*
X269623Y401203D01*
X269565Y401219D01*
X269508Y401239D01*
X269452Y401262D01*
X269398Y401288D01*
X269346Y401318D01*
X269295Y401351D01*
X269247Y401386D01*
X269200Y401425D01*
X269156Y401466D01*
X269115Y401510D01*
X269076Y401557D01*
X269041Y401605D01*
X269008Y401656D01*
X268978Y401708D01*
X268952Y401762D01*
X268929Y401818D01*
X268909Y401875D01*
X268893Y401933D01*
X268880Y401992D01*
X268871Y402052D01*
X268866Y402112D01*
X268864Y402172D01*
X268864Y404668D01*
X268866Y404731D01*
X268872Y404793D01*
X268882Y404855D01*
X268895Y404916D01*
X268913Y404976D01*
X268934Y405035D01*
X268959Y405093D01*
X268987Y405149D01*
X269019Y405203D01*
X269055Y405255D01*
X269093Y405304D01*
X269134Y405351D01*
X269179Y405395D01*
X269226Y405437D01*
X269275Y405475D01*
X269327Y405511D01*
X269381Y405543D01*
X269437Y405571D01*
X269495Y405596D01*
X269554Y405617D01*
X269614Y405635D01*
X269675Y405648D01*
X269737Y405658D01*
X269799Y405664D01*
X269862Y405666D01*
X270860Y405666D01*
X272629Y404418D02*
X272629Y402422D01*
X272629Y404418D02*
X272631Y404487D01*
X272637Y404555D01*
X272646Y404623D01*
X272659Y404691D01*
X272676Y404758D01*
X272697Y404823D01*
X272721Y404888D01*
X272748Y404951D01*
X272779Y405012D01*
X272814Y405072D01*
X272851Y405129D01*
X272892Y405185D01*
X272936Y405238D01*
X272982Y405288D01*
X273032Y405336D01*
X273084Y405381D01*
X273138Y405424D01*
X273194Y405463D01*
X273253Y405499D01*
X273313Y405532D01*
X273376Y405561D01*
X273439Y405587D01*
X273504Y405609D01*
X273571Y405628D01*
X273638Y405643D01*
X273706Y405654D01*
X273774Y405662D01*
X273843Y405666D01*
X273911Y405666D01*
X273980Y405662D01*
X274048Y405654D01*
X274116Y405643D01*
X274183Y405628D01*
X274250Y405609D01*
X274315Y405587D01*
X274378Y405561D01*
X274441Y405532D01*
X274501Y405499D01*
X274560Y405463D01*
X274616Y405424D01*
X274670Y405381D01*
X274722Y405336D01*
X274772Y405288D01*
X274818Y405238D01*
X274862Y405185D01*
X274903Y405129D01*
X274940Y405072D01*
X274975Y405012D01*
X275006Y404951D01*
X275033Y404888D01*
X275057Y404823D01*
X275078Y404758D01*
X275095Y404691D01*
X275108Y404623D01*
X275117Y404555D01*
X275123Y404487D01*
X275125Y404418D01*
X275124Y404418D02*
X275124Y402422D01*
X275125Y402422D02*
X275123Y402353D01*
X275117Y402285D01*
X275108Y402217D01*
X275095Y402149D01*
X275078Y402082D01*
X275057Y402017D01*
X275033Y401952D01*
X275006Y401889D01*
X274975Y401828D01*
X274940Y401768D01*
X274903Y401711D01*
X274862Y401655D01*
X274818Y401602D01*
X274772Y401552D01*
X274722Y401504D01*
X274670Y401459D01*
X274616Y401416D01*
X274560Y401377D01*
X274501Y401341D01*
X274441Y401308D01*
X274378Y401279D01*
X274315Y401253D01*
X274250Y401231D01*
X274183Y401212D01*
X274116Y401197D01*
X274048Y401186D01*
X273980Y401178D01*
X273911Y401174D01*
X273843Y401174D01*
X273774Y401178D01*
X273706Y401186D01*
X273638Y401197D01*
X273571Y401212D01*
X273504Y401231D01*
X273439Y401253D01*
X273376Y401279D01*
X273313Y401308D01*
X273253Y401341D01*
X273194Y401377D01*
X273138Y401416D01*
X273084Y401459D01*
X273032Y401504D01*
X272982Y401552D01*
X272936Y401602D01*
X272892Y401655D01*
X272851Y401711D01*
X272814Y401768D01*
X272779Y401828D01*
X272748Y401889D01*
X272721Y401952D01*
X272697Y402017D01*
X272676Y402082D01*
X272659Y402149D01*
X272646Y402217D01*
X272637Y402285D01*
X272631Y402353D01*
X272629Y402422D01*
X278476Y401174D02*
X278539Y401176D01*
X278601Y401182D01*
X278663Y401192D01*
X278724Y401205D01*
X278784Y401223D01*
X278843Y401244D01*
X278901Y401269D01*
X278957Y401297D01*
X279011Y401329D01*
X279063Y401365D01*
X279112Y401403D01*
X279159Y401445D01*
X279204Y401489D01*
X279245Y401536D01*
X279283Y401585D01*
X279319Y401637D01*
X279351Y401691D01*
X279379Y401747D01*
X279404Y401805D01*
X279425Y401864D01*
X279443Y401924D01*
X279456Y401985D01*
X279466Y402047D01*
X279472Y402109D01*
X279474Y402172D01*
X278476Y401174D02*
X278388Y401176D01*
X278301Y401181D01*
X278214Y401190D01*
X278127Y401203D01*
X278041Y401219D01*
X277956Y401239D01*
X277871Y401263D01*
X277788Y401289D01*
X277705Y401320D01*
X277625Y401354D01*
X277545Y401391D01*
X277467Y401431D01*
X277391Y401474D01*
X277317Y401521D01*
X277245Y401571D01*
X277175Y401623D01*
X277107Y401679D01*
X277041Y401737D01*
X276978Y401798D01*
X277104Y404668D02*
X277106Y404728D01*
X277111Y404788D01*
X277120Y404848D01*
X277133Y404907D01*
X277149Y404965D01*
X277169Y405022D01*
X277192Y405078D01*
X277218Y405132D01*
X277248Y405184D01*
X277281Y405235D01*
X277316Y405283D01*
X277355Y405330D01*
X277396Y405374D01*
X277440Y405415D01*
X277487Y405454D01*
X277535Y405489D01*
X277586Y405522D01*
X277638Y405552D01*
X277692Y405578D01*
X277748Y405601D01*
X277805Y405621D01*
X277863Y405637D01*
X277922Y405650D01*
X277982Y405659D01*
X278042Y405664D01*
X278102Y405666D01*
X278188Y405664D01*
X278274Y405658D01*
X278359Y405648D01*
X278444Y405634D01*
X278528Y405617D01*
X278612Y405595D01*
X278694Y405570D01*
X278775Y405541D01*
X278855Y405508D01*
X278932Y405472D01*
X279009Y405432D01*
X279083Y405388D01*
X279155Y405342D01*
X279225Y405292D01*
X277602Y403794D02*
X277550Y403827D01*
X277500Y403864D01*
X277452Y403903D01*
X277406Y403945D01*
X277363Y403990D01*
X277323Y404037D01*
X277286Y404086D01*
X277252Y404138D01*
X277222Y404192D01*
X277194Y404248D01*
X277170Y404305D01*
X277150Y404363D01*
X277133Y404423D01*
X277120Y404483D01*
X277111Y404544D01*
X277105Y404606D01*
X277103Y404668D01*
X278975Y403046D02*
X279027Y403013D01*
X279077Y402976D01*
X279125Y402937D01*
X279171Y402895D01*
X279214Y402850D01*
X279254Y402803D01*
X279291Y402754D01*
X279325Y402702D01*
X279355Y402648D01*
X279383Y402592D01*
X279407Y402535D01*
X279427Y402477D01*
X279444Y402417D01*
X279457Y402357D01*
X279466Y402296D01*
X279472Y402234D01*
X279474Y402172D01*
X278975Y403046D02*
X277603Y403794D01*
X282312Y401174D02*
X283310Y401174D01*
X282312Y401174D02*
X282252Y401176D01*
X282192Y401181D01*
X282132Y401190D01*
X282073Y401203D01*
X282015Y401219D01*
X281958Y401239D01*
X281902Y401262D01*
X281848Y401288D01*
X281796Y401318D01*
X281745Y401351D01*
X281697Y401386D01*
X281650Y401425D01*
X281606Y401466D01*
X281565Y401510D01*
X281526Y401557D01*
X281491Y401605D01*
X281458Y401656D01*
X281428Y401708D01*
X281402Y401762D01*
X281379Y401818D01*
X281359Y401875D01*
X281343Y401933D01*
X281330Y401992D01*
X281321Y402052D01*
X281316Y402112D01*
X281314Y402172D01*
X281314Y404668D01*
X281316Y404731D01*
X281322Y404793D01*
X281332Y404855D01*
X281345Y404916D01*
X281363Y404976D01*
X281384Y405035D01*
X281409Y405093D01*
X281437Y405149D01*
X281469Y405203D01*
X281505Y405255D01*
X281543Y405304D01*
X281584Y405351D01*
X281629Y405395D01*
X281676Y405437D01*
X281725Y405475D01*
X281777Y405511D01*
X281831Y405543D01*
X281887Y405571D01*
X281945Y405596D01*
X282004Y405617D01*
X282064Y405635D01*
X282125Y405648D01*
X282187Y405658D01*
X282249Y405664D01*
X282312Y405666D01*
X283310Y405666D01*
D10*
X293410Y444558D02*
X336590Y444558D01*
X340400Y409252D02*
X340398Y409130D01*
X340392Y409008D01*
X340382Y408886D01*
X340369Y408765D01*
X340351Y408644D01*
X340330Y408524D01*
X340304Y408404D01*
X340275Y408286D01*
X340243Y408168D01*
X340206Y408051D01*
X340166Y407936D01*
X340122Y407822D01*
X340074Y407710D01*
X340023Y407599D01*
X339968Y407490D01*
X339910Y407382D01*
X339848Y407277D01*
X339783Y407174D01*
X339715Y407072D01*
X339643Y406973D01*
X339569Y406877D01*
X339491Y406782D01*
X339410Y406691D01*
X339327Y406601D01*
X339241Y406515D01*
X339151Y406432D01*
X339060Y406351D01*
X338965Y406273D01*
X338869Y406199D01*
X338770Y406127D01*
X338668Y406059D01*
X338565Y405994D01*
X338460Y405932D01*
X338352Y405874D01*
X338243Y405819D01*
X338132Y405768D01*
X338020Y405720D01*
X337906Y405676D01*
X337791Y405636D01*
X337674Y405599D01*
X337556Y405567D01*
X337438Y405538D01*
X337318Y405512D01*
X337198Y405491D01*
X337077Y405473D01*
X336956Y405460D01*
X336834Y405450D01*
X336712Y405444D01*
X336590Y405442D01*
X293410Y444558D02*
X293288Y444556D01*
X293166Y444550D01*
X293044Y444540D01*
X292923Y444527D01*
X292802Y444509D01*
X292682Y444488D01*
X292562Y444462D01*
X292444Y444433D01*
X292326Y444401D01*
X292209Y444364D01*
X292094Y444324D01*
X291980Y444280D01*
X291868Y444232D01*
X291757Y444181D01*
X291648Y444126D01*
X291540Y444068D01*
X291435Y444006D01*
X291332Y443941D01*
X291230Y443873D01*
X291131Y443801D01*
X291035Y443727D01*
X290940Y443649D01*
X290849Y443568D01*
X290759Y443485D01*
X290673Y443399D01*
X290590Y443309D01*
X290509Y443218D01*
X290431Y443123D01*
X290357Y443027D01*
X290285Y442928D01*
X290217Y442826D01*
X290152Y442723D01*
X290090Y442618D01*
X290032Y442510D01*
X289977Y442401D01*
X289926Y442290D01*
X289878Y442178D01*
X289834Y442064D01*
X289794Y441949D01*
X289757Y441832D01*
X289725Y441714D01*
X289696Y441596D01*
X289670Y441476D01*
X289649Y441356D01*
X289631Y441235D01*
X289618Y441114D01*
X289608Y440992D01*
X289602Y440870D01*
X289600Y440748D01*
X336590Y444558D02*
X336712Y444556D01*
X336834Y444550D01*
X336956Y444540D01*
X337077Y444527D01*
X337198Y444509D01*
X337318Y444488D01*
X337438Y444462D01*
X337556Y444433D01*
X337674Y444401D01*
X337791Y444364D01*
X337906Y444324D01*
X338020Y444280D01*
X338132Y444232D01*
X338243Y444181D01*
X338352Y444126D01*
X338460Y444068D01*
X338565Y444006D01*
X338668Y443941D01*
X338770Y443873D01*
X338869Y443801D01*
X338965Y443727D01*
X339060Y443649D01*
X339151Y443568D01*
X339241Y443485D01*
X339327Y443399D01*
X339410Y443309D01*
X339491Y443218D01*
X339569Y443123D01*
X339643Y443027D01*
X339715Y442928D01*
X339783Y442826D01*
X339848Y442723D01*
X339910Y442618D01*
X339968Y442510D01*
X340023Y442401D01*
X340074Y442290D01*
X340122Y442178D01*
X340166Y442064D01*
X340206Y441949D01*
X340243Y441832D01*
X340275Y441714D01*
X340304Y441596D01*
X340330Y441476D01*
X340351Y441356D01*
X340369Y441235D01*
X340382Y441114D01*
X340392Y440992D01*
X340398Y440870D01*
X340400Y440748D01*
X293410Y405442D02*
X293288Y405444D01*
X293166Y405450D01*
X293044Y405460D01*
X292923Y405473D01*
X292802Y405491D01*
X292682Y405512D01*
X292562Y405538D01*
X292444Y405567D01*
X292326Y405599D01*
X292209Y405636D01*
X292094Y405676D01*
X291980Y405720D01*
X291868Y405768D01*
X291757Y405819D01*
X291648Y405874D01*
X291540Y405932D01*
X291435Y405994D01*
X291332Y406059D01*
X291230Y406127D01*
X291131Y406199D01*
X291035Y406273D01*
X290940Y406351D01*
X290849Y406432D01*
X290759Y406515D01*
X290673Y406601D01*
X290590Y406691D01*
X290509Y406782D01*
X290431Y406877D01*
X290357Y406973D01*
X290285Y407072D01*
X290217Y407174D01*
X290152Y407277D01*
X290090Y407382D01*
X290032Y407490D01*
X289977Y407599D01*
X289926Y407710D01*
X289878Y407822D01*
X289834Y407936D01*
X289794Y408051D01*
X289757Y408168D01*
X289725Y408286D01*
X289696Y408404D01*
X289670Y408524D01*
X289649Y408644D01*
X289631Y408765D01*
X289618Y408886D01*
X289608Y409008D01*
X289602Y409130D01*
X289600Y409252D01*
X293410Y405442D02*
X336590Y405442D01*
X340400Y409252D02*
X340400Y440748D01*
X289600Y440748D02*
X289600Y430080D01*
X289600Y419920D01*
X289600Y409252D01*
X289600Y419920D02*
X289741Y419922D01*
X289882Y419928D01*
X290023Y419938D01*
X290164Y419951D01*
X290304Y419969D01*
X290443Y419991D01*
X290582Y420016D01*
X290721Y420045D01*
X290858Y420078D01*
X290994Y420115D01*
X291129Y420156D01*
X291264Y420200D01*
X291396Y420248D01*
X291528Y420300D01*
X291658Y420355D01*
X291786Y420414D01*
X291913Y420477D01*
X292037Y420543D01*
X292160Y420612D01*
X292281Y420685D01*
X292400Y420761D01*
X292517Y420841D01*
X292631Y420924D01*
X292744Y421009D01*
X292853Y421098D01*
X292961Y421190D01*
X293065Y421285D01*
X293167Y421383D01*
X293266Y421484D01*
X293363Y421587D01*
X293456Y421693D01*
X293546Y421801D01*
X293634Y421912D01*
X293718Y422025D01*
X293799Y422141D01*
X293877Y422259D01*
X293952Y422379D01*
X294023Y422501D01*
X294091Y422625D01*
X294155Y422751D01*
X294216Y422878D01*
X294273Y423007D01*
X294326Y423138D01*
X294376Y423270D01*
X294423Y423403D01*
X294465Y423538D01*
X294504Y423674D01*
X294539Y423811D01*
X294570Y423948D01*
X294597Y424087D01*
X294621Y424226D01*
X294640Y424366D01*
X294656Y424506D01*
X294668Y424647D01*
X294676Y424788D01*
X294680Y424929D01*
X294680Y425071D01*
X294676Y425212D01*
X294668Y425353D01*
X294656Y425494D01*
X294640Y425634D01*
X294621Y425774D01*
X294597Y425913D01*
X294570Y426052D01*
X294539Y426189D01*
X294504Y426326D01*
X294465Y426462D01*
X294423Y426597D01*
X294376Y426730D01*
X294326Y426862D01*
X294273Y426993D01*
X294216Y427122D01*
X294155Y427249D01*
X294091Y427375D01*
X294023Y427499D01*
X293952Y427621D01*
X293877Y427741D01*
X293799Y427859D01*
X293718Y427975D01*
X293634Y428088D01*
X293546Y428199D01*
X293456Y428307D01*
X293363Y428413D01*
X293266Y428516D01*
X293167Y428617D01*
X293065Y428715D01*
X292961Y428810D01*
X292853Y428902D01*
X292744Y428991D01*
X292631Y429076D01*
X292517Y429159D01*
X292400Y429239D01*
X292281Y429315D01*
X292160Y429388D01*
X292037Y429457D01*
X291913Y429523D01*
X291786Y429586D01*
X291658Y429645D01*
X291528Y429700D01*
X291396Y429752D01*
X291264Y429800D01*
X291129Y429844D01*
X290994Y429885D01*
X290858Y429922D01*
X290721Y429955D01*
X290582Y429984D01*
X290443Y430009D01*
X290304Y430031D01*
X290164Y430049D01*
X290023Y430062D01*
X289882Y430072D01*
X289741Y430078D01*
X289600Y430080D01*
D12*
X289600Y408998D02*
X340400Y408998D01*
D11*
X285155Y407855D02*
X273725Y407855D01*
X285155Y406585D02*
X285155Y409125D01*
X273725Y409125D02*
X273725Y406585D01*
X285155Y417253D02*
X285153Y417353D01*
X285147Y417452D01*
X285137Y417552D01*
X285124Y417650D01*
X285106Y417749D01*
X285085Y417846D01*
X285060Y417942D01*
X285031Y418038D01*
X284998Y418132D01*
X284962Y418225D01*
X284922Y418316D01*
X284878Y418406D01*
X284831Y418494D01*
X284781Y418580D01*
X284727Y418664D01*
X284670Y418746D01*
X284610Y418825D01*
X284546Y418903D01*
X284480Y418977D01*
X284411Y419049D01*
X284339Y419118D01*
X284265Y419184D01*
X284187Y419248D01*
X284108Y419308D01*
X284026Y419365D01*
X283942Y419419D01*
X283856Y419469D01*
X283768Y419516D01*
X283678Y419560D01*
X283587Y419600D01*
X283494Y419636D01*
X283400Y419669D01*
X283304Y419698D01*
X283208Y419723D01*
X283111Y419744D01*
X283012Y419762D01*
X282914Y419775D01*
X282814Y419785D01*
X282715Y419791D01*
X282615Y419793D01*
X285155Y417253D02*
X285153Y417112D01*
X285148Y416971D01*
X285138Y416830D01*
X285125Y416689D01*
X285109Y416549D01*
X285088Y416409D01*
X285064Y416270D01*
X285036Y416131D01*
X285005Y415994D01*
X284970Y415857D01*
X284932Y415721D01*
X284890Y415586D01*
X284844Y415453D01*
X284795Y415320D01*
X284742Y415189D01*
X284686Y415060D01*
X284627Y414931D01*
X284564Y414805D01*
X284498Y414680D01*
X284429Y414557D01*
X284356Y414436D01*
X284280Y414317D01*
X284201Y414199D01*
X284120Y414084D01*
X284035Y413972D01*
X283947Y413861D01*
X283856Y413753D01*
X283763Y413647D01*
X283666Y413544D01*
X283567Y413443D01*
X276265Y413761D02*
X276165Y413763D01*
X276066Y413769D01*
X275966Y413779D01*
X275868Y413792D01*
X275769Y413810D01*
X275672Y413831D01*
X275576Y413856D01*
X275480Y413885D01*
X275386Y413918D01*
X275293Y413954D01*
X275202Y413994D01*
X275112Y414038D01*
X275024Y414085D01*
X274938Y414135D01*
X274854Y414189D01*
X274772Y414246D01*
X274693Y414306D01*
X274615Y414370D01*
X274541Y414436D01*
X274469Y414505D01*
X274400Y414577D01*
X274334Y414651D01*
X274270Y414729D01*
X274210Y414808D01*
X274153Y414890D01*
X274099Y414974D01*
X274049Y415060D01*
X274002Y415148D01*
X273958Y415238D01*
X273918Y415329D01*
X273882Y415422D01*
X273849Y415516D01*
X273820Y415612D01*
X273795Y415708D01*
X273774Y415805D01*
X273756Y415904D01*
X273743Y416002D01*
X273733Y416102D01*
X273727Y416201D01*
X273725Y416301D01*
X273727Y416434D01*
X273732Y416567D01*
X273742Y416700D01*
X273755Y416833D01*
X273772Y416965D01*
X273792Y417097D01*
X273816Y417228D01*
X273844Y417358D01*
X273875Y417488D01*
X273910Y417616D01*
X273949Y417744D01*
X273991Y417870D01*
X274037Y417995D01*
X274086Y418119D01*
X274138Y418242D01*
X274194Y418363D01*
X274254Y418482D01*
X274316Y418600D01*
X274382Y418715D01*
X274451Y418829D01*
X274524Y418941D01*
X274599Y419051D01*
X274678Y419159D01*
X278488Y415030D02*
X278436Y414946D01*
X278381Y414863D01*
X278322Y414783D01*
X278261Y414705D01*
X278197Y414630D01*
X278129Y414557D01*
X278059Y414486D01*
X277987Y414419D01*
X277912Y414354D01*
X277834Y414292D01*
X277754Y414233D01*
X277672Y414177D01*
X277588Y414125D01*
X277502Y414076D01*
X277414Y414030D01*
X277324Y413987D01*
X277233Y413948D01*
X277140Y413913D01*
X277046Y413881D01*
X276951Y413853D01*
X276855Y413828D01*
X276758Y413808D01*
X276660Y413790D01*
X276562Y413777D01*
X276463Y413768D01*
X276364Y413762D01*
X276265Y413760D01*
X280392Y418523D02*
X280444Y418607D01*
X280499Y418690D01*
X280558Y418770D01*
X280619Y418848D01*
X280683Y418923D01*
X280751Y418996D01*
X280821Y419067D01*
X280893Y419134D01*
X280968Y419199D01*
X281046Y419261D01*
X281126Y419320D01*
X281208Y419376D01*
X281292Y419428D01*
X281378Y419477D01*
X281466Y419523D01*
X281556Y419566D01*
X281647Y419605D01*
X281740Y419640D01*
X281834Y419672D01*
X281929Y419700D01*
X282025Y419725D01*
X282122Y419745D01*
X282220Y419763D01*
X282318Y419776D01*
X282417Y419785D01*
X282516Y419791D01*
X282615Y419793D01*
X280393Y418523D02*
X278488Y415031D01*
X276900Y424492D02*
X281980Y424492D01*
X276900Y424492D02*
X276789Y424494D01*
X276679Y424500D01*
X276568Y424509D01*
X276458Y424523D01*
X276349Y424540D01*
X276240Y424561D01*
X276132Y424586D01*
X276025Y424615D01*
X275919Y424647D01*
X275814Y424683D01*
X275711Y424723D01*
X275609Y424766D01*
X275508Y424813D01*
X275409Y424864D01*
X275313Y424917D01*
X275218Y424974D01*
X275125Y425035D01*
X275034Y425098D01*
X274945Y425165D01*
X274859Y425235D01*
X274776Y425308D01*
X274694Y425383D01*
X274616Y425461D01*
X274541Y425543D01*
X274468Y425626D01*
X274398Y425712D01*
X274331Y425801D01*
X274268Y425892D01*
X274207Y425985D01*
X274150Y426080D01*
X274097Y426176D01*
X274046Y426275D01*
X273999Y426376D01*
X273956Y426478D01*
X273916Y426581D01*
X273880Y426686D01*
X273848Y426792D01*
X273819Y426899D01*
X273794Y427007D01*
X273773Y427116D01*
X273756Y427225D01*
X273742Y427335D01*
X273733Y427446D01*
X273727Y427556D01*
X273725Y427667D01*
X273727Y427778D01*
X273733Y427888D01*
X273742Y427999D01*
X273756Y428109D01*
X273773Y428218D01*
X273794Y428327D01*
X273819Y428435D01*
X273848Y428542D01*
X273880Y428648D01*
X273916Y428753D01*
X273956Y428856D01*
X273999Y428958D01*
X274046Y429059D01*
X274097Y429158D01*
X274150Y429255D01*
X274207Y429349D01*
X274268Y429442D01*
X274331Y429533D01*
X274398Y429622D01*
X274468Y429708D01*
X274541Y429791D01*
X274616Y429873D01*
X274694Y429951D01*
X274776Y430026D01*
X274859Y430099D01*
X274945Y430169D01*
X275034Y430236D01*
X275125Y430299D01*
X275218Y430360D01*
X275313Y430417D01*
X275409Y430470D01*
X275508Y430521D01*
X275609Y430568D01*
X275711Y430611D01*
X275814Y430651D01*
X275919Y430687D01*
X276025Y430719D01*
X276132Y430748D01*
X276240Y430773D01*
X276349Y430794D01*
X276458Y430811D01*
X276568Y430825D01*
X276679Y430834D01*
X276789Y430840D01*
X276900Y430842D01*
X281980Y430842D01*
X282091Y430840D01*
X282201Y430834D01*
X282312Y430825D01*
X282422Y430811D01*
X282531Y430794D01*
X282640Y430773D01*
X282748Y430748D01*
X282855Y430719D01*
X282961Y430687D01*
X283066Y430651D01*
X283169Y430611D01*
X283271Y430568D01*
X283372Y430521D01*
X283471Y430470D01*
X283568Y430417D01*
X283662Y430360D01*
X283755Y430299D01*
X283846Y430236D01*
X283935Y430169D01*
X284021Y430099D01*
X284104Y430026D01*
X284186Y429951D01*
X284264Y429873D01*
X284339Y429791D01*
X284412Y429708D01*
X284482Y429622D01*
X284549Y429533D01*
X284612Y429442D01*
X284673Y429349D01*
X284730Y429254D01*
X284783Y429158D01*
X284834Y429059D01*
X284881Y428958D01*
X284924Y428856D01*
X284964Y428753D01*
X285000Y428648D01*
X285032Y428542D01*
X285061Y428435D01*
X285086Y428327D01*
X285107Y428218D01*
X285124Y428109D01*
X285138Y427999D01*
X285147Y427888D01*
X285153Y427778D01*
X285155Y427667D01*
X285153Y427556D01*
X285147Y427446D01*
X285138Y427335D01*
X285124Y427225D01*
X285107Y427116D01*
X285086Y427007D01*
X285061Y426899D01*
X285032Y426792D01*
X285000Y426686D01*
X284964Y426581D01*
X284924Y426478D01*
X284881Y426376D01*
X284834Y426275D01*
X284783Y426176D01*
X284730Y426079D01*
X284673Y425985D01*
X284612Y425892D01*
X284549Y425801D01*
X284482Y425712D01*
X284412Y425626D01*
X284339Y425543D01*
X284264Y425461D01*
X284186Y425383D01*
X284104Y425308D01*
X284021Y425235D01*
X283935Y425165D01*
X283846Y425098D01*
X283755Y425035D01*
X283662Y424974D01*
X283568Y424917D01*
X283471Y424864D01*
X283372Y424813D01*
X283271Y424766D01*
X283169Y424723D01*
X283066Y424683D01*
X282961Y424647D01*
X282855Y424615D01*
X282748Y424586D01*
X282640Y424561D01*
X282531Y424540D01*
X282422Y424523D01*
X282312Y424509D01*
X282201Y424500D01*
X282091Y424494D01*
X281980Y424492D01*
X286425Y435414D02*
X286425Y440494D01*
X276583Y451417D02*
X276479Y451415D01*
X276374Y451409D01*
X276270Y451400D01*
X276167Y451387D01*
X276064Y451369D01*
X275962Y451349D01*
X275860Y451324D01*
X275760Y451296D01*
X275660Y451264D01*
X275562Y451228D01*
X275465Y451189D01*
X275370Y451147D01*
X275276Y451101D01*
X275184Y451051D01*
X275094Y450999D01*
X275006Y450943D01*
X274920Y450883D01*
X274836Y450821D01*
X274755Y450756D01*
X274676Y450688D01*
X274599Y450616D01*
X274526Y450543D01*
X274454Y450466D01*
X274386Y450387D01*
X274321Y450306D01*
X274259Y450222D01*
X274199Y450136D01*
X274143Y450048D01*
X274091Y449958D01*
X274041Y449866D01*
X273995Y449772D01*
X273953Y449677D01*
X273914Y449580D01*
X273878Y449482D01*
X273846Y449382D01*
X273818Y449282D01*
X273793Y449180D01*
X273773Y449078D01*
X273755Y448975D01*
X273742Y448872D01*
X273733Y448768D01*
X273727Y448663D01*
X273725Y448559D01*
X273727Y448441D01*
X273733Y448322D01*
X273742Y448204D01*
X273755Y448087D01*
X273773Y447970D01*
X273793Y447853D01*
X273818Y447737D01*
X273846Y447622D01*
X273879Y447509D01*
X273914Y447396D01*
X273954Y447284D01*
X273996Y447174D01*
X274043Y447065D01*
X274093Y446957D01*
X274146Y446852D01*
X274203Y446748D01*
X274263Y446646D01*
X274326Y446546D01*
X274393Y446448D01*
X274462Y446352D01*
X274535Y446259D01*
X274611Y446168D01*
X274689Y446079D01*
X274771Y445993D01*
X274855Y445910D01*
X274941Y445829D01*
X275031Y445752D01*
X275122Y445677D01*
X275216Y445605D01*
X275313Y445536D01*
X275411Y445471D01*
X275512Y445408D01*
X275615Y445349D01*
X275719Y445293D01*
X275825Y445241D01*
X275933Y445192D01*
X276042Y445147D01*
X276153Y445105D01*
X276265Y445067D01*
X278805Y450464D02*
X278730Y450540D01*
X278651Y450615D01*
X278570Y450686D01*
X278486Y450755D01*
X278400Y450820D01*
X278312Y450882D01*
X278222Y450942D01*
X278130Y450998D01*
X278035Y451051D01*
X277939Y451100D01*
X277841Y451146D01*
X277742Y451189D01*
X277641Y451228D01*
X277539Y451263D01*
X277436Y451295D01*
X277332Y451323D01*
X277227Y451348D01*
X277120Y451369D01*
X277014Y451386D01*
X276907Y451399D01*
X276799Y451408D01*
X276691Y451414D01*
X276583Y451416D01*
X278805Y450464D02*
X285155Y445066D01*
X285155Y451416D01*
D10*
X353410Y444558D02*
X396590Y444558D01*
X400400Y409252D02*
X400398Y409130D01*
X400392Y409008D01*
X400382Y408886D01*
X400369Y408765D01*
X400351Y408644D01*
X400330Y408524D01*
X400304Y408404D01*
X400275Y408286D01*
X400243Y408168D01*
X400206Y408051D01*
X400166Y407936D01*
X400122Y407822D01*
X400074Y407710D01*
X400023Y407599D01*
X399968Y407490D01*
X399910Y407382D01*
X399848Y407277D01*
X399783Y407174D01*
X399715Y407072D01*
X399643Y406973D01*
X399569Y406877D01*
X399491Y406782D01*
X399410Y406691D01*
X399327Y406601D01*
X399241Y406515D01*
X399151Y406432D01*
X399060Y406351D01*
X398965Y406273D01*
X398869Y406199D01*
X398770Y406127D01*
X398668Y406059D01*
X398565Y405994D01*
X398460Y405932D01*
X398352Y405874D01*
X398243Y405819D01*
X398132Y405768D01*
X398020Y405720D01*
X397906Y405676D01*
X397791Y405636D01*
X397674Y405599D01*
X397556Y405567D01*
X397438Y405538D01*
X397318Y405512D01*
X397198Y405491D01*
X397077Y405473D01*
X396956Y405460D01*
X396834Y405450D01*
X396712Y405444D01*
X396590Y405442D01*
X353410Y444558D02*
X353288Y444556D01*
X353166Y444550D01*
X353044Y444540D01*
X352923Y444527D01*
X352802Y444509D01*
X352682Y444488D01*
X352562Y444462D01*
X352444Y444433D01*
X352326Y444401D01*
X352209Y444364D01*
X352094Y444324D01*
X351980Y444280D01*
X351868Y444232D01*
X351757Y444181D01*
X351648Y444126D01*
X351540Y444068D01*
X351435Y444006D01*
X351332Y443941D01*
X351230Y443873D01*
X351131Y443801D01*
X351035Y443727D01*
X350940Y443649D01*
X350849Y443568D01*
X350759Y443485D01*
X350673Y443399D01*
X350590Y443309D01*
X350509Y443218D01*
X350431Y443123D01*
X350357Y443027D01*
X350285Y442928D01*
X350217Y442826D01*
X350152Y442723D01*
X350090Y442618D01*
X350032Y442510D01*
X349977Y442401D01*
X349926Y442290D01*
X349878Y442178D01*
X349834Y442064D01*
X349794Y441949D01*
X349757Y441832D01*
X349725Y441714D01*
X349696Y441596D01*
X349670Y441476D01*
X349649Y441356D01*
X349631Y441235D01*
X349618Y441114D01*
X349608Y440992D01*
X349602Y440870D01*
X349600Y440748D01*
X396590Y444558D02*
X396712Y444556D01*
X396834Y444550D01*
X396956Y444540D01*
X397077Y444527D01*
X397198Y444509D01*
X397318Y444488D01*
X397438Y444462D01*
X397556Y444433D01*
X397674Y444401D01*
X397791Y444364D01*
X397906Y444324D01*
X398020Y444280D01*
X398132Y444232D01*
X398243Y444181D01*
X398352Y444126D01*
X398460Y444068D01*
X398565Y444006D01*
X398668Y443941D01*
X398770Y443873D01*
X398869Y443801D01*
X398965Y443727D01*
X399060Y443649D01*
X399151Y443568D01*
X399241Y443485D01*
X399327Y443399D01*
X399410Y443309D01*
X399491Y443218D01*
X399569Y443123D01*
X399643Y443027D01*
X399715Y442928D01*
X399783Y442826D01*
X399848Y442723D01*
X399910Y442618D01*
X399968Y442510D01*
X400023Y442401D01*
X400074Y442290D01*
X400122Y442178D01*
X400166Y442064D01*
X400206Y441949D01*
X400243Y441832D01*
X400275Y441714D01*
X400304Y441596D01*
X400330Y441476D01*
X400351Y441356D01*
X400369Y441235D01*
X400382Y441114D01*
X400392Y440992D01*
X400398Y440870D01*
X400400Y440748D01*
X353410Y405442D02*
X353288Y405444D01*
X353166Y405450D01*
X353044Y405460D01*
X352923Y405473D01*
X352802Y405491D01*
X352682Y405512D01*
X352562Y405538D01*
X352444Y405567D01*
X352326Y405599D01*
X352209Y405636D01*
X352094Y405676D01*
X351980Y405720D01*
X351868Y405768D01*
X351757Y405819D01*
X351648Y405874D01*
X351540Y405932D01*
X351435Y405994D01*
X351332Y406059D01*
X351230Y406127D01*
X351131Y406199D01*
X351035Y406273D01*
X350940Y406351D01*
X350849Y406432D01*
X350759Y406515D01*
X350673Y406601D01*
X350590Y406691D01*
X350509Y406782D01*
X350431Y406877D01*
X350357Y406973D01*
X350285Y407072D01*
X350217Y407174D01*
X350152Y407277D01*
X350090Y407382D01*
X350032Y407490D01*
X349977Y407599D01*
X349926Y407710D01*
X349878Y407822D01*
X349834Y407936D01*
X349794Y408051D01*
X349757Y408168D01*
X349725Y408286D01*
X349696Y408404D01*
X349670Y408524D01*
X349649Y408644D01*
X349631Y408765D01*
X349618Y408886D01*
X349608Y409008D01*
X349602Y409130D01*
X349600Y409252D01*
X353410Y405442D02*
X396590Y405442D01*
X400400Y409252D02*
X400400Y440748D01*
X349600Y440748D02*
X349600Y430080D01*
X349600Y419920D01*
X349600Y409252D01*
X349600Y419920D02*
X349741Y419922D01*
X349882Y419928D01*
X350023Y419938D01*
X350164Y419951D01*
X350304Y419969D01*
X350443Y419991D01*
X350582Y420016D01*
X350721Y420045D01*
X350858Y420078D01*
X350994Y420115D01*
X351129Y420156D01*
X351264Y420200D01*
X351396Y420248D01*
X351528Y420300D01*
X351658Y420355D01*
X351786Y420414D01*
X351913Y420477D01*
X352037Y420543D01*
X352160Y420612D01*
X352281Y420685D01*
X352400Y420761D01*
X352517Y420841D01*
X352631Y420924D01*
X352744Y421009D01*
X352853Y421098D01*
X352961Y421190D01*
X353065Y421285D01*
X353167Y421383D01*
X353266Y421484D01*
X353363Y421587D01*
X353456Y421693D01*
X353546Y421801D01*
X353634Y421912D01*
X353718Y422025D01*
X353799Y422141D01*
X353877Y422259D01*
X353952Y422379D01*
X354023Y422501D01*
X354091Y422625D01*
X354155Y422751D01*
X354216Y422878D01*
X354273Y423007D01*
X354326Y423138D01*
X354376Y423270D01*
X354423Y423403D01*
X354465Y423538D01*
X354504Y423674D01*
X354539Y423811D01*
X354570Y423948D01*
X354597Y424087D01*
X354621Y424226D01*
X354640Y424366D01*
X354656Y424506D01*
X354668Y424647D01*
X354676Y424788D01*
X354680Y424929D01*
X354680Y425071D01*
X354676Y425212D01*
X354668Y425353D01*
X354656Y425494D01*
X354640Y425634D01*
X354621Y425774D01*
X354597Y425913D01*
X354570Y426052D01*
X354539Y426189D01*
X354504Y426326D01*
X354465Y426462D01*
X354423Y426597D01*
X354376Y426730D01*
X354326Y426862D01*
X354273Y426993D01*
X354216Y427122D01*
X354155Y427249D01*
X354091Y427375D01*
X354023Y427499D01*
X353952Y427621D01*
X353877Y427741D01*
X353799Y427859D01*
X353718Y427975D01*
X353634Y428088D01*
X353546Y428199D01*
X353456Y428307D01*
X353363Y428413D01*
X353266Y428516D01*
X353167Y428617D01*
X353065Y428715D01*
X352961Y428810D01*
X352853Y428902D01*
X352744Y428991D01*
X352631Y429076D01*
X352517Y429159D01*
X352400Y429239D01*
X352281Y429315D01*
X352160Y429388D01*
X352037Y429457D01*
X351913Y429523D01*
X351786Y429586D01*
X351658Y429645D01*
X351528Y429700D01*
X351396Y429752D01*
X351264Y429800D01*
X351129Y429844D01*
X350994Y429885D01*
X350858Y429922D01*
X350721Y429955D01*
X350582Y429984D01*
X350443Y430009D01*
X350304Y430031D01*
X350164Y430049D01*
X350023Y430062D01*
X349882Y430072D01*
X349741Y430078D01*
X349600Y430080D01*
D12*
X349600Y408998D02*
X400400Y408998D01*
D11*
X345155Y407855D02*
X333725Y407855D01*
X345155Y406585D02*
X345155Y409125D01*
X333725Y409125D02*
X333725Y406585D01*
X345155Y417253D02*
X345153Y417353D01*
X345147Y417452D01*
X345137Y417552D01*
X345124Y417650D01*
X345106Y417749D01*
X345085Y417846D01*
X345060Y417942D01*
X345031Y418038D01*
X344998Y418132D01*
X344962Y418225D01*
X344922Y418316D01*
X344878Y418406D01*
X344831Y418494D01*
X344781Y418580D01*
X344727Y418664D01*
X344670Y418746D01*
X344610Y418825D01*
X344546Y418903D01*
X344480Y418977D01*
X344411Y419049D01*
X344339Y419118D01*
X344265Y419184D01*
X344187Y419248D01*
X344108Y419308D01*
X344026Y419365D01*
X343942Y419419D01*
X343856Y419469D01*
X343768Y419516D01*
X343678Y419560D01*
X343587Y419600D01*
X343494Y419636D01*
X343400Y419669D01*
X343304Y419698D01*
X343208Y419723D01*
X343111Y419744D01*
X343012Y419762D01*
X342914Y419775D01*
X342814Y419785D01*
X342715Y419791D01*
X342615Y419793D01*
X345155Y417253D02*
X345153Y417112D01*
X345148Y416971D01*
X345138Y416830D01*
X345125Y416689D01*
X345109Y416549D01*
X345088Y416409D01*
X345064Y416270D01*
X345036Y416131D01*
X345005Y415994D01*
X344970Y415857D01*
X344932Y415721D01*
X344890Y415586D01*
X344844Y415453D01*
X344795Y415320D01*
X344742Y415189D01*
X344686Y415060D01*
X344627Y414931D01*
X344564Y414805D01*
X344498Y414680D01*
X344429Y414557D01*
X344356Y414436D01*
X344280Y414317D01*
X344201Y414199D01*
X344120Y414084D01*
X344035Y413972D01*
X343947Y413861D01*
X343856Y413753D01*
X343763Y413647D01*
X343666Y413544D01*
X343567Y413443D01*
X336265Y413761D02*
X336165Y413763D01*
X336066Y413769D01*
X335966Y413779D01*
X335868Y413792D01*
X335769Y413810D01*
X335672Y413831D01*
X335576Y413856D01*
X335480Y413885D01*
X335386Y413918D01*
X335293Y413954D01*
X335202Y413994D01*
X335112Y414038D01*
X335024Y414085D01*
X334938Y414135D01*
X334854Y414189D01*
X334772Y414246D01*
X334693Y414306D01*
X334615Y414370D01*
X334541Y414436D01*
X334469Y414505D01*
X334400Y414577D01*
X334334Y414651D01*
X334270Y414729D01*
X334210Y414808D01*
X334153Y414890D01*
X334099Y414974D01*
X334049Y415060D01*
X334002Y415148D01*
X333958Y415238D01*
X333918Y415329D01*
X333882Y415422D01*
X333849Y415516D01*
X333820Y415612D01*
X333795Y415708D01*
X333774Y415805D01*
X333756Y415904D01*
X333743Y416002D01*
X333733Y416102D01*
X333727Y416201D01*
X333725Y416301D01*
X333727Y416434D01*
X333732Y416567D01*
X333742Y416700D01*
X333755Y416833D01*
X333772Y416965D01*
X333792Y417097D01*
X333816Y417228D01*
X333844Y417358D01*
X333875Y417488D01*
X333910Y417616D01*
X333949Y417744D01*
X333991Y417870D01*
X334037Y417995D01*
X334086Y418119D01*
X334138Y418242D01*
X334194Y418363D01*
X334254Y418482D01*
X334316Y418600D01*
X334382Y418715D01*
X334451Y418829D01*
X334524Y418941D01*
X334599Y419051D01*
X334678Y419159D01*
X338488Y415030D02*
X338436Y414946D01*
X338381Y414863D01*
X338322Y414783D01*
X338261Y414705D01*
X338197Y414630D01*
X338129Y414557D01*
X338059Y414486D01*
X337987Y414419D01*
X337912Y414354D01*
X337834Y414292D01*
X337754Y414233D01*
X337672Y414177D01*
X337588Y414125D01*
X337502Y414076D01*
X337414Y414030D01*
X337324Y413987D01*
X337233Y413948D01*
X337140Y413913D01*
X337046Y413881D01*
X336951Y413853D01*
X336855Y413828D01*
X336758Y413808D01*
X336660Y413790D01*
X336562Y413777D01*
X336463Y413768D01*
X336364Y413762D01*
X336265Y413760D01*
X340392Y418523D02*
X340444Y418607D01*
X340499Y418690D01*
X340558Y418770D01*
X340619Y418848D01*
X340683Y418923D01*
X340751Y418996D01*
X340821Y419067D01*
X340893Y419134D01*
X340968Y419199D01*
X341046Y419261D01*
X341126Y419320D01*
X341208Y419376D01*
X341292Y419428D01*
X341378Y419477D01*
X341466Y419523D01*
X341556Y419566D01*
X341647Y419605D01*
X341740Y419640D01*
X341834Y419672D01*
X341929Y419700D01*
X342025Y419725D01*
X342122Y419745D01*
X342220Y419763D01*
X342318Y419776D01*
X342417Y419785D01*
X342516Y419791D01*
X342615Y419793D01*
X340393Y418523D02*
X338488Y415031D01*
X336900Y424492D02*
X341980Y424492D01*
X336900Y424492D02*
X336789Y424494D01*
X336679Y424500D01*
X336568Y424509D01*
X336458Y424523D01*
X336349Y424540D01*
X336240Y424561D01*
X336132Y424586D01*
X336025Y424615D01*
X335919Y424647D01*
X335814Y424683D01*
X335711Y424723D01*
X335609Y424766D01*
X335508Y424813D01*
X335409Y424864D01*
X335313Y424917D01*
X335218Y424974D01*
X335125Y425035D01*
X335034Y425098D01*
X334945Y425165D01*
X334859Y425235D01*
X334776Y425308D01*
X334694Y425383D01*
X334616Y425461D01*
X334541Y425543D01*
X334468Y425626D01*
X334398Y425712D01*
X334331Y425801D01*
X334268Y425892D01*
X334207Y425985D01*
X334150Y426080D01*
X334097Y426176D01*
X334046Y426275D01*
X333999Y426376D01*
X333956Y426478D01*
X333916Y426581D01*
X333880Y426686D01*
X333848Y426792D01*
X333819Y426899D01*
X333794Y427007D01*
X333773Y427116D01*
X333756Y427225D01*
X333742Y427335D01*
X333733Y427446D01*
X333727Y427556D01*
X333725Y427667D01*
X333727Y427778D01*
X333733Y427888D01*
X333742Y427999D01*
X333756Y428109D01*
X333773Y428218D01*
X333794Y428327D01*
X333819Y428435D01*
X333848Y428542D01*
X333880Y428648D01*
X333916Y428753D01*
X333956Y428856D01*
X333999Y428958D01*
X334046Y429059D01*
X334097Y429158D01*
X334150Y429255D01*
X334207Y429349D01*
X334268Y429442D01*
X334331Y429533D01*
X334398Y429622D01*
X334468Y429708D01*
X334541Y429791D01*
X334616Y429873D01*
X334694Y429951D01*
X334776Y430026D01*
X334859Y430099D01*
X334945Y430169D01*
X335034Y430236D01*
X335125Y430299D01*
X335218Y430360D01*
X335313Y430417D01*
X335409Y430470D01*
X335508Y430521D01*
X335609Y430568D01*
X335711Y430611D01*
X335814Y430651D01*
X335919Y430687D01*
X336025Y430719D01*
X336132Y430748D01*
X336240Y430773D01*
X336349Y430794D01*
X336458Y430811D01*
X336568Y430825D01*
X336679Y430834D01*
X336789Y430840D01*
X336900Y430842D01*
X341980Y430842D01*
X342091Y430840D01*
X342201Y430834D01*
X342312Y430825D01*
X342422Y430811D01*
X342531Y430794D01*
X342640Y430773D01*
X342748Y430748D01*
X342855Y430719D01*
X342961Y430687D01*
X343066Y430651D01*
X343169Y430611D01*
X343271Y430568D01*
X343372Y430521D01*
X343471Y430470D01*
X343568Y430417D01*
X343662Y430360D01*
X343755Y430299D01*
X343846Y430236D01*
X343935Y430169D01*
X344021Y430099D01*
X344104Y430026D01*
X344186Y429951D01*
X344264Y429873D01*
X344339Y429791D01*
X344412Y429708D01*
X344482Y429622D01*
X344549Y429533D01*
X344612Y429442D01*
X344673Y429349D01*
X344730Y429254D01*
X344783Y429158D01*
X344834Y429059D01*
X344881Y428958D01*
X344924Y428856D01*
X344964Y428753D01*
X345000Y428648D01*
X345032Y428542D01*
X345061Y428435D01*
X345086Y428327D01*
X345107Y428218D01*
X345124Y428109D01*
X345138Y427999D01*
X345147Y427888D01*
X345153Y427778D01*
X345155Y427667D01*
X345153Y427556D01*
X345147Y427446D01*
X345138Y427335D01*
X345124Y427225D01*
X345107Y427116D01*
X345086Y427007D01*
X345061Y426899D01*
X345032Y426792D01*
X345000Y426686D01*
X344964Y426581D01*
X344924Y426478D01*
X344881Y426376D01*
X344834Y426275D01*
X344783Y426176D01*
X344730Y426079D01*
X344673Y425985D01*
X344612Y425892D01*
X344549Y425801D01*
X344482Y425712D01*
X344412Y425626D01*
X344339Y425543D01*
X344264Y425461D01*
X344186Y425383D01*
X344104Y425308D01*
X344021Y425235D01*
X343935Y425165D01*
X343846Y425098D01*
X343755Y425035D01*
X343662Y424974D01*
X343568Y424917D01*
X343471Y424864D01*
X343372Y424813D01*
X343271Y424766D01*
X343169Y424723D01*
X343066Y424683D01*
X342961Y424647D01*
X342855Y424615D01*
X342748Y424586D01*
X342640Y424561D01*
X342531Y424540D01*
X342422Y424523D01*
X342312Y424509D01*
X342201Y424500D01*
X342091Y424494D01*
X341980Y424492D01*
X346425Y435414D02*
X346425Y440494D01*
X336265Y445066D02*
X333725Y448241D01*
X345155Y448241D01*
X345155Y445066D02*
X345155Y451416D01*
M02*
