G04 EAGLE Gerber RS-274X export*
G75*
%MOMM*%
%FSLAX34Y34*%
%LPD*%
%INSilkscreen Top*%
%IPPOS*%
%AMOC8*
5,1,8,0,0,1.08239X$1,22.5*%
G01*
%ADD10C,0.152400*%
%ADD11C,0.127000*%
%ADD12C,0.050800*%
%ADD13C,0.101600*%
%ADD14C,0.076200*%
%ADD15C,0.200000*%
%ADD16C,0.508000*%
%ADD17C,0.025400*%

G36*
X204407Y445463D02*
X204407Y445463D01*
X204409Y445462D01*
X204452Y445482D01*
X204496Y445500D01*
X204496Y445502D01*
X204498Y445503D01*
X204531Y445588D01*
X204531Y448128D01*
X204530Y448130D01*
X204531Y448132D01*
X204511Y448175D01*
X204493Y448219D01*
X204491Y448219D01*
X204490Y448221D01*
X204405Y448254D01*
X200595Y448254D01*
X200593Y448253D01*
X200591Y448254D01*
X200548Y448234D01*
X200504Y448216D01*
X200504Y448214D01*
X200502Y448213D01*
X200469Y448128D01*
X200469Y445588D01*
X200470Y445586D01*
X200469Y445584D01*
X200489Y445541D01*
X200507Y445497D01*
X200509Y445497D01*
X200510Y445495D01*
X200595Y445462D01*
X204405Y445462D01*
X204407Y445463D01*
G37*
G36*
X179414Y395470D02*
X179414Y395470D01*
X179416Y395469D01*
X179459Y395489D01*
X179503Y395507D01*
X179503Y395509D01*
X179505Y395510D01*
X179538Y395595D01*
X179538Y399405D01*
X179537Y399407D01*
X179538Y399409D01*
X179518Y399452D01*
X179500Y399496D01*
X179498Y399496D01*
X179497Y399498D01*
X179412Y399531D01*
X176872Y399531D01*
X176870Y399530D01*
X176868Y399531D01*
X176825Y399511D01*
X176781Y399493D01*
X176781Y399491D01*
X176779Y399490D01*
X176746Y399405D01*
X176746Y395595D01*
X176747Y395593D01*
X176746Y395591D01*
X176766Y395548D01*
X176784Y395504D01*
X176786Y395504D01*
X176787Y395502D01*
X176872Y395469D01*
X179412Y395469D01*
X179414Y395470D01*
G37*
G36*
X263130Y390470D02*
X263130Y390470D01*
X263132Y390469D01*
X263175Y390489D01*
X263219Y390507D01*
X263219Y390509D01*
X263221Y390510D01*
X263254Y390595D01*
X263254Y394405D01*
X263253Y394407D01*
X263254Y394409D01*
X263234Y394452D01*
X263216Y394496D01*
X263214Y394496D01*
X263213Y394498D01*
X263128Y394531D01*
X260588Y394531D01*
X260586Y394530D01*
X260584Y394531D01*
X260541Y394511D01*
X260497Y394493D01*
X260497Y394491D01*
X260495Y394490D01*
X260462Y394405D01*
X260462Y390595D01*
X260463Y390593D01*
X260462Y390591D01*
X260482Y390548D01*
X260500Y390504D01*
X260502Y390504D01*
X260503Y390502D01*
X260588Y390469D01*
X263128Y390469D01*
X263130Y390470D01*
G37*
G36*
X219407Y361747D02*
X219407Y361747D01*
X219409Y361746D01*
X219452Y361766D01*
X219496Y361784D01*
X219496Y361786D01*
X219498Y361787D01*
X219531Y361872D01*
X219531Y364412D01*
X219530Y364414D01*
X219531Y364416D01*
X219511Y364459D01*
X219493Y364503D01*
X219491Y364503D01*
X219490Y364505D01*
X219405Y364538D01*
X215595Y364538D01*
X215593Y364537D01*
X215591Y364538D01*
X215548Y364518D01*
X215504Y364500D01*
X215504Y364498D01*
X215502Y364497D01*
X215469Y364412D01*
X215469Y361872D01*
X215470Y361870D01*
X215469Y361868D01*
X215489Y361825D01*
X215507Y361781D01*
X215509Y361781D01*
X215510Y361779D01*
X215595Y361746D01*
X219405Y361746D01*
X219407Y361747D01*
G37*
D10*
X573450Y518300D02*
X586150Y518300D01*
X592500Y511950D01*
X598850Y518300D01*
X611550Y518300D01*
X617900Y511950D01*
X573450Y518300D02*
X567100Y511950D01*
X617900Y511950D02*
X624250Y518300D01*
X636950Y518300D01*
X643300Y511950D01*
X643300Y473850D01*
X592500Y473850D02*
X586150Y467500D01*
X611550Y467500D02*
X617900Y473850D01*
X611550Y467500D02*
X598850Y467500D01*
X592500Y473850D01*
X567100Y473850D02*
X567100Y511950D01*
X567100Y473850D02*
X573450Y467500D01*
X586150Y467500D01*
X636950Y467500D02*
X643300Y473850D01*
X636950Y467500D02*
X624250Y467500D01*
X617900Y473850D01*
D11*
X577260Y463055D02*
X574085Y460515D01*
X577260Y463055D02*
X577260Y451625D01*
X574085Y451625D02*
X580435Y451625D01*
X646475Y506235D02*
X650285Y506235D01*
X650385Y506233D01*
X650484Y506227D01*
X650584Y506217D01*
X650682Y506204D01*
X650781Y506186D01*
X650878Y506165D01*
X650974Y506140D01*
X651070Y506111D01*
X651164Y506078D01*
X651257Y506042D01*
X651348Y506002D01*
X651438Y505958D01*
X651526Y505911D01*
X651612Y505861D01*
X651696Y505807D01*
X651778Y505750D01*
X651857Y505690D01*
X651935Y505626D01*
X652009Y505560D01*
X652081Y505491D01*
X652150Y505419D01*
X652216Y505345D01*
X652280Y505267D01*
X652340Y505188D01*
X652397Y505106D01*
X652451Y505022D01*
X652501Y504936D01*
X652548Y504848D01*
X652592Y504758D01*
X652632Y504667D01*
X652668Y504574D01*
X652701Y504480D01*
X652730Y504384D01*
X652755Y504288D01*
X652776Y504191D01*
X652794Y504092D01*
X652807Y503994D01*
X652817Y503894D01*
X652823Y503795D01*
X652825Y503695D01*
X652825Y503060D01*
X652823Y502949D01*
X652817Y502839D01*
X652808Y502728D01*
X652794Y502618D01*
X652777Y502509D01*
X652756Y502400D01*
X652731Y502292D01*
X652702Y502185D01*
X652670Y502079D01*
X652634Y501974D01*
X652594Y501871D01*
X652551Y501769D01*
X652504Y501668D01*
X652453Y501569D01*
X652400Y501472D01*
X652343Y501378D01*
X652282Y501285D01*
X652219Y501194D01*
X652152Y501105D01*
X652082Y501019D01*
X652009Y500936D01*
X651934Y500854D01*
X651856Y500776D01*
X651774Y500701D01*
X651691Y500628D01*
X651605Y500558D01*
X651516Y500491D01*
X651425Y500428D01*
X651332Y500367D01*
X651238Y500310D01*
X651141Y500257D01*
X651042Y500206D01*
X650941Y500159D01*
X650839Y500116D01*
X650736Y500076D01*
X650631Y500040D01*
X650525Y500008D01*
X650418Y499979D01*
X650310Y499954D01*
X650201Y499933D01*
X650092Y499916D01*
X649982Y499902D01*
X649871Y499893D01*
X649761Y499887D01*
X649650Y499885D01*
X649539Y499887D01*
X649429Y499893D01*
X649318Y499902D01*
X649208Y499916D01*
X649099Y499933D01*
X648990Y499954D01*
X648882Y499979D01*
X648775Y500008D01*
X648669Y500040D01*
X648564Y500076D01*
X648461Y500116D01*
X648359Y500159D01*
X648258Y500206D01*
X648159Y500257D01*
X648063Y500310D01*
X647968Y500367D01*
X647875Y500428D01*
X647784Y500491D01*
X647695Y500558D01*
X647609Y500628D01*
X647526Y500701D01*
X647444Y500776D01*
X647366Y500854D01*
X647291Y500936D01*
X647218Y501019D01*
X647148Y501105D01*
X647081Y501194D01*
X647018Y501285D01*
X646957Y501378D01*
X646900Y501473D01*
X646847Y501569D01*
X646796Y501668D01*
X646749Y501769D01*
X646706Y501871D01*
X646666Y501974D01*
X646630Y502079D01*
X646598Y502185D01*
X646569Y502292D01*
X646544Y502400D01*
X646523Y502509D01*
X646506Y502618D01*
X646492Y502728D01*
X646483Y502839D01*
X646477Y502949D01*
X646475Y503060D01*
X646475Y506235D01*
X646477Y506375D01*
X646483Y506515D01*
X646492Y506655D01*
X646506Y506794D01*
X646523Y506933D01*
X646544Y507071D01*
X646569Y507209D01*
X646598Y507346D01*
X646630Y507482D01*
X646667Y507617D01*
X646707Y507751D01*
X646750Y507884D01*
X646798Y508016D01*
X646848Y508147D01*
X646903Y508276D01*
X646961Y508403D01*
X647022Y508529D01*
X647087Y508653D01*
X647156Y508775D01*
X647227Y508895D01*
X647302Y509013D01*
X647380Y509130D01*
X647462Y509244D01*
X647546Y509355D01*
X647634Y509464D01*
X647724Y509571D01*
X647818Y509676D01*
X647914Y509777D01*
X648013Y509876D01*
X648114Y509972D01*
X648219Y510066D01*
X648326Y510156D01*
X648435Y510244D01*
X648546Y510328D01*
X648660Y510410D01*
X648777Y510488D01*
X648895Y510563D01*
X649015Y510634D01*
X649137Y510703D01*
X649261Y510768D01*
X649387Y510829D01*
X649514Y510887D01*
X649643Y510942D01*
X649774Y510992D01*
X649906Y511040D01*
X650039Y511083D01*
X650173Y511123D01*
X650308Y511160D01*
X650444Y511192D01*
X650581Y511221D01*
X650719Y511246D01*
X650857Y511267D01*
X650996Y511284D01*
X651135Y511298D01*
X651275Y511307D01*
X651415Y511313D01*
X651555Y511315D01*
D12*
X562853Y552364D02*
X562853Y556856D01*
X562354Y552364D02*
X563352Y552364D01*
X563352Y556856D02*
X562354Y556856D01*
X565406Y556856D02*
X565406Y552364D01*
X566903Y554360D02*
X565406Y556856D01*
X566903Y554360D02*
X568400Y556856D01*
X568400Y552364D01*
X570755Y553612D02*
X570755Y556856D01*
X570755Y553612D02*
X570757Y553543D01*
X570763Y553475D01*
X570772Y553407D01*
X570785Y553339D01*
X570802Y553272D01*
X570823Y553207D01*
X570847Y553142D01*
X570874Y553079D01*
X570905Y553018D01*
X570940Y552958D01*
X570977Y552901D01*
X571018Y552845D01*
X571062Y552792D01*
X571108Y552742D01*
X571158Y552694D01*
X571210Y552649D01*
X571264Y552606D01*
X571320Y552567D01*
X571379Y552531D01*
X571439Y552498D01*
X571502Y552469D01*
X571565Y552443D01*
X571630Y552421D01*
X571697Y552402D01*
X571764Y552387D01*
X571832Y552376D01*
X571900Y552368D01*
X571969Y552364D01*
X572037Y552364D01*
X572106Y552368D01*
X572174Y552376D01*
X572242Y552387D01*
X572309Y552402D01*
X572376Y552421D01*
X572441Y552443D01*
X572504Y552469D01*
X572567Y552498D01*
X572627Y552531D01*
X572686Y552567D01*
X572742Y552606D01*
X572796Y552649D01*
X572848Y552694D01*
X572898Y552742D01*
X572944Y552792D01*
X572988Y552845D01*
X573029Y552901D01*
X573066Y552958D01*
X573101Y553018D01*
X573132Y553079D01*
X573159Y553142D01*
X573183Y553207D01*
X573204Y553272D01*
X573221Y553339D01*
X573234Y553407D01*
X573243Y553475D01*
X573249Y553543D01*
X573251Y553612D01*
X573251Y556856D01*
D10*
X747050Y467090D02*
X759750Y467090D01*
X747050Y467090D02*
X740700Y473440D01*
X734350Y467090D01*
X721650Y467090D01*
X715300Y473440D01*
X759750Y467090D02*
X766100Y473440D01*
X715300Y473440D02*
X708950Y467090D01*
X696250Y467090D01*
X689900Y473440D01*
X683550Y467090D02*
X670850Y467090D01*
X683550Y467090D02*
X689900Y473440D01*
X670850Y467090D02*
X664500Y473440D01*
X664500Y511540D01*
X740700Y511540D02*
X747050Y517890D01*
X721650Y517890D02*
X715300Y511540D01*
X721650Y517890D02*
X734350Y517890D01*
X740700Y511540D01*
X766100Y511540D02*
X766100Y473440D01*
X766100Y511540D02*
X759750Y517890D01*
X747050Y517890D01*
X696250Y517890D02*
X689900Y511540D01*
X696250Y517890D02*
X708950Y517890D01*
X715300Y511540D01*
X689900Y511540D02*
X683550Y517890D01*
X670850Y517890D01*
X664500Y511540D01*
D11*
X751495Y531225D02*
X754670Y533765D01*
X754670Y522335D01*
X751495Y522335D02*
X757845Y522335D01*
X676565Y454390D02*
X676563Y454501D01*
X676557Y454611D01*
X676548Y454722D01*
X676534Y454832D01*
X676517Y454941D01*
X676496Y455050D01*
X676471Y455158D01*
X676442Y455265D01*
X676410Y455371D01*
X676374Y455476D01*
X676334Y455579D01*
X676291Y455681D01*
X676244Y455782D01*
X676193Y455881D01*
X676140Y455978D01*
X676083Y456072D01*
X676022Y456165D01*
X675959Y456256D01*
X675892Y456345D01*
X675822Y456431D01*
X675749Y456514D01*
X675674Y456596D01*
X675596Y456674D01*
X675514Y456749D01*
X675431Y456822D01*
X675345Y456892D01*
X675256Y456959D01*
X675165Y457022D01*
X675072Y457083D01*
X674978Y457140D01*
X674881Y457193D01*
X674782Y457244D01*
X674681Y457291D01*
X674579Y457334D01*
X674476Y457374D01*
X674371Y457410D01*
X674265Y457442D01*
X674158Y457471D01*
X674050Y457496D01*
X673941Y457517D01*
X673832Y457534D01*
X673722Y457548D01*
X673611Y457557D01*
X673501Y457563D01*
X673390Y457565D01*
X673279Y457563D01*
X673169Y457557D01*
X673058Y457548D01*
X672948Y457534D01*
X672839Y457517D01*
X672730Y457496D01*
X672622Y457471D01*
X672515Y457442D01*
X672409Y457410D01*
X672304Y457374D01*
X672201Y457334D01*
X672099Y457291D01*
X671998Y457244D01*
X671899Y457193D01*
X671803Y457140D01*
X671708Y457083D01*
X671615Y457022D01*
X671524Y456959D01*
X671435Y456892D01*
X671349Y456822D01*
X671266Y456749D01*
X671184Y456674D01*
X671106Y456596D01*
X671031Y456514D01*
X670958Y456431D01*
X670888Y456345D01*
X670821Y456256D01*
X670758Y456165D01*
X670697Y456072D01*
X670640Y455978D01*
X670587Y455881D01*
X670536Y455782D01*
X670489Y455681D01*
X670446Y455579D01*
X670406Y455476D01*
X670370Y455371D01*
X670338Y455265D01*
X670309Y455158D01*
X670284Y455050D01*
X670263Y454941D01*
X670246Y454832D01*
X670232Y454722D01*
X670223Y454611D01*
X670217Y454501D01*
X670215Y454390D01*
X670217Y454279D01*
X670223Y454169D01*
X670232Y454058D01*
X670246Y453948D01*
X670263Y453839D01*
X670284Y453730D01*
X670309Y453622D01*
X670338Y453515D01*
X670370Y453409D01*
X670406Y453304D01*
X670446Y453201D01*
X670489Y453099D01*
X670536Y452998D01*
X670587Y452899D01*
X670640Y452803D01*
X670697Y452708D01*
X670758Y452615D01*
X670821Y452524D01*
X670888Y452435D01*
X670958Y452349D01*
X671031Y452266D01*
X671106Y452184D01*
X671184Y452106D01*
X671266Y452031D01*
X671349Y451958D01*
X671435Y451888D01*
X671524Y451821D01*
X671615Y451758D01*
X671708Y451697D01*
X671803Y451640D01*
X671899Y451587D01*
X671998Y451536D01*
X672099Y451489D01*
X672201Y451446D01*
X672304Y451406D01*
X672409Y451370D01*
X672515Y451338D01*
X672622Y451309D01*
X672730Y451284D01*
X672839Y451263D01*
X672948Y451246D01*
X673058Y451232D01*
X673169Y451223D01*
X673279Y451217D01*
X673390Y451215D01*
X673501Y451217D01*
X673611Y451223D01*
X673722Y451232D01*
X673832Y451246D01*
X673941Y451263D01*
X674050Y451284D01*
X674158Y451309D01*
X674265Y451338D01*
X674371Y451370D01*
X674476Y451406D01*
X674579Y451446D01*
X674681Y451489D01*
X674782Y451536D01*
X674881Y451587D01*
X674978Y451640D01*
X675072Y451697D01*
X675165Y451758D01*
X675256Y451821D01*
X675345Y451888D01*
X675431Y451958D01*
X675514Y452031D01*
X675596Y452106D01*
X675674Y452184D01*
X675749Y452266D01*
X675822Y452349D01*
X675892Y452435D01*
X675959Y452524D01*
X676022Y452615D01*
X676083Y452708D01*
X676140Y452802D01*
X676193Y452899D01*
X676244Y452998D01*
X676291Y453099D01*
X676334Y453201D01*
X676374Y453304D01*
X676410Y453409D01*
X676442Y453515D01*
X676471Y453622D01*
X676496Y453730D01*
X676517Y453839D01*
X676534Y453948D01*
X676548Y454058D01*
X676557Y454169D01*
X676563Y454279D01*
X676565Y454390D01*
X675930Y460105D02*
X675928Y460205D01*
X675922Y460304D01*
X675912Y460404D01*
X675899Y460502D01*
X675881Y460601D01*
X675860Y460698D01*
X675835Y460794D01*
X675806Y460890D01*
X675773Y460984D01*
X675737Y461077D01*
X675697Y461168D01*
X675653Y461258D01*
X675606Y461346D01*
X675556Y461432D01*
X675502Y461516D01*
X675445Y461598D01*
X675385Y461677D01*
X675321Y461755D01*
X675255Y461829D01*
X675186Y461901D01*
X675114Y461970D01*
X675040Y462036D01*
X674962Y462100D01*
X674883Y462160D01*
X674801Y462217D01*
X674717Y462271D01*
X674631Y462321D01*
X674543Y462368D01*
X674453Y462412D01*
X674362Y462452D01*
X674269Y462488D01*
X674175Y462521D01*
X674079Y462550D01*
X673983Y462575D01*
X673886Y462596D01*
X673787Y462614D01*
X673689Y462627D01*
X673589Y462637D01*
X673490Y462643D01*
X673390Y462645D01*
X673290Y462643D01*
X673191Y462637D01*
X673091Y462627D01*
X672993Y462614D01*
X672894Y462596D01*
X672797Y462575D01*
X672701Y462550D01*
X672605Y462521D01*
X672511Y462488D01*
X672418Y462452D01*
X672327Y462412D01*
X672237Y462368D01*
X672149Y462321D01*
X672063Y462271D01*
X671979Y462217D01*
X671897Y462160D01*
X671818Y462100D01*
X671740Y462036D01*
X671666Y461970D01*
X671594Y461901D01*
X671525Y461829D01*
X671459Y461755D01*
X671395Y461677D01*
X671335Y461598D01*
X671278Y461516D01*
X671224Y461432D01*
X671174Y461346D01*
X671127Y461258D01*
X671083Y461168D01*
X671043Y461077D01*
X671007Y460984D01*
X670974Y460890D01*
X670945Y460794D01*
X670920Y460698D01*
X670899Y460601D01*
X670881Y460502D01*
X670868Y460404D01*
X670858Y460304D01*
X670852Y460205D01*
X670850Y460105D01*
X670852Y460005D01*
X670858Y459906D01*
X670868Y459806D01*
X670881Y459708D01*
X670899Y459609D01*
X670920Y459512D01*
X670945Y459416D01*
X670974Y459320D01*
X671007Y459226D01*
X671043Y459133D01*
X671083Y459042D01*
X671127Y458952D01*
X671174Y458864D01*
X671224Y458778D01*
X671278Y458694D01*
X671335Y458612D01*
X671395Y458533D01*
X671459Y458455D01*
X671525Y458381D01*
X671594Y458309D01*
X671666Y458240D01*
X671740Y458174D01*
X671818Y458110D01*
X671897Y458050D01*
X671979Y457993D01*
X672063Y457939D01*
X672149Y457889D01*
X672237Y457842D01*
X672327Y457798D01*
X672418Y457758D01*
X672511Y457722D01*
X672605Y457689D01*
X672701Y457660D01*
X672797Y457635D01*
X672894Y457614D01*
X672993Y457596D01*
X673091Y457583D01*
X673191Y457573D01*
X673290Y457567D01*
X673390Y457565D01*
X673490Y457567D01*
X673589Y457573D01*
X673689Y457583D01*
X673787Y457596D01*
X673886Y457614D01*
X673983Y457635D01*
X674079Y457660D01*
X674175Y457689D01*
X674269Y457722D01*
X674362Y457758D01*
X674453Y457798D01*
X674543Y457842D01*
X674631Y457889D01*
X674717Y457939D01*
X674801Y457993D01*
X674883Y458050D01*
X674962Y458110D01*
X675040Y458174D01*
X675114Y458240D01*
X675186Y458309D01*
X675255Y458381D01*
X675321Y458455D01*
X675385Y458533D01*
X675445Y458612D01*
X675502Y458694D01*
X675556Y458778D01*
X675606Y458864D01*
X675653Y458952D01*
X675697Y459042D01*
X675737Y459133D01*
X675773Y459226D01*
X675806Y459320D01*
X675835Y459416D01*
X675860Y459512D01*
X675881Y459609D01*
X675899Y459708D01*
X675912Y459806D01*
X675922Y459906D01*
X675928Y460005D01*
X675930Y460105D01*
D12*
X759397Y458534D02*
X759397Y463026D01*
X760645Y463026D01*
X760714Y463024D01*
X760782Y463018D01*
X760850Y463009D01*
X760918Y462996D01*
X760985Y462979D01*
X761050Y462958D01*
X761115Y462934D01*
X761178Y462907D01*
X761239Y462876D01*
X761299Y462841D01*
X761356Y462804D01*
X761412Y462763D01*
X761465Y462719D01*
X761515Y462673D01*
X761563Y462623D01*
X761608Y462571D01*
X761651Y462517D01*
X761690Y462461D01*
X761726Y462402D01*
X761759Y462342D01*
X761788Y462279D01*
X761814Y462216D01*
X761836Y462151D01*
X761855Y462084D01*
X761870Y462017D01*
X761881Y461949D01*
X761889Y461881D01*
X761893Y461812D01*
X761893Y461744D01*
X761889Y461675D01*
X761881Y461607D01*
X761870Y461539D01*
X761855Y461472D01*
X761836Y461405D01*
X761814Y461340D01*
X761788Y461277D01*
X761759Y461214D01*
X761726Y461154D01*
X761690Y461095D01*
X761651Y461039D01*
X761608Y460985D01*
X761563Y460933D01*
X761515Y460883D01*
X761465Y460837D01*
X761412Y460793D01*
X761356Y460752D01*
X761299Y460715D01*
X761239Y460680D01*
X761178Y460649D01*
X761115Y460622D01*
X761050Y460598D01*
X760985Y460577D01*
X760918Y460560D01*
X760850Y460547D01*
X760782Y460538D01*
X760714Y460532D01*
X760645Y460530D01*
X759397Y460530D01*
X760895Y460530D02*
X761893Y458534D01*
X764848Y458534D02*
X765846Y458534D01*
X764848Y458534D02*
X764788Y458536D01*
X764728Y458541D01*
X764668Y458550D01*
X764609Y458563D01*
X764551Y458579D01*
X764494Y458599D01*
X764438Y458622D01*
X764384Y458648D01*
X764332Y458678D01*
X764281Y458711D01*
X764233Y458746D01*
X764186Y458785D01*
X764142Y458826D01*
X764101Y458870D01*
X764062Y458917D01*
X764027Y458965D01*
X763994Y459016D01*
X763964Y459068D01*
X763938Y459122D01*
X763915Y459178D01*
X763895Y459235D01*
X763879Y459293D01*
X763866Y459352D01*
X763857Y459412D01*
X763852Y459472D01*
X763850Y459532D01*
X763850Y462028D01*
X763852Y462091D01*
X763858Y462153D01*
X763868Y462215D01*
X763881Y462276D01*
X763899Y462336D01*
X763920Y462395D01*
X763945Y462453D01*
X763973Y462509D01*
X764005Y462563D01*
X764041Y462615D01*
X764079Y462664D01*
X764120Y462711D01*
X764165Y462755D01*
X764212Y462797D01*
X764261Y462835D01*
X764313Y462871D01*
X764367Y462903D01*
X764423Y462931D01*
X764481Y462956D01*
X764540Y462977D01*
X764600Y462995D01*
X764661Y463008D01*
X764723Y463018D01*
X764785Y463024D01*
X764848Y463026D01*
X765846Y463026D01*
D10*
X311880Y510780D02*
X299180Y510780D01*
X311880Y510780D02*
X318230Y504430D01*
X318230Y491730D02*
X311880Y485380D01*
X318230Y504430D02*
X324580Y510780D01*
X337280Y510780D01*
X343630Y504430D01*
X343630Y491730D02*
X337280Y485380D01*
X324580Y485380D01*
X318230Y491730D01*
X292830Y491730D02*
X292830Y504430D01*
X299180Y510780D01*
X292830Y491730D02*
X299180Y485380D01*
X311880Y485380D01*
X343630Y504430D02*
X349980Y510780D01*
X362680Y510780D01*
X369030Y504430D01*
X369030Y491730D02*
X362680Y485380D01*
X349980Y485380D01*
X343630Y491730D01*
X375380Y510780D02*
X388080Y510780D01*
X394430Y504430D01*
X394430Y491730D01*
X388080Y485380D01*
X369030Y504430D02*
X375380Y510780D01*
X369030Y491730D02*
X375380Y485380D01*
X388080Y485380D01*
D11*
X285210Y503795D02*
X282035Y501255D01*
X285210Y503795D02*
X285210Y492365D01*
X282035Y492365D02*
X288385Y492365D01*
X397605Y494905D02*
X400145Y503795D01*
X397605Y494905D02*
X403955Y494905D01*
X402050Y497445D02*
X402050Y492365D01*
D12*
X293084Y514844D02*
X293084Y519336D01*
X294332Y519336D01*
X294401Y519334D01*
X294469Y519328D01*
X294537Y519319D01*
X294605Y519306D01*
X294672Y519289D01*
X294737Y519268D01*
X294802Y519244D01*
X294865Y519217D01*
X294926Y519186D01*
X294986Y519151D01*
X295043Y519114D01*
X295099Y519073D01*
X295152Y519029D01*
X295202Y518983D01*
X295250Y518933D01*
X295295Y518881D01*
X295338Y518827D01*
X295377Y518771D01*
X295413Y518712D01*
X295446Y518652D01*
X295475Y518589D01*
X295501Y518526D01*
X295523Y518461D01*
X295542Y518394D01*
X295557Y518327D01*
X295568Y518259D01*
X295576Y518191D01*
X295580Y518122D01*
X295580Y518054D01*
X295576Y517985D01*
X295568Y517917D01*
X295557Y517849D01*
X295542Y517782D01*
X295523Y517715D01*
X295501Y517650D01*
X295475Y517587D01*
X295446Y517524D01*
X295413Y517464D01*
X295377Y517405D01*
X295338Y517349D01*
X295295Y517295D01*
X295250Y517243D01*
X295202Y517193D01*
X295152Y517147D01*
X295099Y517103D01*
X295043Y517062D01*
X294986Y517025D01*
X294926Y516990D01*
X294865Y516959D01*
X294802Y516932D01*
X294737Y516908D01*
X294672Y516887D01*
X294605Y516870D01*
X294537Y516857D01*
X294469Y516848D01*
X294401Y516842D01*
X294332Y516840D01*
X293084Y516840D01*
X294581Y516840D02*
X295580Y514844D01*
X297711Y514844D02*
X299708Y514844D01*
X297711Y514844D02*
X297711Y519336D01*
X299708Y519336D01*
X299208Y517340D02*
X297711Y517340D01*
X301201Y514844D02*
X302699Y519336D01*
X304196Y514844D01*
X303822Y515967D02*
X301576Y515967D01*
X306134Y514844D02*
X306134Y519336D01*
X307382Y519336D01*
X307451Y519334D01*
X307519Y519328D01*
X307587Y519319D01*
X307655Y519306D01*
X307722Y519289D01*
X307787Y519268D01*
X307852Y519244D01*
X307915Y519217D01*
X307976Y519186D01*
X308036Y519151D01*
X308093Y519114D01*
X308149Y519073D01*
X308202Y519029D01*
X308252Y518983D01*
X308300Y518933D01*
X308345Y518881D01*
X308388Y518827D01*
X308427Y518771D01*
X308463Y518712D01*
X308496Y518652D01*
X308525Y518589D01*
X308551Y518526D01*
X308573Y518461D01*
X308592Y518394D01*
X308607Y518327D01*
X308618Y518259D01*
X308626Y518191D01*
X308630Y518122D01*
X308630Y518054D01*
X308626Y517985D01*
X308618Y517917D01*
X308607Y517849D01*
X308592Y517782D01*
X308573Y517715D01*
X308551Y517650D01*
X308525Y517587D01*
X308496Y517524D01*
X308463Y517464D01*
X308427Y517405D01*
X308388Y517349D01*
X308345Y517295D01*
X308300Y517243D01*
X308252Y517193D01*
X308202Y517147D01*
X308149Y517103D01*
X308093Y517062D01*
X308036Y517025D01*
X307976Y516990D01*
X307915Y516959D01*
X307852Y516932D01*
X307787Y516908D01*
X307722Y516887D01*
X307655Y516870D01*
X307587Y516857D01*
X307519Y516848D01*
X307451Y516842D01*
X307382Y516840D01*
X306134Y516840D01*
X307631Y516840D02*
X308629Y514844D01*
X310651Y516591D02*
X313646Y516591D01*
X315901Y514844D02*
X315901Y519336D01*
X317399Y516840D01*
X318896Y519336D01*
X318896Y514844D01*
X321101Y516092D02*
X321101Y518088D01*
X321103Y518157D01*
X321109Y518225D01*
X321118Y518293D01*
X321131Y518361D01*
X321148Y518428D01*
X321169Y518493D01*
X321193Y518558D01*
X321220Y518621D01*
X321251Y518682D01*
X321286Y518742D01*
X321323Y518799D01*
X321364Y518855D01*
X321408Y518908D01*
X321454Y518958D01*
X321504Y519006D01*
X321556Y519051D01*
X321610Y519094D01*
X321666Y519133D01*
X321725Y519169D01*
X321785Y519202D01*
X321848Y519231D01*
X321911Y519257D01*
X321976Y519279D01*
X322043Y519298D01*
X322110Y519313D01*
X322178Y519324D01*
X322246Y519332D01*
X322315Y519336D01*
X322383Y519336D01*
X322452Y519332D01*
X322520Y519324D01*
X322588Y519313D01*
X322655Y519298D01*
X322722Y519279D01*
X322787Y519257D01*
X322850Y519231D01*
X322913Y519202D01*
X322973Y519169D01*
X323032Y519133D01*
X323088Y519094D01*
X323142Y519051D01*
X323194Y519006D01*
X323244Y518958D01*
X323290Y518908D01*
X323334Y518855D01*
X323375Y518799D01*
X323412Y518742D01*
X323447Y518682D01*
X323478Y518621D01*
X323505Y518558D01*
X323529Y518493D01*
X323550Y518428D01*
X323567Y518361D01*
X323580Y518293D01*
X323589Y518225D01*
X323595Y518157D01*
X323597Y518088D01*
X323596Y518088D02*
X323596Y516092D01*
X323597Y516092D02*
X323595Y516023D01*
X323589Y515955D01*
X323580Y515887D01*
X323567Y515819D01*
X323550Y515752D01*
X323529Y515687D01*
X323505Y515622D01*
X323478Y515559D01*
X323447Y515498D01*
X323412Y515438D01*
X323375Y515381D01*
X323334Y515325D01*
X323290Y515272D01*
X323244Y515222D01*
X323194Y515174D01*
X323142Y515129D01*
X323088Y515086D01*
X323032Y515047D01*
X322973Y515011D01*
X322913Y514978D01*
X322850Y514949D01*
X322787Y514923D01*
X322722Y514901D01*
X322655Y514882D01*
X322588Y514867D01*
X322520Y514856D01*
X322452Y514848D01*
X322383Y514844D01*
X322315Y514844D01*
X322246Y514848D01*
X322178Y514856D01*
X322110Y514867D01*
X322043Y514882D01*
X321976Y514901D01*
X321911Y514923D01*
X321848Y514949D01*
X321785Y514978D01*
X321725Y515011D01*
X321666Y515047D01*
X321610Y515086D01*
X321556Y515129D01*
X321504Y515174D01*
X321454Y515222D01*
X321408Y515272D01*
X321364Y515325D01*
X321323Y515381D01*
X321286Y515438D01*
X321251Y515498D01*
X321220Y515559D01*
X321193Y515622D01*
X321169Y515687D01*
X321148Y515752D01*
X321131Y515819D01*
X321118Y515887D01*
X321109Y515955D01*
X321103Y516023D01*
X321101Y516092D01*
X326549Y514844D02*
X326549Y519336D01*
X327796Y519336D02*
X325301Y519336D01*
X329501Y518088D02*
X329501Y516092D01*
X329501Y518088D02*
X329503Y518157D01*
X329509Y518225D01*
X329518Y518293D01*
X329531Y518361D01*
X329548Y518428D01*
X329569Y518493D01*
X329593Y518558D01*
X329620Y518621D01*
X329651Y518682D01*
X329686Y518742D01*
X329723Y518799D01*
X329764Y518855D01*
X329808Y518908D01*
X329854Y518958D01*
X329904Y519006D01*
X329956Y519051D01*
X330010Y519094D01*
X330066Y519133D01*
X330125Y519169D01*
X330185Y519202D01*
X330248Y519231D01*
X330311Y519257D01*
X330376Y519279D01*
X330443Y519298D01*
X330510Y519313D01*
X330578Y519324D01*
X330646Y519332D01*
X330715Y519336D01*
X330783Y519336D01*
X330852Y519332D01*
X330920Y519324D01*
X330988Y519313D01*
X331055Y519298D01*
X331122Y519279D01*
X331187Y519257D01*
X331250Y519231D01*
X331313Y519202D01*
X331373Y519169D01*
X331432Y519133D01*
X331488Y519094D01*
X331542Y519051D01*
X331594Y519006D01*
X331644Y518958D01*
X331690Y518908D01*
X331734Y518855D01*
X331775Y518799D01*
X331812Y518742D01*
X331847Y518682D01*
X331878Y518621D01*
X331905Y518558D01*
X331929Y518493D01*
X331950Y518428D01*
X331967Y518361D01*
X331980Y518293D01*
X331989Y518225D01*
X331995Y518157D01*
X331997Y518088D01*
X331996Y518088D02*
X331996Y516092D01*
X331997Y516092D02*
X331995Y516023D01*
X331989Y515955D01*
X331980Y515887D01*
X331967Y515819D01*
X331950Y515752D01*
X331929Y515687D01*
X331905Y515622D01*
X331878Y515559D01*
X331847Y515498D01*
X331812Y515438D01*
X331775Y515381D01*
X331734Y515325D01*
X331690Y515272D01*
X331644Y515222D01*
X331594Y515174D01*
X331542Y515129D01*
X331488Y515086D01*
X331432Y515047D01*
X331373Y515011D01*
X331313Y514978D01*
X331250Y514949D01*
X331187Y514923D01*
X331122Y514901D01*
X331055Y514882D01*
X330988Y514867D01*
X330920Y514856D01*
X330852Y514848D01*
X330783Y514844D01*
X330715Y514844D01*
X330646Y514848D01*
X330578Y514856D01*
X330510Y514867D01*
X330443Y514882D01*
X330376Y514901D01*
X330311Y514923D01*
X330248Y514949D01*
X330185Y514978D01*
X330125Y515011D01*
X330066Y515047D01*
X330010Y515086D01*
X329956Y515129D01*
X329904Y515174D01*
X329854Y515222D01*
X329808Y515272D01*
X329764Y515325D01*
X329723Y515381D01*
X329686Y515438D01*
X329651Y515498D01*
X329620Y515559D01*
X329593Y515622D01*
X329569Y515687D01*
X329548Y515752D01*
X329531Y515819D01*
X329518Y515887D01*
X329509Y515955D01*
X329503Y516023D01*
X329501Y516092D01*
X334184Y514844D02*
X334184Y519336D01*
X335431Y519336D01*
X335500Y519334D01*
X335568Y519328D01*
X335636Y519319D01*
X335704Y519306D01*
X335771Y519289D01*
X335836Y519268D01*
X335901Y519244D01*
X335964Y519217D01*
X336025Y519186D01*
X336085Y519151D01*
X336142Y519114D01*
X336198Y519073D01*
X336251Y519029D01*
X336301Y518983D01*
X336349Y518933D01*
X336394Y518881D01*
X336437Y518827D01*
X336476Y518771D01*
X336512Y518712D01*
X336545Y518652D01*
X336574Y518589D01*
X336600Y518526D01*
X336622Y518461D01*
X336641Y518394D01*
X336656Y518327D01*
X336667Y518259D01*
X336675Y518191D01*
X336679Y518122D01*
X336679Y518054D01*
X336675Y517985D01*
X336667Y517917D01*
X336656Y517849D01*
X336641Y517782D01*
X336622Y517715D01*
X336600Y517650D01*
X336574Y517587D01*
X336545Y517524D01*
X336512Y517464D01*
X336476Y517405D01*
X336437Y517349D01*
X336394Y517295D01*
X336349Y517243D01*
X336301Y517193D01*
X336251Y517147D01*
X336198Y517103D01*
X336142Y517062D01*
X336085Y517025D01*
X336025Y516990D01*
X335964Y516959D01*
X335901Y516932D01*
X335836Y516908D01*
X335771Y516887D01*
X335704Y516870D01*
X335636Y516857D01*
X335568Y516848D01*
X335500Y516842D01*
X335431Y516840D01*
X334184Y516840D01*
X335681Y516840D02*
X336679Y514844D01*
D11*
X333630Y449550D02*
X333630Y408910D01*
X333630Y449550D02*
X284100Y449550D01*
X284100Y408910D01*
X333630Y408910D01*
D13*
X346386Y398130D02*
X346273Y398128D01*
X346160Y398122D01*
X346047Y398112D01*
X345934Y398098D01*
X345822Y398081D01*
X345711Y398059D01*
X345601Y398034D01*
X345491Y398004D01*
X345383Y397971D01*
X345276Y397934D01*
X345170Y397894D01*
X345066Y397849D01*
X344963Y397801D01*
X344862Y397750D01*
X344763Y397695D01*
X344666Y397637D01*
X344571Y397575D01*
X344478Y397510D01*
X344388Y397442D01*
X344300Y397371D01*
X344214Y397296D01*
X344131Y397219D01*
X344051Y397139D01*
X343974Y397056D01*
X343899Y396970D01*
X343828Y396882D01*
X343760Y396792D01*
X343695Y396699D01*
X343633Y396604D01*
X343575Y396507D01*
X343520Y396408D01*
X343469Y396307D01*
X343421Y396204D01*
X343376Y396100D01*
X343336Y395994D01*
X343299Y395887D01*
X343266Y395779D01*
X343236Y395669D01*
X343211Y395559D01*
X343189Y395448D01*
X343172Y395336D01*
X343158Y395223D01*
X343148Y395110D01*
X343142Y394997D01*
X343140Y394884D01*
X343142Y394771D01*
X343148Y394658D01*
X343158Y394545D01*
X343172Y394432D01*
X343189Y394320D01*
X343211Y394209D01*
X343236Y394099D01*
X343266Y393989D01*
X343299Y393881D01*
X343336Y393774D01*
X343376Y393668D01*
X343421Y393564D01*
X343469Y393461D01*
X343520Y393360D01*
X343575Y393261D01*
X343633Y393164D01*
X343695Y393069D01*
X343760Y392976D01*
X343828Y392886D01*
X343899Y392798D01*
X343974Y392712D01*
X344051Y392629D01*
X344131Y392549D01*
X344214Y392472D01*
X344300Y392397D01*
X344388Y392326D01*
X344478Y392258D01*
X344571Y392193D01*
X344666Y392131D01*
X344763Y392073D01*
X344862Y392018D01*
X344963Y391967D01*
X345066Y391919D01*
X345170Y391874D01*
X345276Y391834D01*
X345383Y391797D01*
X345491Y391764D01*
X345601Y391734D01*
X345711Y391709D01*
X345822Y391687D01*
X345934Y391670D01*
X346047Y391656D01*
X346160Y391646D01*
X346273Y391640D01*
X346386Y391638D01*
X346499Y391640D01*
X346612Y391646D01*
X346725Y391656D01*
X346838Y391670D01*
X346950Y391687D01*
X347061Y391709D01*
X347171Y391734D01*
X347281Y391764D01*
X347389Y391797D01*
X347496Y391834D01*
X347602Y391874D01*
X347706Y391919D01*
X347809Y391967D01*
X347910Y392018D01*
X348009Y392073D01*
X348106Y392131D01*
X348201Y392193D01*
X348294Y392258D01*
X348384Y392326D01*
X348472Y392397D01*
X348558Y392472D01*
X348641Y392549D01*
X348721Y392629D01*
X348798Y392712D01*
X348873Y392798D01*
X348944Y392886D01*
X349012Y392976D01*
X349077Y393069D01*
X349139Y393164D01*
X349197Y393261D01*
X349252Y393360D01*
X349303Y393461D01*
X349351Y393564D01*
X349396Y393668D01*
X349436Y393774D01*
X349473Y393881D01*
X349506Y393989D01*
X349536Y394099D01*
X349561Y394209D01*
X349583Y394320D01*
X349600Y394432D01*
X349614Y394545D01*
X349624Y394658D01*
X349630Y394771D01*
X349632Y394884D01*
X349630Y394997D01*
X349624Y395110D01*
X349614Y395223D01*
X349600Y395336D01*
X349583Y395448D01*
X349561Y395559D01*
X349536Y395669D01*
X349506Y395779D01*
X349473Y395887D01*
X349436Y395994D01*
X349396Y396100D01*
X349351Y396204D01*
X349303Y396307D01*
X349252Y396408D01*
X349197Y396507D01*
X349139Y396604D01*
X349077Y396699D01*
X349012Y396792D01*
X348944Y396882D01*
X348873Y396970D01*
X348798Y397056D01*
X348721Y397139D01*
X348641Y397219D01*
X348558Y397296D01*
X348472Y397371D01*
X348384Y397442D01*
X348294Y397510D01*
X348201Y397575D01*
X348106Y397637D01*
X348009Y397695D01*
X347910Y397750D01*
X347809Y397801D01*
X347706Y397849D01*
X347602Y397894D01*
X347496Y397934D01*
X347389Y397971D01*
X347281Y398004D01*
X347171Y398034D01*
X347061Y398059D01*
X346950Y398081D01*
X346838Y398098D01*
X346725Y398112D01*
X346612Y398122D01*
X346499Y398128D01*
X346386Y398130D01*
X340544Y397480D02*
X340443Y397478D01*
X340343Y397472D01*
X340243Y397462D01*
X340143Y397449D01*
X340044Y397431D01*
X339945Y397410D01*
X339848Y397385D01*
X339751Y397356D01*
X339656Y397323D01*
X339562Y397287D01*
X339470Y397247D01*
X339379Y397204D01*
X339290Y397157D01*
X339203Y397107D01*
X339117Y397053D01*
X339034Y396996D01*
X338954Y396936D01*
X338875Y396873D01*
X338799Y396806D01*
X338726Y396737D01*
X338656Y396665D01*
X338588Y396591D01*
X338523Y396514D01*
X338462Y396434D01*
X338403Y396352D01*
X338348Y396268D01*
X338296Y396182D01*
X338247Y396094D01*
X338202Y396004D01*
X338160Y395912D01*
X338122Y395819D01*
X338088Y395724D01*
X338057Y395629D01*
X338030Y395532D01*
X338007Y395434D01*
X337987Y395335D01*
X337972Y395235D01*
X337960Y395135D01*
X337952Y395035D01*
X337948Y394934D01*
X337948Y394834D01*
X337952Y394733D01*
X337960Y394633D01*
X337972Y394533D01*
X337987Y394433D01*
X338007Y394334D01*
X338030Y394236D01*
X338057Y394139D01*
X338088Y394044D01*
X338122Y393949D01*
X338160Y393856D01*
X338202Y393764D01*
X338247Y393674D01*
X338296Y393586D01*
X338348Y393500D01*
X338403Y393416D01*
X338462Y393334D01*
X338523Y393254D01*
X338588Y393177D01*
X338656Y393103D01*
X338726Y393031D01*
X338799Y392962D01*
X338875Y392895D01*
X338954Y392832D01*
X339034Y392772D01*
X339117Y392715D01*
X339203Y392661D01*
X339290Y392611D01*
X339379Y392564D01*
X339470Y392521D01*
X339562Y392481D01*
X339656Y392445D01*
X339751Y392412D01*
X339848Y392383D01*
X339945Y392358D01*
X340044Y392337D01*
X340143Y392319D01*
X340243Y392306D01*
X340343Y392296D01*
X340443Y392290D01*
X340544Y392288D01*
X340645Y392290D01*
X340745Y392296D01*
X340845Y392306D01*
X340945Y392319D01*
X341044Y392337D01*
X341143Y392358D01*
X341240Y392383D01*
X341337Y392412D01*
X341432Y392445D01*
X341526Y392481D01*
X341618Y392521D01*
X341709Y392564D01*
X341798Y392611D01*
X341885Y392661D01*
X341971Y392715D01*
X342054Y392772D01*
X342134Y392832D01*
X342213Y392895D01*
X342289Y392962D01*
X342362Y393031D01*
X342432Y393103D01*
X342500Y393177D01*
X342565Y393254D01*
X342626Y393334D01*
X342685Y393416D01*
X342740Y393500D01*
X342792Y393586D01*
X342841Y393674D01*
X342886Y393764D01*
X342928Y393856D01*
X342966Y393949D01*
X343000Y394044D01*
X343031Y394139D01*
X343058Y394236D01*
X343081Y394334D01*
X343101Y394433D01*
X343116Y394533D01*
X343128Y394633D01*
X343136Y394733D01*
X343140Y394834D01*
X343140Y394934D01*
X343136Y395035D01*
X343128Y395135D01*
X343116Y395235D01*
X343101Y395335D01*
X343081Y395434D01*
X343058Y395532D01*
X343031Y395629D01*
X343000Y395724D01*
X342966Y395819D01*
X342928Y395912D01*
X342886Y396004D01*
X342841Y396094D01*
X342792Y396182D01*
X342740Y396268D01*
X342685Y396352D01*
X342626Y396434D01*
X342565Y396514D01*
X342500Y396591D01*
X342432Y396665D01*
X342362Y396737D01*
X342289Y396806D01*
X342213Y396873D01*
X342134Y396936D01*
X342054Y396996D01*
X341971Y397053D01*
X341885Y397107D01*
X341798Y397157D01*
X341709Y397204D01*
X341618Y397247D01*
X341526Y397287D01*
X341432Y397323D01*
X341337Y397356D01*
X341240Y397385D01*
X341143Y397410D01*
X341044Y397431D01*
X340945Y397449D01*
X340845Y397462D01*
X340745Y397472D01*
X340645Y397478D01*
X340544Y397480D01*
X337948Y403618D02*
X349632Y403618D01*
X337948Y403618D02*
X337948Y406864D01*
X337950Y406977D01*
X337956Y407090D01*
X337966Y407203D01*
X337980Y407316D01*
X337997Y407428D01*
X338019Y407539D01*
X338044Y407649D01*
X338074Y407759D01*
X338107Y407867D01*
X338144Y407974D01*
X338184Y408080D01*
X338229Y408184D01*
X338277Y408287D01*
X338328Y408388D01*
X338383Y408487D01*
X338441Y408584D01*
X338503Y408679D01*
X338568Y408772D01*
X338636Y408862D01*
X338707Y408950D01*
X338782Y409036D01*
X338859Y409119D01*
X338939Y409199D01*
X339022Y409276D01*
X339108Y409351D01*
X339196Y409422D01*
X339286Y409490D01*
X339379Y409555D01*
X339474Y409617D01*
X339571Y409675D01*
X339670Y409730D01*
X339771Y409781D01*
X339874Y409829D01*
X339978Y409874D01*
X340084Y409914D01*
X340191Y409951D01*
X340299Y409984D01*
X340409Y410014D01*
X340519Y410039D01*
X340630Y410061D01*
X340742Y410078D01*
X340855Y410092D01*
X340968Y410102D01*
X341081Y410108D01*
X341194Y410110D01*
X341307Y410108D01*
X341420Y410102D01*
X341533Y410092D01*
X341646Y410078D01*
X341758Y410061D01*
X341869Y410039D01*
X341979Y410014D01*
X342089Y409984D01*
X342197Y409951D01*
X342304Y409914D01*
X342410Y409874D01*
X342514Y409829D01*
X342617Y409781D01*
X342718Y409730D01*
X342817Y409675D01*
X342914Y409617D01*
X343009Y409555D01*
X343102Y409490D01*
X343192Y409422D01*
X343280Y409351D01*
X343366Y409276D01*
X343449Y409199D01*
X343529Y409119D01*
X343606Y409036D01*
X343681Y408950D01*
X343752Y408862D01*
X343820Y408772D01*
X343885Y408679D01*
X343947Y408584D01*
X344005Y408487D01*
X344060Y408388D01*
X344111Y408287D01*
X344159Y408184D01*
X344204Y408080D01*
X344244Y407974D01*
X344281Y407867D01*
X344314Y407759D01*
X344344Y407649D01*
X344369Y407539D01*
X344391Y407428D01*
X344408Y407316D01*
X344422Y407203D01*
X344432Y407090D01*
X344438Y406977D01*
X344440Y406864D01*
X344439Y406864D02*
X344439Y403618D01*
X349632Y415458D02*
X337948Y415458D01*
X349632Y414159D02*
X349632Y416756D01*
X337948Y416756D02*
X337948Y414159D01*
X337948Y421737D02*
X349632Y421737D01*
X349632Y428228D02*
X337948Y421737D01*
X337948Y428228D02*
X349632Y428228D01*
X345088Y433661D02*
X345088Y441450D01*
X349632Y450016D02*
X349630Y450115D01*
X349624Y450215D01*
X349615Y450314D01*
X349602Y450412D01*
X349585Y450510D01*
X349564Y450608D01*
X349539Y450704D01*
X349511Y450799D01*
X349479Y450893D01*
X349444Y450986D01*
X349405Y451078D01*
X349362Y451168D01*
X349317Y451256D01*
X349267Y451343D01*
X349215Y451427D01*
X349159Y451510D01*
X349101Y451590D01*
X349039Y451668D01*
X348974Y451743D01*
X348906Y451816D01*
X348836Y451886D01*
X348763Y451954D01*
X348688Y452019D01*
X348610Y452081D01*
X348530Y452139D01*
X348447Y452195D01*
X348363Y452247D01*
X348276Y452297D01*
X348188Y452342D01*
X348098Y452385D01*
X348006Y452424D01*
X347913Y452459D01*
X347819Y452491D01*
X347724Y452519D01*
X347628Y452544D01*
X347530Y452565D01*
X347432Y452582D01*
X347334Y452595D01*
X347235Y452604D01*
X347135Y452610D01*
X347036Y452612D01*
X349632Y450016D02*
X349630Y449872D01*
X349624Y449727D01*
X349615Y449583D01*
X349602Y449440D01*
X349585Y449296D01*
X349564Y449153D01*
X349539Y449011D01*
X349511Y448870D01*
X349479Y448729D01*
X349443Y448589D01*
X349404Y448450D01*
X349361Y448312D01*
X349314Y448176D01*
X349264Y448040D01*
X349210Y447906D01*
X349153Y447774D01*
X349092Y447643D01*
X349028Y447514D01*
X348960Y447386D01*
X348890Y447260D01*
X348815Y447136D01*
X348738Y447015D01*
X348657Y446895D01*
X348574Y446777D01*
X348487Y446662D01*
X348397Y446549D01*
X348304Y446438D01*
X348209Y446330D01*
X348110Y446224D01*
X348009Y446121D01*
X340544Y446446D02*
X340445Y446448D01*
X340345Y446454D01*
X340246Y446463D01*
X340148Y446476D01*
X340050Y446493D01*
X339952Y446514D01*
X339856Y446539D01*
X339761Y446567D01*
X339667Y446599D01*
X339574Y446634D01*
X339482Y446673D01*
X339392Y446716D01*
X339304Y446761D01*
X339217Y446811D01*
X339133Y446863D01*
X339050Y446919D01*
X338970Y446977D01*
X338892Y447039D01*
X338817Y447104D01*
X338744Y447172D01*
X338674Y447242D01*
X338606Y447315D01*
X338541Y447390D01*
X338479Y447468D01*
X338421Y447548D01*
X338365Y447631D01*
X338313Y447715D01*
X338263Y447802D01*
X338218Y447890D01*
X338175Y447980D01*
X338136Y448072D01*
X338101Y448165D01*
X338069Y448259D01*
X338041Y448354D01*
X338016Y448450D01*
X337995Y448548D01*
X337978Y448646D01*
X337965Y448744D01*
X337956Y448843D01*
X337950Y448943D01*
X337948Y449042D01*
X337950Y449178D01*
X337956Y449314D01*
X337965Y449450D01*
X337978Y449586D01*
X337996Y449721D01*
X338016Y449855D01*
X338041Y449989D01*
X338069Y450123D01*
X338102Y450255D01*
X338137Y450386D01*
X338177Y450517D01*
X338220Y450646D01*
X338266Y450774D01*
X338317Y450900D01*
X338370Y451026D01*
X338428Y451149D01*
X338488Y451271D01*
X338552Y451391D01*
X338620Y451510D01*
X338690Y451626D01*
X338764Y451740D01*
X338841Y451853D01*
X338922Y451963D01*
X342816Y447743D02*
X342763Y447657D01*
X342706Y447573D01*
X342647Y447491D01*
X342584Y447411D01*
X342518Y447334D01*
X342450Y447259D01*
X342378Y447187D01*
X342304Y447118D01*
X342227Y447052D01*
X342148Y446989D01*
X342066Y446929D01*
X341982Y446872D01*
X341896Y446818D01*
X341808Y446768D01*
X341718Y446721D01*
X341627Y446677D01*
X341533Y446638D01*
X341439Y446601D01*
X341343Y446569D01*
X341245Y446540D01*
X341147Y446515D01*
X341048Y446494D01*
X340948Y446476D01*
X340848Y446463D01*
X340747Y446453D01*
X340645Y446447D01*
X340544Y446445D01*
X344764Y451314D02*
X344817Y451400D01*
X344874Y451484D01*
X344933Y451566D01*
X344996Y451646D01*
X345062Y451723D01*
X345130Y451798D01*
X345202Y451870D01*
X345276Y451939D01*
X345353Y452005D01*
X345432Y452068D01*
X345514Y452128D01*
X345598Y452185D01*
X345684Y452239D01*
X345772Y452289D01*
X345862Y452336D01*
X345953Y452380D01*
X346047Y452419D01*
X346141Y452456D01*
X346237Y452488D01*
X346335Y452517D01*
X346433Y452542D01*
X346532Y452563D01*
X346632Y452581D01*
X346732Y452594D01*
X346833Y452604D01*
X346935Y452610D01*
X347036Y452612D01*
X344764Y451314D02*
X342816Y447744D01*
X341194Y457170D02*
X346386Y457170D01*
X341194Y457169D02*
X341081Y457171D01*
X340968Y457177D01*
X340855Y457187D01*
X340742Y457201D01*
X340630Y457218D01*
X340519Y457240D01*
X340409Y457265D01*
X340299Y457295D01*
X340191Y457328D01*
X340084Y457365D01*
X339978Y457405D01*
X339874Y457450D01*
X339771Y457498D01*
X339670Y457549D01*
X339571Y457604D01*
X339474Y457662D01*
X339379Y457724D01*
X339286Y457789D01*
X339196Y457857D01*
X339108Y457928D01*
X339022Y458003D01*
X338939Y458080D01*
X338859Y458160D01*
X338782Y458243D01*
X338707Y458329D01*
X338636Y458417D01*
X338568Y458507D01*
X338503Y458600D01*
X338441Y458695D01*
X338383Y458792D01*
X338328Y458891D01*
X338277Y458992D01*
X338229Y459095D01*
X338184Y459199D01*
X338144Y459305D01*
X338107Y459412D01*
X338074Y459520D01*
X338044Y459630D01*
X338019Y459740D01*
X337997Y459851D01*
X337980Y459963D01*
X337966Y460076D01*
X337956Y460189D01*
X337950Y460302D01*
X337948Y460415D01*
X337950Y460528D01*
X337956Y460641D01*
X337966Y460754D01*
X337980Y460867D01*
X337997Y460979D01*
X338019Y461090D01*
X338044Y461200D01*
X338074Y461310D01*
X338107Y461418D01*
X338144Y461525D01*
X338184Y461631D01*
X338229Y461735D01*
X338277Y461838D01*
X338328Y461939D01*
X338383Y462038D01*
X338441Y462135D01*
X338503Y462230D01*
X338568Y462323D01*
X338636Y462413D01*
X338707Y462501D01*
X338782Y462587D01*
X338859Y462670D01*
X338939Y462750D01*
X339022Y462827D01*
X339108Y462902D01*
X339196Y462973D01*
X339286Y463041D01*
X339379Y463106D01*
X339474Y463168D01*
X339571Y463226D01*
X339670Y463281D01*
X339771Y463332D01*
X339874Y463380D01*
X339978Y463425D01*
X340084Y463465D01*
X340191Y463502D01*
X340299Y463535D01*
X340409Y463565D01*
X340519Y463590D01*
X340630Y463612D01*
X340742Y463629D01*
X340855Y463643D01*
X340968Y463653D01*
X341081Y463659D01*
X341194Y463661D01*
X346386Y463661D01*
X346499Y463659D01*
X346612Y463653D01*
X346725Y463643D01*
X346838Y463629D01*
X346950Y463612D01*
X347061Y463590D01*
X347171Y463565D01*
X347281Y463535D01*
X347389Y463502D01*
X347496Y463465D01*
X347602Y463425D01*
X347706Y463380D01*
X347809Y463332D01*
X347910Y463281D01*
X348009Y463226D01*
X348106Y463168D01*
X348201Y463106D01*
X348294Y463041D01*
X348384Y462973D01*
X348472Y462902D01*
X348558Y462827D01*
X348641Y462750D01*
X348721Y462670D01*
X348798Y462587D01*
X348873Y462501D01*
X348944Y462413D01*
X349012Y462323D01*
X349077Y462230D01*
X349139Y462135D01*
X349197Y462038D01*
X349252Y461939D01*
X349303Y461838D01*
X349351Y461735D01*
X349396Y461631D01*
X349436Y461525D01*
X349473Y461418D01*
X349506Y461310D01*
X349536Y461200D01*
X349561Y461090D01*
X349583Y460979D01*
X349600Y460867D01*
X349614Y460754D01*
X349624Y460641D01*
X349630Y460528D01*
X349632Y460415D01*
X349630Y460302D01*
X349624Y460189D01*
X349614Y460076D01*
X349600Y459963D01*
X349583Y459851D01*
X349561Y459740D01*
X349536Y459630D01*
X349506Y459520D01*
X349473Y459412D01*
X349436Y459305D01*
X349396Y459199D01*
X349351Y459095D01*
X349303Y458992D01*
X349252Y458891D01*
X349197Y458792D01*
X349139Y458695D01*
X349077Y458600D01*
X349012Y458507D01*
X348944Y458417D01*
X348873Y458329D01*
X348798Y458243D01*
X348721Y458160D01*
X348641Y458080D01*
X348558Y458003D01*
X348472Y457928D01*
X348384Y457857D01*
X348294Y457789D01*
X348201Y457724D01*
X348106Y457662D01*
X348009Y457604D01*
X347910Y457549D01*
X347809Y457498D01*
X347706Y457450D01*
X347602Y457405D01*
X347496Y457365D01*
X347389Y457328D01*
X347281Y457295D01*
X347171Y457265D01*
X347061Y457240D01*
X346950Y457218D01*
X346838Y457201D01*
X346725Y457187D01*
X346612Y457177D01*
X346499Y457171D01*
X346386Y457169D01*
X349632Y469559D02*
X337948Y469559D01*
X349632Y468261D02*
X349632Y470858D01*
X337948Y470858D02*
X337948Y468261D01*
X349632Y478021D02*
X349632Y480618D01*
X349632Y478021D02*
X349630Y477922D01*
X349624Y477822D01*
X349615Y477723D01*
X349602Y477625D01*
X349585Y477527D01*
X349564Y477429D01*
X349539Y477333D01*
X349511Y477238D01*
X349479Y477144D01*
X349444Y477051D01*
X349405Y476959D01*
X349362Y476869D01*
X349317Y476781D01*
X349267Y476694D01*
X349215Y476610D01*
X349159Y476527D01*
X349101Y476447D01*
X349039Y476369D01*
X348974Y476294D01*
X348906Y476221D01*
X348836Y476151D01*
X348763Y476083D01*
X348688Y476018D01*
X348610Y475956D01*
X348530Y475898D01*
X348447Y475842D01*
X348363Y475790D01*
X348276Y475740D01*
X348188Y475695D01*
X348098Y475652D01*
X348006Y475613D01*
X347913Y475578D01*
X347819Y475546D01*
X347724Y475518D01*
X347628Y475493D01*
X347530Y475472D01*
X347432Y475455D01*
X347334Y475442D01*
X347235Y475433D01*
X347135Y475427D01*
X347036Y475425D01*
X340544Y475425D01*
X340544Y475424D02*
X340445Y475426D01*
X340345Y475432D01*
X340246Y475441D01*
X340148Y475454D01*
X340050Y475472D01*
X339952Y475492D01*
X339856Y475517D01*
X339760Y475545D01*
X339666Y475577D01*
X339573Y475612D01*
X339482Y475651D01*
X339392Y475694D01*
X339303Y475739D01*
X339217Y475789D01*
X339132Y475841D01*
X339050Y475897D01*
X338970Y475956D01*
X338892Y476017D01*
X338816Y476082D01*
X338743Y476150D01*
X338673Y476220D01*
X338605Y476293D01*
X338540Y476369D01*
X338479Y476447D01*
X338420Y476527D01*
X338364Y476609D01*
X338312Y476694D01*
X338263Y476780D01*
X338217Y476869D01*
X338174Y476959D01*
X338135Y477050D01*
X338100Y477143D01*
X338068Y477237D01*
X338040Y477333D01*
X338015Y477429D01*
X337995Y477527D01*
X337977Y477625D01*
X337964Y477723D01*
X337955Y477822D01*
X337949Y477921D01*
X337947Y478021D01*
X337948Y478021D02*
X337948Y480618D01*
D11*
X1010000Y460000D02*
X1010000Y375500D01*
X1010000Y294500D01*
X1010000Y210000D01*
X395000Y210000D01*
X395000Y283000D01*
X395000Y393000D01*
X395000Y460000D01*
X1010000Y460000D01*
D12*
X993601Y200746D02*
X993601Y197502D01*
X993600Y197502D02*
X993602Y197433D01*
X993608Y197365D01*
X993617Y197297D01*
X993630Y197229D01*
X993647Y197162D01*
X993668Y197097D01*
X993692Y197032D01*
X993719Y196969D01*
X993750Y196908D01*
X993785Y196848D01*
X993822Y196791D01*
X993863Y196735D01*
X993907Y196682D01*
X993953Y196632D01*
X994003Y196584D01*
X994055Y196539D01*
X994109Y196496D01*
X994165Y196457D01*
X994224Y196421D01*
X994284Y196388D01*
X994347Y196359D01*
X994410Y196333D01*
X994475Y196311D01*
X994542Y196292D01*
X994609Y196277D01*
X994677Y196266D01*
X994745Y196258D01*
X994814Y196254D01*
X994882Y196254D01*
X994951Y196258D01*
X995019Y196266D01*
X995087Y196277D01*
X995154Y196292D01*
X995221Y196311D01*
X995286Y196333D01*
X995349Y196359D01*
X995412Y196388D01*
X995472Y196421D01*
X995531Y196457D01*
X995587Y196496D01*
X995641Y196539D01*
X995693Y196584D01*
X995743Y196632D01*
X995789Y196682D01*
X995833Y196735D01*
X995874Y196791D01*
X995911Y196848D01*
X995946Y196908D01*
X995977Y196969D01*
X996004Y197032D01*
X996028Y197097D01*
X996049Y197162D01*
X996066Y197229D01*
X996079Y197297D01*
X996088Y197365D01*
X996094Y197433D01*
X996096Y197502D01*
X996096Y200746D01*
X999623Y200746D02*
X999688Y200744D01*
X999753Y200738D01*
X999818Y200729D01*
X999882Y200716D01*
X999945Y200699D01*
X1000007Y200678D01*
X1000068Y200654D01*
X1000127Y200627D01*
X1000185Y200596D01*
X1000240Y200561D01*
X1000294Y200524D01*
X1000345Y200483D01*
X1000394Y200440D01*
X1000440Y200394D01*
X1000483Y200345D01*
X1000524Y200294D01*
X1000561Y200240D01*
X1000596Y200185D01*
X1000627Y200127D01*
X1000654Y200068D01*
X1000678Y200007D01*
X1000699Y199945D01*
X1000716Y199882D01*
X1000729Y199818D01*
X1000738Y199753D01*
X1000744Y199688D01*
X1000746Y199623D01*
X999623Y200746D02*
X999550Y200744D01*
X999478Y200739D01*
X999406Y200730D01*
X999335Y200717D01*
X999264Y200701D01*
X999194Y200681D01*
X999125Y200657D01*
X999058Y200631D01*
X998992Y200601D01*
X998927Y200567D01*
X998865Y200531D01*
X998804Y200491D01*
X998745Y200448D01*
X998689Y200403D01*
X998635Y200354D01*
X998583Y200303D01*
X998534Y200250D01*
X998488Y200194D01*
X998444Y200136D01*
X998404Y200075D01*
X998367Y200013D01*
X998333Y199949D01*
X998302Y199883D01*
X998274Y199816D01*
X998250Y199748D01*
X1000372Y198750D02*
X1000418Y198796D01*
X1000461Y198844D01*
X1000502Y198895D01*
X1000540Y198948D01*
X1000575Y199003D01*
X1000606Y199060D01*
X1000635Y199118D01*
X1000661Y199178D01*
X1000683Y199239D01*
X1000702Y199301D01*
X1000718Y199365D01*
X1000730Y199429D01*
X1000739Y199493D01*
X1000744Y199558D01*
X1000746Y199623D01*
X1000372Y198750D02*
X998250Y196254D01*
X1000746Y196254D01*
D11*
X386590Y409680D02*
X386590Y450320D01*
X337060Y450320D01*
X337060Y409680D01*
X386590Y409680D01*
D13*
X399346Y398900D02*
X399233Y398898D01*
X399120Y398892D01*
X399007Y398882D01*
X398894Y398868D01*
X398782Y398851D01*
X398671Y398829D01*
X398561Y398804D01*
X398451Y398774D01*
X398343Y398741D01*
X398236Y398704D01*
X398130Y398664D01*
X398026Y398619D01*
X397923Y398571D01*
X397822Y398520D01*
X397723Y398465D01*
X397626Y398407D01*
X397531Y398345D01*
X397438Y398280D01*
X397348Y398212D01*
X397260Y398141D01*
X397174Y398066D01*
X397091Y397989D01*
X397011Y397909D01*
X396934Y397826D01*
X396859Y397740D01*
X396788Y397652D01*
X396720Y397562D01*
X396655Y397469D01*
X396593Y397374D01*
X396535Y397277D01*
X396480Y397178D01*
X396429Y397077D01*
X396381Y396974D01*
X396336Y396870D01*
X396296Y396764D01*
X396259Y396657D01*
X396226Y396549D01*
X396196Y396439D01*
X396171Y396329D01*
X396149Y396218D01*
X396132Y396106D01*
X396118Y395993D01*
X396108Y395880D01*
X396102Y395767D01*
X396100Y395654D01*
X396102Y395541D01*
X396108Y395428D01*
X396118Y395315D01*
X396132Y395202D01*
X396149Y395090D01*
X396171Y394979D01*
X396196Y394869D01*
X396226Y394759D01*
X396259Y394651D01*
X396296Y394544D01*
X396336Y394438D01*
X396381Y394334D01*
X396429Y394231D01*
X396480Y394130D01*
X396535Y394031D01*
X396593Y393934D01*
X396655Y393839D01*
X396720Y393746D01*
X396788Y393656D01*
X396859Y393568D01*
X396934Y393482D01*
X397011Y393399D01*
X397091Y393319D01*
X397174Y393242D01*
X397260Y393167D01*
X397348Y393096D01*
X397438Y393028D01*
X397531Y392963D01*
X397626Y392901D01*
X397723Y392843D01*
X397822Y392788D01*
X397923Y392737D01*
X398026Y392689D01*
X398130Y392644D01*
X398236Y392604D01*
X398343Y392567D01*
X398451Y392534D01*
X398561Y392504D01*
X398671Y392479D01*
X398782Y392457D01*
X398894Y392440D01*
X399007Y392426D01*
X399120Y392416D01*
X399233Y392410D01*
X399346Y392408D01*
X399459Y392410D01*
X399572Y392416D01*
X399685Y392426D01*
X399798Y392440D01*
X399910Y392457D01*
X400021Y392479D01*
X400131Y392504D01*
X400241Y392534D01*
X400349Y392567D01*
X400456Y392604D01*
X400562Y392644D01*
X400666Y392689D01*
X400769Y392737D01*
X400870Y392788D01*
X400969Y392843D01*
X401066Y392901D01*
X401161Y392963D01*
X401254Y393028D01*
X401344Y393096D01*
X401432Y393167D01*
X401518Y393242D01*
X401601Y393319D01*
X401681Y393399D01*
X401758Y393482D01*
X401833Y393568D01*
X401904Y393656D01*
X401972Y393746D01*
X402037Y393839D01*
X402099Y393934D01*
X402157Y394031D01*
X402212Y394130D01*
X402263Y394231D01*
X402311Y394334D01*
X402356Y394438D01*
X402396Y394544D01*
X402433Y394651D01*
X402466Y394759D01*
X402496Y394869D01*
X402521Y394979D01*
X402543Y395090D01*
X402560Y395202D01*
X402574Y395315D01*
X402584Y395428D01*
X402590Y395541D01*
X402592Y395654D01*
X402590Y395767D01*
X402584Y395880D01*
X402574Y395993D01*
X402560Y396106D01*
X402543Y396218D01*
X402521Y396329D01*
X402496Y396439D01*
X402466Y396549D01*
X402433Y396657D01*
X402396Y396764D01*
X402356Y396870D01*
X402311Y396974D01*
X402263Y397077D01*
X402212Y397178D01*
X402157Y397277D01*
X402099Y397374D01*
X402037Y397469D01*
X401972Y397562D01*
X401904Y397652D01*
X401833Y397740D01*
X401758Y397826D01*
X401681Y397909D01*
X401601Y397989D01*
X401518Y398066D01*
X401432Y398141D01*
X401344Y398212D01*
X401254Y398280D01*
X401161Y398345D01*
X401066Y398407D01*
X400969Y398465D01*
X400870Y398520D01*
X400769Y398571D01*
X400666Y398619D01*
X400562Y398664D01*
X400456Y398704D01*
X400349Y398741D01*
X400241Y398774D01*
X400131Y398804D01*
X400021Y398829D01*
X399910Y398851D01*
X399798Y398868D01*
X399685Y398882D01*
X399572Y398892D01*
X399459Y398898D01*
X399346Y398900D01*
X393504Y398250D02*
X393403Y398248D01*
X393303Y398242D01*
X393203Y398232D01*
X393103Y398219D01*
X393004Y398201D01*
X392905Y398180D01*
X392808Y398155D01*
X392711Y398126D01*
X392616Y398093D01*
X392522Y398057D01*
X392430Y398017D01*
X392339Y397974D01*
X392250Y397927D01*
X392163Y397877D01*
X392077Y397823D01*
X391994Y397766D01*
X391914Y397706D01*
X391835Y397643D01*
X391759Y397576D01*
X391686Y397507D01*
X391616Y397435D01*
X391548Y397361D01*
X391483Y397284D01*
X391422Y397204D01*
X391363Y397122D01*
X391308Y397038D01*
X391256Y396952D01*
X391207Y396864D01*
X391162Y396774D01*
X391120Y396682D01*
X391082Y396589D01*
X391048Y396494D01*
X391017Y396399D01*
X390990Y396302D01*
X390967Y396204D01*
X390947Y396105D01*
X390932Y396005D01*
X390920Y395905D01*
X390912Y395805D01*
X390908Y395704D01*
X390908Y395604D01*
X390912Y395503D01*
X390920Y395403D01*
X390932Y395303D01*
X390947Y395203D01*
X390967Y395104D01*
X390990Y395006D01*
X391017Y394909D01*
X391048Y394814D01*
X391082Y394719D01*
X391120Y394626D01*
X391162Y394534D01*
X391207Y394444D01*
X391256Y394356D01*
X391308Y394270D01*
X391363Y394186D01*
X391422Y394104D01*
X391483Y394024D01*
X391548Y393947D01*
X391616Y393873D01*
X391686Y393801D01*
X391759Y393732D01*
X391835Y393665D01*
X391914Y393602D01*
X391994Y393542D01*
X392077Y393485D01*
X392163Y393431D01*
X392250Y393381D01*
X392339Y393334D01*
X392430Y393291D01*
X392522Y393251D01*
X392616Y393215D01*
X392711Y393182D01*
X392808Y393153D01*
X392905Y393128D01*
X393004Y393107D01*
X393103Y393089D01*
X393203Y393076D01*
X393303Y393066D01*
X393403Y393060D01*
X393504Y393058D01*
X393605Y393060D01*
X393705Y393066D01*
X393805Y393076D01*
X393905Y393089D01*
X394004Y393107D01*
X394103Y393128D01*
X394200Y393153D01*
X394297Y393182D01*
X394392Y393215D01*
X394486Y393251D01*
X394578Y393291D01*
X394669Y393334D01*
X394758Y393381D01*
X394845Y393431D01*
X394931Y393485D01*
X395014Y393542D01*
X395094Y393602D01*
X395173Y393665D01*
X395249Y393732D01*
X395322Y393801D01*
X395392Y393873D01*
X395460Y393947D01*
X395525Y394024D01*
X395586Y394104D01*
X395645Y394186D01*
X395700Y394270D01*
X395752Y394356D01*
X395801Y394444D01*
X395846Y394534D01*
X395888Y394626D01*
X395926Y394719D01*
X395960Y394814D01*
X395991Y394909D01*
X396018Y395006D01*
X396041Y395104D01*
X396061Y395203D01*
X396076Y395303D01*
X396088Y395403D01*
X396096Y395503D01*
X396100Y395604D01*
X396100Y395704D01*
X396096Y395805D01*
X396088Y395905D01*
X396076Y396005D01*
X396061Y396105D01*
X396041Y396204D01*
X396018Y396302D01*
X395991Y396399D01*
X395960Y396494D01*
X395926Y396589D01*
X395888Y396682D01*
X395846Y396774D01*
X395801Y396864D01*
X395752Y396952D01*
X395700Y397038D01*
X395645Y397122D01*
X395586Y397204D01*
X395525Y397284D01*
X395460Y397361D01*
X395392Y397435D01*
X395322Y397507D01*
X395249Y397576D01*
X395173Y397643D01*
X395094Y397706D01*
X395014Y397766D01*
X394931Y397823D01*
X394845Y397877D01*
X394758Y397927D01*
X394669Y397974D01*
X394578Y398017D01*
X394486Y398057D01*
X394392Y398093D01*
X394297Y398126D01*
X394200Y398155D01*
X394103Y398180D01*
X394004Y398201D01*
X393905Y398219D01*
X393805Y398232D01*
X393705Y398242D01*
X393605Y398248D01*
X393504Y398250D01*
X390908Y404388D02*
X402592Y404388D01*
X390908Y404388D02*
X390908Y407634D01*
X390910Y407747D01*
X390916Y407860D01*
X390926Y407973D01*
X390940Y408086D01*
X390957Y408198D01*
X390979Y408309D01*
X391004Y408419D01*
X391034Y408529D01*
X391067Y408637D01*
X391104Y408744D01*
X391144Y408850D01*
X391189Y408954D01*
X391237Y409057D01*
X391288Y409158D01*
X391343Y409257D01*
X391401Y409354D01*
X391463Y409449D01*
X391528Y409542D01*
X391596Y409632D01*
X391667Y409720D01*
X391742Y409806D01*
X391819Y409889D01*
X391899Y409969D01*
X391982Y410046D01*
X392068Y410121D01*
X392156Y410192D01*
X392246Y410260D01*
X392339Y410325D01*
X392434Y410387D01*
X392531Y410445D01*
X392630Y410500D01*
X392731Y410551D01*
X392834Y410599D01*
X392938Y410644D01*
X393044Y410684D01*
X393151Y410721D01*
X393259Y410754D01*
X393369Y410784D01*
X393479Y410809D01*
X393590Y410831D01*
X393702Y410848D01*
X393815Y410862D01*
X393928Y410872D01*
X394041Y410878D01*
X394154Y410880D01*
X394267Y410878D01*
X394380Y410872D01*
X394493Y410862D01*
X394606Y410848D01*
X394718Y410831D01*
X394829Y410809D01*
X394939Y410784D01*
X395049Y410754D01*
X395157Y410721D01*
X395264Y410684D01*
X395370Y410644D01*
X395474Y410599D01*
X395577Y410551D01*
X395678Y410500D01*
X395777Y410445D01*
X395874Y410387D01*
X395969Y410325D01*
X396062Y410260D01*
X396152Y410192D01*
X396240Y410121D01*
X396326Y410046D01*
X396409Y409969D01*
X396489Y409889D01*
X396566Y409806D01*
X396641Y409720D01*
X396712Y409632D01*
X396780Y409542D01*
X396845Y409449D01*
X396907Y409354D01*
X396965Y409257D01*
X397020Y409158D01*
X397071Y409057D01*
X397119Y408954D01*
X397164Y408850D01*
X397204Y408744D01*
X397241Y408637D01*
X397274Y408529D01*
X397304Y408419D01*
X397329Y408309D01*
X397351Y408198D01*
X397368Y408086D01*
X397382Y407973D01*
X397392Y407860D01*
X397398Y407747D01*
X397400Y407634D01*
X397399Y407634D02*
X397399Y404388D01*
X402592Y416228D02*
X390908Y416228D01*
X402592Y414929D02*
X402592Y417526D01*
X390908Y417526D02*
X390908Y414929D01*
X390908Y422507D02*
X402592Y422507D01*
X402592Y428998D02*
X390908Y422507D01*
X390908Y428998D02*
X402592Y428998D01*
X398048Y434431D02*
X398048Y442220D01*
X402592Y450786D02*
X402590Y450885D01*
X402584Y450985D01*
X402575Y451084D01*
X402562Y451182D01*
X402545Y451280D01*
X402524Y451378D01*
X402499Y451474D01*
X402471Y451569D01*
X402439Y451663D01*
X402404Y451756D01*
X402365Y451848D01*
X402322Y451938D01*
X402277Y452026D01*
X402227Y452113D01*
X402175Y452197D01*
X402119Y452280D01*
X402061Y452360D01*
X401999Y452438D01*
X401934Y452513D01*
X401866Y452586D01*
X401796Y452656D01*
X401723Y452724D01*
X401648Y452789D01*
X401570Y452851D01*
X401490Y452909D01*
X401407Y452965D01*
X401323Y453017D01*
X401236Y453067D01*
X401148Y453112D01*
X401058Y453155D01*
X400966Y453194D01*
X400873Y453229D01*
X400779Y453261D01*
X400684Y453289D01*
X400588Y453314D01*
X400490Y453335D01*
X400392Y453352D01*
X400294Y453365D01*
X400195Y453374D01*
X400095Y453380D01*
X399996Y453382D01*
X402592Y450786D02*
X402590Y450642D01*
X402584Y450497D01*
X402575Y450353D01*
X402562Y450210D01*
X402545Y450066D01*
X402524Y449923D01*
X402499Y449781D01*
X402471Y449640D01*
X402439Y449499D01*
X402403Y449359D01*
X402364Y449220D01*
X402321Y449082D01*
X402274Y448946D01*
X402224Y448810D01*
X402170Y448676D01*
X402113Y448544D01*
X402052Y448413D01*
X401988Y448284D01*
X401920Y448156D01*
X401850Y448030D01*
X401775Y447906D01*
X401698Y447785D01*
X401617Y447665D01*
X401534Y447547D01*
X401447Y447432D01*
X401357Y447319D01*
X401264Y447208D01*
X401169Y447100D01*
X401070Y446994D01*
X400969Y446891D01*
X393504Y447216D02*
X393405Y447218D01*
X393305Y447224D01*
X393206Y447233D01*
X393108Y447246D01*
X393010Y447263D01*
X392912Y447284D01*
X392816Y447309D01*
X392721Y447337D01*
X392627Y447369D01*
X392534Y447404D01*
X392442Y447443D01*
X392352Y447486D01*
X392264Y447531D01*
X392177Y447581D01*
X392093Y447633D01*
X392010Y447689D01*
X391930Y447747D01*
X391852Y447809D01*
X391777Y447874D01*
X391704Y447942D01*
X391634Y448012D01*
X391566Y448085D01*
X391501Y448160D01*
X391439Y448238D01*
X391381Y448318D01*
X391325Y448401D01*
X391273Y448485D01*
X391223Y448572D01*
X391178Y448660D01*
X391135Y448750D01*
X391096Y448842D01*
X391061Y448935D01*
X391029Y449029D01*
X391001Y449124D01*
X390976Y449220D01*
X390955Y449318D01*
X390938Y449416D01*
X390925Y449514D01*
X390916Y449613D01*
X390910Y449713D01*
X390908Y449812D01*
X390910Y449948D01*
X390916Y450084D01*
X390925Y450220D01*
X390938Y450356D01*
X390956Y450491D01*
X390976Y450625D01*
X391001Y450759D01*
X391029Y450893D01*
X391062Y451025D01*
X391097Y451156D01*
X391137Y451287D01*
X391180Y451416D01*
X391226Y451544D01*
X391277Y451670D01*
X391330Y451796D01*
X391388Y451919D01*
X391448Y452041D01*
X391512Y452161D01*
X391580Y452280D01*
X391650Y452396D01*
X391724Y452510D01*
X391801Y452623D01*
X391882Y452733D01*
X395776Y448513D02*
X395723Y448427D01*
X395666Y448343D01*
X395607Y448261D01*
X395544Y448181D01*
X395478Y448104D01*
X395410Y448029D01*
X395338Y447957D01*
X395264Y447888D01*
X395187Y447822D01*
X395108Y447759D01*
X395026Y447699D01*
X394942Y447642D01*
X394856Y447588D01*
X394768Y447538D01*
X394678Y447491D01*
X394587Y447447D01*
X394493Y447408D01*
X394399Y447371D01*
X394303Y447339D01*
X394205Y447310D01*
X394107Y447285D01*
X394008Y447264D01*
X393908Y447246D01*
X393808Y447233D01*
X393707Y447223D01*
X393605Y447217D01*
X393504Y447215D01*
X397724Y452084D02*
X397777Y452170D01*
X397834Y452254D01*
X397893Y452336D01*
X397956Y452416D01*
X398022Y452493D01*
X398090Y452568D01*
X398162Y452640D01*
X398236Y452709D01*
X398313Y452775D01*
X398392Y452838D01*
X398474Y452898D01*
X398558Y452955D01*
X398644Y453009D01*
X398732Y453059D01*
X398822Y453106D01*
X398913Y453150D01*
X399007Y453189D01*
X399101Y453226D01*
X399197Y453258D01*
X399295Y453287D01*
X399393Y453312D01*
X399492Y453333D01*
X399592Y453351D01*
X399692Y453364D01*
X399793Y453374D01*
X399895Y453380D01*
X399996Y453382D01*
X397724Y452084D02*
X395776Y448514D01*
X394154Y457940D02*
X399346Y457940D01*
X394154Y457939D02*
X394041Y457941D01*
X393928Y457947D01*
X393815Y457957D01*
X393702Y457971D01*
X393590Y457988D01*
X393479Y458010D01*
X393369Y458035D01*
X393259Y458065D01*
X393151Y458098D01*
X393044Y458135D01*
X392938Y458175D01*
X392834Y458220D01*
X392731Y458268D01*
X392630Y458319D01*
X392531Y458374D01*
X392434Y458432D01*
X392339Y458494D01*
X392246Y458559D01*
X392156Y458627D01*
X392068Y458698D01*
X391982Y458773D01*
X391899Y458850D01*
X391819Y458930D01*
X391742Y459013D01*
X391667Y459099D01*
X391596Y459187D01*
X391528Y459277D01*
X391463Y459370D01*
X391401Y459465D01*
X391343Y459562D01*
X391288Y459661D01*
X391237Y459762D01*
X391189Y459865D01*
X391144Y459969D01*
X391104Y460075D01*
X391067Y460182D01*
X391034Y460290D01*
X391004Y460400D01*
X390979Y460510D01*
X390957Y460621D01*
X390940Y460733D01*
X390926Y460846D01*
X390916Y460959D01*
X390910Y461072D01*
X390908Y461185D01*
X390910Y461298D01*
X390916Y461411D01*
X390926Y461524D01*
X390940Y461637D01*
X390957Y461749D01*
X390979Y461860D01*
X391004Y461970D01*
X391034Y462080D01*
X391067Y462188D01*
X391104Y462295D01*
X391144Y462401D01*
X391189Y462505D01*
X391237Y462608D01*
X391288Y462709D01*
X391343Y462808D01*
X391401Y462905D01*
X391463Y463000D01*
X391528Y463093D01*
X391596Y463183D01*
X391667Y463271D01*
X391742Y463357D01*
X391819Y463440D01*
X391899Y463520D01*
X391982Y463597D01*
X392068Y463672D01*
X392156Y463743D01*
X392246Y463811D01*
X392339Y463876D01*
X392434Y463938D01*
X392531Y463996D01*
X392630Y464051D01*
X392731Y464102D01*
X392834Y464150D01*
X392938Y464195D01*
X393044Y464235D01*
X393151Y464272D01*
X393259Y464305D01*
X393369Y464335D01*
X393479Y464360D01*
X393590Y464382D01*
X393702Y464399D01*
X393815Y464413D01*
X393928Y464423D01*
X394041Y464429D01*
X394154Y464431D01*
X399346Y464431D01*
X399459Y464429D01*
X399572Y464423D01*
X399685Y464413D01*
X399798Y464399D01*
X399910Y464382D01*
X400021Y464360D01*
X400131Y464335D01*
X400241Y464305D01*
X400349Y464272D01*
X400456Y464235D01*
X400562Y464195D01*
X400666Y464150D01*
X400769Y464102D01*
X400870Y464051D01*
X400969Y463996D01*
X401066Y463938D01*
X401161Y463876D01*
X401254Y463811D01*
X401344Y463743D01*
X401432Y463672D01*
X401518Y463597D01*
X401601Y463520D01*
X401681Y463440D01*
X401758Y463357D01*
X401833Y463271D01*
X401904Y463183D01*
X401972Y463093D01*
X402037Y463000D01*
X402099Y462905D01*
X402157Y462808D01*
X402212Y462709D01*
X402263Y462608D01*
X402311Y462505D01*
X402356Y462401D01*
X402396Y462295D01*
X402433Y462188D01*
X402466Y462080D01*
X402496Y461970D01*
X402521Y461860D01*
X402543Y461749D01*
X402560Y461637D01*
X402574Y461524D01*
X402584Y461411D01*
X402590Y461298D01*
X402592Y461185D01*
X402590Y461072D01*
X402584Y460959D01*
X402574Y460846D01*
X402560Y460733D01*
X402543Y460621D01*
X402521Y460510D01*
X402496Y460400D01*
X402466Y460290D01*
X402433Y460182D01*
X402396Y460075D01*
X402356Y459969D01*
X402311Y459865D01*
X402263Y459762D01*
X402212Y459661D01*
X402157Y459562D01*
X402099Y459465D01*
X402037Y459370D01*
X401972Y459277D01*
X401904Y459187D01*
X401833Y459099D01*
X401758Y459013D01*
X401681Y458930D01*
X401601Y458850D01*
X401518Y458773D01*
X401432Y458698D01*
X401344Y458627D01*
X401254Y458559D01*
X401161Y458494D01*
X401066Y458432D01*
X400969Y458374D01*
X400870Y458319D01*
X400769Y458268D01*
X400666Y458220D01*
X400562Y458175D01*
X400456Y458135D01*
X400349Y458098D01*
X400241Y458065D01*
X400131Y458035D01*
X400021Y458010D01*
X399910Y457988D01*
X399798Y457971D01*
X399685Y457957D01*
X399572Y457947D01*
X399459Y457941D01*
X399346Y457939D01*
X402592Y470329D02*
X390908Y470329D01*
X402592Y469031D02*
X402592Y471628D01*
X390908Y471628D02*
X390908Y469031D01*
X402592Y478791D02*
X402592Y481388D01*
X402592Y478791D02*
X402590Y478692D01*
X402584Y478592D01*
X402575Y478493D01*
X402562Y478395D01*
X402545Y478297D01*
X402524Y478199D01*
X402499Y478103D01*
X402471Y478008D01*
X402439Y477914D01*
X402404Y477821D01*
X402365Y477729D01*
X402322Y477639D01*
X402277Y477551D01*
X402227Y477464D01*
X402175Y477380D01*
X402119Y477297D01*
X402061Y477217D01*
X401999Y477139D01*
X401934Y477064D01*
X401866Y476991D01*
X401796Y476921D01*
X401723Y476853D01*
X401648Y476788D01*
X401570Y476726D01*
X401490Y476668D01*
X401407Y476612D01*
X401323Y476560D01*
X401236Y476510D01*
X401148Y476465D01*
X401058Y476422D01*
X400966Y476383D01*
X400873Y476348D01*
X400779Y476316D01*
X400684Y476288D01*
X400588Y476263D01*
X400490Y476242D01*
X400392Y476225D01*
X400294Y476212D01*
X400195Y476203D01*
X400095Y476197D01*
X399996Y476195D01*
X393504Y476195D01*
X393504Y476194D02*
X393405Y476196D01*
X393305Y476202D01*
X393206Y476211D01*
X393108Y476224D01*
X393010Y476242D01*
X392912Y476262D01*
X392816Y476287D01*
X392720Y476315D01*
X392626Y476347D01*
X392533Y476382D01*
X392442Y476421D01*
X392352Y476464D01*
X392263Y476509D01*
X392177Y476559D01*
X392092Y476611D01*
X392010Y476667D01*
X391930Y476726D01*
X391852Y476787D01*
X391776Y476852D01*
X391703Y476920D01*
X391633Y476990D01*
X391565Y477063D01*
X391500Y477139D01*
X391439Y477217D01*
X391380Y477297D01*
X391324Y477379D01*
X391272Y477464D01*
X391223Y477550D01*
X391177Y477639D01*
X391134Y477729D01*
X391095Y477820D01*
X391060Y477913D01*
X391028Y478007D01*
X391000Y478103D01*
X390975Y478199D01*
X390955Y478297D01*
X390937Y478395D01*
X390924Y478493D01*
X390915Y478592D01*
X390909Y478691D01*
X390907Y478791D01*
X390908Y478791D02*
X390908Y481388D01*
D10*
X183678Y441322D02*
X183678Y436750D01*
X183678Y368678D02*
X188250Y368678D01*
X256322Y368678D02*
X256322Y373250D01*
X256322Y441322D02*
X251750Y441322D01*
X188250Y441322D02*
X183678Y441322D01*
X183678Y373250D02*
X183678Y368678D01*
X251750Y368678D02*
X256322Y368678D01*
X256322Y436750D02*
X256322Y441322D01*
D14*
X252625Y451009D02*
X248646Y451009D01*
X245661Y448688D01*
X248646Y451009D02*
X245661Y453331D01*
X248646Y451009D02*
X249972Y447362D01*
X248646Y451009D02*
X249972Y454657D01*
X225969Y418575D02*
X214031Y418575D01*
X225969Y421891D02*
X225969Y415259D01*
X220663Y410694D02*
X220663Y407378D01*
X220661Y407264D01*
X220655Y407149D01*
X220645Y407035D01*
X220631Y406922D01*
X220614Y406808D01*
X220592Y406696D01*
X220567Y406584D01*
X220537Y406474D01*
X220504Y406364D01*
X220467Y406256D01*
X220427Y406149D01*
X220382Y406043D01*
X220335Y405939D01*
X220283Y405837D01*
X220228Y405737D01*
X220170Y405638D01*
X220108Y405542D01*
X220043Y405447D01*
X219975Y405356D01*
X219903Y405266D01*
X219829Y405179D01*
X219752Y405095D01*
X219671Y405013D01*
X219588Y404934D01*
X219503Y404858D01*
X219414Y404785D01*
X219324Y404716D01*
X219231Y404649D01*
X219135Y404586D01*
X219038Y404526D01*
X218938Y404469D01*
X218837Y404416D01*
X218734Y404366D01*
X218629Y404320D01*
X218523Y404277D01*
X218415Y404239D01*
X218306Y404204D01*
X218196Y404173D01*
X218085Y404145D01*
X217973Y404122D01*
X217860Y404102D01*
X217747Y404086D01*
X217633Y404074D01*
X217519Y404066D01*
X217404Y404062D01*
X217290Y404062D01*
X217175Y404066D01*
X217061Y404074D01*
X216947Y404086D01*
X216834Y404102D01*
X216721Y404122D01*
X216609Y404145D01*
X216498Y404173D01*
X216388Y404204D01*
X216279Y404239D01*
X216171Y404277D01*
X216065Y404320D01*
X215960Y404366D01*
X215857Y404416D01*
X215756Y404469D01*
X215656Y404526D01*
X215559Y404586D01*
X215463Y404649D01*
X215370Y404716D01*
X215280Y404785D01*
X215191Y404858D01*
X215106Y404934D01*
X215023Y405013D01*
X214942Y405095D01*
X214865Y405179D01*
X214791Y405266D01*
X214719Y405356D01*
X214651Y405447D01*
X214586Y405542D01*
X214524Y405638D01*
X214466Y405737D01*
X214411Y405837D01*
X214359Y405939D01*
X214312Y406043D01*
X214267Y406149D01*
X214227Y406256D01*
X214190Y406364D01*
X214157Y406474D01*
X214127Y406584D01*
X214102Y406696D01*
X214080Y406808D01*
X214063Y406922D01*
X214049Y407035D01*
X214039Y407149D01*
X214033Y407264D01*
X214031Y407378D01*
X214031Y410694D01*
X225969Y410694D01*
X225969Y407378D01*
X225967Y407276D01*
X225961Y407175D01*
X225951Y407074D01*
X225938Y406973D01*
X225920Y406873D01*
X225899Y406774D01*
X225874Y406675D01*
X225845Y406578D01*
X225813Y406481D01*
X225777Y406386D01*
X225737Y406293D01*
X225694Y406201D01*
X225647Y406111D01*
X225596Y406022D01*
X225543Y405936D01*
X225486Y405852D01*
X225426Y405770D01*
X225363Y405690D01*
X225297Y405613D01*
X225228Y405538D01*
X225156Y405466D01*
X225081Y405397D01*
X225004Y405331D01*
X224924Y405268D01*
X224842Y405208D01*
X224758Y405151D01*
X224672Y405098D01*
X224583Y405047D01*
X224493Y405000D01*
X224401Y404957D01*
X224308Y404917D01*
X224213Y404881D01*
X224116Y404849D01*
X224019Y404820D01*
X223920Y404795D01*
X223821Y404774D01*
X223721Y404756D01*
X223620Y404743D01*
X223519Y404733D01*
X223418Y404727D01*
X223316Y404725D01*
X223214Y404727D01*
X223113Y404733D01*
X223012Y404743D01*
X222911Y404756D01*
X222811Y404774D01*
X222712Y404795D01*
X222613Y404820D01*
X222516Y404849D01*
X222419Y404881D01*
X222324Y404917D01*
X222231Y404957D01*
X222139Y405000D01*
X222049Y405047D01*
X221960Y405098D01*
X221874Y405151D01*
X221790Y405208D01*
X221708Y405268D01*
X221628Y405331D01*
X221551Y405397D01*
X221476Y405466D01*
X221404Y405538D01*
X221335Y405613D01*
X221269Y405690D01*
X221206Y405770D01*
X221146Y405852D01*
X221089Y405936D01*
X221036Y406022D01*
X220985Y406111D01*
X220938Y406201D01*
X220895Y406293D01*
X220855Y406386D01*
X220819Y406481D01*
X220787Y406578D01*
X220758Y406675D01*
X220733Y406774D01*
X220712Y406873D01*
X220694Y406973D01*
X220681Y407074D01*
X220671Y407175D01*
X220665Y407276D01*
X220663Y407378D01*
X220663Y399793D02*
X220663Y395814D01*
X220661Y395712D01*
X220655Y395611D01*
X220645Y395510D01*
X220632Y395409D01*
X220614Y395309D01*
X220593Y395210D01*
X220568Y395111D01*
X220539Y395014D01*
X220507Y394917D01*
X220471Y394822D01*
X220431Y394729D01*
X220388Y394637D01*
X220341Y394547D01*
X220290Y394458D01*
X220237Y394372D01*
X220180Y394288D01*
X220120Y394206D01*
X220057Y394126D01*
X219991Y394049D01*
X219922Y393974D01*
X219850Y393902D01*
X219775Y393833D01*
X219698Y393767D01*
X219618Y393704D01*
X219536Y393644D01*
X219452Y393587D01*
X219366Y393534D01*
X219277Y393483D01*
X219187Y393436D01*
X219095Y393393D01*
X219002Y393353D01*
X218907Y393317D01*
X218810Y393285D01*
X218713Y393256D01*
X218615Y393231D01*
X218515Y393210D01*
X218415Y393192D01*
X218314Y393179D01*
X218213Y393169D01*
X218112Y393163D01*
X218010Y393161D01*
X217347Y393161D01*
X217233Y393163D01*
X217118Y393169D01*
X217004Y393179D01*
X216891Y393193D01*
X216777Y393210D01*
X216665Y393232D01*
X216553Y393257D01*
X216443Y393287D01*
X216333Y393320D01*
X216225Y393357D01*
X216118Y393397D01*
X216012Y393442D01*
X215908Y393489D01*
X215806Y393541D01*
X215706Y393596D01*
X215607Y393654D01*
X215511Y393716D01*
X215416Y393781D01*
X215325Y393849D01*
X215235Y393921D01*
X215148Y393995D01*
X215064Y394072D01*
X214982Y394153D01*
X214903Y394236D01*
X214827Y394321D01*
X214754Y394410D01*
X214685Y394500D01*
X214618Y394593D01*
X214555Y394689D01*
X214495Y394786D01*
X214438Y394886D01*
X214385Y394987D01*
X214335Y395090D01*
X214289Y395195D01*
X214246Y395301D01*
X214208Y395409D01*
X214173Y395518D01*
X214142Y395628D01*
X214114Y395739D01*
X214091Y395851D01*
X214071Y395964D01*
X214055Y396077D01*
X214043Y396191D01*
X214035Y396305D01*
X214031Y396420D01*
X214031Y396534D01*
X214035Y396649D01*
X214043Y396763D01*
X214055Y396877D01*
X214071Y396990D01*
X214091Y397103D01*
X214114Y397215D01*
X214142Y397326D01*
X214173Y397436D01*
X214208Y397545D01*
X214246Y397653D01*
X214289Y397759D01*
X214335Y397864D01*
X214385Y397967D01*
X214438Y398068D01*
X214495Y398168D01*
X214555Y398265D01*
X214618Y398361D01*
X214685Y398454D01*
X214754Y398544D01*
X214827Y398633D01*
X214903Y398718D01*
X214982Y398801D01*
X215064Y398882D01*
X215148Y398959D01*
X215235Y399033D01*
X215325Y399105D01*
X215416Y399173D01*
X215511Y399238D01*
X215607Y399300D01*
X215706Y399358D01*
X215806Y399413D01*
X215908Y399465D01*
X216012Y399512D01*
X216118Y399557D01*
X216225Y399597D01*
X216333Y399634D01*
X216443Y399667D01*
X216553Y399697D01*
X216665Y399722D01*
X216777Y399744D01*
X216891Y399761D01*
X217004Y399775D01*
X217118Y399785D01*
X217233Y399791D01*
X217347Y399793D01*
X220663Y399793D01*
X220807Y399791D01*
X220950Y399785D01*
X221094Y399775D01*
X221237Y399762D01*
X221379Y399744D01*
X221521Y399723D01*
X221663Y399698D01*
X221804Y399669D01*
X221944Y399636D01*
X222083Y399600D01*
X222220Y399559D01*
X222357Y399515D01*
X222493Y399468D01*
X222627Y399416D01*
X222760Y399361D01*
X222891Y399303D01*
X223021Y399241D01*
X223148Y399175D01*
X223274Y399106D01*
X223399Y399033D01*
X223521Y398958D01*
X223641Y398879D01*
X223758Y398796D01*
X223874Y398711D01*
X223987Y398623D01*
X224098Y398531D01*
X224206Y398437D01*
X224312Y398339D01*
X224415Y398239D01*
X224515Y398136D01*
X224613Y398030D01*
X224707Y397922D01*
X224799Y397811D01*
X224887Y397698D01*
X224972Y397583D01*
X225055Y397465D01*
X225134Y397345D01*
X225209Y397223D01*
X225282Y397098D01*
X225351Y396972D01*
X225416Y396845D01*
X225479Y396715D01*
X225537Y396584D01*
X225592Y396451D01*
X225644Y396317D01*
X225691Y396181D01*
X225735Y396044D01*
X225776Y395907D01*
X225812Y395768D01*
X225845Y395628D01*
X225874Y395487D01*
X225899Y395345D01*
X225920Y395203D01*
X225938Y395061D01*
X225951Y394918D01*
X225961Y394774D01*
X225967Y394631D01*
X225969Y394487D01*
X225969Y388363D02*
X224643Y388363D01*
X225969Y388363D02*
X225969Y381731D01*
X214031Y385047D01*
X214031Y376552D02*
X225969Y376552D01*
X220663Y376552D02*
X220663Y369920D01*
X225969Y369920D02*
X214031Y369920D01*
X216684Y364741D02*
X225969Y362088D01*
X216684Y364741D02*
X216684Y358109D01*
X219337Y360099D02*
X214031Y360099D01*
X220000Y353311D02*
X220235Y353308D01*
X220470Y353300D01*
X220704Y353286D01*
X220938Y353266D01*
X221172Y353241D01*
X221404Y353210D01*
X221636Y353174D01*
X221868Y353132D01*
X222098Y353085D01*
X222326Y353032D01*
X222554Y352974D01*
X222780Y352910D01*
X223004Y352841D01*
X223227Y352767D01*
X223448Y352687D01*
X223667Y352602D01*
X223884Y352512D01*
X224099Y352417D01*
X224311Y352316D01*
X224403Y352283D01*
X224494Y352245D01*
X224583Y352204D01*
X224671Y352160D01*
X224756Y352112D01*
X224840Y352061D01*
X224922Y352006D01*
X225001Y351948D01*
X225078Y351887D01*
X225152Y351823D01*
X225224Y351756D01*
X225293Y351686D01*
X225359Y351614D01*
X225423Y351539D01*
X225483Y351461D01*
X225540Y351381D01*
X225594Y351299D01*
X225644Y351215D01*
X225691Y351129D01*
X225735Y351041D01*
X225775Y350951D01*
X225812Y350860D01*
X225844Y350767D01*
X225873Y350673D01*
X225899Y350579D01*
X225920Y350483D01*
X225938Y350386D01*
X225951Y350289D01*
X225961Y350191D01*
X225967Y350093D01*
X225969Y349995D01*
X225967Y349897D01*
X225961Y349799D01*
X225951Y349701D01*
X225938Y349604D01*
X225920Y349507D01*
X225899Y349411D01*
X225873Y349317D01*
X225844Y349223D01*
X225812Y349130D01*
X225775Y349039D01*
X225735Y348949D01*
X225691Y348861D01*
X225644Y348775D01*
X225594Y348691D01*
X225540Y348609D01*
X225483Y348529D01*
X225423Y348451D01*
X225359Y348376D01*
X225293Y348304D01*
X225224Y348234D01*
X225152Y348167D01*
X225078Y348103D01*
X225001Y348042D01*
X224922Y347984D01*
X224840Y347929D01*
X224756Y347878D01*
X224671Y347830D01*
X224583Y347786D01*
X224494Y347745D01*
X224403Y347707D01*
X224311Y347674D01*
X224099Y347573D01*
X223884Y347478D01*
X223667Y347388D01*
X223448Y347303D01*
X223227Y347223D01*
X223005Y347149D01*
X222780Y347080D01*
X222554Y347016D01*
X222326Y346958D01*
X222098Y346905D01*
X221868Y346858D01*
X221636Y346816D01*
X221404Y346780D01*
X221172Y346749D01*
X220938Y346724D01*
X220704Y346704D01*
X220470Y346690D01*
X220235Y346682D01*
X220000Y346679D01*
X220000Y353311D02*
X219765Y353308D01*
X219530Y353300D01*
X219296Y353286D01*
X219062Y353266D01*
X218828Y353241D01*
X218596Y353210D01*
X218364Y353174D01*
X218133Y353132D01*
X217902Y353085D01*
X217674Y353032D01*
X217446Y352974D01*
X217220Y352910D01*
X216996Y352841D01*
X216773Y352767D01*
X216552Y352687D01*
X216333Y352602D01*
X216116Y352512D01*
X215901Y352417D01*
X215689Y352316D01*
X215597Y352283D01*
X215506Y352245D01*
X215417Y352204D01*
X215329Y352160D01*
X215244Y352112D01*
X215160Y352061D01*
X215078Y352006D01*
X214999Y351948D01*
X214922Y351887D01*
X214848Y351823D01*
X214776Y351756D01*
X214707Y351686D01*
X214641Y351614D01*
X214577Y351539D01*
X214517Y351461D01*
X214460Y351381D01*
X214406Y351299D01*
X214356Y351215D01*
X214309Y351129D01*
X214265Y351041D01*
X214225Y350951D01*
X214188Y350860D01*
X214156Y350767D01*
X214127Y350673D01*
X214101Y350579D01*
X214080Y350483D01*
X214062Y350386D01*
X214049Y350289D01*
X214039Y350191D01*
X214033Y350093D01*
X214031Y349995D01*
X215689Y347674D02*
X215901Y347573D01*
X216116Y347478D01*
X216333Y347388D01*
X216552Y347303D01*
X216773Y347223D01*
X216996Y347149D01*
X217220Y347080D01*
X217446Y347016D01*
X217674Y346958D01*
X217902Y346905D01*
X218132Y346858D01*
X218364Y346816D01*
X218596Y346780D01*
X218828Y346749D01*
X219062Y346724D01*
X219296Y346704D01*
X219530Y346690D01*
X219765Y346682D01*
X220000Y346679D01*
X215689Y347674D02*
X215597Y347707D01*
X215506Y347745D01*
X215417Y347786D01*
X215329Y347830D01*
X215244Y347878D01*
X215160Y347930D01*
X215078Y347984D01*
X214999Y348042D01*
X214922Y348103D01*
X214848Y348167D01*
X214776Y348234D01*
X214707Y348304D01*
X214641Y348376D01*
X214577Y348451D01*
X214517Y348529D01*
X214460Y348609D01*
X214406Y348691D01*
X214356Y348775D01*
X214309Y348861D01*
X214265Y348949D01*
X214225Y349039D01*
X214188Y349130D01*
X214156Y349223D01*
X214127Y349317D01*
X214101Y349411D01*
X214080Y349507D01*
X214062Y349604D01*
X214049Y349701D01*
X214039Y349799D01*
X214033Y349897D01*
X214031Y349995D01*
X216684Y352648D02*
X223316Y347342D01*
X223316Y341881D02*
X225969Y338565D01*
X214031Y338565D01*
X214031Y341881D02*
X214031Y335249D01*
X214031Y330050D02*
X225969Y330050D01*
X225969Y324745D01*
X220663Y324745D02*
X220663Y330050D01*
X225969Y317991D02*
X214031Y317991D01*
X225969Y321307D02*
X225969Y314675D01*
X220663Y305616D02*
X220663Y303626D01*
X214031Y303626D01*
X214031Y307605D01*
X214033Y307707D01*
X214039Y307808D01*
X214049Y307909D01*
X214062Y308010D01*
X214080Y308110D01*
X214101Y308209D01*
X214126Y308308D01*
X214155Y308405D01*
X214187Y308502D01*
X214223Y308597D01*
X214263Y308690D01*
X214306Y308782D01*
X214353Y308872D01*
X214404Y308961D01*
X214457Y309047D01*
X214514Y309131D01*
X214574Y309213D01*
X214637Y309293D01*
X214703Y309370D01*
X214772Y309445D01*
X214844Y309517D01*
X214919Y309586D01*
X214996Y309652D01*
X215076Y309715D01*
X215158Y309775D01*
X215242Y309832D01*
X215328Y309885D01*
X215417Y309936D01*
X215507Y309983D01*
X215599Y310026D01*
X215692Y310066D01*
X215787Y310102D01*
X215884Y310134D01*
X215981Y310163D01*
X216080Y310188D01*
X216179Y310209D01*
X216279Y310227D01*
X216380Y310240D01*
X216481Y310250D01*
X216582Y310256D01*
X216684Y310258D01*
X223316Y310258D01*
X223418Y310256D01*
X223519Y310250D01*
X223620Y310240D01*
X223721Y310227D01*
X223821Y310209D01*
X223920Y310188D01*
X224019Y310163D01*
X224116Y310134D01*
X224213Y310102D01*
X224308Y310066D01*
X224401Y310026D01*
X224493Y309983D01*
X224583Y309936D01*
X224672Y309885D01*
X224758Y309832D01*
X224842Y309775D01*
X224924Y309715D01*
X225004Y309652D01*
X225081Y309586D01*
X225156Y309517D01*
X225228Y309445D01*
X225297Y309370D01*
X225363Y309293D01*
X225426Y309213D01*
X225486Y309131D01*
X225543Y309047D01*
X225596Y308961D01*
X225647Y308872D01*
X225694Y308782D01*
X225737Y308690D01*
X225777Y308597D01*
X225813Y308502D01*
X225845Y308405D01*
X225874Y308308D01*
X225899Y308210D01*
X225920Y308110D01*
X225938Y308010D01*
X225951Y307909D01*
X225961Y307808D01*
X225967Y307707D01*
X225969Y307605D01*
X225969Y303626D01*
X220000Y298337D02*
X220273Y298334D01*
X220546Y298324D01*
X220819Y298307D01*
X221091Y298284D01*
X221363Y298255D01*
X221633Y298219D01*
X221903Y298176D01*
X222172Y298127D01*
X222440Y298072D01*
X222706Y298010D01*
X222970Y297942D01*
X223233Y297867D01*
X223494Y297786D01*
X223753Y297699D01*
X224010Y297606D01*
X224264Y297506D01*
X224516Y297401D01*
X224765Y297289D01*
X225012Y297171D01*
X225256Y297048D01*
X225496Y296919D01*
X225734Y296784D01*
X225968Y296643D01*
X226199Y296496D01*
X226426Y296345D01*
X226649Y296187D01*
X226869Y296025D01*
X227084Y295857D01*
X227296Y295684D01*
X220000Y298337D02*
X219727Y298334D01*
X219454Y298324D01*
X219181Y298307D01*
X218909Y298284D01*
X218637Y298255D01*
X218367Y298219D01*
X218097Y298176D01*
X217828Y298127D01*
X217560Y298072D01*
X217294Y298010D01*
X217030Y297942D01*
X216767Y297867D01*
X216506Y297786D01*
X216247Y297699D01*
X215990Y297606D01*
X215736Y297506D01*
X215484Y297401D01*
X215235Y297289D01*
X214988Y297171D01*
X214744Y297048D01*
X214504Y296919D01*
X214266Y296784D01*
X214032Y296643D01*
X213801Y296496D01*
X213574Y296345D01*
X213351Y296187D01*
X213131Y296025D01*
X212916Y295857D01*
X212704Y295684D01*
X217347Y291208D02*
X222653Y291208D01*
X222767Y291206D01*
X222882Y291200D01*
X222996Y291190D01*
X223109Y291176D01*
X223223Y291159D01*
X223335Y291137D01*
X223447Y291112D01*
X223557Y291082D01*
X223667Y291049D01*
X223775Y291012D01*
X223882Y290972D01*
X223988Y290927D01*
X224092Y290880D01*
X224194Y290828D01*
X224294Y290773D01*
X224393Y290715D01*
X224489Y290653D01*
X224584Y290588D01*
X224675Y290520D01*
X224765Y290448D01*
X224852Y290374D01*
X224936Y290297D01*
X225018Y290216D01*
X225097Y290133D01*
X225173Y290048D01*
X225246Y289959D01*
X225315Y289869D01*
X225382Y289776D01*
X225445Y289680D01*
X225505Y289583D01*
X225562Y289483D01*
X225615Y289382D01*
X225665Y289279D01*
X225711Y289174D01*
X225754Y289068D01*
X225792Y288960D01*
X225827Y288851D01*
X225858Y288741D01*
X225886Y288630D01*
X225909Y288518D01*
X225929Y288405D01*
X225945Y288292D01*
X225957Y288178D01*
X225965Y288064D01*
X225969Y287949D01*
X225969Y287835D01*
X225965Y287720D01*
X225957Y287606D01*
X225945Y287492D01*
X225929Y287379D01*
X225909Y287266D01*
X225886Y287154D01*
X225858Y287043D01*
X225827Y286933D01*
X225792Y286824D01*
X225754Y286716D01*
X225711Y286610D01*
X225665Y286505D01*
X225615Y286402D01*
X225562Y286301D01*
X225505Y286201D01*
X225445Y286104D01*
X225382Y286008D01*
X225315Y285915D01*
X225246Y285825D01*
X225173Y285736D01*
X225097Y285651D01*
X225018Y285568D01*
X224936Y285487D01*
X224852Y285410D01*
X224765Y285336D01*
X224675Y285264D01*
X224584Y285196D01*
X224489Y285131D01*
X224393Y285069D01*
X224294Y285011D01*
X224194Y284956D01*
X224092Y284904D01*
X223988Y284857D01*
X223882Y284812D01*
X223775Y284772D01*
X223667Y284735D01*
X223557Y284702D01*
X223447Y284672D01*
X223335Y284647D01*
X223223Y284625D01*
X223109Y284608D01*
X222996Y284594D01*
X222882Y284584D01*
X222767Y284578D01*
X222653Y284576D01*
X217347Y284576D01*
X217233Y284578D01*
X217118Y284584D01*
X217004Y284594D01*
X216891Y284608D01*
X216777Y284625D01*
X216665Y284647D01*
X216553Y284672D01*
X216443Y284702D01*
X216333Y284735D01*
X216225Y284772D01*
X216118Y284812D01*
X216012Y284857D01*
X215908Y284904D01*
X215806Y284956D01*
X215706Y285011D01*
X215607Y285069D01*
X215511Y285131D01*
X215416Y285196D01*
X215325Y285264D01*
X215235Y285336D01*
X215148Y285410D01*
X215064Y285487D01*
X214982Y285568D01*
X214903Y285651D01*
X214827Y285736D01*
X214754Y285825D01*
X214685Y285915D01*
X214618Y286008D01*
X214555Y286104D01*
X214495Y286201D01*
X214438Y286301D01*
X214385Y286402D01*
X214335Y286505D01*
X214289Y286610D01*
X214246Y286716D01*
X214208Y286824D01*
X214173Y286933D01*
X214142Y287043D01*
X214114Y287154D01*
X214091Y287266D01*
X214071Y287379D01*
X214055Y287492D01*
X214043Y287606D01*
X214035Y287720D01*
X214031Y287835D01*
X214031Y287949D01*
X214035Y288064D01*
X214043Y288178D01*
X214055Y288292D01*
X214071Y288405D01*
X214091Y288518D01*
X214114Y288630D01*
X214142Y288741D01*
X214173Y288851D01*
X214208Y288960D01*
X214246Y289068D01*
X214289Y289174D01*
X214335Y289279D01*
X214385Y289382D01*
X214438Y289483D01*
X214495Y289583D01*
X214555Y289680D01*
X214618Y289776D01*
X214685Y289869D01*
X214754Y289959D01*
X214827Y290048D01*
X214903Y290133D01*
X214982Y290216D01*
X215064Y290297D01*
X215148Y290374D01*
X215235Y290448D01*
X215325Y290520D01*
X215416Y290588D01*
X215511Y290653D01*
X215607Y290715D01*
X215706Y290773D01*
X215806Y290828D01*
X215908Y290880D01*
X216012Y290927D01*
X216118Y290972D01*
X216225Y291012D01*
X216333Y291049D01*
X216443Y291082D01*
X216553Y291112D01*
X216665Y291137D01*
X216777Y291159D01*
X216891Y291176D01*
X217004Y291190D01*
X217118Y291200D01*
X217233Y291206D01*
X217347Y291208D01*
X214031Y280261D02*
X214031Y279597D01*
X214031Y280261D02*
X214694Y280261D01*
X214694Y279597D01*
X214031Y279597D01*
X211378Y280592D01*
X214031Y274806D02*
X214031Y269500D01*
X214031Y274806D02*
X225969Y274806D01*
X225969Y269500D01*
X220663Y270826D02*
X220663Y274806D01*
X225969Y264900D02*
X214031Y264900D01*
X214031Y259594D01*
X212704Y255716D02*
X212916Y255543D01*
X213131Y255375D01*
X213351Y255213D01*
X213574Y255055D01*
X213801Y254904D01*
X214032Y254757D01*
X214266Y254616D01*
X214504Y254481D01*
X214744Y254352D01*
X214988Y254229D01*
X215235Y254111D01*
X215484Y253999D01*
X215736Y253894D01*
X215990Y253794D01*
X216247Y253701D01*
X216506Y253614D01*
X216767Y253533D01*
X217030Y253458D01*
X217294Y253390D01*
X217560Y253328D01*
X217828Y253273D01*
X218097Y253224D01*
X218367Y253181D01*
X218637Y253145D01*
X218909Y253116D01*
X219181Y253093D01*
X219454Y253076D01*
X219727Y253066D01*
X220000Y253063D01*
X220273Y253066D01*
X220546Y253076D01*
X220819Y253093D01*
X221091Y253116D01*
X221363Y253145D01*
X221633Y253181D01*
X221903Y253224D01*
X222172Y253273D01*
X222440Y253328D01*
X222706Y253390D01*
X222970Y253458D01*
X223233Y253533D01*
X223494Y253614D01*
X223753Y253701D01*
X224010Y253794D01*
X224264Y253894D01*
X224516Y253999D01*
X224765Y254111D01*
X225012Y254229D01*
X225256Y254352D01*
X225496Y254481D01*
X225734Y254616D01*
X225968Y254757D01*
X226199Y254904D01*
X226426Y255055D01*
X226649Y255213D01*
X226869Y255375D01*
X227084Y255543D01*
X227296Y255716D01*
D11*
X231200Y200000D02*
X739200Y200000D01*
X231200Y200000D02*
X231200Y80000D01*
X739200Y80000D01*
X739200Y139000D01*
X739200Y161000D02*
X739200Y200000D01*
D15*
X744000Y150000D02*
X744002Y150063D01*
X744008Y150125D01*
X744018Y150187D01*
X744031Y150249D01*
X744049Y150309D01*
X744070Y150368D01*
X744095Y150426D01*
X744124Y150482D01*
X744156Y150536D01*
X744191Y150588D01*
X744229Y150637D01*
X744271Y150685D01*
X744315Y150729D01*
X744363Y150771D01*
X744412Y150809D01*
X744464Y150844D01*
X744518Y150876D01*
X744574Y150905D01*
X744632Y150930D01*
X744691Y150951D01*
X744751Y150969D01*
X744813Y150982D01*
X744875Y150992D01*
X744937Y150998D01*
X745000Y151000D01*
X745063Y150998D01*
X745125Y150992D01*
X745187Y150982D01*
X745249Y150969D01*
X745309Y150951D01*
X745368Y150930D01*
X745426Y150905D01*
X745482Y150876D01*
X745536Y150844D01*
X745588Y150809D01*
X745637Y150771D01*
X745685Y150729D01*
X745729Y150685D01*
X745771Y150637D01*
X745809Y150588D01*
X745844Y150536D01*
X745876Y150482D01*
X745905Y150426D01*
X745930Y150368D01*
X745951Y150309D01*
X745969Y150249D01*
X745982Y150187D01*
X745992Y150125D01*
X745998Y150063D01*
X746000Y150000D01*
X745998Y149937D01*
X745992Y149875D01*
X745982Y149813D01*
X745969Y149751D01*
X745951Y149691D01*
X745930Y149632D01*
X745905Y149574D01*
X745876Y149518D01*
X745844Y149464D01*
X745809Y149412D01*
X745771Y149363D01*
X745729Y149315D01*
X745685Y149271D01*
X745637Y149229D01*
X745588Y149191D01*
X745536Y149156D01*
X745482Y149124D01*
X745426Y149095D01*
X745368Y149070D01*
X745309Y149049D01*
X745249Y149031D01*
X745187Y149018D01*
X745125Y149008D01*
X745063Y149002D01*
X745000Y149000D01*
X744937Y149002D01*
X744875Y149008D01*
X744813Y149018D01*
X744751Y149031D01*
X744691Y149049D01*
X744632Y149070D01*
X744574Y149095D01*
X744518Y149124D01*
X744464Y149156D01*
X744412Y149191D01*
X744363Y149229D01*
X744315Y149271D01*
X744271Y149315D01*
X744229Y149363D01*
X744191Y149412D01*
X744156Y149464D01*
X744124Y149518D01*
X744095Y149574D01*
X744070Y149632D01*
X744049Y149691D01*
X744031Y149751D01*
X744018Y149813D01*
X744008Y149875D01*
X744002Y149937D01*
X744000Y150000D01*
D12*
X731176Y73546D02*
X731176Y69054D01*
X731176Y73546D02*
X732424Y73546D01*
X732493Y73544D01*
X732561Y73538D01*
X732629Y73529D01*
X732697Y73516D01*
X732764Y73499D01*
X732829Y73478D01*
X732894Y73454D01*
X732957Y73427D01*
X733018Y73396D01*
X733078Y73361D01*
X733135Y73324D01*
X733191Y73283D01*
X733244Y73239D01*
X733294Y73193D01*
X733342Y73143D01*
X733387Y73091D01*
X733430Y73037D01*
X733469Y72981D01*
X733505Y72922D01*
X733538Y72862D01*
X733567Y72799D01*
X733593Y72736D01*
X733615Y72671D01*
X733634Y72604D01*
X733649Y72537D01*
X733660Y72469D01*
X733668Y72401D01*
X733672Y72332D01*
X733672Y72264D01*
X733668Y72195D01*
X733660Y72127D01*
X733649Y72059D01*
X733634Y71992D01*
X733615Y71925D01*
X733593Y71860D01*
X733567Y71797D01*
X733538Y71734D01*
X733505Y71674D01*
X733469Y71615D01*
X733430Y71559D01*
X733387Y71505D01*
X733342Y71453D01*
X733294Y71403D01*
X733244Y71357D01*
X733191Y71313D01*
X733135Y71272D01*
X733078Y71235D01*
X733018Y71200D01*
X732957Y71169D01*
X732894Y71142D01*
X732829Y71118D01*
X732764Y71097D01*
X732697Y71080D01*
X732629Y71067D01*
X732561Y71058D01*
X732493Y71052D01*
X732424Y71050D01*
X731176Y71050D01*
X736798Y69054D02*
X736861Y69056D01*
X736923Y69062D01*
X736985Y69072D01*
X737046Y69085D01*
X737106Y69103D01*
X737165Y69124D01*
X737223Y69149D01*
X737279Y69177D01*
X737333Y69209D01*
X737385Y69245D01*
X737434Y69283D01*
X737481Y69325D01*
X737526Y69369D01*
X737567Y69416D01*
X737605Y69465D01*
X737641Y69517D01*
X737673Y69571D01*
X737701Y69627D01*
X737726Y69685D01*
X737747Y69744D01*
X737765Y69804D01*
X737778Y69865D01*
X737788Y69927D01*
X737794Y69989D01*
X737796Y70052D01*
X736798Y69054D02*
X736710Y69056D01*
X736623Y69061D01*
X736536Y69070D01*
X736449Y69083D01*
X736363Y69099D01*
X736278Y69119D01*
X736193Y69143D01*
X736110Y69169D01*
X736027Y69200D01*
X735947Y69234D01*
X735867Y69271D01*
X735789Y69311D01*
X735713Y69354D01*
X735639Y69401D01*
X735567Y69451D01*
X735497Y69503D01*
X735429Y69559D01*
X735363Y69617D01*
X735300Y69678D01*
X735426Y72548D02*
X735428Y72608D01*
X735433Y72668D01*
X735442Y72728D01*
X735455Y72787D01*
X735471Y72845D01*
X735491Y72902D01*
X735514Y72958D01*
X735540Y73012D01*
X735570Y73064D01*
X735603Y73115D01*
X735638Y73163D01*
X735677Y73210D01*
X735718Y73254D01*
X735762Y73295D01*
X735809Y73334D01*
X735857Y73369D01*
X735908Y73402D01*
X735960Y73432D01*
X736014Y73458D01*
X736070Y73481D01*
X736127Y73501D01*
X736185Y73517D01*
X736244Y73530D01*
X736304Y73539D01*
X736364Y73544D01*
X736424Y73546D01*
X736510Y73544D01*
X736596Y73538D01*
X736681Y73528D01*
X736766Y73514D01*
X736850Y73497D01*
X736934Y73475D01*
X737016Y73450D01*
X737097Y73421D01*
X737177Y73388D01*
X737254Y73352D01*
X737331Y73312D01*
X737405Y73268D01*
X737477Y73222D01*
X737547Y73172D01*
X735924Y71674D02*
X735872Y71707D01*
X735822Y71744D01*
X735774Y71783D01*
X735728Y71825D01*
X735685Y71870D01*
X735645Y71917D01*
X735608Y71966D01*
X735574Y72018D01*
X735544Y72072D01*
X735516Y72128D01*
X735492Y72185D01*
X735472Y72243D01*
X735455Y72303D01*
X735442Y72363D01*
X735433Y72424D01*
X735427Y72486D01*
X735425Y72548D01*
X737297Y70926D02*
X737349Y70893D01*
X737399Y70856D01*
X737447Y70817D01*
X737493Y70775D01*
X737536Y70730D01*
X737576Y70683D01*
X737613Y70634D01*
X737647Y70582D01*
X737677Y70528D01*
X737705Y70472D01*
X737729Y70415D01*
X737749Y70357D01*
X737766Y70297D01*
X737779Y70237D01*
X737788Y70176D01*
X737794Y70114D01*
X737796Y70052D01*
X737297Y70926D02*
X735924Y71674D01*
X739650Y72548D02*
X740898Y73546D01*
X740898Y69054D01*
X739650Y69054D02*
X742146Y69054D01*
D10*
X55310Y182530D02*
X55310Y284892D01*
X55310Y182530D02*
X163006Y182530D01*
X163006Y284892D01*
X55310Y284892D01*
D16*
X106110Y298862D02*
X105988Y298864D01*
X105866Y298870D01*
X105744Y298880D01*
X105623Y298893D01*
X105502Y298911D01*
X105382Y298932D01*
X105262Y298958D01*
X105144Y298987D01*
X105026Y299019D01*
X104909Y299056D01*
X104794Y299096D01*
X104680Y299140D01*
X104568Y299188D01*
X104457Y299239D01*
X104348Y299294D01*
X104240Y299352D01*
X104135Y299414D01*
X104032Y299479D01*
X103930Y299547D01*
X103831Y299619D01*
X103735Y299693D01*
X103640Y299771D01*
X103549Y299852D01*
X103459Y299935D01*
X103373Y300021D01*
X103290Y300111D01*
X103209Y300202D01*
X103131Y300297D01*
X103057Y300393D01*
X102985Y300492D01*
X102917Y300594D01*
X102852Y300697D01*
X102790Y300802D01*
X102732Y300910D01*
X102677Y301019D01*
X102626Y301130D01*
X102578Y301242D01*
X102534Y301356D01*
X102494Y301471D01*
X102457Y301588D01*
X102425Y301706D01*
X102396Y301824D01*
X102370Y301944D01*
X102349Y302064D01*
X102331Y302185D01*
X102318Y302306D01*
X102308Y302428D01*
X102302Y302550D01*
X102300Y302672D01*
X102302Y302794D01*
X102308Y302916D01*
X102318Y303038D01*
X102331Y303159D01*
X102349Y303280D01*
X102370Y303400D01*
X102396Y303520D01*
X102425Y303638D01*
X102457Y303756D01*
X102494Y303873D01*
X102534Y303988D01*
X102578Y304102D01*
X102626Y304214D01*
X102677Y304325D01*
X102732Y304434D01*
X102790Y304542D01*
X102852Y304647D01*
X102917Y304750D01*
X102985Y304852D01*
X103057Y304951D01*
X103131Y305047D01*
X103209Y305142D01*
X103290Y305233D01*
X103373Y305323D01*
X103459Y305409D01*
X103549Y305492D01*
X103640Y305573D01*
X103735Y305651D01*
X103831Y305725D01*
X103930Y305797D01*
X104032Y305865D01*
X104135Y305930D01*
X104240Y305992D01*
X104348Y306050D01*
X104457Y306105D01*
X104568Y306156D01*
X104680Y306204D01*
X104794Y306248D01*
X104909Y306288D01*
X105026Y306325D01*
X105144Y306357D01*
X105262Y306386D01*
X105382Y306412D01*
X105502Y306433D01*
X105623Y306451D01*
X105744Y306464D01*
X105866Y306474D01*
X105988Y306480D01*
X106110Y306482D01*
X106232Y306480D01*
X106354Y306474D01*
X106476Y306464D01*
X106597Y306451D01*
X106718Y306433D01*
X106838Y306412D01*
X106958Y306386D01*
X107076Y306357D01*
X107194Y306325D01*
X107311Y306288D01*
X107426Y306248D01*
X107540Y306204D01*
X107652Y306156D01*
X107763Y306105D01*
X107872Y306050D01*
X107980Y305992D01*
X108085Y305930D01*
X108188Y305865D01*
X108290Y305797D01*
X108389Y305725D01*
X108485Y305651D01*
X108580Y305573D01*
X108671Y305492D01*
X108761Y305409D01*
X108847Y305323D01*
X108930Y305233D01*
X109011Y305142D01*
X109089Y305047D01*
X109163Y304951D01*
X109235Y304852D01*
X109303Y304750D01*
X109368Y304647D01*
X109430Y304542D01*
X109488Y304434D01*
X109543Y304325D01*
X109594Y304214D01*
X109642Y304102D01*
X109686Y303988D01*
X109726Y303873D01*
X109763Y303756D01*
X109795Y303638D01*
X109824Y303520D01*
X109850Y303400D01*
X109871Y303280D01*
X109889Y303159D01*
X109902Y303038D01*
X109912Y302916D01*
X109918Y302794D01*
X109920Y302672D01*
X109918Y302550D01*
X109912Y302428D01*
X109902Y302306D01*
X109889Y302185D01*
X109871Y302064D01*
X109850Y301944D01*
X109824Y301824D01*
X109795Y301706D01*
X109763Y301588D01*
X109726Y301471D01*
X109686Y301356D01*
X109642Y301242D01*
X109594Y301130D01*
X109543Y301019D01*
X109488Y300910D01*
X109430Y300802D01*
X109368Y300697D01*
X109303Y300594D01*
X109235Y300492D01*
X109163Y300393D01*
X109089Y300297D01*
X109011Y300202D01*
X108930Y300111D01*
X108847Y300021D01*
X108761Y299935D01*
X108671Y299852D01*
X108580Y299771D01*
X108485Y299693D01*
X108389Y299619D01*
X108290Y299547D01*
X108188Y299479D01*
X108085Y299414D01*
X107980Y299352D01*
X107872Y299294D01*
X107763Y299239D01*
X107652Y299188D01*
X107540Y299140D01*
X107426Y299096D01*
X107311Y299056D01*
X107194Y299019D01*
X107076Y298987D01*
X106958Y298958D01*
X106838Y298932D01*
X106718Y298911D01*
X106597Y298893D01*
X106476Y298880D01*
X106354Y298870D01*
X106232Y298864D01*
X106110Y298862D01*
D10*
X54630Y178582D02*
X54630Y76220D01*
X162326Y76220D01*
X162326Y178582D01*
X54630Y178582D01*
D16*
X105430Y192552D02*
X105308Y192554D01*
X105186Y192560D01*
X105064Y192570D01*
X104943Y192583D01*
X104822Y192601D01*
X104702Y192622D01*
X104582Y192648D01*
X104464Y192677D01*
X104346Y192709D01*
X104229Y192746D01*
X104114Y192786D01*
X104000Y192830D01*
X103888Y192878D01*
X103777Y192929D01*
X103668Y192984D01*
X103560Y193042D01*
X103455Y193104D01*
X103352Y193169D01*
X103250Y193237D01*
X103151Y193309D01*
X103055Y193383D01*
X102960Y193461D01*
X102869Y193542D01*
X102779Y193625D01*
X102693Y193711D01*
X102610Y193801D01*
X102529Y193892D01*
X102451Y193987D01*
X102377Y194083D01*
X102305Y194182D01*
X102237Y194284D01*
X102172Y194387D01*
X102110Y194492D01*
X102052Y194600D01*
X101997Y194709D01*
X101946Y194820D01*
X101898Y194932D01*
X101854Y195046D01*
X101814Y195161D01*
X101777Y195278D01*
X101745Y195396D01*
X101716Y195514D01*
X101690Y195634D01*
X101669Y195754D01*
X101651Y195875D01*
X101638Y195996D01*
X101628Y196118D01*
X101622Y196240D01*
X101620Y196362D01*
X101622Y196484D01*
X101628Y196606D01*
X101638Y196728D01*
X101651Y196849D01*
X101669Y196970D01*
X101690Y197090D01*
X101716Y197210D01*
X101745Y197328D01*
X101777Y197446D01*
X101814Y197563D01*
X101854Y197678D01*
X101898Y197792D01*
X101946Y197904D01*
X101997Y198015D01*
X102052Y198124D01*
X102110Y198232D01*
X102172Y198337D01*
X102237Y198440D01*
X102305Y198542D01*
X102377Y198641D01*
X102451Y198737D01*
X102529Y198832D01*
X102610Y198923D01*
X102693Y199013D01*
X102779Y199099D01*
X102869Y199182D01*
X102960Y199263D01*
X103055Y199341D01*
X103151Y199415D01*
X103250Y199487D01*
X103352Y199555D01*
X103455Y199620D01*
X103560Y199682D01*
X103668Y199740D01*
X103777Y199795D01*
X103888Y199846D01*
X104000Y199894D01*
X104114Y199938D01*
X104229Y199978D01*
X104346Y200015D01*
X104464Y200047D01*
X104582Y200076D01*
X104702Y200102D01*
X104822Y200123D01*
X104943Y200141D01*
X105064Y200154D01*
X105186Y200164D01*
X105308Y200170D01*
X105430Y200172D01*
X105552Y200170D01*
X105674Y200164D01*
X105796Y200154D01*
X105917Y200141D01*
X106038Y200123D01*
X106158Y200102D01*
X106278Y200076D01*
X106396Y200047D01*
X106514Y200015D01*
X106631Y199978D01*
X106746Y199938D01*
X106860Y199894D01*
X106972Y199846D01*
X107083Y199795D01*
X107192Y199740D01*
X107300Y199682D01*
X107405Y199620D01*
X107508Y199555D01*
X107610Y199487D01*
X107709Y199415D01*
X107805Y199341D01*
X107900Y199263D01*
X107991Y199182D01*
X108081Y199099D01*
X108167Y199013D01*
X108250Y198923D01*
X108331Y198832D01*
X108409Y198737D01*
X108483Y198641D01*
X108555Y198542D01*
X108623Y198440D01*
X108688Y198337D01*
X108750Y198232D01*
X108808Y198124D01*
X108863Y198015D01*
X108914Y197904D01*
X108962Y197792D01*
X109006Y197678D01*
X109046Y197563D01*
X109083Y197446D01*
X109115Y197328D01*
X109144Y197210D01*
X109170Y197090D01*
X109191Y196970D01*
X109209Y196849D01*
X109222Y196728D01*
X109232Y196606D01*
X109238Y196484D01*
X109240Y196362D01*
X109238Y196240D01*
X109232Y196118D01*
X109222Y195996D01*
X109209Y195875D01*
X109191Y195754D01*
X109170Y195634D01*
X109144Y195514D01*
X109115Y195396D01*
X109083Y195278D01*
X109046Y195161D01*
X109006Y195046D01*
X108962Y194932D01*
X108914Y194820D01*
X108863Y194709D01*
X108808Y194600D01*
X108750Y194492D01*
X108688Y194387D01*
X108623Y194284D01*
X108555Y194182D01*
X108483Y194083D01*
X108409Y193987D01*
X108331Y193892D01*
X108250Y193801D01*
X108167Y193711D01*
X108081Y193625D01*
X107991Y193542D01*
X107900Y193461D01*
X107805Y193383D01*
X107709Y193309D01*
X107610Y193237D01*
X107508Y193169D01*
X107405Y193104D01*
X107300Y193042D01*
X107192Y192984D01*
X107083Y192929D01*
X106972Y192878D01*
X106860Y192830D01*
X106746Y192786D01*
X106631Y192746D01*
X106514Y192709D01*
X106396Y192677D01*
X106278Y192648D01*
X106158Y192622D01*
X106038Y192601D01*
X105917Y192583D01*
X105796Y192570D01*
X105674Y192560D01*
X105552Y192554D01*
X105430Y192552D01*
D10*
X53910Y419400D02*
X53910Y521762D01*
X53910Y419400D02*
X161606Y419400D01*
X161606Y521762D01*
X53910Y521762D01*
D16*
X104710Y535732D02*
X104588Y535734D01*
X104466Y535740D01*
X104344Y535750D01*
X104223Y535763D01*
X104102Y535781D01*
X103982Y535802D01*
X103862Y535828D01*
X103744Y535857D01*
X103626Y535889D01*
X103509Y535926D01*
X103394Y535966D01*
X103280Y536010D01*
X103168Y536058D01*
X103057Y536109D01*
X102948Y536164D01*
X102840Y536222D01*
X102735Y536284D01*
X102632Y536349D01*
X102530Y536417D01*
X102431Y536489D01*
X102335Y536563D01*
X102240Y536641D01*
X102149Y536722D01*
X102059Y536805D01*
X101973Y536891D01*
X101890Y536981D01*
X101809Y537072D01*
X101731Y537167D01*
X101657Y537263D01*
X101585Y537362D01*
X101517Y537464D01*
X101452Y537567D01*
X101390Y537672D01*
X101332Y537780D01*
X101277Y537889D01*
X101226Y538000D01*
X101178Y538112D01*
X101134Y538226D01*
X101094Y538341D01*
X101057Y538458D01*
X101025Y538576D01*
X100996Y538694D01*
X100970Y538814D01*
X100949Y538934D01*
X100931Y539055D01*
X100918Y539176D01*
X100908Y539298D01*
X100902Y539420D01*
X100900Y539542D01*
X100902Y539664D01*
X100908Y539786D01*
X100918Y539908D01*
X100931Y540029D01*
X100949Y540150D01*
X100970Y540270D01*
X100996Y540390D01*
X101025Y540508D01*
X101057Y540626D01*
X101094Y540743D01*
X101134Y540858D01*
X101178Y540972D01*
X101226Y541084D01*
X101277Y541195D01*
X101332Y541304D01*
X101390Y541412D01*
X101452Y541517D01*
X101517Y541620D01*
X101585Y541722D01*
X101657Y541821D01*
X101731Y541917D01*
X101809Y542012D01*
X101890Y542103D01*
X101973Y542193D01*
X102059Y542279D01*
X102149Y542362D01*
X102240Y542443D01*
X102335Y542521D01*
X102431Y542595D01*
X102530Y542667D01*
X102632Y542735D01*
X102735Y542800D01*
X102840Y542862D01*
X102948Y542920D01*
X103057Y542975D01*
X103168Y543026D01*
X103280Y543074D01*
X103394Y543118D01*
X103509Y543158D01*
X103626Y543195D01*
X103744Y543227D01*
X103862Y543256D01*
X103982Y543282D01*
X104102Y543303D01*
X104223Y543321D01*
X104344Y543334D01*
X104466Y543344D01*
X104588Y543350D01*
X104710Y543352D01*
X104832Y543350D01*
X104954Y543344D01*
X105076Y543334D01*
X105197Y543321D01*
X105318Y543303D01*
X105438Y543282D01*
X105558Y543256D01*
X105676Y543227D01*
X105794Y543195D01*
X105911Y543158D01*
X106026Y543118D01*
X106140Y543074D01*
X106252Y543026D01*
X106363Y542975D01*
X106472Y542920D01*
X106580Y542862D01*
X106685Y542800D01*
X106788Y542735D01*
X106890Y542667D01*
X106989Y542595D01*
X107085Y542521D01*
X107180Y542443D01*
X107271Y542362D01*
X107361Y542279D01*
X107447Y542193D01*
X107530Y542103D01*
X107611Y542012D01*
X107689Y541917D01*
X107763Y541821D01*
X107835Y541722D01*
X107903Y541620D01*
X107968Y541517D01*
X108030Y541412D01*
X108088Y541304D01*
X108143Y541195D01*
X108194Y541084D01*
X108242Y540972D01*
X108286Y540858D01*
X108326Y540743D01*
X108363Y540626D01*
X108395Y540508D01*
X108424Y540390D01*
X108450Y540270D01*
X108471Y540150D01*
X108489Y540029D01*
X108502Y539908D01*
X108512Y539786D01*
X108518Y539664D01*
X108520Y539542D01*
X108518Y539420D01*
X108512Y539298D01*
X108502Y539176D01*
X108489Y539055D01*
X108471Y538934D01*
X108450Y538814D01*
X108424Y538694D01*
X108395Y538576D01*
X108363Y538458D01*
X108326Y538341D01*
X108286Y538226D01*
X108242Y538112D01*
X108194Y538000D01*
X108143Y537889D01*
X108088Y537780D01*
X108030Y537672D01*
X107968Y537567D01*
X107903Y537464D01*
X107835Y537362D01*
X107763Y537263D01*
X107689Y537167D01*
X107611Y537072D01*
X107530Y536981D01*
X107447Y536891D01*
X107361Y536805D01*
X107271Y536722D01*
X107180Y536641D01*
X107085Y536563D01*
X106989Y536489D01*
X106890Y536417D01*
X106788Y536349D01*
X106685Y536284D01*
X106580Y536222D01*
X106472Y536164D01*
X106363Y536109D01*
X106252Y536058D01*
X106140Y536010D01*
X106026Y535966D01*
X105911Y535926D01*
X105794Y535889D01*
X105676Y535857D01*
X105558Y535828D01*
X105438Y535802D01*
X105318Y535781D01*
X105197Y535763D01*
X105076Y535750D01*
X104954Y535740D01*
X104832Y535734D01*
X104710Y535732D01*
D12*
X188477Y400716D02*
X188477Y396224D01*
X188477Y400716D02*
X189725Y400716D01*
X189794Y400714D01*
X189862Y400708D01*
X189930Y400699D01*
X189998Y400686D01*
X190065Y400669D01*
X190130Y400648D01*
X190195Y400624D01*
X190258Y400597D01*
X190319Y400566D01*
X190379Y400531D01*
X190436Y400494D01*
X190492Y400453D01*
X190545Y400409D01*
X190595Y400363D01*
X190643Y400313D01*
X190688Y400261D01*
X190731Y400207D01*
X190770Y400151D01*
X190806Y400092D01*
X190839Y400032D01*
X190868Y399969D01*
X190894Y399906D01*
X190916Y399841D01*
X190935Y399774D01*
X190950Y399707D01*
X190961Y399639D01*
X190969Y399571D01*
X190973Y399502D01*
X190973Y399434D01*
X190969Y399365D01*
X190961Y399297D01*
X190950Y399229D01*
X190935Y399162D01*
X190916Y399095D01*
X190894Y399030D01*
X190868Y398967D01*
X190839Y398904D01*
X190806Y398844D01*
X190770Y398785D01*
X190731Y398729D01*
X190688Y398675D01*
X190643Y398623D01*
X190595Y398573D01*
X190545Y398527D01*
X190492Y398483D01*
X190436Y398442D01*
X190379Y398405D01*
X190319Y398370D01*
X190258Y398339D01*
X190195Y398312D01*
X190130Y398288D01*
X190065Y398267D01*
X189998Y398250D01*
X189930Y398237D01*
X189862Y398228D01*
X189794Y398222D01*
X189725Y398220D01*
X188477Y398220D01*
X189975Y398220D02*
X190973Y396224D01*
X192944Y397472D02*
X192944Y399468D01*
X192946Y399537D01*
X192952Y399605D01*
X192961Y399673D01*
X192974Y399741D01*
X192991Y399808D01*
X193012Y399873D01*
X193036Y399938D01*
X193063Y400001D01*
X193094Y400062D01*
X193129Y400122D01*
X193166Y400179D01*
X193207Y400235D01*
X193251Y400288D01*
X193297Y400338D01*
X193347Y400386D01*
X193399Y400431D01*
X193453Y400474D01*
X193509Y400513D01*
X193568Y400549D01*
X193628Y400582D01*
X193691Y400611D01*
X193754Y400637D01*
X193819Y400659D01*
X193886Y400678D01*
X193953Y400693D01*
X194021Y400704D01*
X194089Y400712D01*
X194158Y400716D01*
X194226Y400716D01*
X194295Y400712D01*
X194363Y400704D01*
X194431Y400693D01*
X194498Y400678D01*
X194565Y400659D01*
X194630Y400637D01*
X194693Y400611D01*
X194756Y400582D01*
X194816Y400549D01*
X194875Y400513D01*
X194931Y400474D01*
X194985Y400431D01*
X195037Y400386D01*
X195087Y400338D01*
X195133Y400288D01*
X195177Y400235D01*
X195218Y400179D01*
X195255Y400122D01*
X195290Y400062D01*
X195321Y400001D01*
X195348Y399938D01*
X195372Y399873D01*
X195393Y399808D01*
X195410Y399741D01*
X195423Y399673D01*
X195432Y399605D01*
X195438Y399537D01*
X195440Y399468D01*
X195440Y397472D01*
X195438Y397403D01*
X195432Y397335D01*
X195423Y397267D01*
X195410Y397199D01*
X195393Y397132D01*
X195372Y397067D01*
X195348Y397002D01*
X195321Y396939D01*
X195290Y396878D01*
X195255Y396818D01*
X195218Y396761D01*
X195177Y396705D01*
X195133Y396652D01*
X195087Y396602D01*
X195037Y396554D01*
X194985Y396509D01*
X194931Y396466D01*
X194875Y396427D01*
X194816Y396391D01*
X194756Y396358D01*
X194693Y396329D01*
X194630Y396303D01*
X194565Y396281D01*
X194498Y396262D01*
X194431Y396247D01*
X194363Y396236D01*
X194295Y396228D01*
X194226Y396224D01*
X194158Y396224D01*
X194089Y396228D01*
X194021Y396236D01*
X193953Y396247D01*
X193886Y396262D01*
X193819Y396281D01*
X193754Y396303D01*
X193691Y396329D01*
X193628Y396358D01*
X193568Y396391D01*
X193509Y396427D01*
X193453Y396466D01*
X193399Y396509D01*
X193347Y396554D01*
X193297Y396602D01*
X193251Y396652D01*
X193207Y396705D01*
X193166Y396761D01*
X193129Y396818D01*
X193094Y396878D01*
X193063Y396939D01*
X193036Y397002D01*
X193012Y397067D01*
X192991Y397132D01*
X192974Y397199D01*
X192961Y397267D01*
X192952Y397335D01*
X192946Y397403D01*
X192944Y397472D01*
X198792Y396224D02*
X198855Y396226D01*
X198917Y396232D01*
X198979Y396242D01*
X199040Y396255D01*
X199100Y396273D01*
X199159Y396294D01*
X199217Y396319D01*
X199273Y396347D01*
X199327Y396379D01*
X199379Y396415D01*
X199428Y396453D01*
X199475Y396495D01*
X199520Y396539D01*
X199561Y396586D01*
X199599Y396635D01*
X199635Y396687D01*
X199667Y396741D01*
X199695Y396797D01*
X199720Y396855D01*
X199741Y396914D01*
X199759Y396974D01*
X199772Y397035D01*
X199782Y397097D01*
X199788Y397159D01*
X199790Y397222D01*
X198792Y396224D02*
X198704Y396226D01*
X198617Y396231D01*
X198530Y396240D01*
X198443Y396253D01*
X198357Y396269D01*
X198272Y396289D01*
X198187Y396313D01*
X198104Y396339D01*
X198021Y396370D01*
X197941Y396404D01*
X197861Y396441D01*
X197783Y396481D01*
X197707Y396524D01*
X197633Y396571D01*
X197561Y396621D01*
X197491Y396673D01*
X197423Y396729D01*
X197357Y396787D01*
X197294Y396848D01*
X197419Y399718D02*
X197421Y399778D01*
X197426Y399838D01*
X197435Y399898D01*
X197448Y399957D01*
X197464Y400015D01*
X197484Y400072D01*
X197507Y400128D01*
X197533Y400182D01*
X197563Y400234D01*
X197596Y400285D01*
X197631Y400333D01*
X197670Y400380D01*
X197711Y400424D01*
X197755Y400465D01*
X197802Y400504D01*
X197850Y400539D01*
X197901Y400572D01*
X197953Y400602D01*
X198007Y400628D01*
X198063Y400651D01*
X198120Y400671D01*
X198178Y400687D01*
X198237Y400700D01*
X198297Y400709D01*
X198357Y400714D01*
X198417Y400716D01*
X198503Y400714D01*
X198589Y400708D01*
X198674Y400698D01*
X198759Y400684D01*
X198843Y400667D01*
X198927Y400645D01*
X199009Y400620D01*
X199090Y400591D01*
X199170Y400558D01*
X199247Y400522D01*
X199324Y400482D01*
X199398Y400438D01*
X199470Y400392D01*
X199540Y400342D01*
X197918Y398844D02*
X197866Y398877D01*
X197816Y398914D01*
X197768Y398953D01*
X197722Y398995D01*
X197679Y399040D01*
X197639Y399087D01*
X197602Y399136D01*
X197568Y399188D01*
X197538Y399242D01*
X197510Y399298D01*
X197486Y399355D01*
X197466Y399413D01*
X197449Y399473D01*
X197436Y399533D01*
X197427Y399594D01*
X197421Y399656D01*
X197419Y399718D01*
X199291Y398096D02*
X199343Y398063D01*
X199393Y398026D01*
X199441Y397987D01*
X199487Y397945D01*
X199530Y397900D01*
X199570Y397853D01*
X199607Y397804D01*
X199641Y397752D01*
X199671Y397698D01*
X199699Y397642D01*
X199723Y397585D01*
X199743Y397527D01*
X199760Y397467D01*
X199773Y397407D01*
X199782Y397346D01*
X199788Y397284D01*
X199790Y397222D01*
X199291Y398096D02*
X197918Y398844D01*
X202628Y396224D02*
X203626Y396224D01*
X202628Y396224D02*
X202568Y396226D01*
X202508Y396231D01*
X202448Y396240D01*
X202389Y396253D01*
X202331Y396269D01*
X202274Y396289D01*
X202218Y396312D01*
X202164Y396338D01*
X202112Y396368D01*
X202061Y396401D01*
X202013Y396436D01*
X201966Y396475D01*
X201922Y396516D01*
X201881Y396560D01*
X201842Y396607D01*
X201807Y396655D01*
X201774Y396706D01*
X201744Y396758D01*
X201718Y396812D01*
X201695Y396868D01*
X201675Y396925D01*
X201659Y396983D01*
X201646Y397042D01*
X201637Y397102D01*
X201632Y397162D01*
X201630Y397222D01*
X201630Y399718D01*
X201632Y399781D01*
X201638Y399843D01*
X201648Y399905D01*
X201661Y399966D01*
X201679Y400026D01*
X201700Y400085D01*
X201725Y400143D01*
X201753Y400199D01*
X201785Y400253D01*
X201821Y400305D01*
X201859Y400354D01*
X201900Y400401D01*
X201945Y400445D01*
X201992Y400487D01*
X202041Y400525D01*
X202093Y400561D01*
X202147Y400593D01*
X202203Y400621D01*
X202261Y400646D01*
X202320Y400667D01*
X202380Y400685D01*
X202441Y400698D01*
X202503Y400708D01*
X202565Y400714D01*
X202628Y400716D01*
X203626Y400716D01*
X296394Y475124D02*
X296394Y479616D01*
X297642Y479616D01*
X297711Y479614D01*
X297779Y479608D01*
X297847Y479599D01*
X297915Y479586D01*
X297982Y479569D01*
X298047Y479548D01*
X298112Y479524D01*
X298175Y479497D01*
X298236Y479466D01*
X298296Y479431D01*
X298353Y479394D01*
X298409Y479353D01*
X298462Y479309D01*
X298512Y479263D01*
X298560Y479213D01*
X298605Y479161D01*
X298648Y479107D01*
X298687Y479051D01*
X298723Y478992D01*
X298756Y478932D01*
X298785Y478869D01*
X298811Y478806D01*
X298833Y478741D01*
X298852Y478674D01*
X298867Y478607D01*
X298878Y478539D01*
X298886Y478471D01*
X298890Y478402D01*
X298890Y478334D01*
X298886Y478265D01*
X298878Y478197D01*
X298867Y478129D01*
X298852Y478062D01*
X298833Y477995D01*
X298811Y477930D01*
X298785Y477867D01*
X298756Y477804D01*
X298723Y477744D01*
X298687Y477685D01*
X298648Y477629D01*
X298605Y477575D01*
X298560Y477523D01*
X298512Y477473D01*
X298462Y477427D01*
X298409Y477383D01*
X298353Y477342D01*
X298296Y477305D01*
X298236Y477270D01*
X298175Y477239D01*
X298112Y477212D01*
X298047Y477188D01*
X297982Y477167D01*
X297915Y477150D01*
X297847Y477137D01*
X297779Y477128D01*
X297711Y477122D01*
X297642Y477120D01*
X296394Y477120D01*
X300520Y479616D02*
X301518Y475124D01*
X302516Y478119D01*
X303514Y475124D01*
X304513Y479616D01*
X306569Y479616D02*
X306569Y475124D01*
X308066Y477120D02*
X306569Y479616D01*
X308066Y477120D02*
X309563Y479616D01*
X309563Y475124D01*
D10*
X306506Y470780D02*
X306504Y470726D01*
X306498Y470672D01*
X306489Y470618D01*
X306475Y470565D01*
X306458Y470514D01*
X306437Y470463D01*
X306413Y470415D01*
X306385Y470368D01*
X306354Y470323D01*
X306320Y470281D01*
X306283Y470241D01*
X306243Y470204D01*
X306201Y470170D01*
X306156Y470139D01*
X306109Y470111D01*
X306061Y470087D01*
X306010Y470066D01*
X305959Y470049D01*
X305906Y470035D01*
X305852Y470026D01*
X305798Y470020D01*
X305744Y470018D01*
X305690Y470020D01*
X305636Y470026D01*
X305582Y470035D01*
X305529Y470049D01*
X305478Y470066D01*
X305427Y470087D01*
X305379Y470111D01*
X305332Y470139D01*
X305287Y470170D01*
X305245Y470204D01*
X305205Y470241D01*
X305168Y470281D01*
X305134Y470323D01*
X305103Y470368D01*
X305075Y470415D01*
X305051Y470463D01*
X305030Y470514D01*
X305013Y470565D01*
X304999Y470618D01*
X304990Y470672D01*
X304984Y470726D01*
X304982Y470780D01*
X304984Y470834D01*
X304990Y470888D01*
X304999Y470942D01*
X305013Y470995D01*
X305030Y471046D01*
X305051Y471097D01*
X305075Y471145D01*
X305103Y471192D01*
X305134Y471237D01*
X305168Y471279D01*
X305205Y471319D01*
X305245Y471356D01*
X305287Y471390D01*
X305332Y471421D01*
X305379Y471449D01*
X305427Y471473D01*
X305478Y471494D01*
X305529Y471511D01*
X305582Y471525D01*
X305636Y471534D01*
X305690Y471540D01*
X305744Y471542D01*
X305798Y471540D01*
X305852Y471534D01*
X305906Y471525D01*
X305959Y471511D01*
X306010Y471494D01*
X306061Y471473D01*
X306109Y471449D01*
X306156Y471421D01*
X306201Y471390D01*
X306243Y471356D01*
X306283Y471319D01*
X306320Y471279D01*
X306354Y471237D01*
X306385Y471192D01*
X306413Y471145D01*
X306437Y471097D01*
X306458Y471046D01*
X306475Y470995D01*
X306489Y470942D01*
X306498Y470888D01*
X306504Y470834D01*
X306506Y470780D01*
D16*
X548260Y497490D02*
X548262Y497612D01*
X548268Y497734D01*
X548278Y497856D01*
X548291Y497977D01*
X548309Y498098D01*
X548330Y498218D01*
X548356Y498338D01*
X548385Y498456D01*
X548417Y498574D01*
X548454Y498691D01*
X548494Y498806D01*
X548538Y498920D01*
X548586Y499032D01*
X548637Y499143D01*
X548692Y499252D01*
X548750Y499360D01*
X548812Y499465D01*
X548877Y499568D01*
X548945Y499670D01*
X549017Y499769D01*
X549091Y499865D01*
X549169Y499960D01*
X549250Y500051D01*
X549333Y500141D01*
X549419Y500227D01*
X549509Y500310D01*
X549600Y500391D01*
X549695Y500469D01*
X549791Y500543D01*
X549890Y500615D01*
X549992Y500683D01*
X550095Y500748D01*
X550200Y500810D01*
X550308Y500868D01*
X550417Y500923D01*
X550528Y500974D01*
X550640Y501022D01*
X550754Y501066D01*
X550869Y501106D01*
X550986Y501143D01*
X551104Y501175D01*
X551222Y501204D01*
X551342Y501230D01*
X551462Y501251D01*
X551583Y501269D01*
X551704Y501282D01*
X551826Y501292D01*
X551948Y501298D01*
X552070Y501300D01*
X552192Y501298D01*
X552314Y501292D01*
X552436Y501282D01*
X552557Y501269D01*
X552678Y501251D01*
X552798Y501230D01*
X552918Y501204D01*
X553036Y501175D01*
X553154Y501143D01*
X553271Y501106D01*
X553386Y501066D01*
X553500Y501022D01*
X553612Y500974D01*
X553723Y500923D01*
X553832Y500868D01*
X553940Y500810D01*
X554045Y500748D01*
X554148Y500683D01*
X554250Y500615D01*
X554349Y500543D01*
X554445Y500469D01*
X554540Y500391D01*
X554631Y500310D01*
X554721Y500227D01*
X554807Y500141D01*
X554890Y500051D01*
X554971Y499960D01*
X555049Y499865D01*
X555123Y499769D01*
X555195Y499670D01*
X555263Y499568D01*
X555328Y499465D01*
X555390Y499360D01*
X555448Y499252D01*
X555503Y499143D01*
X555554Y499032D01*
X555602Y498920D01*
X555646Y498806D01*
X555686Y498691D01*
X555723Y498574D01*
X555755Y498456D01*
X555784Y498338D01*
X555810Y498218D01*
X555831Y498098D01*
X555849Y497977D01*
X555862Y497856D01*
X555872Y497734D01*
X555878Y497612D01*
X555880Y497490D01*
X555878Y497368D01*
X555872Y497246D01*
X555862Y497124D01*
X555849Y497003D01*
X555831Y496882D01*
X555810Y496762D01*
X555784Y496642D01*
X555755Y496524D01*
X555723Y496406D01*
X555686Y496289D01*
X555646Y496174D01*
X555602Y496060D01*
X555554Y495948D01*
X555503Y495837D01*
X555448Y495728D01*
X555390Y495620D01*
X555328Y495515D01*
X555263Y495412D01*
X555195Y495310D01*
X555123Y495211D01*
X555049Y495115D01*
X554971Y495020D01*
X554890Y494929D01*
X554807Y494839D01*
X554721Y494753D01*
X554631Y494670D01*
X554540Y494589D01*
X554445Y494511D01*
X554349Y494437D01*
X554250Y494365D01*
X554148Y494297D01*
X554045Y494232D01*
X553940Y494170D01*
X553832Y494112D01*
X553723Y494057D01*
X553612Y494006D01*
X553500Y493958D01*
X553386Y493914D01*
X553271Y493874D01*
X553154Y493837D01*
X553036Y493805D01*
X552918Y493776D01*
X552798Y493750D01*
X552678Y493729D01*
X552557Y493711D01*
X552436Y493698D01*
X552314Y493688D01*
X552192Y493682D01*
X552070Y493680D01*
X551948Y493682D01*
X551826Y493688D01*
X551704Y493698D01*
X551583Y493711D01*
X551462Y493729D01*
X551342Y493750D01*
X551222Y493776D01*
X551104Y493805D01*
X550986Y493837D01*
X550869Y493874D01*
X550754Y493914D01*
X550640Y493958D01*
X550528Y494006D01*
X550417Y494057D01*
X550308Y494112D01*
X550200Y494170D01*
X550095Y494232D01*
X549992Y494297D01*
X549890Y494365D01*
X549791Y494437D01*
X549695Y494511D01*
X549600Y494589D01*
X549509Y494670D01*
X549419Y494753D01*
X549333Y494839D01*
X549250Y494929D01*
X549169Y495020D01*
X549091Y495115D01*
X549017Y495211D01*
X548945Y495310D01*
X548877Y495412D01*
X548812Y495515D01*
X548750Y495620D01*
X548692Y495728D01*
X548637Y495837D01*
X548586Y495948D01*
X548538Y496060D01*
X548494Y496174D01*
X548454Y496289D01*
X548417Y496406D01*
X548385Y496524D01*
X548356Y496642D01*
X548330Y496762D01*
X548309Y496882D01*
X548291Y497003D01*
X548278Y497124D01*
X548268Y497246D01*
X548262Y497368D01*
X548260Y497490D01*
D10*
X545720Y517302D02*
X411100Y517302D01*
X411100Y464978D01*
X545720Y464978D01*
X545720Y517302D01*
D16*
X548260Y497490D02*
X548262Y497612D01*
X548268Y497734D01*
X548278Y497856D01*
X548291Y497977D01*
X548309Y498098D01*
X548330Y498218D01*
X548356Y498338D01*
X548385Y498456D01*
X548417Y498574D01*
X548454Y498691D01*
X548494Y498806D01*
X548538Y498920D01*
X548586Y499032D01*
X548637Y499143D01*
X548692Y499252D01*
X548750Y499360D01*
X548812Y499465D01*
X548877Y499568D01*
X548945Y499670D01*
X549017Y499769D01*
X549091Y499865D01*
X549169Y499960D01*
X549250Y500051D01*
X549333Y500141D01*
X549419Y500227D01*
X549509Y500310D01*
X549600Y500391D01*
X549695Y500469D01*
X549791Y500543D01*
X549890Y500615D01*
X549992Y500683D01*
X550095Y500748D01*
X550200Y500810D01*
X550308Y500868D01*
X550417Y500923D01*
X550528Y500974D01*
X550640Y501022D01*
X550754Y501066D01*
X550869Y501106D01*
X550986Y501143D01*
X551104Y501175D01*
X551222Y501204D01*
X551342Y501230D01*
X551462Y501251D01*
X551583Y501269D01*
X551704Y501282D01*
X551826Y501292D01*
X551948Y501298D01*
X552070Y501300D01*
X552192Y501298D01*
X552314Y501292D01*
X552436Y501282D01*
X552557Y501269D01*
X552678Y501251D01*
X552798Y501230D01*
X552918Y501204D01*
X553036Y501175D01*
X553154Y501143D01*
X553271Y501106D01*
X553386Y501066D01*
X553500Y501022D01*
X553612Y500974D01*
X553723Y500923D01*
X553832Y500868D01*
X553940Y500810D01*
X554045Y500748D01*
X554148Y500683D01*
X554250Y500615D01*
X554349Y500543D01*
X554445Y500469D01*
X554540Y500391D01*
X554631Y500310D01*
X554721Y500227D01*
X554807Y500141D01*
X554890Y500051D01*
X554971Y499960D01*
X555049Y499865D01*
X555123Y499769D01*
X555195Y499670D01*
X555263Y499568D01*
X555328Y499465D01*
X555390Y499360D01*
X555448Y499252D01*
X555503Y499143D01*
X555554Y499032D01*
X555602Y498920D01*
X555646Y498806D01*
X555686Y498691D01*
X555723Y498574D01*
X555755Y498456D01*
X555784Y498338D01*
X555810Y498218D01*
X555831Y498098D01*
X555849Y497977D01*
X555862Y497856D01*
X555872Y497734D01*
X555878Y497612D01*
X555880Y497490D01*
X555878Y497368D01*
X555872Y497246D01*
X555862Y497124D01*
X555849Y497003D01*
X555831Y496882D01*
X555810Y496762D01*
X555784Y496642D01*
X555755Y496524D01*
X555723Y496406D01*
X555686Y496289D01*
X555646Y496174D01*
X555602Y496060D01*
X555554Y495948D01*
X555503Y495837D01*
X555448Y495728D01*
X555390Y495620D01*
X555328Y495515D01*
X555263Y495412D01*
X555195Y495310D01*
X555123Y495211D01*
X555049Y495115D01*
X554971Y495020D01*
X554890Y494929D01*
X554807Y494839D01*
X554721Y494753D01*
X554631Y494670D01*
X554540Y494589D01*
X554445Y494511D01*
X554349Y494437D01*
X554250Y494365D01*
X554148Y494297D01*
X554045Y494232D01*
X553940Y494170D01*
X553832Y494112D01*
X553723Y494057D01*
X553612Y494006D01*
X553500Y493958D01*
X553386Y493914D01*
X553271Y493874D01*
X553154Y493837D01*
X553036Y493805D01*
X552918Y493776D01*
X552798Y493750D01*
X552678Y493729D01*
X552557Y493711D01*
X552436Y493698D01*
X552314Y493688D01*
X552192Y493682D01*
X552070Y493680D01*
X551948Y493682D01*
X551826Y493688D01*
X551704Y493698D01*
X551583Y493711D01*
X551462Y493729D01*
X551342Y493750D01*
X551222Y493776D01*
X551104Y493805D01*
X550986Y493837D01*
X550869Y493874D01*
X550754Y493914D01*
X550640Y493958D01*
X550528Y494006D01*
X550417Y494057D01*
X550308Y494112D01*
X550200Y494170D01*
X550095Y494232D01*
X549992Y494297D01*
X549890Y494365D01*
X549791Y494437D01*
X549695Y494511D01*
X549600Y494589D01*
X549509Y494670D01*
X549419Y494753D01*
X549333Y494839D01*
X549250Y494929D01*
X549169Y495020D01*
X549091Y495115D01*
X549017Y495211D01*
X548945Y495310D01*
X548877Y495412D01*
X548812Y495515D01*
X548750Y495620D01*
X548692Y495728D01*
X548637Y495837D01*
X548586Y495948D01*
X548538Y496060D01*
X548494Y496174D01*
X548454Y496289D01*
X548417Y496406D01*
X548385Y496524D01*
X548356Y496642D01*
X548330Y496762D01*
X548309Y496882D01*
X548291Y497003D01*
X548278Y497124D01*
X548268Y497246D01*
X548262Y497368D01*
X548260Y497490D01*
D10*
X232572Y333098D02*
X232572Y296522D01*
X195488Y296522D02*
X195488Y333098D01*
D11*
X330550Y383310D02*
X340550Y383310D01*
X340550Y392910D02*
X330550Y392910D01*
D17*
X340218Y379150D02*
X340842Y379150D01*
X340218Y379150D02*
X340169Y379152D01*
X340120Y379158D01*
X340072Y379167D01*
X340025Y379181D01*
X339979Y379197D01*
X339935Y379218D01*
X339892Y379242D01*
X339851Y379269D01*
X339813Y379300D01*
X339777Y379333D01*
X339744Y379369D01*
X339713Y379407D01*
X339686Y379448D01*
X339662Y379491D01*
X339641Y379535D01*
X339625Y379581D01*
X339611Y379628D01*
X339602Y379676D01*
X339596Y379725D01*
X339594Y379774D01*
X339594Y381333D01*
X339596Y381382D01*
X339602Y381431D01*
X339611Y381479D01*
X339625Y381526D01*
X339641Y381572D01*
X339662Y381616D01*
X339686Y381659D01*
X339713Y381700D01*
X339743Y381738D01*
X339777Y381774D01*
X339813Y381807D01*
X339851Y381838D01*
X339892Y381865D01*
X339935Y381889D01*
X339979Y381909D01*
X340025Y381926D01*
X340072Y381940D01*
X340120Y381949D01*
X340169Y381955D01*
X340218Y381957D01*
X340842Y381957D01*
X341898Y381333D02*
X342678Y381957D01*
X342678Y379150D01*
X343457Y379150D02*
X341898Y379150D01*
D11*
X342280Y477200D02*
X332280Y477200D01*
X332280Y467600D02*
X342280Y467600D01*
D17*
X330620Y478553D02*
X329996Y478553D01*
X329947Y478555D01*
X329898Y478561D01*
X329850Y478570D01*
X329803Y478584D01*
X329757Y478600D01*
X329713Y478621D01*
X329670Y478645D01*
X329629Y478672D01*
X329591Y478703D01*
X329555Y478736D01*
X329522Y478772D01*
X329491Y478810D01*
X329464Y478851D01*
X329440Y478894D01*
X329419Y478938D01*
X329403Y478984D01*
X329389Y479031D01*
X329380Y479079D01*
X329374Y479128D01*
X329372Y479177D01*
X329373Y479177D02*
X329373Y480736D01*
X329372Y480736D02*
X329374Y480785D01*
X329380Y480834D01*
X329389Y480882D01*
X329403Y480929D01*
X329419Y480975D01*
X329440Y481019D01*
X329464Y481062D01*
X329491Y481103D01*
X329521Y481141D01*
X329555Y481177D01*
X329591Y481210D01*
X329629Y481241D01*
X329670Y481268D01*
X329713Y481292D01*
X329757Y481312D01*
X329803Y481329D01*
X329850Y481343D01*
X329898Y481352D01*
X329947Y481358D01*
X329996Y481360D01*
X330620Y481360D01*
X332534Y481360D02*
X332584Y481358D01*
X332634Y481353D01*
X332683Y481344D01*
X332732Y481332D01*
X332779Y481316D01*
X332826Y481297D01*
X332870Y481274D01*
X332914Y481249D01*
X332955Y481220D01*
X332994Y481189D01*
X333030Y481154D01*
X333065Y481118D01*
X333096Y481079D01*
X333125Y481038D01*
X333150Y480994D01*
X333173Y480950D01*
X333192Y480903D01*
X333208Y480856D01*
X333220Y480807D01*
X333229Y480758D01*
X333234Y480708D01*
X333236Y480658D01*
X332534Y481360D02*
X332477Y481358D01*
X332421Y481353D01*
X332365Y481344D01*
X332310Y481332D01*
X332255Y481316D01*
X332202Y481297D01*
X332150Y481274D01*
X332099Y481248D01*
X332050Y481219D01*
X332003Y481187D01*
X331959Y481153D01*
X331916Y481115D01*
X331876Y481075D01*
X331839Y481032D01*
X331804Y480988D01*
X331772Y480941D01*
X331743Y480892D01*
X331717Y480841D01*
X331695Y480789D01*
X331676Y480736D01*
X333002Y480112D02*
X333038Y480148D01*
X333071Y480187D01*
X333101Y480228D01*
X333129Y480270D01*
X333153Y480315D01*
X333175Y480361D01*
X333193Y480408D01*
X333209Y480457D01*
X333221Y480506D01*
X333229Y480557D01*
X333234Y480607D01*
X333236Y480658D01*
X333002Y480112D02*
X331677Y478553D01*
X333236Y478553D01*
D10*
X771250Y161810D02*
X771250Y149110D01*
X771250Y161810D02*
X777600Y168160D01*
X790300Y168160D01*
X796650Y161810D01*
X790300Y142760D02*
X777600Y142760D01*
X771250Y149110D01*
X790300Y142760D02*
X796650Y149110D01*
X796650Y161810D01*
X777600Y168160D02*
X771250Y174510D01*
X771250Y187210D01*
X777600Y193560D01*
X790300Y193560D01*
X796650Y187210D01*
X796650Y174510D01*
X790300Y168160D01*
D11*
X765027Y146443D02*
X765027Y142633D01*
X765027Y146443D02*
X765025Y146543D01*
X765019Y146642D01*
X765009Y146742D01*
X764996Y146840D01*
X764978Y146939D01*
X764957Y147036D01*
X764932Y147132D01*
X764903Y147228D01*
X764870Y147322D01*
X764834Y147415D01*
X764794Y147506D01*
X764750Y147596D01*
X764703Y147684D01*
X764653Y147770D01*
X764599Y147854D01*
X764542Y147936D01*
X764482Y148015D01*
X764418Y148093D01*
X764352Y148167D01*
X764283Y148239D01*
X764211Y148308D01*
X764137Y148374D01*
X764059Y148438D01*
X763980Y148498D01*
X763898Y148555D01*
X763814Y148609D01*
X763728Y148659D01*
X763640Y148706D01*
X763550Y148750D01*
X763459Y148790D01*
X763366Y148826D01*
X763272Y148859D01*
X763176Y148888D01*
X763080Y148913D01*
X762983Y148934D01*
X762884Y148952D01*
X762786Y148965D01*
X762686Y148975D01*
X762587Y148981D01*
X762487Y148983D01*
X761217Y148983D01*
X761117Y148981D01*
X761018Y148975D01*
X760918Y148965D01*
X760820Y148952D01*
X760721Y148934D01*
X760624Y148913D01*
X760528Y148888D01*
X760432Y148859D01*
X760338Y148826D01*
X760245Y148790D01*
X760154Y148750D01*
X760064Y148706D01*
X759976Y148659D01*
X759890Y148609D01*
X759806Y148555D01*
X759724Y148498D01*
X759645Y148438D01*
X759567Y148374D01*
X759493Y148308D01*
X759421Y148239D01*
X759352Y148167D01*
X759286Y148093D01*
X759222Y148015D01*
X759162Y147936D01*
X759105Y147854D01*
X759051Y147770D01*
X759001Y147684D01*
X758954Y147596D01*
X758910Y147506D01*
X758870Y147415D01*
X758834Y147322D01*
X758801Y147228D01*
X758772Y147132D01*
X758747Y147036D01*
X758726Y146939D01*
X758708Y146840D01*
X758695Y146742D01*
X758685Y146642D01*
X758679Y146543D01*
X758677Y146443D01*
X758677Y142633D01*
X753597Y142633D01*
X753597Y148983D01*
X753597Y153428D02*
X765027Y157238D01*
X753597Y161048D01*
X756137Y165493D02*
X753597Y168668D01*
X765027Y168668D01*
X765027Y165493D02*
X765027Y171843D01*
D10*
X796430Y130240D02*
X796430Y117540D01*
X790080Y111190D01*
X777380Y111190D01*
X771030Y117540D01*
X777380Y136590D02*
X790080Y136590D01*
X796430Y130240D01*
X777380Y136590D02*
X771030Y130240D01*
X771030Y117540D01*
X790080Y111190D02*
X796430Y104840D01*
X796430Y92140D01*
X790080Y85790D01*
X777380Y85790D01*
X771030Y92140D01*
X771030Y104840D01*
X777380Y111190D01*
D11*
X814083Y111317D02*
X814083Y107507D01*
X814083Y111317D02*
X814081Y111417D01*
X814075Y111516D01*
X814065Y111616D01*
X814052Y111714D01*
X814034Y111813D01*
X814013Y111910D01*
X813988Y112006D01*
X813959Y112102D01*
X813926Y112196D01*
X813890Y112289D01*
X813850Y112380D01*
X813806Y112470D01*
X813759Y112558D01*
X813709Y112644D01*
X813655Y112728D01*
X813598Y112810D01*
X813538Y112889D01*
X813474Y112967D01*
X813408Y113041D01*
X813339Y113113D01*
X813267Y113182D01*
X813193Y113248D01*
X813115Y113312D01*
X813036Y113372D01*
X812954Y113429D01*
X812870Y113483D01*
X812784Y113533D01*
X812696Y113580D01*
X812606Y113624D01*
X812515Y113664D01*
X812422Y113700D01*
X812328Y113733D01*
X812232Y113762D01*
X812136Y113787D01*
X812039Y113808D01*
X811940Y113826D01*
X811842Y113839D01*
X811742Y113849D01*
X811643Y113855D01*
X811543Y113857D01*
X810273Y113857D01*
X810173Y113855D01*
X810074Y113849D01*
X809974Y113839D01*
X809876Y113826D01*
X809777Y113808D01*
X809680Y113787D01*
X809584Y113762D01*
X809488Y113733D01*
X809394Y113700D01*
X809301Y113664D01*
X809210Y113624D01*
X809120Y113580D01*
X809032Y113533D01*
X808946Y113483D01*
X808862Y113429D01*
X808780Y113372D01*
X808701Y113312D01*
X808623Y113248D01*
X808549Y113182D01*
X808477Y113113D01*
X808408Y113041D01*
X808342Y112967D01*
X808278Y112889D01*
X808218Y112810D01*
X808161Y112728D01*
X808107Y112644D01*
X808057Y112558D01*
X808010Y112470D01*
X807966Y112380D01*
X807926Y112289D01*
X807890Y112196D01*
X807857Y112102D01*
X807828Y112006D01*
X807803Y111910D01*
X807782Y111813D01*
X807764Y111714D01*
X807751Y111616D01*
X807741Y111516D01*
X807735Y111417D01*
X807733Y111317D01*
X807733Y107507D01*
X802653Y107507D01*
X802653Y113857D01*
X802653Y118302D02*
X814083Y122112D01*
X802653Y125922D01*
X802653Y133860D02*
X802655Y133964D01*
X802661Y134069D01*
X802670Y134173D01*
X802683Y134276D01*
X802701Y134379D01*
X802721Y134481D01*
X802746Y134583D01*
X802774Y134683D01*
X802806Y134783D01*
X802842Y134881D01*
X802881Y134978D01*
X802923Y135073D01*
X802969Y135167D01*
X803019Y135259D01*
X803071Y135349D01*
X803127Y135437D01*
X803187Y135523D01*
X803249Y135607D01*
X803314Y135688D01*
X803382Y135767D01*
X803454Y135844D01*
X803527Y135917D01*
X803604Y135989D01*
X803683Y136057D01*
X803764Y136122D01*
X803848Y136184D01*
X803934Y136244D01*
X804022Y136300D01*
X804112Y136352D01*
X804204Y136402D01*
X804298Y136448D01*
X804393Y136490D01*
X804490Y136529D01*
X804588Y136565D01*
X804688Y136597D01*
X804788Y136625D01*
X804890Y136650D01*
X804992Y136670D01*
X805095Y136688D01*
X805198Y136701D01*
X805302Y136710D01*
X805407Y136716D01*
X805511Y136718D01*
X802653Y133860D02*
X802655Y133742D01*
X802661Y133623D01*
X802670Y133505D01*
X802683Y133388D01*
X802701Y133271D01*
X802721Y133154D01*
X802746Y133038D01*
X802774Y132923D01*
X802807Y132810D01*
X802842Y132697D01*
X802882Y132585D01*
X802924Y132475D01*
X802971Y132366D01*
X803021Y132258D01*
X803074Y132153D01*
X803131Y132049D01*
X803191Y131947D01*
X803254Y131847D01*
X803321Y131749D01*
X803390Y131653D01*
X803463Y131560D01*
X803539Y131469D01*
X803617Y131380D01*
X803699Y131294D01*
X803783Y131211D01*
X803869Y131130D01*
X803959Y131053D01*
X804050Y130978D01*
X804144Y130906D01*
X804241Y130837D01*
X804339Y130772D01*
X804440Y130709D01*
X804543Y130650D01*
X804647Y130594D01*
X804753Y130542D01*
X804861Y130493D01*
X804970Y130448D01*
X805081Y130406D01*
X805193Y130368D01*
X807733Y135765D02*
X807658Y135841D01*
X807579Y135916D01*
X807498Y135987D01*
X807414Y136056D01*
X807328Y136121D01*
X807240Y136183D01*
X807150Y136243D01*
X807058Y136299D01*
X806963Y136352D01*
X806867Y136401D01*
X806769Y136447D01*
X806670Y136490D01*
X806569Y136529D01*
X806467Y136564D01*
X806364Y136596D01*
X806260Y136624D01*
X806155Y136649D01*
X806048Y136670D01*
X805942Y136687D01*
X805835Y136700D01*
X805727Y136709D01*
X805619Y136715D01*
X805511Y136717D01*
X807733Y135765D02*
X814083Y130367D01*
X814083Y136717D01*
D10*
X107300Y417432D02*
X107300Y430132D01*
X113650Y423528D02*
X100950Y423528D01*
X107300Y415908D02*
X105748Y415889D01*
X104196Y415832D01*
X102646Y415738D01*
X101099Y415606D01*
X99556Y415436D01*
X98017Y415229D01*
X96484Y414984D01*
X94957Y414702D01*
X93438Y414383D01*
X91927Y414027D01*
X90425Y413634D01*
X88933Y413205D01*
X87451Y412739D01*
X85982Y412238D01*
X84525Y411701D01*
X83082Y411129D01*
X81653Y410522D01*
X80239Y409880D01*
X78842Y409204D01*
X77461Y408494D01*
X76098Y407751D01*
X74753Y406974D01*
X73428Y406166D01*
X72123Y405325D01*
X70838Y404452D01*
X69576Y403549D01*
X68335Y402615D01*
X67118Y401651D01*
X65925Y400658D01*
X64756Y399636D01*
X63612Y398586D01*
X62494Y397509D01*
X61403Y396404D01*
X60339Y395273D01*
X59303Y394117D01*
X58296Y392936D01*
X57317Y391730D01*
X56368Y390501D01*
X55450Y389250D01*
X54562Y387976D01*
X53705Y386681D01*
X52880Y385366D01*
X52087Y384031D01*
X51328Y382677D01*
X50601Y381305D01*
X49908Y379916D01*
X49249Y378510D01*
X48624Y377088D01*
X48034Y375652D01*
X47480Y374202D01*
X46961Y372739D01*
X46477Y371263D01*
X46030Y369777D01*
X45619Y368280D01*
X45245Y366773D01*
X44907Y365257D01*
X44607Y363734D01*
X44343Y362204D01*
X44117Y360668D01*
X43928Y359127D01*
X43777Y357582D01*
X43664Y356033D01*
X43589Y354482D01*
X43551Y352930D01*
X43551Y351378D01*
X43589Y349826D01*
X43664Y348275D01*
X43777Y346726D01*
X43928Y345181D01*
X44117Y343640D01*
X44343Y342104D01*
X44607Y340574D01*
X44907Y339051D01*
X45245Y337535D01*
X45619Y336028D01*
X46030Y334531D01*
X46477Y333045D01*
X46961Y331569D01*
X47480Y330106D01*
X48034Y328656D01*
X48624Y327220D01*
X49249Y325798D01*
X49908Y324392D01*
X50601Y323003D01*
X51328Y321631D01*
X52087Y320277D01*
X52880Y318942D01*
X53705Y317627D01*
X54562Y316332D01*
X55450Y315058D01*
X56368Y313807D01*
X57317Y312578D01*
X58296Y311372D01*
X59303Y310191D01*
X60339Y309035D01*
X61403Y307904D01*
X62494Y306799D01*
X63612Y305722D01*
X64756Y304672D01*
X65925Y303650D01*
X67118Y302657D01*
X68335Y301693D01*
X69576Y300759D01*
X70838Y299856D01*
X72123Y298983D01*
X73428Y298142D01*
X74753Y297334D01*
X76098Y296557D01*
X77461Y295814D01*
X78842Y295104D01*
X80239Y294428D01*
X81653Y293786D01*
X83082Y293179D01*
X84525Y292607D01*
X85982Y292070D01*
X87451Y291569D01*
X88933Y291103D01*
X90425Y290674D01*
X91927Y290281D01*
X93438Y289925D01*
X94957Y289606D01*
X96484Y289324D01*
X98017Y289079D01*
X99556Y288872D01*
X101099Y288702D01*
X102646Y288570D01*
X104196Y288476D01*
X105748Y288419D01*
X107300Y288400D01*
X108852Y288419D01*
X110404Y288476D01*
X111954Y288570D01*
X113501Y288702D01*
X115044Y288872D01*
X116583Y289079D01*
X118116Y289324D01*
X119643Y289606D01*
X121162Y289925D01*
X122673Y290281D01*
X124175Y290674D01*
X125667Y291103D01*
X127149Y291569D01*
X128618Y292070D01*
X130075Y292607D01*
X131518Y293179D01*
X132947Y293786D01*
X134361Y294428D01*
X135758Y295104D01*
X137139Y295814D01*
X138502Y296557D01*
X139847Y297334D01*
X141172Y298142D01*
X142477Y298983D01*
X143762Y299856D01*
X145024Y300759D01*
X146265Y301693D01*
X147482Y302657D01*
X148675Y303650D01*
X149844Y304672D01*
X150988Y305722D01*
X152106Y306799D01*
X153197Y307904D01*
X154261Y309035D01*
X155297Y310191D01*
X156304Y311372D01*
X157283Y312578D01*
X158232Y313807D01*
X159150Y315058D01*
X160038Y316332D01*
X160895Y317627D01*
X161720Y318942D01*
X162513Y320277D01*
X163272Y321631D01*
X163999Y323003D01*
X164692Y324392D01*
X165351Y325798D01*
X165976Y327220D01*
X166566Y328656D01*
X167120Y330106D01*
X167639Y331569D01*
X168123Y333045D01*
X168570Y334531D01*
X168981Y336028D01*
X169355Y337535D01*
X169693Y339051D01*
X169993Y340574D01*
X170257Y342104D01*
X170483Y343640D01*
X170672Y345181D01*
X170823Y346726D01*
X170936Y348275D01*
X171011Y349826D01*
X171049Y351378D01*
X171049Y352930D01*
X171011Y354482D01*
X170936Y356033D01*
X170823Y357582D01*
X170672Y359127D01*
X170483Y360668D01*
X170257Y362204D01*
X169993Y363734D01*
X169693Y365257D01*
X169355Y366773D01*
X168981Y368280D01*
X168570Y369777D01*
X168123Y371263D01*
X167639Y372739D01*
X167120Y374202D01*
X166566Y375652D01*
X165976Y377088D01*
X165351Y378510D01*
X164692Y379916D01*
X163999Y381305D01*
X163272Y382677D01*
X162513Y384031D01*
X161720Y385366D01*
X160895Y386681D01*
X160038Y387976D01*
X159150Y389250D01*
X158232Y390501D01*
X157283Y391730D01*
X156304Y392936D01*
X155297Y394117D01*
X154261Y395273D01*
X153197Y396404D01*
X152106Y397509D01*
X150988Y398586D01*
X149844Y399636D01*
X148675Y400658D01*
X147482Y401651D01*
X146265Y402615D01*
X145024Y403549D01*
X143762Y404452D01*
X142477Y405325D01*
X141172Y406166D01*
X139847Y406974D01*
X138502Y407751D01*
X137139Y408494D01*
X135758Y409204D01*
X134361Y409880D01*
X132947Y410522D01*
X131518Y411129D01*
X130075Y411701D01*
X128618Y412238D01*
X127149Y412739D01*
X125667Y413205D01*
X124175Y413634D01*
X122673Y414027D01*
X121162Y414383D01*
X119643Y414702D01*
X118116Y414984D01*
X116583Y415229D01*
X115044Y415436D01*
X113501Y415606D01*
X111954Y415738D01*
X110404Y415832D01*
X108852Y415889D01*
X107300Y415908D01*
D14*
X104647Y369299D02*
X113269Y369299D01*
X104647Y369299D02*
X104533Y369297D01*
X104418Y369291D01*
X104304Y369281D01*
X104191Y369267D01*
X104077Y369250D01*
X103965Y369228D01*
X103853Y369203D01*
X103743Y369173D01*
X103633Y369140D01*
X103525Y369103D01*
X103418Y369063D01*
X103312Y369018D01*
X103208Y368971D01*
X103106Y368919D01*
X103006Y368864D01*
X102907Y368806D01*
X102811Y368744D01*
X102716Y368679D01*
X102625Y368611D01*
X102535Y368539D01*
X102448Y368465D01*
X102364Y368388D01*
X102282Y368307D01*
X102203Y368224D01*
X102127Y368139D01*
X102054Y368050D01*
X101985Y367960D01*
X101918Y367867D01*
X101855Y367771D01*
X101795Y367674D01*
X101738Y367574D01*
X101685Y367473D01*
X101635Y367370D01*
X101589Y367265D01*
X101546Y367159D01*
X101508Y367051D01*
X101473Y366942D01*
X101442Y366832D01*
X101414Y366721D01*
X101391Y366609D01*
X101371Y366496D01*
X101355Y366383D01*
X101343Y366269D01*
X101335Y366155D01*
X101331Y366040D01*
X101331Y365926D01*
X101335Y365811D01*
X101343Y365697D01*
X101355Y365583D01*
X101371Y365470D01*
X101391Y365357D01*
X101414Y365245D01*
X101442Y365134D01*
X101473Y365024D01*
X101508Y364915D01*
X101546Y364807D01*
X101589Y364701D01*
X101635Y364596D01*
X101685Y364493D01*
X101738Y364392D01*
X101795Y364292D01*
X101855Y364195D01*
X101918Y364099D01*
X101985Y364006D01*
X102054Y363916D01*
X102127Y363827D01*
X102203Y363742D01*
X102282Y363659D01*
X102364Y363578D01*
X102448Y363501D01*
X102535Y363427D01*
X102625Y363355D01*
X102716Y363287D01*
X102811Y363222D01*
X102907Y363160D01*
X103006Y363102D01*
X103106Y363047D01*
X103208Y362995D01*
X103312Y362948D01*
X103418Y362903D01*
X103525Y362863D01*
X103633Y362826D01*
X103743Y362793D01*
X103853Y362763D01*
X103965Y362738D01*
X104077Y362716D01*
X104191Y362699D01*
X104304Y362685D01*
X104418Y362675D01*
X104533Y362669D01*
X104647Y362667D01*
X113269Y362667D01*
X113269Y358151D02*
X101331Y354172D01*
X113269Y350193D01*
X113269Y346721D02*
X107632Y342742D01*
X113269Y338763D01*
X107632Y342742D02*
X101331Y342742D01*
X110616Y334628D02*
X113269Y331312D01*
X101331Y331312D01*
X101331Y334628D02*
X101331Y327996D01*
X101331Y322817D02*
X113269Y322817D01*
X107963Y322817D02*
X107963Y316185D01*
X113269Y316185D02*
X101331Y316185D01*
X110616Y311006D02*
X113269Y307690D01*
X101331Y307690D01*
X101331Y311006D02*
X101331Y304374D01*
X107300Y299576D02*
X107535Y299573D01*
X107770Y299565D01*
X108004Y299551D01*
X108238Y299531D01*
X108472Y299506D01*
X108704Y299475D01*
X108936Y299439D01*
X109168Y299397D01*
X109398Y299350D01*
X109626Y299297D01*
X109854Y299239D01*
X110080Y299175D01*
X110304Y299106D01*
X110527Y299032D01*
X110748Y298952D01*
X110967Y298867D01*
X111184Y298777D01*
X111399Y298682D01*
X111611Y298581D01*
X111703Y298548D01*
X111794Y298510D01*
X111883Y298469D01*
X111971Y298425D01*
X112056Y298377D01*
X112140Y298326D01*
X112222Y298271D01*
X112301Y298213D01*
X112378Y298152D01*
X112452Y298088D01*
X112524Y298021D01*
X112593Y297951D01*
X112659Y297879D01*
X112723Y297804D01*
X112783Y297726D01*
X112840Y297646D01*
X112894Y297564D01*
X112944Y297480D01*
X112991Y297394D01*
X113035Y297306D01*
X113075Y297216D01*
X113112Y297125D01*
X113144Y297032D01*
X113173Y296938D01*
X113199Y296844D01*
X113220Y296748D01*
X113238Y296651D01*
X113251Y296554D01*
X113261Y296456D01*
X113267Y296358D01*
X113269Y296260D01*
X113267Y296162D01*
X113261Y296064D01*
X113251Y295966D01*
X113238Y295869D01*
X113220Y295772D01*
X113199Y295676D01*
X113173Y295582D01*
X113144Y295488D01*
X113112Y295395D01*
X113075Y295304D01*
X113035Y295214D01*
X112991Y295126D01*
X112944Y295040D01*
X112894Y294956D01*
X112840Y294874D01*
X112783Y294794D01*
X112723Y294716D01*
X112659Y294641D01*
X112593Y294569D01*
X112524Y294499D01*
X112452Y294432D01*
X112378Y294368D01*
X112301Y294307D01*
X112222Y294249D01*
X112140Y294194D01*
X112056Y294143D01*
X111971Y294095D01*
X111883Y294051D01*
X111794Y294010D01*
X111703Y293972D01*
X111611Y293939D01*
X111399Y293838D01*
X111184Y293743D01*
X110967Y293653D01*
X110748Y293568D01*
X110527Y293488D01*
X110305Y293414D01*
X110080Y293345D01*
X109854Y293281D01*
X109626Y293223D01*
X109398Y293170D01*
X109168Y293123D01*
X108936Y293081D01*
X108704Y293045D01*
X108472Y293014D01*
X108238Y292989D01*
X108004Y292969D01*
X107770Y292955D01*
X107535Y292947D01*
X107300Y292944D01*
X107300Y299576D02*
X107065Y299573D01*
X106830Y299565D01*
X106596Y299551D01*
X106362Y299531D01*
X106128Y299506D01*
X105896Y299475D01*
X105664Y299439D01*
X105433Y299397D01*
X105202Y299350D01*
X104974Y299297D01*
X104746Y299239D01*
X104520Y299175D01*
X104296Y299106D01*
X104073Y299032D01*
X103852Y298952D01*
X103633Y298867D01*
X103416Y298777D01*
X103201Y298682D01*
X102989Y298581D01*
X102897Y298548D01*
X102806Y298510D01*
X102717Y298469D01*
X102629Y298425D01*
X102544Y298377D01*
X102460Y298326D01*
X102378Y298271D01*
X102299Y298213D01*
X102222Y298152D01*
X102148Y298088D01*
X102076Y298021D01*
X102007Y297951D01*
X101941Y297879D01*
X101877Y297804D01*
X101817Y297726D01*
X101760Y297646D01*
X101706Y297564D01*
X101656Y297480D01*
X101609Y297394D01*
X101565Y297306D01*
X101525Y297216D01*
X101488Y297125D01*
X101456Y297032D01*
X101427Y296938D01*
X101401Y296844D01*
X101380Y296748D01*
X101362Y296651D01*
X101349Y296554D01*
X101339Y296456D01*
X101333Y296358D01*
X101331Y296260D01*
X102989Y293939D02*
X103201Y293838D01*
X103416Y293743D01*
X103633Y293653D01*
X103852Y293568D01*
X104073Y293488D01*
X104296Y293414D01*
X104520Y293345D01*
X104746Y293281D01*
X104974Y293223D01*
X105202Y293170D01*
X105432Y293123D01*
X105664Y293081D01*
X105896Y293045D01*
X106128Y293014D01*
X106362Y292989D01*
X106596Y292969D01*
X106830Y292955D01*
X107065Y292947D01*
X107300Y292944D01*
X102989Y293939D02*
X102897Y293972D01*
X102806Y294010D01*
X102717Y294051D01*
X102629Y294095D01*
X102544Y294143D01*
X102460Y294195D01*
X102378Y294249D01*
X102299Y294307D01*
X102222Y294368D01*
X102148Y294432D01*
X102076Y294499D01*
X102007Y294569D01*
X101941Y294641D01*
X101877Y294716D01*
X101817Y294794D01*
X101760Y294874D01*
X101706Y294956D01*
X101656Y295040D01*
X101609Y295126D01*
X101565Y295214D01*
X101525Y295304D01*
X101488Y295395D01*
X101456Y295488D01*
X101427Y295582D01*
X101401Y295676D01*
X101380Y295772D01*
X101362Y295869D01*
X101349Y295966D01*
X101339Y296064D01*
X101333Y296162D01*
X101331Y296260D01*
X103984Y298913D02*
X110616Y293607D01*
X113270Y284499D02*
X113268Y284392D01*
X113262Y284286D01*
X113253Y284180D01*
X113240Y284074D01*
X113223Y283969D01*
X113202Y283864D01*
X113177Y283761D01*
X113149Y283658D01*
X113117Y283556D01*
X113082Y283456D01*
X113043Y283357D01*
X113000Y283259D01*
X112954Y283163D01*
X112905Y283068D01*
X112852Y282976D01*
X112796Y282885D01*
X112737Y282797D01*
X112675Y282710D01*
X112609Y282626D01*
X112541Y282544D01*
X112470Y282465D01*
X112396Y282388D01*
X112319Y282314D01*
X112240Y282243D01*
X112158Y282175D01*
X112074Y282109D01*
X111987Y282047D01*
X111899Y281988D01*
X111808Y281932D01*
X111716Y281879D01*
X111621Y281830D01*
X111525Y281784D01*
X111427Y281741D01*
X111328Y281702D01*
X111228Y281667D01*
X111126Y281635D01*
X111023Y281607D01*
X110920Y281582D01*
X110815Y281561D01*
X110710Y281544D01*
X110604Y281531D01*
X110498Y281522D01*
X110392Y281516D01*
X110285Y281514D01*
X113269Y284499D02*
X113267Y284620D01*
X113261Y284740D01*
X113252Y284860D01*
X113239Y284980D01*
X113222Y285099D01*
X113201Y285218D01*
X113177Y285336D01*
X113148Y285453D01*
X113117Y285569D01*
X113081Y285685D01*
X113042Y285799D01*
X112999Y285911D01*
X112953Y286023D01*
X112904Y286133D01*
X112850Y286241D01*
X112794Y286347D01*
X112734Y286452D01*
X112671Y286555D01*
X112605Y286655D01*
X112536Y286754D01*
X112463Y286850D01*
X112388Y286944D01*
X112310Y287036D01*
X112228Y287125D01*
X112144Y287212D01*
X112058Y287296D01*
X111969Y287377D01*
X111877Y287455D01*
X111783Y287530D01*
X111686Y287602D01*
X111588Y287672D01*
X111487Y287738D01*
X111384Y287801D01*
X111279Y287860D01*
X111173Y287917D01*
X111064Y287970D01*
X110955Y288019D01*
X110843Y288065D01*
X110730Y288108D01*
X110616Y288146D01*
X107963Y282509D02*
X108043Y282429D01*
X108125Y282351D01*
X108209Y282277D01*
X108297Y282205D01*
X108387Y282137D01*
X108479Y282071D01*
X108573Y282009D01*
X108669Y281951D01*
X108768Y281896D01*
X108868Y281844D01*
X108970Y281796D01*
X109074Y281751D01*
X109179Y281711D01*
X109286Y281674D01*
X109394Y281640D01*
X109503Y281611D01*
X109613Y281585D01*
X109724Y281564D01*
X109835Y281546D01*
X109947Y281532D01*
X110059Y281522D01*
X110172Y281516D01*
X110285Y281514D01*
X107963Y282509D02*
X101331Y288146D01*
X101331Y281514D01*
X101331Y276236D02*
X113269Y276236D01*
X106637Y272257D01*
X113269Y268278D01*
X101331Y268278D01*
X101331Y262619D02*
X113269Y262619D01*
X107963Y262619D02*
X107963Y255987D01*
X113269Y255987D02*
X101331Y255987D01*
X101331Y250427D02*
X113269Y250427D01*
X113269Y247111D01*
X113267Y246998D01*
X113261Y246885D01*
X113252Y246772D01*
X113238Y246659D01*
X113221Y246548D01*
X113200Y246436D01*
X113175Y246326D01*
X113146Y246216D01*
X113114Y246108D01*
X113078Y246001D01*
X113038Y245895D01*
X112994Y245790D01*
X112948Y245687D01*
X112897Y245585D01*
X112843Y245486D01*
X112786Y245388D01*
X112726Y245292D01*
X112662Y245199D01*
X112595Y245107D01*
X112525Y245018D01*
X112452Y244932D01*
X112376Y244848D01*
X112298Y244766D01*
X112216Y244688D01*
X112132Y244612D01*
X112046Y244539D01*
X111957Y244469D01*
X111865Y244402D01*
X111772Y244338D01*
X111676Y244278D01*
X111578Y244221D01*
X111479Y244167D01*
X111377Y244116D01*
X111274Y244070D01*
X111169Y244026D01*
X111063Y243986D01*
X110956Y243950D01*
X110848Y243918D01*
X110738Y243889D01*
X110628Y243864D01*
X110516Y243843D01*
X110405Y243826D01*
X110292Y243812D01*
X110179Y243803D01*
X110066Y243797D01*
X109953Y243795D01*
X104647Y243795D01*
X104534Y243797D01*
X104421Y243803D01*
X104308Y243812D01*
X104195Y243826D01*
X104084Y243843D01*
X103972Y243864D01*
X103862Y243889D01*
X103752Y243918D01*
X103644Y243950D01*
X103537Y243986D01*
X103431Y244026D01*
X103326Y244070D01*
X103223Y244116D01*
X103121Y244167D01*
X103022Y244221D01*
X102924Y244278D01*
X102828Y244338D01*
X102735Y244402D01*
X102643Y244469D01*
X102554Y244539D01*
X102468Y244612D01*
X102384Y244688D01*
X102302Y244766D01*
X102224Y244848D01*
X102148Y244932D01*
X102075Y245018D01*
X102005Y245107D01*
X101938Y245199D01*
X101874Y245292D01*
X101814Y245388D01*
X101757Y245486D01*
X101703Y245585D01*
X101652Y245687D01*
X101606Y245790D01*
X101562Y245895D01*
X101522Y246001D01*
X101486Y246108D01*
X101454Y246216D01*
X101425Y246326D01*
X101400Y246436D01*
X101379Y246548D01*
X101362Y246659D01*
X101348Y246772D01*
X101339Y246885D01*
X101333Y246998D01*
X101331Y247111D01*
X101331Y250427D01*
D12*
X269862Y401174D02*
X270860Y401174D01*
X269862Y401174D02*
X269802Y401176D01*
X269742Y401181D01*
X269682Y401190D01*
X269623Y401203D01*
X269565Y401219D01*
X269508Y401239D01*
X269452Y401262D01*
X269398Y401288D01*
X269346Y401318D01*
X269295Y401351D01*
X269247Y401386D01*
X269200Y401425D01*
X269156Y401466D01*
X269115Y401510D01*
X269076Y401557D01*
X269041Y401605D01*
X269008Y401656D01*
X268978Y401708D01*
X268952Y401762D01*
X268929Y401818D01*
X268909Y401875D01*
X268893Y401933D01*
X268880Y401992D01*
X268871Y402052D01*
X268866Y402112D01*
X268864Y402172D01*
X268864Y404668D01*
X268866Y404731D01*
X268872Y404793D01*
X268882Y404855D01*
X268895Y404916D01*
X268913Y404976D01*
X268934Y405035D01*
X268959Y405093D01*
X268987Y405149D01*
X269019Y405203D01*
X269055Y405255D01*
X269093Y405304D01*
X269134Y405351D01*
X269179Y405395D01*
X269226Y405437D01*
X269275Y405475D01*
X269327Y405511D01*
X269381Y405543D01*
X269437Y405571D01*
X269495Y405596D01*
X269554Y405617D01*
X269614Y405635D01*
X269675Y405648D01*
X269737Y405658D01*
X269799Y405664D01*
X269862Y405666D01*
X270860Y405666D01*
X272629Y404418D02*
X272629Y402422D01*
X272629Y404418D02*
X272631Y404487D01*
X272637Y404555D01*
X272646Y404623D01*
X272659Y404691D01*
X272676Y404758D01*
X272697Y404823D01*
X272721Y404888D01*
X272748Y404951D01*
X272779Y405012D01*
X272814Y405072D01*
X272851Y405129D01*
X272892Y405185D01*
X272936Y405238D01*
X272982Y405288D01*
X273032Y405336D01*
X273084Y405381D01*
X273138Y405424D01*
X273194Y405463D01*
X273253Y405499D01*
X273313Y405532D01*
X273376Y405561D01*
X273439Y405587D01*
X273504Y405609D01*
X273571Y405628D01*
X273638Y405643D01*
X273706Y405654D01*
X273774Y405662D01*
X273843Y405666D01*
X273911Y405666D01*
X273980Y405662D01*
X274048Y405654D01*
X274116Y405643D01*
X274183Y405628D01*
X274250Y405609D01*
X274315Y405587D01*
X274378Y405561D01*
X274441Y405532D01*
X274501Y405499D01*
X274560Y405463D01*
X274616Y405424D01*
X274670Y405381D01*
X274722Y405336D01*
X274772Y405288D01*
X274818Y405238D01*
X274862Y405185D01*
X274903Y405129D01*
X274940Y405072D01*
X274975Y405012D01*
X275006Y404951D01*
X275033Y404888D01*
X275057Y404823D01*
X275078Y404758D01*
X275095Y404691D01*
X275108Y404623D01*
X275117Y404555D01*
X275123Y404487D01*
X275125Y404418D01*
X275124Y404418D02*
X275124Y402422D01*
X275125Y402422D02*
X275123Y402353D01*
X275117Y402285D01*
X275108Y402217D01*
X275095Y402149D01*
X275078Y402082D01*
X275057Y402017D01*
X275033Y401952D01*
X275006Y401889D01*
X274975Y401828D01*
X274940Y401768D01*
X274903Y401711D01*
X274862Y401655D01*
X274818Y401602D01*
X274772Y401552D01*
X274722Y401504D01*
X274670Y401459D01*
X274616Y401416D01*
X274560Y401377D01*
X274501Y401341D01*
X274441Y401308D01*
X274378Y401279D01*
X274315Y401253D01*
X274250Y401231D01*
X274183Y401212D01*
X274116Y401197D01*
X274048Y401186D01*
X273980Y401178D01*
X273911Y401174D01*
X273843Y401174D01*
X273774Y401178D01*
X273706Y401186D01*
X273638Y401197D01*
X273571Y401212D01*
X273504Y401231D01*
X273439Y401253D01*
X273376Y401279D01*
X273313Y401308D01*
X273253Y401341D01*
X273194Y401377D01*
X273138Y401416D01*
X273084Y401459D01*
X273032Y401504D01*
X272982Y401552D01*
X272936Y401602D01*
X272892Y401655D01*
X272851Y401711D01*
X272814Y401768D01*
X272779Y401828D01*
X272748Y401889D01*
X272721Y401952D01*
X272697Y402017D01*
X272676Y402082D01*
X272659Y402149D01*
X272646Y402217D01*
X272637Y402285D01*
X272631Y402353D01*
X272629Y402422D01*
X278476Y401174D02*
X278539Y401176D01*
X278601Y401182D01*
X278663Y401192D01*
X278724Y401205D01*
X278784Y401223D01*
X278843Y401244D01*
X278901Y401269D01*
X278957Y401297D01*
X279011Y401329D01*
X279063Y401365D01*
X279112Y401403D01*
X279159Y401445D01*
X279204Y401489D01*
X279245Y401536D01*
X279283Y401585D01*
X279319Y401637D01*
X279351Y401691D01*
X279379Y401747D01*
X279404Y401805D01*
X279425Y401864D01*
X279443Y401924D01*
X279456Y401985D01*
X279466Y402047D01*
X279472Y402109D01*
X279474Y402172D01*
X278476Y401174D02*
X278388Y401176D01*
X278301Y401181D01*
X278214Y401190D01*
X278127Y401203D01*
X278041Y401219D01*
X277956Y401239D01*
X277871Y401263D01*
X277788Y401289D01*
X277705Y401320D01*
X277625Y401354D01*
X277545Y401391D01*
X277467Y401431D01*
X277391Y401474D01*
X277317Y401521D01*
X277245Y401571D01*
X277175Y401623D01*
X277107Y401679D01*
X277041Y401737D01*
X276978Y401798D01*
X277104Y404668D02*
X277106Y404728D01*
X277111Y404788D01*
X277120Y404848D01*
X277133Y404907D01*
X277149Y404965D01*
X277169Y405022D01*
X277192Y405078D01*
X277218Y405132D01*
X277248Y405184D01*
X277281Y405235D01*
X277316Y405283D01*
X277355Y405330D01*
X277396Y405374D01*
X277440Y405415D01*
X277487Y405454D01*
X277535Y405489D01*
X277586Y405522D01*
X277638Y405552D01*
X277692Y405578D01*
X277748Y405601D01*
X277805Y405621D01*
X277863Y405637D01*
X277922Y405650D01*
X277982Y405659D01*
X278042Y405664D01*
X278102Y405666D01*
X278188Y405664D01*
X278274Y405658D01*
X278359Y405648D01*
X278444Y405634D01*
X278528Y405617D01*
X278612Y405595D01*
X278694Y405570D01*
X278775Y405541D01*
X278855Y405508D01*
X278932Y405472D01*
X279009Y405432D01*
X279083Y405388D01*
X279155Y405342D01*
X279225Y405292D01*
X277602Y403794D02*
X277550Y403827D01*
X277500Y403864D01*
X277452Y403903D01*
X277406Y403945D01*
X277363Y403990D01*
X277323Y404037D01*
X277286Y404086D01*
X277252Y404138D01*
X277222Y404192D01*
X277194Y404248D01*
X277170Y404305D01*
X277150Y404363D01*
X277133Y404423D01*
X277120Y404483D01*
X277111Y404544D01*
X277105Y404606D01*
X277103Y404668D01*
X278975Y403046D02*
X279027Y403013D01*
X279077Y402976D01*
X279125Y402937D01*
X279171Y402895D01*
X279214Y402850D01*
X279254Y402803D01*
X279291Y402754D01*
X279325Y402702D01*
X279355Y402648D01*
X279383Y402592D01*
X279407Y402535D01*
X279427Y402477D01*
X279444Y402417D01*
X279457Y402357D01*
X279466Y402296D01*
X279472Y402234D01*
X279474Y402172D01*
X278975Y403046D02*
X277603Y403794D01*
X282312Y401174D02*
X283310Y401174D01*
X282312Y401174D02*
X282252Y401176D01*
X282192Y401181D01*
X282132Y401190D01*
X282073Y401203D01*
X282015Y401219D01*
X281958Y401239D01*
X281902Y401262D01*
X281848Y401288D01*
X281796Y401318D01*
X281745Y401351D01*
X281697Y401386D01*
X281650Y401425D01*
X281606Y401466D01*
X281565Y401510D01*
X281526Y401557D01*
X281491Y401605D01*
X281458Y401656D01*
X281428Y401708D01*
X281402Y401762D01*
X281379Y401818D01*
X281359Y401875D01*
X281343Y401933D01*
X281330Y401992D01*
X281321Y402052D01*
X281316Y402112D01*
X281314Y402172D01*
X281314Y404668D01*
X281316Y404731D01*
X281322Y404793D01*
X281332Y404855D01*
X281345Y404916D01*
X281363Y404976D01*
X281384Y405035D01*
X281409Y405093D01*
X281437Y405149D01*
X281469Y405203D01*
X281505Y405255D01*
X281543Y405304D01*
X281584Y405351D01*
X281629Y405395D01*
X281676Y405437D01*
X281725Y405475D01*
X281777Y405511D01*
X281831Y405543D01*
X281887Y405571D01*
X281945Y405596D01*
X282004Y405617D01*
X282064Y405635D01*
X282125Y405648D01*
X282187Y405658D01*
X282249Y405664D01*
X282312Y405666D01*
X283310Y405666D01*
M02*
