G04 EAGLE Gerber RS-274X export*
G75*
%MOMM*%
%FSLAX34Y34*%
%LPD*%
%INSoldermask Top*%
%IPPOS*%
%AMOC8*
5,1,8,0,0,1.08239X$1,22.5*%
G01*
%ADD10C,1.727200*%
%ADD11P,1.869504X8X22.500000*%
%ADD12P,1.869504X8X202.500000*%
%ADD13C,1.727200*%
%ADD14R,1.711200X1.711200*%
%ADD15C,1.711200*%
%ADD16C,2.453200*%
%ADD17R,0.402400X0.908000*%
%ADD18R,0.908000X0.402400*%
%ADD19R,5.703200X5.703200*%
%ADD20C,1.793200*%
%ADD21R,1.793200X1.793200*%
%ADD22C,1.993900*%
%ADD23R,0.762000X0.914400*%
%ADD24R,0.803200X0.903200*%
%ADD25R,0.453200X0.503200*%
%ADD26R,0.703200X0.503200*%
%ADD27C,1.422400*%
%ADD28R,3.657600X1.600200*%
%ADD29C,0.490509*%
%ADD30R,1.574800X1.574800*%
%ADD31C,1.574800*%
%ADD32R,0.493200X0.503200*%
%ADD33R,0.863600X2.235200*%
%ADD34C,0.959600*%


D10*
X579800Y480200D03*
D11*
X605200Y480200D03*
X630600Y480200D03*
X579800Y505600D03*
X605200Y505600D03*
X630600Y505600D03*
D12*
X753400Y505190D03*
X728000Y505190D03*
X702600Y505190D03*
X677200Y505190D03*
X753400Y479790D03*
X728000Y479790D03*
X702600Y479790D03*
X677200Y479790D03*
D13*
X305530Y490460D02*
X305530Y505700D01*
X330930Y505700D02*
X330930Y490460D01*
X356330Y490460D02*
X356330Y505700D01*
X381730Y505700D02*
X381730Y490460D01*
D14*
X788652Y436600D03*
D15*
X763252Y436600D03*
X737852Y436600D03*
X712452Y436600D03*
X687052Y436600D03*
X661652Y436600D03*
X636252Y436600D03*
X610852Y436600D03*
X585452Y436600D03*
X560052Y436600D03*
X534652Y436600D03*
X509252Y436600D03*
X483852Y436600D03*
X458452Y436600D03*
X458452Y233400D03*
X483852Y233400D03*
X509252Y233400D03*
X534652Y233400D03*
X560052Y233400D03*
X585452Y233400D03*
X610852Y233400D03*
X636252Y233400D03*
X661652Y233400D03*
X687052Y233400D03*
X712452Y233400D03*
X737852Y233400D03*
X763252Y233400D03*
X788652Y233400D03*
D16*
X987500Y437500D03*
X987500Y232500D03*
X417500Y232500D03*
X417500Y437500D03*
D17*
X247500Y439524D03*
X242500Y439524D03*
X237500Y439524D03*
X232500Y439524D03*
X227500Y439524D03*
X222500Y439524D03*
X217500Y439524D03*
X212500Y439524D03*
X207500Y439524D03*
X202500Y439524D03*
X197500Y439524D03*
X192500Y439524D03*
D18*
X185476Y432500D03*
X185476Y427500D03*
X185476Y422500D03*
X185476Y417500D03*
X185476Y412500D03*
X185476Y407500D03*
X185476Y402500D03*
X185476Y397500D03*
X185476Y392500D03*
X185476Y387500D03*
X185476Y382500D03*
X185476Y377500D03*
D17*
X192500Y370476D03*
X197500Y370476D03*
X202500Y370476D03*
X207500Y370476D03*
X212500Y370476D03*
X217500Y370476D03*
X222500Y370476D03*
X227500Y370476D03*
X232500Y370476D03*
X237500Y370476D03*
X242500Y370476D03*
X247500Y370476D03*
D18*
X254524Y377500D03*
X254524Y382500D03*
X254524Y387500D03*
X254524Y392500D03*
X254524Y397500D03*
X254524Y402500D03*
X254524Y407500D03*
X254524Y412500D03*
X254524Y417500D03*
X254524Y422500D03*
X254524Y427500D03*
X254524Y432500D03*
D19*
X220000Y405000D03*
D20*
X262400Y150000D03*
X287800Y150000D03*
X313200Y150000D03*
X338600Y150000D03*
X364000Y150000D03*
X389400Y150000D03*
X414800Y150000D03*
X643400Y150000D03*
X618000Y150000D03*
X668800Y150000D03*
X694200Y150000D03*
X719600Y150000D03*
D21*
X745000Y150000D03*
D22*
X106110Y258730D03*
X106110Y208692D03*
X105430Y152420D03*
X105430Y102382D03*
X104710Y495600D03*
X104710Y445562D03*
D23*
X162000Y299586D03*
X162000Y310000D03*
D24*
X277680Y408110D03*
X267680Y408110D03*
D25*
X302430Y473310D03*
X308430Y473310D03*
D26*
X316770Y473220D03*
X324770Y473220D03*
D27*
X503810Y497490D03*
X503810Y484790D03*
X491110Y497490D03*
X491110Y484790D03*
X478410Y497490D03*
X478410Y484790D03*
X465710Y497490D03*
X465710Y484790D03*
X453010Y497490D03*
X453010Y484790D03*
D28*
X214030Y286489D03*
X214030Y343131D03*
D29*
X348306Y374196D02*
X348306Y377324D01*
X350834Y377324D01*
X350834Y374196D01*
X348306Y374196D01*
X339706Y374196D02*
X339706Y377324D01*
X342234Y377324D01*
X342234Y374196D01*
X339706Y374196D01*
X334284Y473276D02*
X334284Y476404D01*
X334284Y473276D02*
X331756Y473276D01*
X331756Y476404D01*
X334284Y476404D01*
X342884Y476404D02*
X342884Y473276D01*
X340356Y473276D01*
X340356Y476404D01*
X342884Y476404D01*
D13*
X776330Y155460D02*
X791570Y155460D01*
X791570Y180860D02*
X776330Y180860D01*
X776110Y123890D02*
X791350Y123890D01*
X791350Y98490D02*
X776110Y98490D01*
D30*
X107300Y379840D03*
D31*
X107300Y324722D03*
D32*
X272590Y396320D03*
X277030Y396320D03*
D33*
X295950Y394266D03*
X295950Y455734D03*
X308650Y394266D03*
X321350Y394266D03*
X308650Y455734D03*
X321350Y455734D03*
X334050Y394266D03*
X334050Y455734D03*
X355950Y394266D03*
X355950Y455734D03*
X368650Y394266D03*
X381350Y394266D03*
X368650Y455734D03*
X381350Y455734D03*
X394050Y394266D03*
X394050Y455734D03*
D34*
X318750Y483750D03*
X285750Y400050D03*
X310000Y366250D03*
X269837Y420000D03*
X275296Y434704D03*
X175000Y395000D03*
M02*
