G04 EAGLE Gerber RS-274X export*
G75*
%MOMM*%
%FSLAX34Y34*%
%LPD*%
%INSoldermask Top*%
%IPPOS*%
%AMOC8*
5,1,8,0,0,1.08239X$1,22.5*%
G01*
%ADD10C,1.727200*%
%ADD11P,1.869504X8X22.500000*%
%ADD12P,1.869504X8X202.500000*%
%ADD13C,1.727200*%
%ADD14R,0.711200X1.727200*%
%ADD15R,1.711200X1.711200*%
%ADD16C,1.711200*%
%ADD17C,2.453200*%
%ADD18R,0.402400X0.908000*%
%ADD19R,0.908000X0.402400*%
%ADD20R,5.703200X5.703200*%
%ADD21C,1.793200*%
%ADD22R,1.793200X1.793200*%
%ADD23C,1.993900*%
%ADD24R,0.762000X0.914400*%
%ADD25R,0.493200X0.503200*%
%ADD26R,0.453200X0.503200*%
%ADD27R,0.703200X0.503200*%
%ADD28C,1.422400*%
%ADD29R,3.657600X1.600200*%
%ADD30C,0.490509*%
%ADD31R,1.574800X1.574800*%
%ADD32C,1.574800*%
%ADD33C,0.959600*%


D10*
X579800Y480200D03*
D11*
X605200Y480200D03*
X630600Y480200D03*
X579800Y505600D03*
X605200Y505600D03*
X630600Y505600D03*
D12*
X753400Y505190D03*
X728000Y505190D03*
X702600Y505190D03*
X677200Y505190D03*
X753400Y479790D03*
X728000Y479790D03*
X702600Y479790D03*
X677200Y479790D03*
D13*
X305530Y490460D02*
X305530Y505700D01*
X330930Y505700D02*
X330930Y490460D01*
X356330Y490460D02*
X356330Y505700D01*
X381730Y505700D02*
X381730Y490460D01*
D14*
X289180Y401290D03*
X301880Y401290D03*
X314580Y401290D03*
X327280Y401290D03*
X289180Y457170D03*
X301880Y457170D03*
X314580Y457170D03*
X327280Y457170D03*
D15*
X788652Y436600D03*
D16*
X763252Y436600D03*
X737852Y436600D03*
X712452Y436600D03*
X687052Y436600D03*
X661652Y436600D03*
X636252Y436600D03*
X610852Y436600D03*
X585452Y436600D03*
X560052Y436600D03*
X534652Y436600D03*
X509252Y436600D03*
X483852Y436600D03*
X458452Y436600D03*
X458452Y233400D03*
X483852Y233400D03*
X509252Y233400D03*
X534652Y233400D03*
X560052Y233400D03*
X585452Y233400D03*
X610852Y233400D03*
X636252Y233400D03*
X661652Y233400D03*
X687052Y233400D03*
X712452Y233400D03*
X737852Y233400D03*
X763252Y233400D03*
X788652Y233400D03*
D17*
X987500Y437500D03*
X987500Y232500D03*
X417500Y232500D03*
X417500Y437500D03*
D14*
X342140Y402060D03*
X354840Y402060D03*
X367540Y402060D03*
X380240Y402060D03*
X342140Y457940D03*
X354840Y457940D03*
X367540Y457940D03*
X380240Y457940D03*
D18*
X247500Y439524D03*
X242500Y439524D03*
X237500Y439524D03*
X232500Y439524D03*
X227500Y439524D03*
X222500Y439524D03*
X217500Y439524D03*
X212500Y439524D03*
X207500Y439524D03*
X202500Y439524D03*
X197500Y439524D03*
X192500Y439524D03*
D19*
X185476Y432500D03*
X185476Y427500D03*
X185476Y422500D03*
X185476Y417500D03*
X185476Y412500D03*
X185476Y407500D03*
X185476Y402500D03*
X185476Y397500D03*
X185476Y392500D03*
X185476Y387500D03*
X185476Y382500D03*
X185476Y377500D03*
D18*
X192500Y370476D03*
X197500Y370476D03*
X202500Y370476D03*
X207500Y370476D03*
X212500Y370476D03*
X217500Y370476D03*
X222500Y370476D03*
X227500Y370476D03*
X232500Y370476D03*
X237500Y370476D03*
X242500Y370476D03*
X247500Y370476D03*
D19*
X254524Y377500D03*
X254524Y382500D03*
X254524Y387500D03*
X254524Y392500D03*
X254524Y397500D03*
X254524Y402500D03*
X254524Y407500D03*
X254524Y412500D03*
X254524Y417500D03*
X254524Y422500D03*
X254524Y427500D03*
X254524Y432500D03*
D20*
X220000Y405000D03*
D21*
X247400Y150000D03*
X272800Y150000D03*
X298200Y150000D03*
X323600Y150000D03*
X349000Y150000D03*
X374400Y150000D03*
X399800Y150000D03*
X628400Y150000D03*
X603000Y150000D03*
X653800Y150000D03*
X679200Y150000D03*
X704600Y150000D03*
D22*
X730000Y150000D03*
D23*
X106110Y258730D03*
X106110Y208692D03*
X105430Y152420D03*
X105430Y102382D03*
X104710Y495600D03*
X104710Y445562D03*
D24*
X162000Y299586D03*
X162000Y310000D03*
D25*
X274900Y405570D03*
X270460Y405570D03*
D26*
X302390Y470870D03*
X308390Y470870D03*
D27*
X316730Y470780D03*
X324730Y470780D03*
D28*
X503810Y497490D03*
X503810Y484790D03*
X491110Y497490D03*
X491110Y484790D03*
X478410Y497490D03*
X478410Y484790D03*
X465710Y497490D03*
X465710Y484790D03*
X453010Y497490D03*
X453010Y484790D03*
D29*
X214030Y286489D03*
X214030Y343131D03*
D30*
X338586Y386546D02*
X338586Y389674D01*
X341114Y389674D01*
X341114Y386546D01*
X338586Y386546D01*
X329986Y386546D02*
X329986Y389674D01*
X332514Y389674D01*
X332514Y386546D01*
X329986Y386546D01*
X334244Y470836D02*
X334244Y473964D01*
X334244Y470836D02*
X331716Y470836D01*
X331716Y473964D01*
X334244Y473964D01*
X342844Y473964D02*
X342844Y470836D01*
X340316Y470836D01*
X340316Y473964D01*
X342844Y473964D01*
D13*
X776330Y155460D02*
X791570Y155460D01*
X791570Y180860D02*
X776330Y180860D01*
X776110Y123890D02*
X791350Y123890D01*
X791350Y98490D02*
X776110Y98490D01*
D31*
X107300Y379840D03*
D32*
X107300Y324722D03*
D25*
X272590Y396320D03*
X277030Y396320D03*
D33*
X340000Y415000D03*
X361188Y446532D03*
X289560Y423672D03*
X300000Y385000D03*
X271780Y420370D03*
X276860Y436880D03*
X175000Y395000D03*
M02*
