G04 EAGLE Gerber RS-274X export*
G75*
%MOMM*%
%FSLAX34Y34*%
%LPD*%
%INSolderpaste Top*%
%IPPOS*%
%AMOC8*
5,1,8,0,0,1.08239X$1,22.5*%
G01*
%ADD10R,0.199200X0.704800*%
%ADD11R,0.704800X0.199200*%
%ADD12R,0.558800X0.711200*%
%ADD13R,0.600000X0.700000*%
%ADD14R,0.250000X0.300000*%
%ADD15R,0.500000X0.300000*%
%ADD16R,3.454400X1.397000*%
%ADD17C,0.286200*%
%ADD18R,0.290000X0.300000*%
%ADD19R,0.660400X2.032000*%

G36*
X205252Y419625D02*
X205252Y419625D01*
X205254Y419624D01*
X205297Y419644D01*
X205341Y419662D01*
X205341Y419664D01*
X205343Y419665D01*
X205376Y419750D01*
X205376Y431500D01*
X205375Y431502D01*
X205376Y431504D01*
X205356Y431547D01*
X205338Y431591D01*
X205336Y431591D01*
X205335Y431593D01*
X205250Y431626D01*
X193500Y431626D01*
X193498Y431625D01*
X193496Y431626D01*
X193453Y431606D01*
X193409Y431588D01*
X193409Y431586D01*
X193407Y431585D01*
X193374Y431500D01*
X193374Y419750D01*
X193375Y419748D01*
X193374Y419746D01*
X193394Y419703D01*
X193412Y419659D01*
X193414Y419659D01*
X193415Y419657D01*
X193500Y419624D01*
X205250Y419624D01*
X205252Y419625D01*
G37*
G36*
X219002Y419625D02*
X219002Y419625D01*
X219004Y419624D01*
X219047Y419644D01*
X219091Y419662D01*
X219091Y419664D01*
X219093Y419665D01*
X219126Y419750D01*
X219126Y431500D01*
X219125Y431502D01*
X219126Y431504D01*
X219106Y431547D01*
X219088Y431591D01*
X219086Y431591D01*
X219085Y431593D01*
X219000Y431626D01*
X207250Y431626D01*
X207248Y431625D01*
X207246Y431626D01*
X207203Y431606D01*
X207159Y431588D01*
X207159Y431586D01*
X207157Y431585D01*
X207124Y431500D01*
X207124Y419750D01*
X207125Y419748D01*
X207124Y419746D01*
X207144Y419703D01*
X207162Y419659D01*
X207164Y419659D01*
X207165Y419657D01*
X207250Y419624D01*
X219000Y419624D01*
X219002Y419625D01*
G37*
G36*
X232752Y419625D02*
X232752Y419625D01*
X232754Y419624D01*
X232797Y419644D01*
X232841Y419662D01*
X232841Y419664D01*
X232843Y419665D01*
X232876Y419750D01*
X232876Y431500D01*
X232875Y431502D01*
X232876Y431504D01*
X232856Y431547D01*
X232838Y431591D01*
X232836Y431591D01*
X232835Y431593D01*
X232750Y431626D01*
X221000Y431626D01*
X220998Y431625D01*
X220996Y431626D01*
X220953Y431606D01*
X220909Y431588D01*
X220909Y431586D01*
X220907Y431585D01*
X220874Y431500D01*
X220874Y419750D01*
X220875Y419748D01*
X220874Y419746D01*
X220894Y419703D01*
X220912Y419659D01*
X220914Y419659D01*
X220915Y419657D01*
X221000Y419624D01*
X232750Y419624D01*
X232752Y419625D01*
G37*
G36*
X246502Y419625D02*
X246502Y419625D01*
X246504Y419624D01*
X246547Y419644D01*
X246591Y419662D01*
X246591Y419664D01*
X246593Y419665D01*
X246626Y419750D01*
X246626Y431500D01*
X246625Y431502D01*
X246626Y431504D01*
X246606Y431547D01*
X246588Y431591D01*
X246586Y431591D01*
X246585Y431593D01*
X246500Y431626D01*
X234750Y431626D01*
X234748Y431625D01*
X234746Y431626D01*
X234703Y431606D01*
X234659Y431588D01*
X234659Y431586D01*
X234657Y431585D01*
X234624Y431500D01*
X234624Y419750D01*
X234625Y419748D01*
X234624Y419746D01*
X234644Y419703D01*
X234662Y419659D01*
X234664Y419659D01*
X234665Y419657D01*
X234750Y419624D01*
X246500Y419624D01*
X246502Y419625D01*
G37*
G36*
X205252Y405875D02*
X205252Y405875D01*
X205254Y405874D01*
X205297Y405894D01*
X205341Y405912D01*
X205341Y405914D01*
X205343Y405915D01*
X205376Y406000D01*
X205376Y417750D01*
X205375Y417752D01*
X205376Y417754D01*
X205356Y417797D01*
X205338Y417841D01*
X205336Y417841D01*
X205335Y417843D01*
X205250Y417876D01*
X193500Y417876D01*
X193498Y417875D01*
X193496Y417876D01*
X193453Y417856D01*
X193409Y417838D01*
X193409Y417836D01*
X193407Y417835D01*
X193374Y417750D01*
X193374Y406000D01*
X193375Y405998D01*
X193374Y405996D01*
X193394Y405953D01*
X193412Y405909D01*
X193414Y405909D01*
X193415Y405907D01*
X193500Y405874D01*
X205250Y405874D01*
X205252Y405875D01*
G37*
G36*
X246502Y405875D02*
X246502Y405875D01*
X246504Y405874D01*
X246547Y405894D01*
X246591Y405912D01*
X246591Y405914D01*
X246593Y405915D01*
X246626Y406000D01*
X246626Y417750D01*
X246625Y417752D01*
X246626Y417754D01*
X246606Y417797D01*
X246588Y417841D01*
X246586Y417841D01*
X246585Y417843D01*
X246500Y417876D01*
X234750Y417876D01*
X234748Y417875D01*
X234746Y417876D01*
X234703Y417856D01*
X234659Y417838D01*
X234659Y417836D01*
X234657Y417835D01*
X234624Y417750D01*
X234624Y406000D01*
X234625Y405998D01*
X234624Y405996D01*
X234644Y405953D01*
X234662Y405909D01*
X234664Y405909D01*
X234665Y405907D01*
X234750Y405874D01*
X246500Y405874D01*
X246502Y405875D01*
G37*
G36*
X232752Y405875D02*
X232752Y405875D01*
X232754Y405874D01*
X232797Y405894D01*
X232841Y405912D01*
X232841Y405914D01*
X232843Y405915D01*
X232876Y406000D01*
X232876Y417750D01*
X232875Y417752D01*
X232876Y417754D01*
X232856Y417797D01*
X232838Y417841D01*
X232836Y417841D01*
X232835Y417843D01*
X232750Y417876D01*
X221000Y417876D01*
X220998Y417875D01*
X220996Y417876D01*
X220953Y417856D01*
X220909Y417838D01*
X220909Y417836D01*
X220907Y417835D01*
X220874Y417750D01*
X220874Y406000D01*
X220875Y405998D01*
X220874Y405996D01*
X220894Y405953D01*
X220912Y405909D01*
X220914Y405909D01*
X220915Y405907D01*
X221000Y405874D01*
X232750Y405874D01*
X232752Y405875D01*
G37*
G36*
X219002Y405875D02*
X219002Y405875D01*
X219004Y405874D01*
X219047Y405894D01*
X219091Y405912D01*
X219091Y405914D01*
X219093Y405915D01*
X219126Y406000D01*
X219126Y417750D01*
X219125Y417752D01*
X219126Y417754D01*
X219106Y417797D01*
X219088Y417841D01*
X219086Y417841D01*
X219085Y417843D01*
X219000Y417876D01*
X207250Y417876D01*
X207248Y417875D01*
X207246Y417876D01*
X207203Y417856D01*
X207159Y417838D01*
X207159Y417836D01*
X207157Y417835D01*
X207124Y417750D01*
X207124Y406000D01*
X207125Y405998D01*
X207124Y405996D01*
X207144Y405953D01*
X207162Y405909D01*
X207164Y405909D01*
X207165Y405907D01*
X207250Y405874D01*
X219000Y405874D01*
X219002Y405875D01*
G37*
G36*
X232752Y392125D02*
X232752Y392125D01*
X232754Y392124D01*
X232797Y392144D01*
X232841Y392162D01*
X232841Y392164D01*
X232843Y392165D01*
X232876Y392250D01*
X232876Y404000D01*
X232875Y404002D01*
X232876Y404004D01*
X232856Y404047D01*
X232838Y404091D01*
X232836Y404091D01*
X232835Y404093D01*
X232750Y404126D01*
X221000Y404126D01*
X220998Y404125D01*
X220996Y404126D01*
X220953Y404106D01*
X220909Y404088D01*
X220909Y404086D01*
X220907Y404085D01*
X220874Y404000D01*
X220874Y392250D01*
X220875Y392248D01*
X220874Y392246D01*
X220894Y392203D01*
X220912Y392159D01*
X220914Y392159D01*
X220915Y392157D01*
X221000Y392124D01*
X232750Y392124D01*
X232752Y392125D01*
G37*
G36*
X205252Y392125D02*
X205252Y392125D01*
X205254Y392124D01*
X205297Y392144D01*
X205341Y392162D01*
X205341Y392164D01*
X205343Y392165D01*
X205376Y392250D01*
X205376Y404000D01*
X205375Y404002D01*
X205376Y404004D01*
X205356Y404047D01*
X205338Y404091D01*
X205336Y404091D01*
X205335Y404093D01*
X205250Y404126D01*
X193500Y404126D01*
X193498Y404125D01*
X193496Y404126D01*
X193453Y404106D01*
X193409Y404088D01*
X193409Y404086D01*
X193407Y404085D01*
X193374Y404000D01*
X193374Y392250D01*
X193375Y392248D01*
X193374Y392246D01*
X193394Y392203D01*
X193412Y392159D01*
X193414Y392159D01*
X193415Y392157D01*
X193500Y392124D01*
X205250Y392124D01*
X205252Y392125D01*
G37*
G36*
X219002Y392125D02*
X219002Y392125D01*
X219004Y392124D01*
X219047Y392144D01*
X219091Y392162D01*
X219091Y392164D01*
X219093Y392165D01*
X219126Y392250D01*
X219126Y404000D01*
X219125Y404002D01*
X219126Y404004D01*
X219106Y404047D01*
X219088Y404091D01*
X219086Y404091D01*
X219085Y404093D01*
X219000Y404126D01*
X207250Y404126D01*
X207248Y404125D01*
X207246Y404126D01*
X207203Y404106D01*
X207159Y404088D01*
X207159Y404086D01*
X207157Y404085D01*
X207124Y404000D01*
X207124Y392250D01*
X207125Y392248D01*
X207124Y392246D01*
X207144Y392203D01*
X207162Y392159D01*
X207164Y392159D01*
X207165Y392157D01*
X207250Y392124D01*
X219000Y392124D01*
X219002Y392125D01*
G37*
G36*
X246502Y392125D02*
X246502Y392125D01*
X246504Y392124D01*
X246547Y392144D01*
X246591Y392162D01*
X246591Y392164D01*
X246593Y392165D01*
X246626Y392250D01*
X246626Y404000D01*
X246625Y404002D01*
X246626Y404004D01*
X246606Y404047D01*
X246588Y404091D01*
X246586Y404091D01*
X246585Y404093D01*
X246500Y404126D01*
X234750Y404126D01*
X234748Y404125D01*
X234746Y404126D01*
X234703Y404106D01*
X234659Y404088D01*
X234659Y404086D01*
X234657Y404085D01*
X234624Y404000D01*
X234624Y392250D01*
X234625Y392248D01*
X234624Y392246D01*
X234644Y392203D01*
X234662Y392159D01*
X234664Y392159D01*
X234665Y392157D01*
X234750Y392124D01*
X246500Y392124D01*
X246502Y392125D01*
G37*
G36*
X219002Y378375D02*
X219002Y378375D01*
X219004Y378374D01*
X219047Y378394D01*
X219091Y378412D01*
X219091Y378414D01*
X219093Y378415D01*
X219126Y378500D01*
X219126Y390250D01*
X219125Y390252D01*
X219126Y390254D01*
X219106Y390297D01*
X219088Y390341D01*
X219086Y390341D01*
X219085Y390343D01*
X219000Y390376D01*
X207250Y390376D01*
X207248Y390375D01*
X207246Y390376D01*
X207203Y390356D01*
X207159Y390338D01*
X207159Y390336D01*
X207157Y390335D01*
X207124Y390250D01*
X207124Y378500D01*
X207125Y378498D01*
X207124Y378496D01*
X207144Y378453D01*
X207162Y378409D01*
X207164Y378409D01*
X207165Y378407D01*
X207250Y378374D01*
X219000Y378374D01*
X219002Y378375D01*
G37*
G36*
X232752Y378375D02*
X232752Y378375D01*
X232754Y378374D01*
X232797Y378394D01*
X232841Y378412D01*
X232841Y378414D01*
X232843Y378415D01*
X232876Y378500D01*
X232876Y390250D01*
X232875Y390252D01*
X232876Y390254D01*
X232856Y390297D01*
X232838Y390341D01*
X232836Y390341D01*
X232835Y390343D01*
X232750Y390376D01*
X221000Y390376D01*
X220998Y390375D01*
X220996Y390376D01*
X220953Y390356D01*
X220909Y390338D01*
X220909Y390336D01*
X220907Y390335D01*
X220874Y390250D01*
X220874Y378500D01*
X220875Y378498D01*
X220874Y378496D01*
X220894Y378453D01*
X220912Y378409D01*
X220914Y378409D01*
X220915Y378407D01*
X221000Y378374D01*
X232750Y378374D01*
X232752Y378375D01*
G37*
G36*
X246502Y378375D02*
X246502Y378375D01*
X246504Y378374D01*
X246547Y378394D01*
X246591Y378412D01*
X246591Y378414D01*
X246593Y378415D01*
X246626Y378500D01*
X246626Y390250D01*
X246625Y390252D01*
X246626Y390254D01*
X246606Y390297D01*
X246588Y390341D01*
X246586Y390341D01*
X246585Y390343D01*
X246500Y390376D01*
X234750Y390376D01*
X234748Y390375D01*
X234746Y390376D01*
X234703Y390356D01*
X234659Y390338D01*
X234659Y390336D01*
X234657Y390335D01*
X234624Y390250D01*
X234624Y378500D01*
X234625Y378498D01*
X234624Y378496D01*
X234644Y378453D01*
X234662Y378409D01*
X234664Y378409D01*
X234665Y378407D01*
X234750Y378374D01*
X246500Y378374D01*
X246502Y378375D01*
G37*
G36*
X205252Y378375D02*
X205252Y378375D01*
X205254Y378374D01*
X205297Y378394D01*
X205341Y378412D01*
X205341Y378414D01*
X205343Y378415D01*
X205376Y378500D01*
X205376Y390250D01*
X205375Y390252D01*
X205376Y390254D01*
X205356Y390297D01*
X205338Y390341D01*
X205336Y390341D01*
X205335Y390343D01*
X205250Y390376D01*
X193500Y390376D01*
X193498Y390375D01*
X193496Y390376D01*
X193453Y390356D01*
X193409Y390338D01*
X193409Y390336D01*
X193407Y390335D01*
X193374Y390250D01*
X193374Y378500D01*
X193375Y378498D01*
X193374Y378496D01*
X193394Y378453D01*
X193412Y378409D01*
X193414Y378409D01*
X193415Y378407D01*
X193500Y378374D01*
X205250Y378374D01*
X205252Y378375D01*
G37*
D10*
X247500Y439524D03*
X242500Y439524D03*
X237500Y439524D03*
X232500Y439524D03*
X227500Y439524D03*
X222500Y439524D03*
X217500Y439524D03*
X212500Y439524D03*
X207500Y439524D03*
X202500Y439524D03*
X197500Y439524D03*
X192500Y439524D03*
D11*
X185476Y432500D03*
X185476Y427500D03*
X185476Y422500D03*
X185476Y417500D03*
X185476Y412500D03*
X185476Y407500D03*
X185476Y402500D03*
X185476Y397500D03*
X185476Y392500D03*
X185476Y387500D03*
X185476Y382500D03*
X185476Y377500D03*
D10*
X192500Y370476D03*
X197500Y370476D03*
X202500Y370476D03*
X207500Y370476D03*
X212500Y370476D03*
X217500Y370476D03*
X222500Y370476D03*
X227500Y370476D03*
X232500Y370476D03*
X237500Y370476D03*
X242500Y370476D03*
X247500Y370476D03*
D11*
X254524Y377500D03*
X254524Y382500D03*
X254524Y387500D03*
X254524Y392500D03*
X254524Y397500D03*
X254524Y402500D03*
X254524Y407500D03*
X254524Y412500D03*
X254524Y417500D03*
X254524Y422500D03*
X254524Y427500D03*
X254524Y432500D03*
D12*
X162000Y299586D03*
X162000Y310000D03*
D13*
X277680Y408110D03*
X267680Y408110D03*
D14*
X302430Y473310D03*
X308430Y473310D03*
D15*
X316770Y473220D03*
X324770Y473220D03*
D16*
X214030Y286489D03*
X214030Y343131D03*
D17*
X348301Y374191D02*
X348301Y377329D01*
X350839Y377329D01*
X350839Y374191D01*
X348301Y374191D01*
X348301Y376910D02*
X350839Y376910D01*
X339701Y377329D02*
X339701Y374191D01*
X339701Y377329D02*
X342239Y377329D01*
X342239Y374191D01*
X339701Y374191D01*
X339701Y376910D02*
X342239Y376910D01*
X334289Y473271D02*
X334289Y476409D01*
X334289Y473271D02*
X331751Y473271D01*
X331751Y476409D01*
X334289Y476409D01*
X334289Y475990D02*
X331751Y475990D01*
X342889Y476409D02*
X342889Y473271D01*
X340351Y473271D01*
X340351Y476409D01*
X342889Y476409D01*
X342889Y475990D02*
X340351Y475990D01*
D18*
X272590Y396320D03*
X277030Y396320D03*
D19*
X295950Y394266D03*
X295950Y455734D03*
X308650Y394266D03*
X321350Y394266D03*
X308650Y455734D03*
X321350Y455734D03*
X334050Y394266D03*
X334050Y455734D03*
X355950Y394266D03*
X355950Y455734D03*
X368650Y394266D03*
X381350Y394266D03*
X368650Y455734D03*
X381350Y455734D03*
X394050Y394266D03*
X394050Y455734D03*
M02*
