G04 EAGLE Gerber RS-274X export*
G75*
%MOMM*%
%FSLAX34Y34*%
%LPD*%
%INTop Copper*%
%IPPOS*%
%AMOC8*
5,1,8,0,0,1.08239X$1,22.5*%
G01*
%ADD10C,1.508000*%
%ADD11C,1.508000*%
%ADD12C,1.422400*%
%ADD13C,1.676400*%
%ADD14R,1.676400X1.676400*%
%ADD15C,1.524000*%
%ADD16P,1.649562X8X22.500000*%
%ADD17C,1.524000*%
%ADD18C,1.790700*%
%ADD19P,1.429621X8X22.500000*%
%ADD20P,1.429621X8X292.500000*%
%ADD21R,0.508000X1.981200*%
%ADD22R,0.800000X3.000000*%
%ADD23R,10.000000X9.000000*%
%ADD24P,1.649562X8X202.500000*%
%ADD25R,1.320800X0.558800*%
%ADD26P,1.649562X8X112.500000*%
%ADD27R,0.558800X1.320800*%
%ADD28P,1.429621X8X202.500000*%
%ADD29P,1.429621X8X112.500000*%
%ADD30R,1.524000X0.508000*%
%ADD31R,5.400000X6.200000*%
%ADD32R,1.000000X1.600000*%
%ADD33C,1.320800*%
%ADD34R,1.270000X0.381000*%
%ADD35P,1.649562X8X292.500000*%
%ADD36R,2.200000X0.600000*%
%ADD37C,0.406400*%
%ADD38C,1.006400*%
%ADD39C,0.812800*%
%ADD40C,1.206400*%


D10*
X1701800Y284560D02*
X1701800Y299640D01*
X1676400Y299640D02*
X1676400Y284560D01*
X1651000Y284560D02*
X1651000Y299640D01*
X1625600Y299640D02*
X1625600Y284560D01*
X1600200Y284560D02*
X1600200Y299640D01*
X1574800Y299640D02*
X1574800Y284560D01*
X1574800Y767160D02*
X1574800Y782240D01*
X1549400Y782240D02*
X1549400Y767160D01*
X1524000Y767160D02*
X1524000Y782240D01*
X1498600Y782240D02*
X1498600Y767160D01*
X1473200Y767160D02*
X1473200Y782240D01*
X1447800Y782240D02*
X1447800Y767160D01*
X1422400Y767160D02*
X1422400Y782240D01*
X1397000Y782240D02*
X1397000Y767160D01*
X1346200Y767160D02*
X1346200Y782240D01*
X1320800Y782240D02*
X1320800Y767160D01*
X1270000Y767160D02*
X1270000Y782240D01*
X1244600Y782240D02*
X1244600Y767160D01*
X1219200Y767160D02*
X1219200Y782240D01*
X1193800Y782240D02*
X1193800Y767160D01*
X1168400Y767160D02*
X1168400Y782240D01*
X1790700Y782240D02*
X1790700Y767160D01*
X1765300Y767160D02*
X1765300Y782240D01*
X1739900Y782240D02*
X1739900Y767160D01*
X1714500Y767160D02*
X1714500Y782240D01*
X1689100Y782240D02*
X1689100Y767160D01*
X1663700Y767160D02*
X1663700Y782240D01*
X1638300Y782240D02*
X1638300Y767160D01*
X1612900Y767160D02*
X1612900Y782240D01*
D11*
X1066800Y342900D03*
X1092200Y342900D03*
X1092200Y368300D03*
X1066800Y368300D03*
X1066800Y393700D03*
X1092200Y393700D03*
X1092200Y419100D03*
X1066800Y419100D03*
X1066800Y444500D03*
X1092200Y444500D03*
X1066800Y469900D03*
X1092200Y469900D03*
X1092200Y495300D03*
X1066800Y495300D03*
X1066800Y520700D03*
X1092200Y520700D03*
X1092200Y546100D03*
X1066800Y546100D03*
X1092200Y571500D03*
X1066800Y571500D03*
X1066800Y596900D03*
X1092200Y596900D03*
X1092200Y622300D03*
X1066800Y622300D03*
X1066800Y647700D03*
X1092200Y647700D03*
X1066800Y673100D03*
X1092200Y673100D03*
X1092200Y698500D03*
X1066800Y698500D03*
X1066800Y723900D03*
X1092200Y723900D03*
X1092200Y749300D03*
X1066800Y749300D03*
X1092200Y774700D03*
X1066800Y774700D03*
D10*
X1295400Y767160D02*
X1295400Y782240D01*
X1295400Y299640D02*
X1295400Y284560D01*
X1270000Y284560D02*
X1270000Y299640D01*
X1219200Y299640D02*
X1219200Y284560D01*
X1193800Y284560D02*
X1193800Y299640D01*
X1168400Y299640D02*
X1168400Y284560D01*
X1143000Y284560D02*
X1143000Y299640D01*
X1117600Y299640D02*
X1117600Y284560D01*
X1244600Y284560D02*
X1244600Y299640D01*
X1524000Y299640D02*
X1524000Y284560D01*
X1498600Y284560D02*
X1498600Y299640D01*
X1447800Y299640D02*
X1447800Y284560D01*
X1422400Y284560D02*
X1422400Y299640D01*
X1397000Y299640D02*
X1397000Y284560D01*
X1371600Y284560D02*
X1371600Y299640D01*
X1346200Y299640D02*
X1346200Y284560D01*
X1473200Y284560D02*
X1473200Y299640D01*
D12*
X1701800Y704088D02*
X1701800Y718312D01*
X1727200Y718312D02*
X1727200Y704088D01*
X1752600Y704088D02*
X1752600Y718312D01*
X1778000Y718312D02*
X1778000Y704088D01*
X1727200Y299212D02*
X1727200Y284988D01*
X1752600Y284988D02*
X1752600Y299212D01*
X1816100Y767588D02*
X1816100Y781812D01*
X1841500Y781812D02*
X1841500Y767588D01*
D13*
X1371600Y571500D03*
X1371600Y546100D03*
X1371600Y520700D03*
X1397000Y520700D03*
X1397000Y546100D03*
D14*
X1397000Y571500D03*
D10*
X1790700Y767160D02*
X1790700Y782240D01*
D15*
X1600200Y901700D03*
D16*
X1625600Y901700D03*
X1651000Y901700D03*
X1600200Y927100D03*
X1625600Y927100D03*
X1651000Y927100D03*
D15*
X1485900Y901700D03*
D16*
X1511300Y901700D03*
X1536700Y901700D03*
X1485900Y927100D03*
X1511300Y927100D03*
X1536700Y927100D03*
D17*
X134620Y584200D02*
X119380Y584200D01*
X119380Y609600D02*
X134620Y609600D01*
X134620Y635000D02*
X119380Y635000D01*
X119380Y685800D02*
X134620Y685800D01*
X134620Y711200D02*
X119380Y711200D01*
X119380Y736600D02*
X134620Y736600D01*
D18*
X394100Y-16447D02*
X394100Y-34354D01*
X444100Y-34354D02*
X444100Y-16447D01*
X521100Y-16447D02*
X521100Y-34354D01*
X571100Y-34354D02*
X571100Y-16447D01*
D19*
X1231900Y177800D03*
X1257300Y177800D03*
X1320800Y177800D03*
X1346200Y177800D03*
X1422400Y177800D03*
X1447800Y177800D03*
D20*
X1282700Y152400D03*
X1282700Y50800D03*
X1384300Y152400D03*
X1384300Y50800D03*
X1485900Y152400D03*
X1485900Y50800D03*
D16*
X444500Y927100D03*
X469900Y927100D03*
X495300Y927100D03*
X520700Y927100D03*
X444500Y952500D03*
X469900Y952500D03*
X495300Y952500D03*
X520700Y952500D03*
X330200Y927100D03*
X355600Y927100D03*
X381000Y927100D03*
X406400Y927100D03*
X330200Y952500D03*
X355600Y952500D03*
X381000Y952500D03*
X406400Y952500D03*
D18*
X161354Y520300D02*
X143447Y520300D01*
X143447Y470300D02*
X161354Y470300D01*
D17*
X1295400Y20320D02*
X1295400Y5080D01*
X1320800Y5080D02*
X1320800Y20320D01*
X1346200Y20320D02*
X1346200Y5080D01*
D21*
X958850Y951738D03*
X946150Y951738D03*
X933450Y951738D03*
X920750Y951738D03*
X908050Y951738D03*
X895350Y951738D03*
X882650Y951738D03*
X869950Y951738D03*
X869950Y902462D03*
X882650Y902462D03*
X895350Y902462D03*
X908050Y902462D03*
X920750Y902462D03*
X933450Y902462D03*
X946150Y902462D03*
X958850Y902462D03*
X958850Y799338D03*
X946150Y799338D03*
X933450Y799338D03*
X920750Y799338D03*
X908050Y799338D03*
X895350Y799338D03*
X882650Y799338D03*
X869950Y799338D03*
X869950Y750062D03*
X882650Y750062D03*
X895350Y750062D03*
X908050Y750062D03*
X920750Y750062D03*
X933450Y750062D03*
X946150Y750062D03*
X958850Y750062D03*
D22*
X317500Y263525D03*
X330200Y263525D03*
X342900Y263525D03*
X355600Y263525D03*
X368300Y263525D03*
X381000Y263525D03*
X393700Y263525D03*
D23*
X355600Y364550D03*
D22*
X127000Y263525D03*
X139700Y263525D03*
X152400Y263525D03*
X165100Y263525D03*
X177800Y263525D03*
X190500Y263525D03*
X203200Y263525D03*
D23*
X165100Y364550D03*
D16*
X558800Y736600D03*
X711200Y736600D03*
X558800Y787400D03*
X711200Y787400D03*
X558800Y685800D03*
X711200Y685800D03*
X558800Y838200D03*
X711200Y838200D03*
X558800Y889000D03*
X711200Y889000D03*
X558800Y939800D03*
X711200Y939800D03*
D24*
X711200Y635000D03*
X558800Y635000D03*
X711200Y584200D03*
X558800Y584200D03*
X533400Y774700D03*
X381000Y774700D03*
X711200Y533400D03*
X558800Y533400D03*
X533400Y876300D03*
X381000Y876300D03*
X533400Y825500D03*
X381000Y825500D03*
D19*
X495300Y723900D03*
X520700Y723900D03*
X431800Y723900D03*
X457200Y723900D03*
X495300Y685800D03*
X520700Y685800D03*
X431800Y685800D03*
X457200Y685800D03*
X495300Y647700D03*
X520700Y647700D03*
X431800Y647700D03*
X457200Y647700D03*
X495300Y609600D03*
X520700Y609600D03*
X431800Y609600D03*
X457200Y609600D03*
X431800Y571500D03*
X457200Y571500D03*
X495300Y571500D03*
X520700Y571500D03*
X431800Y533400D03*
X457200Y533400D03*
X495300Y533400D03*
X520700Y533400D03*
D15*
X1206500Y901700D03*
D16*
X1231900Y901700D03*
X1257300Y901700D03*
X1206500Y927100D03*
X1231900Y927100D03*
X1257300Y927100D03*
D25*
X1104900Y898398D03*
X1104900Y889000D03*
X1104900Y879602D03*
X1130300Y879602D03*
X1130300Y898398D03*
D17*
X1054100Y932180D02*
X1054100Y947420D01*
X1079500Y947420D02*
X1079500Y932180D01*
X1104900Y932180D02*
X1104900Y947420D01*
D26*
X444500Y254000D03*
X444500Y406400D03*
X254000Y254000D03*
X254000Y406400D03*
D27*
X524002Y254000D03*
X533400Y254000D03*
X542798Y254000D03*
X542798Y279400D03*
X524002Y279400D03*
D19*
X596900Y254000D03*
X622300Y254000D03*
D28*
X685800Y355600D03*
X660400Y355600D03*
D19*
X850900Y406400D03*
X876300Y406400D03*
X850900Y355600D03*
X876300Y355600D03*
D28*
X685800Y406400D03*
X660400Y406400D03*
D19*
X596900Y317500D03*
X622300Y317500D03*
D17*
X134620Y787400D02*
X119380Y787400D01*
X119380Y812800D02*
X134620Y812800D01*
X134620Y838200D02*
X119380Y838200D01*
X119380Y863600D02*
X134620Y863600D01*
D16*
X508000Y203200D03*
X660400Y203200D03*
D15*
X1524000Y0D03*
D16*
X1549400Y0D03*
X1574800Y0D03*
X1524000Y25400D03*
X1549400Y25400D03*
X1574800Y25400D03*
D18*
X267100Y-16447D02*
X267100Y-34354D01*
X317100Y-34354D02*
X317100Y-16447D01*
X140100Y-16447D02*
X140100Y-34354D01*
X190100Y-34354D02*
X190100Y-16447D01*
D17*
X1104900Y5080D02*
X1104900Y20320D01*
X1130300Y20320D02*
X1130300Y5080D01*
X1155700Y5080D02*
X1155700Y20320D01*
X1181100Y20320D02*
X1181100Y5080D01*
X1206500Y5080D02*
X1206500Y20320D01*
X1231900Y20320D02*
X1231900Y5080D01*
D29*
X850900Y647700D03*
X850900Y673100D03*
X889000Y520700D03*
X889000Y622300D03*
X927100Y647700D03*
X927100Y673100D03*
X927100Y520700D03*
X927100Y622300D03*
D19*
X787400Y863600D03*
X812800Y863600D03*
X787400Y939800D03*
X812800Y939800D03*
D17*
X1714500Y922020D02*
X1714500Y906780D01*
X1739900Y906780D02*
X1739900Y922020D01*
X1765300Y922020D02*
X1765300Y906780D01*
X1790700Y906780D02*
X1790700Y922020D01*
X1397000Y20320D02*
X1397000Y5080D01*
X1422400Y5080D02*
X1422400Y20320D01*
X1447800Y20320D02*
X1447800Y5080D01*
X1473200Y5080D02*
X1473200Y20320D01*
D24*
X468630Y190500D03*
X318770Y190500D03*
X278130Y190500D03*
X128270Y190500D03*
D17*
X1412240Y910590D02*
X1412240Y925830D01*
X1386840Y925830D02*
X1386840Y910590D01*
X1361440Y910590D02*
X1361440Y925830D01*
X1336040Y925830D02*
X1336040Y910590D01*
D19*
X850900Y254000D03*
X876300Y254000D03*
X850900Y304800D03*
X876300Y304800D03*
D28*
X685800Y304800D03*
X660400Y304800D03*
X685800Y254000D03*
X660400Y254000D03*
D30*
X787400Y309880D03*
X787400Y322580D03*
X787400Y335280D03*
X787400Y347980D03*
X731520Y309880D03*
X731520Y322580D03*
X731520Y335280D03*
X731520Y347980D03*
X787400Y433070D03*
X787400Y445770D03*
X787400Y458470D03*
X787400Y471170D03*
X731520Y433070D03*
X731520Y445770D03*
X731520Y458470D03*
X731520Y471170D03*
X787400Y378460D03*
X787400Y391160D03*
X787400Y403860D03*
X787400Y416560D03*
X731520Y378460D03*
X731520Y391160D03*
X731520Y403860D03*
X731520Y416560D03*
X787400Y247650D03*
X787400Y260350D03*
X787400Y273050D03*
X787400Y285750D03*
X731520Y247650D03*
X731520Y260350D03*
X731520Y273050D03*
X731520Y285750D03*
D31*
X584200Y126600D03*
D32*
X561400Y53600D03*
X607000Y53600D03*
D12*
X977900Y-30988D02*
X977900Y-45212D01*
X952500Y-45212D02*
X952500Y-30988D01*
X927100Y-30988D02*
X927100Y-45212D01*
X706500Y14788D02*
X706500Y29012D01*
X681100Y29012D02*
X681100Y14788D01*
X655700Y14788D02*
X655700Y29012D01*
D19*
X482600Y76200D03*
X508000Y76200D03*
D12*
X946900Y103688D02*
X946900Y117912D01*
X921500Y117912D02*
X921500Y103688D01*
D28*
X660400Y101600D03*
X635000Y101600D03*
D33*
X749300Y6604D02*
X749300Y-6604D01*
X774700Y-6604D02*
X774700Y6604D01*
X800100Y6604D02*
X800100Y-6604D01*
X825500Y-6604D02*
X825500Y6604D01*
X850900Y6604D02*
X850900Y-6604D01*
X876300Y-6604D02*
X876300Y6604D01*
X901700Y6604D02*
X901700Y-6604D01*
X927100Y-6604D02*
X927100Y6604D01*
X952500Y6604D02*
X952500Y-6604D01*
X977900Y-6604D02*
X977900Y6604D01*
X1003300Y6604D02*
X1003300Y-6604D01*
X1028700Y-6604D02*
X1028700Y6604D01*
X1028700Y145796D02*
X1028700Y159004D01*
X1003300Y159004D02*
X1003300Y145796D01*
X977900Y145796D02*
X977900Y159004D01*
X952500Y159004D02*
X952500Y145796D01*
X927100Y145796D02*
X927100Y159004D01*
X901700Y159004D02*
X901700Y145796D01*
X876300Y145796D02*
X876300Y159004D01*
X850900Y159004D02*
X850900Y145796D01*
X825500Y145796D02*
X825500Y159004D01*
X800100Y159004D02*
X800100Y145796D01*
X774700Y145796D02*
X774700Y159004D01*
X749300Y159004D02*
X749300Y145796D01*
D34*
X294900Y1024825D03*
X242900Y1037525D03*
X294900Y1018475D03*
X294900Y1031175D03*
X294900Y1037525D03*
X242900Y1031175D03*
X242900Y1043875D03*
X242900Y1050225D03*
X294900Y1050225D03*
X242900Y1062925D03*
X294900Y1043875D03*
X294900Y1056575D03*
X242900Y1056575D03*
X294900Y1062925D03*
X242900Y1024825D03*
X242900Y1018475D03*
D29*
X353600Y1030300D03*
X353600Y1055700D03*
X419300Y1029200D03*
X419300Y1054600D03*
D19*
X213800Y963000D03*
X239200Y963000D03*
X220100Y903000D03*
X245500Y903000D03*
D26*
X118000Y902500D03*
X118000Y1054900D03*
D35*
X167700Y1053300D03*
X167700Y900900D03*
D36*
X219500Y481650D03*
X271500Y481650D03*
X219500Y494350D03*
X219500Y468950D03*
X219500Y456250D03*
X271500Y494350D03*
X271500Y468950D03*
X271500Y456250D03*
D28*
X1083500Y118500D03*
X1058100Y118500D03*
D16*
X251200Y547000D03*
X403600Y547000D03*
D18*
X1837000Y1028747D02*
X1837000Y1046654D01*
X1787000Y1046654D02*
X1787000Y1028747D01*
D24*
X1281200Y-55000D03*
X1128800Y-55000D03*
D28*
X1100700Y-54000D03*
X1075300Y-54000D03*
D19*
X1157300Y1025000D03*
X1182700Y1025000D03*
D37*
X1397000Y546100D02*
X1511300Y546100D01*
X1524000Y558800D01*
X1524000Y660400D01*
X1536700Y673100D01*
D38*
X1536700Y673100D03*
X1536700Y863600D03*
D37*
X1536700Y889000D01*
X1536700Y901700D01*
X1638300Y889000D02*
X1651000Y901700D01*
X1638300Y889000D02*
X1587500Y889000D01*
D38*
X1587500Y889000D03*
X1562100Y889000D03*
D37*
X1536700Y889000D01*
X1511300Y901700D02*
X1511300Y863600D01*
D38*
X1511300Y863600D03*
X1511300Y825500D03*
D37*
X1511300Y812800D01*
D38*
X1511300Y812800D03*
X1511300Y673100D03*
D37*
X1511300Y584200D01*
X1498600Y571500D01*
X1397000Y571500D01*
X1625600Y901700D02*
X1612900Y914400D01*
X1587500Y914400D01*
D38*
X1587500Y914400D03*
X1562100Y914400D03*
D37*
X1524000Y914400D01*
X1511300Y901700D01*
X1485900Y901700D02*
X1485900Y876300D01*
D38*
X1485900Y863600D03*
D37*
X1485900Y876300D01*
D38*
X1485900Y825500D03*
D37*
X1485900Y812800D01*
D38*
X1485900Y812800D03*
X1485900Y790400D03*
D37*
X1485900Y759000D01*
D38*
X1485900Y759000D03*
X1485900Y673100D03*
D37*
X1498600Y660400D01*
X1498600Y596900D01*
X1485900Y584200D01*
X1358900Y584200D01*
X1346200Y571500D01*
X1346200Y558800D01*
X1358900Y546100D01*
X1371600Y546100D01*
D38*
X1549400Y876300D03*
X1498600Y876300D03*
D37*
X1485900Y876300D01*
X1549400Y876300D02*
X1574800Y876300D01*
D38*
X1574800Y876300D03*
D37*
X869950Y951738D02*
X869950Y958850D01*
X862600Y967200D01*
D38*
X862600Y967200D03*
X838200Y952500D03*
D37*
X800100Y952500D01*
X787400Y939800D01*
X869950Y799338D02*
X869950Y793750D01*
X861600Y784400D01*
D38*
X861600Y784400D03*
X800100Y850900D03*
D37*
X787400Y863600D01*
X787400Y495300D02*
X787400Y471170D01*
D38*
X787400Y495300D03*
X812800Y495300D03*
D37*
X812800Y508000D01*
X863600Y558800D01*
X863600Y622300D01*
D38*
X863600Y622300D03*
X865600Y647700D03*
D37*
X863600Y660400D01*
X850900Y673100D01*
X797560Y416560D02*
X787400Y416560D01*
X797560Y416560D02*
X806600Y416600D01*
D38*
X806600Y416600D03*
X863600Y419100D03*
D37*
X876300Y406400D01*
X792480Y347980D02*
X787400Y347980D01*
X792480Y347980D02*
X800100Y355600D01*
D38*
X800100Y355600D03*
X863600Y342900D03*
D37*
X876300Y355600D01*
X806450Y285750D02*
X787400Y285750D01*
X806450Y285750D02*
X812800Y292100D01*
D38*
X812800Y292100D03*
X863600Y292100D03*
D37*
X876300Y304800D01*
X863600Y317500D02*
X863600Y342900D01*
X863600Y317500D02*
X876300Y304800D01*
D38*
X1147000Y890500D03*
X1168400Y901700D03*
D37*
X1181100Y914400D01*
X1270000Y914400D01*
D38*
X1270000Y914400D03*
X1333500Y889000D03*
D37*
X1397000Y889000D01*
D38*
X1397000Y889000D03*
X1447800Y889000D03*
D37*
X1447800Y901700D01*
X1460500Y914400D01*
D38*
X1460500Y914400D03*
D37*
X342900Y939800D02*
X330200Y927100D01*
D38*
X342900Y939800D03*
X393700Y939800D03*
D37*
X419100Y939800D01*
X431800Y927100D01*
X444500Y927100D01*
X346375Y1062925D02*
X294900Y1062925D01*
X346375Y1062925D02*
X353600Y1055700D01*
X294900Y1024825D02*
X282175Y1024825D01*
X281000Y1026000D01*
X281000Y1063000D01*
X293975Y1063000D01*
X294900Y1062925D01*
X940000Y902462D02*
X946150Y902462D01*
X940000Y902462D02*
X933450Y902462D01*
X940000Y902462D02*
X940000Y886000D01*
D38*
X940000Y886000D03*
X905000Y849000D03*
D37*
X888000Y849000D01*
D38*
X888000Y849000D03*
X890000Y780000D03*
D37*
X878700Y785000D01*
X869950Y793750D01*
X933450Y750062D02*
X946150Y750062D01*
X933450Y750062D02*
X933450Y738550D01*
D38*
X940000Y676000D03*
D37*
X933000Y679000D01*
X927100Y673100D01*
X1104900Y889000D02*
X1145500Y889000D01*
X1147000Y890500D01*
D38*
X930000Y725000D03*
D37*
X930000Y735100D01*
X933450Y738550D01*
X354250Y456250D02*
X271500Y456250D01*
X354250Y456250D02*
X366000Y468000D01*
D38*
X366000Y468000D03*
X418000Y520000D03*
D37*
X452000Y520000D01*
X457000Y525000D01*
X457000Y533200D01*
X457200Y533400D01*
X1676400Y292100D02*
X1701800Y266700D01*
X1775000Y266700D01*
X1828800Y266700D01*
X1854200Y241300D01*
X1854200Y225400D01*
X1676400Y177800D02*
X1676400Y292100D01*
D38*
X1676400Y177800D03*
X1676400Y127000D03*
D37*
X1612500Y127000D01*
X1599800Y109300D01*
X1599800Y76200D01*
X1637400Y40100D01*
X1637400Y-33400D01*
X1574800Y-63500D01*
X1358900Y-63500D01*
D38*
X1358900Y-63500D03*
X1358900Y-25400D03*
D37*
X1346200Y-12700D01*
X1346200Y12700D01*
X1511300Y927100D02*
X1524000Y939800D01*
X1612900Y939800D01*
X1625600Y927100D01*
X1638300Y914400D02*
X1714500Y914400D01*
X1638300Y914400D02*
X1625600Y927100D01*
X1130300Y901700D02*
X1130300Y898398D01*
X1130300Y901700D02*
X1155700Y927100D01*
X1168400Y939800D01*
X1219400Y939800D01*
D38*
X1219400Y939800D03*
X1435100Y939800D03*
D37*
X1498600Y939800D01*
X1511300Y927100D01*
D38*
X901700Y711200D03*
X901700Y685800D03*
D37*
X901700Y673100D01*
X914400Y660400D01*
X914400Y571500D01*
X901700Y558800D01*
X876300Y558800D01*
X850900Y533400D01*
X850900Y520700D01*
D38*
X850900Y520700D03*
X856400Y465900D03*
D37*
X825500Y444500D02*
X825500Y431800D01*
D38*
X825500Y431800D03*
X803100Y431300D03*
D37*
X788670Y431800D01*
X787400Y433070D01*
X850900Y419100D02*
X850900Y406400D01*
X850900Y419100D02*
X838200Y431800D01*
X838200Y444500D01*
X825500Y444500D01*
X838200Y406400D02*
X850900Y406400D01*
D38*
X838200Y406400D03*
X838200Y368300D03*
D37*
X850900Y368300D01*
X850900Y355600D01*
X850900Y304800D01*
X850900Y279400D01*
D38*
X850900Y279400D03*
D37*
X807720Y309880D02*
X787400Y309880D01*
X807720Y309880D02*
X812800Y304800D01*
D38*
X812800Y304800D03*
X838200Y304800D03*
D37*
X850900Y304800D01*
X812800Y863600D02*
X812800Y939800D01*
X825500Y939800D01*
X838200Y927100D01*
X850900Y927100D01*
D38*
X850900Y927100D03*
X952500Y927100D03*
D37*
X965200Y914400D01*
X965200Y908812D01*
X958850Y902462D01*
X990600Y901700D02*
X1003300Y914400D01*
X1003300Y939800D01*
X1016000Y939800D01*
X1028700Y952500D01*
D38*
X1028700Y952500D03*
X1143000Y939800D03*
D37*
X1155700Y927100D01*
X977900Y800100D02*
X958850Y781050D01*
X977900Y800100D02*
X978400Y823000D01*
D38*
X978400Y823000D03*
X1041400Y876300D03*
D37*
X1028700Y889000D01*
D38*
X1028700Y889000D03*
X1016000Y927100D03*
D37*
X1016000Y939800D01*
X958850Y781050D02*
X958850Y750062D01*
X789940Y378460D02*
X787400Y378460D01*
X789940Y378460D02*
X800100Y368300D01*
D38*
X800100Y368300D03*
D37*
X1346200Y25400D02*
X1346200Y12700D01*
X1346200Y25400D02*
X1333500Y38100D01*
X1257300Y38100D01*
D38*
X1257300Y38100D03*
X1104900Y38100D03*
D37*
X1104900Y122000D01*
X1104900Y152400D01*
X1092200Y165100D01*
X1041400Y165100D01*
X1016000Y190500D01*
X984500Y190500D01*
D38*
X980600Y203200D03*
X927100Y241300D03*
D37*
X863600Y241300D01*
X850900Y254000D01*
X711200Y787400D02*
X635000Y787400D01*
X584200Y838200D01*
X558800Y850900D02*
X533400Y876300D01*
X546100Y889000D01*
X546100Y825500D02*
X533400Y825500D01*
X546100Y825500D02*
X558800Y838200D01*
X558800Y850900D01*
X558800Y838200D02*
X584200Y838200D01*
X533400Y825500D02*
X533400Y774700D01*
X546100Y889000D02*
X558800Y889000D01*
X711200Y787400D02*
X711200Y736600D01*
X711200Y685800D01*
X711200Y635000D01*
X711200Y584200D01*
X711200Y533400D01*
X736600Y533400D01*
X774700Y495300D01*
X774700Y431800D01*
X786130Y431800D01*
X787400Y433070D01*
X353600Y1030300D02*
X346700Y1030300D01*
X339000Y1038000D01*
X334000Y1044000D01*
X329000Y1048000D01*
X324000Y1048000D01*
X323000Y1047000D01*
D38*
X323000Y1047000D03*
X324000Y1021000D03*
D37*
X321000Y1023000D01*
X317000Y1019000D01*
X295425Y1019000D01*
X294900Y1018475D01*
X1083500Y118500D02*
X1101400Y118500D01*
X1104900Y122000D01*
X392100Y1030300D02*
X353600Y1030300D01*
X392100Y1030300D02*
X393700Y1028700D01*
D38*
X812800Y1016000D03*
D37*
X558800Y939800D02*
X558800Y889000D01*
X1746700Y1037700D02*
X1787000Y1037700D01*
X1746700Y1037700D02*
X1728000Y1019000D01*
D38*
X1728000Y1019000D03*
X1716000Y942000D03*
D37*
X1716000Y915900D01*
X1714500Y914400D01*
X958850Y750062D02*
X958850Y713850D01*
X955000Y710000D01*
X902900Y710000D01*
X901700Y711200D01*
X398700Y1028700D02*
X393700Y1028700D01*
X398700Y1028700D02*
X410000Y1040000D01*
X788800Y1040000D01*
X812800Y1016000D01*
X980000Y195000D02*
X984500Y190500D01*
X980000Y195000D02*
X980000Y202600D01*
X980600Y203200D01*
X342350Y494350D02*
X271500Y494350D01*
X342350Y494350D02*
X343000Y495000D01*
D38*
X343000Y495000D03*
X404000Y528000D03*
D37*
X404000Y546600D01*
X403600Y547000D01*
D38*
X586000Y745000D03*
D37*
X586000Y712000D01*
X583000Y709000D01*
D38*
X583000Y709000D03*
X583000Y651000D03*
D37*
X583000Y534000D01*
X561000Y512000D01*
X497000Y512000D01*
X461000Y548000D01*
X444000Y548000D01*
D38*
X444000Y548000D03*
D37*
X787400Y247650D02*
X787400Y242600D01*
X795000Y235000D01*
D38*
X795000Y235000D03*
D37*
X856400Y462700D02*
X856400Y465900D01*
X856400Y462700D02*
X838200Y444500D01*
X972312Y901700D02*
X990600Y901700D01*
X972312Y901700D02*
X965200Y908812D01*
X1775000Y266700D02*
X1791700Y250000D01*
X1117600Y342900D02*
X1092200Y368300D01*
D38*
X1117600Y342900D03*
X1155700Y342900D03*
D37*
X1155700Y482600D01*
X1168400Y495300D01*
X1206500Y495300D01*
X1219200Y508000D01*
D38*
X1219200Y508000D03*
X1219200Y596900D03*
D37*
X1219200Y635000D01*
X1270000Y685800D01*
X1358900Y685800D01*
D38*
X1358900Y685800D03*
X1371600Y762000D03*
D37*
X1371600Y825500D01*
D38*
X1371600Y825500D03*
X1371600Y863600D03*
D37*
X1397000Y863600D01*
D38*
X1397000Y863600D03*
X1435100Y863600D03*
D37*
X1435100Y901700D01*
X1460500Y927100D01*
X1485900Y927100D01*
X1219200Y482600D02*
X1219200Y292100D01*
X1219200Y482600D02*
X1231900Y495300D01*
D38*
X1231900Y495300D03*
X1231900Y596900D03*
D37*
X1231900Y635000D01*
X1270000Y673100D01*
X1371600Y673100D01*
X1384300Y685800D01*
X1592500Y685800D01*
D38*
X1592500Y685800D03*
X1592500Y760500D03*
X1598700Y789400D03*
X1600200Y863600D03*
D37*
X1574800Y889000D01*
X1574800Y914400D01*
X1587500Y927100D01*
X1600200Y927100D01*
X1592500Y783200D02*
X1592500Y760500D01*
X1592500Y783200D02*
X1598700Y789400D01*
X1066800Y723900D02*
X1054100Y736600D01*
X1054100Y787400D01*
X1066800Y800100D01*
X1270000Y800100D01*
X1295400Y825500D01*
X1295400Y927100D01*
X1282700Y939800D01*
X1244600Y939800D01*
X1231900Y927100D01*
X1066800Y698500D02*
X1054100Y698500D01*
X1041400Y711200D01*
X1041400Y850900D01*
X1054100Y863600D01*
X1143000Y863600D01*
X1157200Y875800D01*
X1157200Y914400D01*
X1168400Y927100D01*
X1206500Y927100D01*
D39*
X482600Y76200D02*
X495300Y63500D01*
X551500Y63500D01*
X561400Y53600D01*
X278130Y190500D02*
X266700Y190500D01*
X203200Y254000D01*
X177800Y533400D02*
X165100Y546100D01*
X165100Y596900D01*
X152400Y609600D01*
X127000Y609600D01*
D37*
X203200Y263525D02*
X203200Y254000D01*
X393700Y263525D02*
X393700Y266700D01*
D39*
X482600Y176530D02*
X482600Y76200D01*
X482600Y176530D02*
X468630Y190500D01*
X127000Y711200D02*
X100000Y711200D01*
X93800Y711200D01*
X80000Y730000D01*
X80000Y855000D01*
X110000Y885000D01*
X151800Y885000D01*
X167700Y900900D01*
X177800Y533400D02*
X177800Y507800D01*
X170000Y500000D01*
X125000Y500000D01*
X120000Y495000D01*
X120000Y445000D01*
X125000Y440000D01*
X215000Y440000D01*
X230000Y425000D01*
X230000Y270000D01*
X225000Y265000D01*
X204675Y265000D01*
X203200Y263525D01*
X454500Y190500D02*
X468630Y190500D01*
X454500Y190500D02*
X400000Y245000D01*
X400000Y257225D01*
X393700Y263525D01*
X561400Y53600D02*
X561400Y28600D01*
X570000Y20000D01*
X610000Y20000D01*
X633000Y42000D01*
X680100Y42000D01*
X680000Y30000D02*
X680000Y23000D01*
X681100Y21900D01*
X681100Y43000D01*
X681100Y61100D01*
X730000Y110000D01*
X730000Y160000D01*
X750000Y180000D01*
X801000Y180000D01*
X813000Y165000D01*
X813000Y-25000D01*
X914000Y-25000D01*
X927100Y-38100D01*
X681100Y43000D02*
X680100Y42000D01*
X127000Y609600D02*
X105400Y609600D01*
X100000Y615000D01*
X100000Y711200D01*
D37*
X1231900Y177800D02*
X1231900Y152400D01*
D38*
X1231900Y152400D03*
X1257300Y88900D03*
D37*
X1282700Y63500D01*
X1282700Y50800D01*
X1384300Y50800D02*
X1384300Y76200D01*
X1371600Y88900D01*
D38*
X1371600Y88900D03*
X1333500Y165100D03*
D37*
X1320800Y177800D01*
D38*
X1447800Y161600D03*
X1473200Y50800D03*
D37*
X1485900Y50800D01*
X1447800Y161600D02*
X1428400Y161600D01*
X1420000Y170000D01*
X1420000Y175400D01*
X1422400Y177800D01*
X1231900Y749300D02*
X1092200Y749300D01*
X1231900Y749300D02*
X1257300Y723900D01*
X1600200Y723900D01*
X1612900Y711200D01*
X1638300Y711200D01*
X1714500Y635000D01*
X1714500Y584200D01*
X1765300Y533400D01*
X1866900Y533400D01*
X1879600Y520700D01*
X1879600Y330200D01*
X1866900Y317500D01*
X1574800Y317500D01*
X1549400Y292100D01*
X1549400Y215900D01*
X1524000Y190500D01*
X1308100Y190500D01*
X1295400Y177800D01*
D38*
X1295400Y177800D03*
X1295400Y152400D03*
D37*
X1282700Y152400D01*
X1739900Y774700D02*
X1739900Y787400D01*
X1752600Y800100D01*
X1930400Y800100D01*
X1943100Y812800D01*
X1943100Y990600D01*
X1930400Y1003300D01*
X990600Y1003300D01*
X979900Y990600D01*
X964900Y838200D02*
X965200Y825500D01*
X901700Y825500D01*
X901700Y805688D01*
X908050Y799338D01*
D38*
X979900Y990600D03*
X964900Y838200D03*
D37*
X1371600Y342900D02*
X1371600Y292100D01*
D38*
X1371600Y342900D03*
X1320800Y406400D03*
D37*
X1244600Y482600D01*
X1231900Y482600D01*
D38*
X1231900Y482600D03*
X1206500Y482600D03*
D37*
X1168400Y482600D01*
D38*
X1168400Y482600D03*
X1143000Y482600D03*
D37*
X1130300Y482600D01*
D38*
X1130300Y482600D03*
X1104900Y482600D03*
D37*
X1079300Y482600D01*
D38*
X1079300Y482600D03*
X1028700Y508000D03*
D37*
X1016000Y520700D01*
X1016000Y558800D01*
X977900Y596900D01*
X977900Y622300D01*
X965200Y635000D01*
X965200Y673100D01*
X952500Y685800D01*
X914400Y685800D01*
X889000Y711200D01*
X889000Y743712D01*
X895350Y750062D01*
X1244600Y292100D02*
X1244600Y221400D01*
D38*
X1244600Y221400D03*
X1244600Y190500D03*
D37*
X1244600Y152400D01*
D38*
X1244600Y152400D03*
X1244600Y114300D03*
X1259000Y-1000D03*
X1212000Y-52000D03*
D37*
X1131800Y-52000D01*
X1128800Y-55000D01*
X1244600Y30400D02*
X1244600Y114300D01*
X1244600Y30400D02*
X1260000Y15000D01*
X1260000Y0D01*
X1259000Y-1000D01*
X1128800Y-54000D02*
X1100700Y-54000D01*
X1128800Y-54000D02*
X1128800Y-55000D01*
D39*
X533400Y76200D02*
X508000Y76200D01*
X533400Y76200D02*
X571500Y114300D01*
X571900Y114300D01*
X584200Y126600D01*
X127000Y191770D02*
X127000Y263525D01*
X127000Y191770D02*
X128270Y190500D01*
D37*
X584200Y165100D02*
X584200Y126600D01*
X584200Y165100D02*
X609600Y190500D01*
D38*
X609600Y190500D03*
X609600Y215900D03*
D37*
X622300Y228600D01*
X622300Y254000D01*
X731520Y347980D02*
X726400Y358100D01*
D38*
X726400Y358100D03*
X673100Y342900D03*
D37*
X660400Y355600D01*
X713740Y416560D02*
X731520Y416560D01*
X713740Y416560D02*
X711200Y419100D01*
D38*
X711200Y419100D03*
X688300Y420100D03*
D37*
X660400Y419100D01*
X660400Y406400D01*
X661670Y471170D02*
X731520Y471170D01*
X661670Y471170D02*
X660400Y469900D01*
D38*
X660400Y469900D03*
X647700Y419100D03*
D37*
X660400Y419100D01*
X533400Y254000D02*
X533400Y239300D01*
D38*
X533400Y239300D03*
X569300Y229100D03*
D37*
X596900Y228600D01*
X609600Y215900D01*
X533400Y254000D02*
X533400Y292100D01*
D38*
X533400Y292100D03*
X558800Y292100D03*
D37*
X596900Y292100D01*
X622300Y317500D01*
X731520Y285750D02*
X742950Y285750D01*
X749300Y292100D01*
X749300Y355600D01*
X739140Y355600D01*
X731520Y347980D01*
D39*
X610000Y126600D02*
X584200Y126600D01*
X610000Y126600D02*
X635000Y101600D01*
D37*
X239200Y963000D02*
X239000Y963000D01*
X225000Y949000D01*
X210000Y949000D01*
X199000Y960000D01*
X199000Y987000D01*
X223500Y1011500D01*
X231000Y1019000D01*
X231000Y1025000D01*
X242725Y1025000D01*
X242900Y1024825D01*
X242900Y1062925D02*
X222075Y1062925D01*
X220000Y1065000D01*
D38*
X220000Y1065000D03*
X205000Y1035000D03*
D37*
X205000Y1030000D01*
X223500Y1011500D01*
D39*
X317500Y263525D02*
X317500Y191770D01*
X318770Y190500D01*
D37*
X1028700Y697300D02*
X1028700Y863600D01*
X990600Y863600D02*
X977900Y850900D01*
X952500Y850900D01*
D38*
X952500Y850900D03*
X942800Y866600D03*
D37*
X927100Y863600D01*
X920750Y857250D01*
X914400Y850900D01*
X914400Y838200D01*
D38*
X914400Y838200D03*
X914400Y815300D03*
D37*
X914400Y805688D01*
X920750Y799338D01*
X920750Y933450D02*
X920750Y951738D01*
X920750Y933450D02*
X927100Y927100D01*
X927100Y885500D01*
D38*
X927100Y885500D03*
X914400Y863600D03*
D37*
X920750Y857250D01*
X990600Y863600D02*
X1028700Y863600D01*
X1028700Y697300D02*
X1040000Y686000D01*
X1079700Y686000D01*
X1092200Y698500D01*
X958850Y793750D02*
X958850Y799338D01*
X958850Y793750D02*
X952500Y787400D01*
X952500Y769700D01*
X850900Y769700D01*
X850900Y800100D01*
X863600Y825500D01*
X850900Y838200D01*
X711200Y838200D01*
X622300Y838200D01*
X609600Y825500D01*
D38*
X609600Y825500D03*
X584200Y825500D03*
D37*
X558800Y825500D01*
X546100Y812800D01*
D38*
X546100Y812800D03*
X469900Y812800D03*
D37*
X469900Y762000D01*
D38*
X469900Y762000D03*
D37*
X444500Y736600D02*
X444500Y698500D01*
X431800Y685800D01*
X419100Y952500D02*
X406400Y952500D01*
X419100Y952500D02*
X431800Y939800D01*
D38*
X431800Y939800D03*
X431800Y889000D03*
D37*
X469900Y889000D01*
D38*
X469900Y889000D03*
X469900Y863600D03*
D37*
X469900Y812800D01*
D38*
X469000Y738000D03*
D37*
X445900Y738000D01*
X444500Y736600D01*
X381000Y952500D02*
X381000Y965200D01*
X393700Y965200D01*
D38*
X393700Y965200D03*
X315500Y952500D03*
D37*
X342900Y762000D02*
X342900Y736600D01*
X368300Y711200D01*
X368300Y685800D01*
D38*
X368300Y685800D03*
X393700Y685800D03*
D37*
X406400Y685800D01*
X419100Y673100D01*
X469900Y673100D01*
X495300Y647700D01*
X495300Y660400D01*
D38*
X495300Y660400D03*
X558800Y660400D03*
D37*
X673100Y660400D01*
X685800Y673100D01*
X685800Y774700D01*
D38*
X685800Y774700D03*
X685800Y800100D03*
D37*
X685800Y825500D01*
D38*
X685800Y825500D03*
X685800Y850900D03*
D37*
X685800Y876300D01*
X698500Y889000D01*
X711200Y889000D01*
X711200Y863600D01*
X723900Y850900D01*
X736600Y850900D01*
D38*
X736600Y850900D03*
X736600Y825500D03*
D37*
X850900Y825500D01*
D38*
X850900Y825500D03*
X876300Y825500D03*
D37*
X876300Y805688D01*
X882650Y799338D01*
D38*
X317500Y762000D03*
X342900Y762000D03*
D37*
X315500Y825500D02*
X315500Y952500D01*
X315500Y825500D02*
X310000Y820000D01*
X310000Y769500D01*
X317500Y762000D01*
X1498600Y774700D02*
X1536700Y812800D01*
X1663700Y812800D01*
X1676400Y825500D01*
X1739900Y825500D01*
X1752600Y838200D01*
X1892300Y838200D01*
X1905000Y850900D01*
X1905000Y952500D01*
X1892300Y965200D01*
X1003300Y965200D01*
X937100Y968700D02*
X933600Y958088D01*
X933450Y951738D01*
X937100Y968700D02*
X999800Y968700D01*
X1003300Y965200D01*
X1524000Y774700D02*
X1536700Y787400D01*
X1536700Y800100D01*
X1663700Y800100D01*
X1676400Y812800D01*
X1739900Y812800D01*
X1752600Y825500D01*
X1905000Y825500D01*
X1917700Y838200D01*
X1917700Y965200D01*
X1905000Y977900D01*
X914400Y977900D01*
X914400Y958088D01*
X908050Y951738D01*
X1663700Y787400D02*
X1663700Y774700D01*
X1663700Y787400D02*
X1676400Y800100D01*
X1739900Y800100D01*
X1752600Y812800D01*
X1917700Y812800D01*
X1930400Y825500D01*
X1930400Y977900D01*
X1917700Y990600D01*
X1003300Y990600D01*
X990600Y889000D02*
X977900Y876300D01*
X914400Y876300D01*
X901700Y889000D01*
X901700Y896112D01*
X895350Y902462D01*
D38*
X990600Y889000D03*
X1003300Y990600D03*
D37*
X1447800Y774700D02*
X1473200Y800100D01*
X1511300Y800100D01*
X1536700Y825500D01*
X1663700Y825500D01*
X1676400Y838200D01*
X1739900Y838200D01*
X1752600Y850900D01*
X1879600Y850900D01*
X1892300Y863600D01*
X1892300Y939800D01*
X1879600Y952500D01*
X1130300Y952500D01*
X1117600Y939800D01*
X1117600Y927100D01*
X1104900Y914400D01*
X1016000Y914400D01*
X1003300Y901700D01*
X1003300Y889000D01*
X977900Y863600D01*
X952500Y863600D01*
X939800Y850900D01*
X939800Y838200D01*
D38*
X939800Y838200D03*
X938300Y815800D03*
D37*
X938300Y804188D01*
X933450Y799338D01*
X1079500Y660400D02*
X1092200Y647700D01*
X939800Y654800D02*
X939800Y546100D01*
X927100Y533400D01*
X876300Y533400D01*
X812800Y457200D02*
X788670Y457200D01*
X787400Y458470D01*
X876300Y520700D02*
X876300Y533400D01*
X876300Y520700D02*
X812800Y457200D01*
X939800Y654800D02*
X945000Y660000D01*
D38*
X945000Y660000D03*
X1040000Y660000D03*
D37*
X1079100Y660000D01*
X1079500Y660400D01*
X952500Y647500D02*
X952500Y520700D01*
X939800Y508000D01*
X876300Y508000D01*
X816300Y444500D01*
X816300Y406400D01*
X789940Y406400D01*
X787400Y403860D01*
X952500Y647500D02*
X955000Y650000D01*
D38*
X955000Y650000D03*
X1040000Y645000D03*
D37*
X1064100Y645000D01*
X1066800Y647700D01*
X964438Y951738D02*
X958850Y951738D01*
X964438Y951738D02*
X968200Y952500D01*
X1016000Y952500D01*
D38*
X1016000Y952500D03*
X977900Y1003300D03*
D37*
X965200Y990600D01*
X533400Y990600D01*
X520700Y977900D01*
X520700Y952500D01*
D38*
X546100Y952500D03*
D37*
X546100Y901700D01*
X533400Y889000D01*
X520700Y889000D01*
X520700Y762000D01*
D38*
X520700Y762000D03*
X533400Y736600D03*
D37*
X546100Y723900D01*
X546100Y647700D01*
X558800Y635000D01*
X495300Y622300D02*
X495300Y609600D01*
D38*
X495300Y622300D03*
X533400Y622300D03*
D37*
X546100Y622300D01*
X558800Y635000D01*
X946150Y933450D02*
X946150Y951738D01*
X946150Y933450D02*
X939800Y927100D01*
D38*
X939800Y927100D03*
X914400Y927100D03*
D37*
X874900Y927100D01*
X850900Y939800D02*
X850900Y977900D01*
X546100Y977900D01*
X533400Y965200D01*
X533400Y939800D01*
X520700Y927100D01*
X508000Y914400D01*
X508000Y901700D01*
D38*
X508000Y901700D03*
X495300Y889000D03*
D37*
X495300Y762000D01*
D38*
X495300Y762000D03*
X508000Y736600D03*
D37*
X508000Y584200D01*
X495300Y571500D01*
X546100Y546100D02*
X558800Y533400D01*
X546100Y546100D02*
X520700Y546100D01*
X495300Y571500D01*
X863000Y939000D02*
X874900Y927100D01*
X863000Y939000D02*
X851700Y939000D01*
X850900Y939800D01*
X882650Y951738D02*
X882650Y958850D01*
X890000Y968700D01*
D38*
X890000Y968700D03*
X889000Y1003300D03*
D37*
X533400Y1003300D01*
X495300Y965200D01*
X495300Y952500D01*
X304800Y990600D02*
X304800Y838200D01*
X304800Y990600D02*
X317500Y1003300D01*
X533400Y1003300D01*
X482600Y546100D02*
X495300Y533400D01*
X482600Y546100D02*
X481100Y647700D01*
D38*
X481100Y647700D03*
X480600Y709200D03*
D37*
X457200Y709200D01*
D38*
X457200Y709200D03*
X432300Y708700D03*
X412600Y724400D03*
X417100Y749800D03*
X304800Y838200D03*
D37*
X412600Y724400D02*
X412600Y717400D01*
X421000Y709000D01*
X432000Y709000D01*
X432300Y708700D01*
X394500Y825500D02*
X381000Y825500D01*
X394500Y825500D02*
X405000Y815000D01*
X405000Y761900D01*
X417100Y749800D01*
D38*
X876300Y977900D03*
X838200Y965200D03*
D37*
X546100Y965200D01*
D38*
X546100Y965200D03*
X508000Y965200D03*
D37*
X508000Y939800D01*
X495300Y927100D01*
X876300Y977900D02*
X901700Y977900D01*
X901700Y958088D01*
X895350Y951738D01*
X431800Y558800D02*
X431800Y533400D01*
X431800Y558800D02*
X419100Y558800D01*
X406400Y571500D01*
X406400Y609600D01*
X393700Y622300D01*
X393700Y635000D01*
X355600Y673100D01*
X355600Y711200D01*
X330200Y736600D01*
X330200Y876300D01*
X342900Y876300D01*
D38*
X342900Y876300D03*
D37*
X381000Y876300D02*
X406400Y876300D01*
X419100Y863600D01*
X419100Y850900D01*
D38*
X419100Y850900D03*
X482600Y914400D03*
D37*
X495300Y927100D01*
X469900Y952500D02*
X457200Y939800D01*
D38*
X457200Y939800D03*
X457200Y863600D03*
D37*
X457200Y774700D01*
X419100Y736600D01*
X406400Y736600D01*
X398900Y723900D01*
D38*
X398900Y723900D03*
X406400Y673100D03*
D37*
X406400Y660400D01*
D38*
X406400Y660400D03*
X406400Y635000D03*
D37*
X406400Y622300D01*
X419100Y609600D01*
X431800Y609600D01*
X469900Y952500D02*
X469900Y965200D01*
X482600Y977900D01*
D38*
X482600Y977900D03*
X571500Y927100D03*
D37*
X685800Y927100D01*
X698500Y914400D01*
X800100Y914400D01*
D38*
X800100Y914400D03*
X825500Y901700D03*
D37*
X838200Y901700D01*
D38*
X838200Y901700D03*
X850900Y914400D03*
D37*
X863600Y914400D01*
X863600Y908812D01*
X869950Y902462D01*
X558800Y584200D02*
X533400Y584200D01*
X520700Y593900D01*
D38*
X520700Y593900D03*
X469900Y596900D03*
D37*
X444500Y596900D01*
X431800Y609600D01*
X457200Y914400D02*
X469900Y927100D01*
X457200Y914400D02*
X393700Y914400D01*
D38*
X393700Y914400D03*
X381000Y901700D03*
D37*
X342900Y901700D01*
X292100Y889000D02*
X292100Y800100D01*
D38*
X292100Y800100D03*
X685800Y952500D03*
D37*
X685800Y939800D01*
X698500Y927100D01*
X800100Y927100D01*
D38*
X800100Y927100D03*
X825500Y927100D03*
D37*
X850900Y901700D01*
X850900Y876300D01*
X876300Y876300D01*
X889000Y889000D01*
X889000Y896112D01*
X882650Y902462D01*
X685800Y952500D02*
X596900Y952500D01*
X584200Y939800D01*
D38*
X584200Y939800D03*
X533400Y914400D03*
D37*
X520700Y914400D01*
X520700Y901700D01*
D38*
X520700Y901700D03*
X444500Y838200D03*
D37*
X444500Y863600D01*
X431800Y863600D01*
D38*
X431800Y863600D03*
X406400Y863600D03*
D37*
X393700Y863600D01*
X381000Y850900D01*
D38*
X381000Y850900D03*
X330200Y889000D03*
D37*
X342900Y901700D01*
X381000Y774700D02*
X381000Y736600D01*
D38*
X381000Y736600D03*
X317500Y736600D03*
D37*
X342900Y711200D01*
X342900Y673100D01*
X381000Y635000D01*
X381000Y622300D01*
X393700Y609600D01*
X393700Y584200D01*
D38*
X393700Y584200D03*
X419100Y584200D03*
D37*
X431800Y571500D01*
D38*
X292100Y889000D03*
D37*
X482600Y736600D02*
X495300Y723900D01*
D38*
X482600Y736600D03*
X482600Y762000D03*
D37*
X482600Y876300D01*
X419100Y876300D01*
D38*
X419100Y876300D03*
X419100Y927100D03*
D37*
X406400Y927100D01*
D38*
X825500Y769700D03*
X740900Y762000D03*
X673100Y762000D03*
D37*
X584200Y762000D01*
X558800Y736600D01*
X558800Y711200D01*
D38*
X558800Y711200D03*
X495300Y711200D03*
D37*
X495300Y723900D01*
X946150Y799338D02*
X946150Y811150D01*
X950000Y815000D01*
X968000Y815000D01*
D38*
X968000Y815000D03*
D37*
X817800Y762000D02*
X740900Y762000D01*
X817800Y762000D02*
X825500Y769700D01*
X558800Y774700D02*
X558800Y787400D01*
X558800Y774700D02*
X533400Y749300D01*
X508000Y749300D01*
X444500Y749300D01*
X431800Y736600D01*
X431800Y723900D01*
X381000Y914400D02*
X381000Y927100D01*
X381000Y914400D02*
X393700Y901700D01*
X495300Y901700D01*
X508000Y889000D01*
X508000Y749300D01*
X895350Y799338D02*
X895350Y831850D01*
X889000Y838200D01*
X876300Y838200D01*
X838200Y876300D01*
X825500Y876300D01*
D38*
X825500Y876300D03*
X800100Y876300D03*
D37*
X786900Y877300D01*
D38*
X786900Y877300D03*
X762000Y876300D03*
D37*
X723900Y876300D01*
D38*
X723900Y876300D03*
X673100Y876300D03*
D37*
X609600Y876300D01*
X584200Y850900D01*
X571500Y850900D01*
D38*
X571500Y850900D03*
X571500Y812800D03*
D37*
X558800Y800100D01*
X558800Y787400D01*
X355600Y952500D02*
X342900Y965200D01*
X342900Y977900D01*
X431800Y977900D01*
D38*
X431800Y977900D03*
X444500Y990600D03*
D37*
X368300Y939800D02*
X355600Y952500D01*
X368300Y939800D02*
X368300Y914400D01*
D38*
X368300Y914400D03*
X368300Y889000D03*
D37*
X368300Y736600D01*
X381000Y723900D01*
D38*
X381000Y723900D03*
X381000Y698500D03*
D37*
X381000Y660400D01*
X393700Y647700D01*
X431800Y647700D01*
X444500Y990600D02*
X457200Y990600D01*
D38*
X457200Y990600D03*
X711200Y955500D03*
D37*
X711200Y939800D01*
X749300Y939800D01*
D38*
X749300Y939800D03*
X774700Y901700D03*
D37*
X774700Y850900D01*
D38*
X774700Y850900D03*
X787400Y812800D03*
D37*
X825500Y812800D01*
X838200Y800100D01*
X838200Y761800D01*
X840000Y760000D01*
X860012Y760000D01*
X869950Y750062D01*
X355600Y912400D02*
X355600Y927100D01*
D38*
X355600Y912400D03*
X355600Y889000D03*
D37*
X355600Y736600D01*
X381000Y711200D01*
X406400Y711200D01*
X419100Y698500D01*
X419300Y698500D01*
D38*
X419300Y698500D03*
X468200Y698500D03*
D37*
X482600Y698500D01*
X495300Y685800D01*
X558800Y685800D02*
X558800Y698500D01*
D38*
X558800Y698500D03*
X495300Y698500D03*
D37*
X495300Y685800D01*
X558800Y698500D02*
X660400Y698500D01*
X673100Y711200D01*
D38*
X673100Y711200D03*
X733900Y711200D03*
D37*
X863600Y711200D01*
X876300Y723900D01*
X876300Y743712D01*
X882650Y750062D01*
X1092200Y622300D02*
X1117600Y647700D01*
X1117600Y685800D01*
X1130300Y698500D01*
X1130300Y774700D02*
X1143000Y787400D01*
D38*
X1143000Y787400D03*
X1143000Y812800D03*
D37*
X1143000Y825500D01*
X1168400Y850900D01*
X1181100Y850900D01*
X1193800Y863600D01*
D38*
X1193800Y863600D03*
X1193800Y901700D03*
D37*
X1206500Y901700D01*
X1130300Y774700D02*
X1130300Y762000D01*
D38*
X1130300Y762000D03*
X1130300Y711200D03*
D37*
X1130300Y698500D01*
X1066800Y622300D02*
X1054100Y635000D01*
X1028700Y635000D01*
X1028700Y660400D01*
X1016000Y673100D01*
X1016000Y825500D01*
D38*
X1016000Y825500D03*
X1054100Y838200D03*
D37*
X1117600Y838200D01*
X1117600Y850900D01*
D38*
X1117600Y850900D03*
X1155700Y850900D03*
D37*
X1168400Y863600D01*
X1181100Y863600D01*
D38*
X1181100Y863600D03*
X1181100Y889000D03*
D37*
X1219200Y889000D01*
X1231900Y901700D01*
X1066800Y571500D02*
X1079500Y558800D01*
X1219200Y558800D01*
X1320800Y457200D01*
X1358900Y457200D01*
X1371600Y444500D01*
X1371600Y368300D01*
D38*
X1371600Y368300D03*
X1397000Y355600D03*
D37*
X1397000Y330200D01*
X1409700Y317500D01*
X1409700Y203200D01*
D38*
X1409700Y203200D03*
X1409700Y114300D03*
D37*
X1409700Y25400D01*
X1397000Y12700D01*
X1219200Y546100D02*
X1092200Y546100D01*
X1219200Y546100D02*
X1320800Y444500D01*
X1346200Y444500D01*
X1358900Y431800D01*
X1358900Y266700D01*
X1371600Y254000D01*
D38*
X1371600Y254000D03*
X1422400Y254000D03*
D37*
X1422400Y203200D01*
D38*
X1422400Y203200D03*
X1435100Y114300D03*
D37*
X1422400Y101600D01*
X1422400Y12700D01*
X1079500Y533400D02*
X1066800Y546100D01*
X1079500Y533400D02*
X1219200Y533400D01*
X1320800Y431800D01*
X1333500Y431800D01*
X1346200Y419100D01*
X1346200Y317500D01*
X1333500Y304800D01*
X1333500Y215900D01*
X1346200Y203200D01*
X1358900Y203200D01*
D38*
X1358900Y203200D03*
X1358900Y114300D03*
D37*
X1358900Y76200D01*
X1371600Y63500D01*
X1371600Y38100D01*
X1384300Y25400D01*
X1384300Y0D01*
X1397000Y-12700D01*
X1435100Y-12700D01*
X1447800Y0D01*
X1447800Y12700D01*
X1219200Y520700D02*
X1092200Y520700D01*
X1219200Y520700D02*
X1333500Y406400D01*
X1333500Y317500D01*
X1320800Y304800D01*
X1320800Y228600D01*
X1282700Y190500D01*
D38*
X1282700Y190500D03*
X1270000Y165100D03*
D37*
X1267000Y152400D01*
D38*
X1267000Y152400D03*
X1267000Y114300D03*
D37*
X1333500Y114300D01*
X1346200Y101600D01*
X1346200Y76200D01*
X1358900Y63500D01*
X1358900Y38100D01*
X1371600Y25400D01*
X1371600Y0D01*
X1397000Y-25400D01*
X1435100Y-25400D01*
X1460500Y0D01*
X1473200Y0D01*
X1473200Y12700D01*
X1066800Y520700D02*
X1054100Y533400D01*
X1054100Y596900D01*
X1028700Y596900D01*
X1028700Y609600D01*
X1003300Y635000D01*
X1003300Y838200D01*
X1016000Y850900D01*
D38*
X1016000Y850900D03*
X1041400Y863600D03*
D37*
X1054100Y876300D01*
X1101598Y876300D01*
X1104900Y879602D01*
X1104900Y901700D02*
X1117600Y914400D01*
D38*
X1117600Y914400D03*
X1104900Y927100D03*
D37*
X1104900Y939800D01*
X1104900Y901700D02*
X1104900Y898398D01*
X1104900Y495300D02*
X1092200Y495300D01*
X1104900Y495300D02*
X1117600Y508000D01*
D38*
X1117600Y508000D03*
X1117600Y596900D03*
D37*
X1117600Y622300D01*
X1130300Y635000D01*
X1130300Y685800D01*
X1143000Y698500D01*
X1143000Y711200D01*
D38*
X1143000Y711200D03*
X1143000Y762000D03*
D37*
X1143000Y774700D01*
X1151700Y774400D01*
D38*
X1151700Y774400D03*
X1163200Y811800D03*
D37*
X1155700Y825500D01*
X1168400Y838200D01*
X1181100Y838200D01*
D38*
X1181100Y838200D03*
X1144000Y877300D03*
D37*
X1143698Y879602D02*
X1130300Y879602D01*
X1143698Y879602D02*
X1144000Y877300D01*
X1041400Y520700D02*
X1066800Y495300D01*
X1041400Y520700D02*
X1041400Y584200D01*
X1028700Y584200D01*
X1016000Y596900D01*
X1003300Y596900D01*
X1003300Y622300D01*
X990600Y635000D01*
X990600Y838200D01*
X1003300Y850900D01*
D38*
X1003300Y850900D03*
X1003300Y876300D03*
D37*
X1016000Y889000D01*
X1016000Y901700D01*
X1066800Y901700D01*
D38*
X1066800Y901700D03*
X1079500Y927100D03*
D37*
X1079500Y939800D01*
X1041400Y495300D02*
X1066800Y469900D01*
X1041400Y495300D02*
X1041400Y508000D01*
X1028700Y520700D01*
X1028700Y571500D01*
X1016000Y571500D01*
X990600Y596900D01*
X990600Y622300D01*
X977900Y635000D01*
X977900Y787400D01*
D38*
X977900Y787400D03*
X1054100Y812800D03*
D37*
X1066800Y825500D01*
D38*
X1066800Y825500D03*
X1066800Y889000D03*
D37*
X1054100Y889000D01*
D38*
X1054100Y889000D03*
X1041400Y927100D03*
D37*
X1041400Y939800D01*
X1054100Y939800D01*
X177800Y263525D02*
X177800Y241300D01*
X190500Y241300D01*
D38*
X190500Y241300D03*
X241300Y241300D03*
D37*
X254000Y254000D01*
X368300Y263525D02*
X368300Y241300D01*
X381000Y241300D01*
D38*
X381000Y241300D03*
X431800Y241300D03*
D37*
X444500Y254000D01*
D39*
X165100Y263525D02*
X165100Y304800D01*
X114300Y304800D01*
X101600Y317500D01*
X101600Y508000D01*
X114300Y520700D01*
X152000Y520700D01*
X152400Y520300D01*
D37*
X1092200Y444500D02*
X1092200Y431800D01*
X1054100Y431800D01*
X1041400Y419100D01*
X901700Y419100D01*
X889000Y406400D01*
X889000Y393700D01*
X876300Y381000D01*
X825500Y381000D01*
X812800Y368300D01*
X812800Y342900D01*
X800100Y330200D01*
X792480Y330200D01*
X787400Y335280D01*
D38*
X279400Y596900D03*
X279400Y571500D03*
D37*
X292100Y571500D01*
X419100Y444500D01*
X419100Y393700D01*
X444500Y368300D01*
D38*
X444500Y368300D03*
X533400Y368300D03*
D37*
X622300Y368300D01*
D38*
X622300Y368300D03*
X660400Y373300D03*
D37*
X673100Y368300D01*
D38*
X673100Y368300D03*
X698500Y368300D03*
D37*
X698500Y355600D01*
X723900Y330200D01*
X726440Y330200D01*
X731520Y335280D01*
X279400Y596900D02*
X152400Y723900D01*
X152400Y800100D01*
X139700Y812800D01*
X127000Y812800D01*
X706120Y322580D02*
X731520Y322580D01*
X706120Y322580D02*
X698500Y330200D01*
D38*
X698500Y330200D03*
X673100Y330200D03*
D37*
X659900Y339900D01*
D38*
X659900Y339900D03*
X635000Y342900D03*
D37*
X635000Y393700D01*
X622300Y406400D01*
X508000Y406400D01*
D38*
X508000Y406400D03*
X457200Y444500D03*
D37*
X457200Y457200D01*
X431800Y457200D01*
X304800Y584200D01*
X177800Y584200D01*
D38*
X177800Y584200D03*
X152400Y584200D03*
D37*
X127000Y584200D01*
X114300Y584200D01*
D38*
X96000Y750000D03*
X80000Y705000D03*
D37*
X80000Y618500D01*
X114300Y584200D01*
X96000Y750000D02*
X96000Y778000D01*
X105000Y787000D01*
X126600Y787000D01*
X127000Y787400D01*
X1750000Y586800D02*
X1765300Y571500D01*
X1905000Y571500D01*
X1917700Y558800D01*
X1917700Y165100D01*
X1282700Y165100D02*
X1257300Y203200D01*
X1219200Y215900D01*
X1193800Y241300D01*
X939800Y241300D01*
X914400Y266700D01*
X838200Y266700D01*
D38*
X838200Y266700D03*
D37*
X1282700Y165100D02*
X1295400Y165100D01*
X1308100Y152400D01*
X1358900Y152400D01*
X1371600Y165100D01*
X1397000Y165100D01*
X1409700Y152400D01*
X1460500Y152400D01*
X1473200Y165100D01*
X1615000Y745000D02*
X1640000Y745000D01*
X1615000Y745000D02*
X1610000Y750000D01*
X1610000Y771800D01*
X1612900Y774700D01*
X1545100Y165100D02*
X1473200Y165100D01*
X1545100Y165100D02*
X1565000Y185000D01*
X1605000Y185000D01*
D38*
X1605000Y185000D03*
X1635000Y185000D03*
D37*
X1645000Y185000D01*
X1665000Y165000D01*
X1917600Y165000D01*
X1917700Y165100D01*
X794650Y260350D02*
X787400Y260350D01*
X794650Y260350D02*
X802000Y255000D01*
D38*
X802000Y255000D03*
D37*
X1640000Y745000D02*
X1705000Y680000D01*
X1730000Y680000D01*
X1750000Y660000D01*
X1750000Y586800D01*
D38*
X553100Y261700D03*
X576000Y266200D03*
D37*
X584200Y266700D01*
X596900Y254000D01*
X609600Y241300D01*
D38*
X609600Y241300D03*
X635000Y241300D03*
D37*
X635000Y215900D01*
D38*
X635000Y215900D03*
X635000Y190500D03*
D37*
X647700Y190500D01*
X660400Y203200D01*
X545400Y254000D02*
X542798Y254000D01*
X545400Y254000D02*
X553100Y261700D01*
X717550Y273050D02*
X731520Y273050D01*
X717550Y273050D02*
X711200Y279400D01*
X660400Y279400D01*
X647700Y292100D01*
X647700Y393700D01*
X635000Y406400D01*
D38*
X635000Y406400D03*
X635000Y469900D03*
D37*
X431800Y469900D01*
X177800Y723900D01*
X177800Y800100D01*
X152400Y825500D01*
X152400Y850900D01*
X139700Y863600D01*
X127000Y863600D01*
X542798Y279400D02*
X546100Y279400D01*
X563300Y267700D01*
X563300Y241300D01*
X546100Y228600D01*
X520700Y228600D01*
X520700Y250698D01*
X524002Y254000D01*
X542798Y279400D02*
X542798Y346202D01*
X508000Y381000D01*
D38*
X508000Y381000D03*
X444500Y431800D03*
D37*
X444500Y444500D01*
X431800Y444500D01*
X304800Y571500D01*
D38*
X304800Y571500D03*
X292100Y596900D03*
D37*
X165100Y723900D01*
X165100Y800100D01*
X139700Y825500D01*
X127000Y825500D01*
X127000Y838200D01*
X508000Y203200D02*
X635000Y203200D01*
X647700Y215900D01*
X698500Y215900D01*
X711200Y228600D01*
X711200Y266700D01*
X725170Y266700D01*
X731520Y260350D01*
X254000Y609600D02*
X177800Y685800D01*
X254000Y609600D02*
X254000Y596900D01*
D38*
X254000Y596900D03*
X254000Y571500D03*
D37*
X266700Y571500D01*
X279400Y558800D01*
X292100Y558800D01*
X406400Y444500D01*
X406400Y419100D01*
D38*
X406400Y419100D03*
X419100Y342900D03*
D37*
X444500Y342900D01*
D38*
X444500Y342900D03*
X508000Y342900D03*
D37*
X508000Y203200D01*
X177800Y685800D02*
X127000Y685800D01*
X1638300Y762000D02*
X1638300Y774700D01*
X1638300Y762000D02*
X1651000Y749300D01*
X1689100Y749300D01*
X1701800Y736600D01*
X1917700Y736600D01*
X1930400Y723900D01*
X1930400Y165100D01*
X1524000Y152400D02*
X1511300Y139700D01*
X1231900Y139700D01*
X1206500Y165100D01*
X1206500Y215900D01*
X1193800Y228600D01*
X838200Y228600D01*
X825500Y241300D01*
X825500Y304800D01*
X812800Y317500D01*
X792480Y317500D01*
X787400Y322580D01*
X1524000Y152400D02*
X1547400Y152400D01*
X1565000Y170000D01*
D38*
X1565000Y170000D03*
X1640000Y165000D03*
D37*
X1650000Y155000D01*
X1920000Y155000D01*
X1930100Y165100D02*
X1930400Y165100D01*
X1930100Y165100D02*
X1920000Y155000D01*
X1524000Y279400D02*
X1524000Y292100D01*
X1524000Y279400D02*
X1511300Y266700D01*
X1511300Y241300D01*
X1536700Y215900D01*
D38*
X1536700Y215900D03*
X1536700Y190500D03*
D37*
X1536700Y177800D01*
D38*
X1536700Y177800D03*
X1536700Y127000D03*
D37*
X1536700Y76200D01*
X1549400Y63500D02*
X1549400Y50800D01*
X1562100Y38100D01*
X1562100Y25400D01*
X1574800Y25400D01*
X1549400Y63500D02*
X1536700Y76200D01*
X1498600Y241300D02*
X1498600Y292100D01*
X1498600Y241300D02*
X1524000Y215900D01*
X1524000Y203200D01*
D38*
X1524000Y203200D03*
X1524000Y127000D03*
D37*
X1524000Y76200D01*
X1536700Y63500D02*
X1536700Y50800D01*
X1549400Y38100D01*
X1549400Y25400D01*
X1536700Y63500D02*
X1524000Y76200D01*
X1473200Y241300D02*
X1473200Y292100D01*
D38*
X1473200Y241300D03*
X1498600Y228600D03*
D37*
X1511300Y215900D01*
X1511300Y203200D01*
D38*
X1511300Y203200D03*
X1511300Y114300D03*
D37*
X1511300Y76200D01*
X1524000Y63500D01*
D38*
X1524000Y63500D03*
D37*
X1346200Y228600D02*
X1346200Y292100D01*
X1346200Y228600D02*
X1371600Y203200D01*
D38*
X1371600Y203200D03*
X1371600Y114300D03*
D37*
X1384300Y114300D01*
X1397000Y101600D01*
D38*
X1397000Y101600D03*
X1435100Y101600D03*
D37*
X1447800Y88900D01*
X1447800Y50800D01*
X1460500Y38100D01*
X1485900Y38100D01*
X1498600Y25400D01*
X1498600Y-12700D01*
X1511300Y-25400D01*
X1562100Y-25400D01*
X1574800Y-12700D01*
X1574800Y0D01*
X1447800Y228600D02*
X1447800Y292100D01*
X1447800Y228600D02*
X1460500Y215900D01*
X1473200Y215900D01*
D38*
X1473200Y215900D03*
X1498600Y215900D03*
D37*
X1498600Y203200D01*
D38*
X1498600Y203200D03*
X1498600Y114300D03*
D37*
X1498600Y76200D01*
X1536700Y38100D01*
X1536700Y12700D01*
X1549400Y0D01*
X1422400Y279400D02*
X1422400Y292100D01*
X1422400Y279400D02*
X1435100Y266700D01*
X1435100Y215900D01*
X1447800Y203200D01*
X1460500Y203200D01*
D38*
X1460500Y203200D03*
X1460500Y114300D03*
D37*
X1460500Y76200D01*
X1473200Y63500D01*
X1498600Y63500D01*
X1511300Y50800D01*
X1511300Y12700D01*
X1524000Y0D01*
X1066800Y444500D02*
X1054100Y444500D01*
X1041400Y431800D01*
X1028700Y431800D01*
D38*
X1028700Y431800D03*
X1028700Y406400D03*
D37*
X1028700Y254000D01*
D38*
X1028700Y254000D03*
X1028700Y203200D03*
D37*
X1041400Y190500D01*
X1143000Y190500D01*
X1155700Y177800D01*
X1155700Y12700D01*
X1104900Y419100D02*
X1092200Y419100D01*
X1104900Y419100D02*
X1130300Y393700D01*
X1130300Y254000D01*
D38*
X1130300Y254000D03*
X1130300Y177800D03*
D37*
X1130300Y12700D01*
X1066800Y419100D02*
X1054100Y419100D01*
X1041400Y406400D01*
X1041400Y254000D01*
D38*
X1041400Y254000D03*
X1041400Y203200D03*
D37*
X1143000Y203200D01*
X1168400Y177800D01*
X1168400Y127000D01*
X1206500Y88900D01*
X1206500Y12700D01*
X1104900Y393700D02*
X1092200Y393700D01*
X1104900Y393700D02*
X1117600Y381000D01*
X1117600Y368300D01*
D38*
X1117600Y368300D03*
X1143000Y355600D03*
D37*
X1143000Y330200D01*
X1155700Y317500D01*
X1155700Y254000D01*
D38*
X1155700Y254000D03*
X1168400Y203200D03*
D37*
X1168400Y190500D01*
X1181100Y177800D01*
X1181100Y127000D01*
D38*
X1181100Y127000D03*
X1181100Y101600D03*
D37*
X1181100Y12700D01*
X889000Y622300D02*
X876300Y622300D01*
X850900Y647700D01*
X1054100Y381000D02*
X1066800Y368300D01*
D38*
X1054100Y381000D03*
X1016000Y381000D03*
D37*
X1016000Y393700D01*
X1003300Y406400D01*
D38*
X1003300Y406400D03*
X1003300Y431800D03*
D37*
X1003300Y469900D01*
X990600Y482600D01*
X914400Y482600D01*
X901700Y495300D01*
D38*
X901700Y495300D03*
X901700Y520700D03*
D37*
X889000Y520700D01*
X927100Y622300D02*
X927100Y647700D01*
D39*
X145400Y-25400D02*
X140100Y-25400D01*
X145400Y-25400D02*
X190000Y-70000D01*
X370000Y-70000D01*
X390000Y-50000D01*
X390000Y-29500D01*
X394100Y-25400D01*
X395400Y-25400D01*
X440000Y-70000D01*
X730000Y-70000D01*
X780000Y-20000D01*
X780000Y-5300D01*
X774700Y0D01*
D37*
X1092200Y571500D02*
X1219200Y571500D01*
X1320800Y469900D01*
X1371600Y469900D01*
D38*
X1371600Y469900D03*
X1397000Y469900D03*
D37*
X1460500Y469900D01*
X1473200Y457200D01*
X1473200Y342900D01*
X1485900Y330200D01*
X1485900Y203200D01*
D38*
X1485900Y203200D03*
X1473200Y152400D03*
D37*
X1485900Y152400D01*
X1079500Y584200D02*
X1066800Y596900D01*
X1079500Y584200D02*
X1219200Y584200D01*
X1320800Y482600D01*
X1384300Y482600D01*
X1384300Y203200D01*
D38*
X1384300Y203200D03*
D37*
X1346200Y774700D02*
X1346200Y825500D01*
X1358900Y838200D01*
X1397000Y838200D01*
D38*
X1397000Y838200D03*
X1435100Y838200D03*
D37*
X1663700Y838200D01*
D38*
X1663700Y838200D03*
X1739900Y850900D03*
D37*
X1765300Y876300D01*
X1765300Y914400D01*
X1320800Y812800D02*
X1320800Y774700D01*
X1320800Y812800D02*
X1333500Y825500D01*
X1333500Y838200D01*
X1346200Y850900D01*
X1397000Y850900D01*
D38*
X1397000Y850900D03*
X1435100Y850900D03*
D37*
X1727200Y850900D01*
X1739900Y863600D01*
X1739900Y914400D01*
X1168400Y330200D02*
X1168400Y292100D01*
X1168400Y330200D02*
X1155700Y330200D01*
D38*
X1155700Y330200D03*
X1117600Y317500D03*
D37*
X1054100Y317500D01*
D38*
X1054100Y317500D03*
X1016000Y317500D03*
D37*
X1016000Y368300D01*
X977900Y406400D01*
X914400Y406400D01*
X901700Y393700D01*
D38*
X901700Y393700D03*
X866800Y393200D03*
D37*
X789940Y393700D01*
X787400Y391160D01*
X1079100Y610000D02*
X1092200Y596900D01*
D38*
X927100Y596900D03*
D37*
X927100Y546100D01*
X876300Y546100D01*
X863600Y533400D01*
X863600Y520700D01*
X812800Y469900D01*
D38*
X812800Y469900D03*
X803100Y444000D03*
D37*
X788670Y444500D01*
X787400Y445770D01*
X1039600Y609600D02*
X1070000Y610000D01*
D38*
X1039600Y609600D03*
D37*
X1070000Y610000D02*
X1079100Y610000D01*
X1092200Y673100D02*
X1104900Y685800D01*
X1104900Y698500D01*
X1117600Y711200D01*
D38*
X1117600Y711200D03*
X1117600Y762000D03*
D37*
X1117600Y774700D01*
X1130300Y787400D01*
D38*
X1130300Y787400D03*
X1130300Y812800D03*
D37*
X1130300Y838200D01*
X1168400Y876300D01*
X1244600Y876300D01*
X1257300Y889000D01*
X1257300Y901700D01*
X1336040Y916940D02*
X1336040Y918210D01*
X1336040Y916940D02*
X1320800Y901700D01*
X1320800Y825500D01*
X1295400Y800100D01*
X1295400Y774700D01*
X1270000Y774700D02*
X1270000Y787400D01*
X1308100Y825500D01*
X1308100Y927100D01*
X1320800Y939800D01*
X1346200Y939800D01*
X1358900Y927100D01*
X1358900Y920750D01*
X1361440Y918210D01*
X1422400Y901700D02*
X1422400Y774700D01*
X1422400Y901700D02*
X1435100Y914400D01*
X1435100Y927100D01*
X1422400Y939800D01*
X1397000Y939800D01*
X1384300Y927100D01*
X1384300Y920750D01*
X1386840Y918210D01*
X1412240Y918210D02*
X1412240Y802640D01*
X1397000Y787400D01*
X1397000Y774700D01*
X1092200Y469900D02*
X1079500Y457200D01*
X1054100Y457200D01*
X1041400Y469900D01*
X1041400Y482600D01*
X1028700Y495300D01*
X927100Y495300D01*
D38*
X927100Y495300D03*
X914400Y520700D03*
D37*
X927100Y520700D01*
X152400Y263525D02*
X152400Y241300D01*
X165100Y228600D01*
X203200Y228600D01*
D38*
X203200Y228600D03*
X419100Y254000D03*
D37*
X431800Y266700D01*
X431800Y279400D01*
X444500Y279400D01*
D38*
X444500Y279400D03*
X482600Y292100D03*
D37*
X482600Y304800D01*
X495300Y317500D01*
X495300Y406400D01*
X508000Y419100D01*
D38*
X673100Y381000D03*
X749300Y381000D03*
D37*
X749300Y406400D01*
X734060Y406400D01*
X731520Y403860D01*
X622300Y419100D02*
X508000Y419100D01*
D38*
X622300Y419100D03*
X660400Y391700D03*
D37*
X673100Y381000D01*
D38*
X101600Y292100D03*
X419100Y317500D03*
D37*
X444500Y317500D01*
D38*
X444500Y317500D03*
X482600Y317500D03*
D37*
X482600Y419100D01*
X495300Y431800D01*
X698500Y431800D01*
X698500Y419100D01*
X723900Y393700D01*
X728980Y393700D01*
X731520Y391160D01*
X101600Y292100D02*
X101600Y188400D01*
X120000Y170000D01*
X130000Y170000D01*
X140000Y180000D01*
X140000Y263225D01*
X139700Y263525D01*
D39*
X219500Y481650D02*
X219500Y494350D01*
X240650Y494350D01*
X243000Y492000D01*
X243000Y440000D01*
X272000Y411000D01*
X272000Y301000D01*
X285000Y288000D01*
X354000Y288000D01*
X354000Y265125D01*
X355600Y263525D01*
D38*
X444500Y228600D03*
D37*
X457200Y241300D01*
X457200Y431800D01*
X482600Y457200D01*
X730250Y457200D01*
X731520Y458470D01*
X342900Y263525D02*
X340000Y263525D01*
X340000Y230000D01*
D38*
X340000Y230000D03*
D37*
X1689100Y762000D02*
X1689100Y774700D01*
X1689100Y762000D02*
X1701800Y749300D01*
X1930400Y749300D01*
X1943100Y736600D01*
X1943100Y152400D01*
X1930400Y139700D01*
X1524000Y139700D02*
X1511300Y127000D01*
X1231900Y127000D01*
X1193800Y165100D01*
X1193800Y203200D01*
X1181100Y215900D01*
X825500Y215900D01*
X812800Y228600D01*
X812800Y266700D01*
X800100Y279400D01*
X793750Y279400D01*
X787400Y273050D01*
X1524000Y139700D02*
X1549700Y139700D01*
X1570000Y160000D01*
X1590000Y160000D01*
D38*
X1590000Y160000D03*
X1640000Y115000D03*
D37*
X1840000Y115000D01*
X1865000Y140000D01*
X1930100Y140000D01*
X1930400Y139700D01*
X1079500Y406400D02*
X1066800Y393700D01*
X1079500Y406400D02*
X1104900Y406400D01*
D38*
X1104900Y406400D03*
X1117600Y419100D03*
D37*
X1117600Y495300D01*
X1130300Y508000D01*
X1181100Y508000D01*
D38*
X1181100Y508000D03*
X1181100Y596900D03*
D37*
X1143000Y596900D01*
X1130300Y609600D01*
X1130300Y622300D01*
X1143000Y635000D01*
X1143000Y685800D01*
X1155700Y698500D01*
X1155700Y711200D01*
X1206500Y711200D01*
D38*
X1206500Y711200D03*
X1206500Y759000D03*
D37*
X1206500Y790900D01*
D38*
X1206500Y790900D03*
X1206500Y812800D03*
D37*
X1206500Y850900D01*
X1219200Y863600D01*
X1244600Y863600D01*
X1282700Y901700D01*
X1282700Y914400D01*
X1270000Y927100D01*
X1257300Y927100D01*
X1587100Y112100D02*
X1587100Y71200D01*
X1624700Y35600D01*
X1624700Y-27900D01*
X1574800Y-50800D01*
X1308100Y-50800D01*
D38*
X1308100Y-50800D03*
X1295400Y-25400D03*
D37*
X1257300Y-25400D01*
X1231900Y0D01*
X1231900Y12700D01*
X800100Y495300D02*
X749300Y546100D01*
X800100Y495300D02*
X800100Y482600D01*
X812800Y482600D01*
D38*
X812800Y482600D03*
X850900Y444500D03*
D37*
X863600Y431800D01*
X914400Y431800D01*
D38*
X914400Y431800D03*
X914400Y393700D03*
D37*
X914400Y279400D01*
X939800Y254000D01*
X1003300Y254000D01*
D38*
X1003300Y254000D03*
X1003300Y203200D03*
D37*
X1016000Y203200D01*
X1041400Y177800D01*
X1117600Y177800D01*
X1117600Y0D01*
X1130300Y-12700D01*
X1219200Y-12700D01*
X1231900Y0D01*
X330200Y952500D02*
X317500Y965200D01*
X317500Y990600D01*
X431800Y990600D01*
X444500Y977900D01*
X444500Y952500D01*
X469900Y977900D01*
D38*
X469900Y977900D03*
X558800Y956000D03*
X584200Y952500D03*
X596900Y939800D03*
D37*
X673100Y939800D01*
D38*
X673100Y939800D03*
X673100Y914400D03*
D37*
X673100Y901700D01*
X660400Y889000D01*
D38*
X660400Y889000D03*
X660400Y825500D03*
D37*
X660400Y800100D01*
D38*
X660400Y800100D03*
X723900Y723900D03*
D37*
X749300Y723900D01*
D38*
X749300Y723900D03*
X749300Y698500D03*
D37*
X749300Y546100D01*
X580700Y956000D02*
X558800Y956000D01*
X580700Y956000D02*
X584200Y952500D01*
X1605000Y135000D02*
X1587100Y112100D01*
X1605000Y135000D02*
X1660000Y135000D01*
X1665000Y140000D01*
D38*
X1665000Y140000D03*
X1655000Y200000D03*
D37*
X1655000Y288100D01*
X1651000Y292100D01*
D39*
X607000Y53600D02*
X599700Y53600D01*
X584200Y38100D01*
D40*
X584200Y38100D03*
X546100Y38100D03*
D39*
X380600Y38100D01*
X317100Y-25400D01*
D37*
X731520Y236220D02*
X731520Y247650D01*
X731520Y236220D02*
X698500Y203200D01*
X673100Y203200D01*
X673100Y63500D01*
X660400Y50800D01*
X609800Y50800D01*
X607000Y53600D01*
X685800Y228600D02*
X685800Y254000D01*
D38*
X685800Y228600D03*
X685800Y190500D03*
D37*
X698500Y203200D01*
X712470Y433070D02*
X731520Y433070D01*
X712470Y433070D02*
X711200Y431800D01*
D38*
X711200Y431800D03*
X673100Y396900D03*
D37*
X685800Y406400D01*
X685800Y381000D01*
X685800Y355600D01*
X688340Y378460D02*
X731520Y378460D01*
X688340Y378460D02*
X685800Y381000D01*
X685800Y355600D02*
X685800Y304800D01*
X698500Y309880D02*
X731520Y309880D01*
X698500Y309880D02*
X690880Y309880D01*
X685800Y266700D02*
X685800Y254000D01*
D38*
X685800Y266700D03*
X685800Y292100D03*
D37*
X685800Y304800D01*
X524002Y295402D02*
X524002Y279400D01*
X524002Y295402D02*
X533400Y304800D01*
D38*
X533400Y304800D03*
X558800Y317500D03*
D37*
X596900Y317500D01*
X607200Y327800D01*
X609600Y330200D01*
X635000Y330200D01*
D38*
X635000Y330200D03*
X660400Y319000D03*
D37*
X673100Y317500D01*
D38*
X673100Y317500D03*
X698500Y317500D03*
D37*
X698500Y309880D01*
X690880Y309880D02*
X685800Y304800D01*
D39*
X660400Y101600D02*
X655000Y101600D01*
X607000Y53600D01*
D37*
X213800Y963000D02*
X213800Y989375D01*
X242900Y1018475D01*
X221000Y963000D02*
X213800Y963000D01*
X221000Y963000D02*
X231000Y975000D01*
X252000Y975000D01*
X252000Y946000D01*
X249000Y943000D01*
X234000Y943000D01*
X231000Y940000D01*
X222000Y940000D01*
X208000Y926000D01*
X208000Y706000D01*
X433000Y481000D01*
X580000Y481000D01*
D38*
X580000Y481000D03*
X580000Y357000D03*
D37*
X580000Y355000D01*
X607200Y327800D01*
D39*
X1569400Y56200D02*
X1605000Y21100D01*
X1605000Y-22400D01*
X1574800Y-38100D01*
X1005800Y-38600D01*
X980400Y-64000D01*
X965200Y-63500D01*
X952500Y-50800D01*
X952500Y-38100D01*
X1569400Y56200D02*
X1569400Y124400D01*
X1590000Y145000D01*
X1605000Y145000D01*
X1620000Y160000D01*
X1620000Y250000D01*
X1600000Y270000D01*
X1580000Y270000D01*
X1580000Y286900D01*
X1574800Y292100D01*
X990600Y114300D02*
X990600Y-25400D01*
X977900Y-38100D01*
X990600Y114300D02*
X1003300Y127000D01*
X1003300Y152400D01*
X485400Y-25400D02*
X444100Y-25400D01*
X485400Y-25400D02*
X510000Y-50000D01*
X670000Y-50000D01*
X710000Y-10000D01*
X710000Y18400D01*
X706500Y21900D01*
X444100Y-14100D02*
X444100Y-25400D01*
X444100Y-14100D02*
X420000Y10000D01*
X380000Y10000D01*
X350000Y-20000D01*
X350000Y-50000D01*
X214700Y-50000D01*
X190100Y-25400D01*
X706500Y21900D02*
X706500Y36500D01*
X770000Y100000D01*
X770000Y147700D01*
X774700Y152400D01*
X571100Y-8900D02*
X571100Y-25400D01*
X571100Y-8900D02*
X580000Y0D01*
X610000Y0D01*
X630000Y20000D01*
X653800Y20000D01*
X655700Y21900D01*
D37*
X337425Y1056575D02*
X294900Y1056575D01*
X337425Y1056575D02*
X351000Y1043000D01*
D38*
X1673000Y1020000D03*
X1655000Y886000D03*
D37*
X1649000Y886000D01*
X1627000Y864000D01*
D38*
X1627000Y864000D03*
X1625000Y790000D03*
D37*
X1625000Y757000D01*
D38*
X1625000Y757000D03*
X1626000Y674000D03*
D37*
X1431000Y526000D02*
X1418000Y513000D01*
X1418000Y481000D01*
D38*
X1418000Y481000D03*
X1419000Y459000D03*
D37*
X1419000Y341000D01*
X1410000Y332000D01*
D38*
X1410000Y332000D03*
X1322000Y332000D03*
D37*
X1289000Y332000D01*
X1270000Y313000D01*
X1270000Y292100D01*
X383000Y1043000D02*
X351000Y1043000D01*
X383000Y1043000D02*
X410000Y1070000D01*
X1623000Y1070000D01*
X1673000Y1020000D01*
X1626000Y674000D02*
X1554000Y674000D01*
X1535000Y655000D01*
X1535000Y555000D01*
X1506000Y526000D01*
X1431000Y526000D01*
X242900Y1050225D02*
X242900Y1056575D01*
X242900Y1043875D02*
X216125Y1043875D01*
X200000Y1060000D01*
X174400Y1060000D01*
X167700Y1053300D01*
X124900Y1054900D02*
X118000Y1054900D01*
X124900Y1054900D02*
X130000Y1060000D01*
X174400Y1060000D01*
D38*
X469000Y128000D03*
X497000Y128000D03*
D37*
X531000Y128000D01*
X534000Y131000D01*
X545000Y131000D01*
D38*
X545000Y131000D03*
X627000Y131000D03*
D37*
X660000Y131000D01*
D38*
X660000Y131000D03*
X699000Y131000D03*
D37*
X699000Y174000D01*
X743000Y218000D01*
X774000Y218000D01*
X779000Y223000D01*
X791000Y223000D01*
D38*
X791000Y223000D03*
X872000Y279000D03*
D37*
X904000Y279000D01*
D38*
X904000Y279000D03*
X930000Y279000D03*
D37*
X1013000Y279000D01*
D38*
X1013000Y279000D03*
X1056000Y279000D03*
D37*
X1097000Y279000D01*
X1113000Y263000D01*
D38*
X1113000Y263000D03*
X1173000Y263000D03*
D37*
X1226000Y263000D01*
D38*
X1226000Y263000D03*
X1263000Y263000D03*
D37*
X1287000Y263000D01*
X1295000Y271000D01*
X1295000Y291700D01*
X1295400Y292100D01*
X304350Y481650D02*
X271500Y481650D01*
X304350Y481650D02*
X311000Y475000D01*
X311000Y470000D01*
D38*
X311000Y470000D03*
X311000Y443000D03*
D37*
X311000Y424000D01*
X299000Y412000D01*
X299000Y303000D01*
D38*
X299000Y303000D03*
X299000Y276000D03*
D37*
X299000Y194000D01*
X315000Y178000D01*
X387000Y178000D01*
X438000Y127000D01*
X468000Y127000D01*
X469000Y128000D01*
D38*
X467000Y141000D03*
X497000Y141000D03*
D37*
X532000Y141000D01*
X533000Y142000D01*
X545000Y146000D01*
D38*
X545000Y146000D03*
X628000Y146000D03*
D37*
X661000Y146000D01*
D38*
X661000Y146000D03*
X687000Y146000D03*
D37*
X687000Y177000D01*
X736000Y226000D01*
X769000Y226000D01*
X769000Y325000D01*
D38*
X769000Y325000D03*
X876000Y325000D03*
D37*
X904000Y325000D01*
D38*
X904000Y325000D03*
X927000Y325000D03*
D37*
X998000Y325000D01*
X1005000Y332000D01*
D38*
X1005000Y332000D03*
X1051000Y332000D03*
D37*
X1055000Y332000D01*
X1060000Y327000D01*
X1079000Y327000D01*
X1080000Y328000D01*
X1080000Y379000D01*
D38*
X1080000Y379000D03*
X1039000Y457000D03*
D37*
X1039000Y463000D01*
X1015000Y482000D01*
D38*
X1015000Y482000D03*
X1015000Y507000D03*
D37*
X1015000Y511000D01*
X1006000Y520000D01*
X1006000Y554000D01*
D38*
X1006000Y554000D03*
X1049000Y675000D03*
D37*
X1057700Y673000D01*
X1066800Y673100D01*
X251200Y547000D02*
X251200Y474800D01*
X256000Y470000D01*
X270450Y470000D01*
X271500Y468950D01*
X294950Y468950D01*
X295000Y469000D01*
D38*
X295000Y469000D03*
X290000Y440000D03*
D37*
X290000Y315000D01*
X285000Y305000D01*
D38*
X285000Y305000D03*
X285000Y270000D03*
D37*
X285000Y205000D01*
X290000Y200000D01*
X290000Y175000D01*
X315000Y150000D01*
X395000Y150000D01*
D38*
X395000Y150000D03*
X430000Y150000D03*
D37*
X458000Y150000D01*
X467000Y141000D01*
X255825Y1031175D02*
X242900Y1031175D01*
X255825Y1031175D02*
X259000Y1028000D01*
X259000Y940000D01*
X251000Y932000D01*
X232000Y932000D01*
X222000Y922000D01*
X222000Y904900D01*
X220100Y903000D01*
X294900Y1031175D02*
X332825Y1031175D01*
X346000Y1018000D01*
X412100Y1018000D01*
X419300Y1029200D01*
D39*
X219500Y468950D02*
X219500Y456250D01*
X219500Y470300D02*
X152400Y470300D01*
X219500Y470300D02*
X219500Y468950D01*
D38*
X1281000Y-13000D03*
D37*
X1316000Y-13000D01*
X1322000Y-7000D01*
X1322000Y11500D01*
X1320800Y12700D01*
X731520Y445770D02*
X490270Y445770D01*
X469100Y424600D01*
X469100Y216000D01*
D38*
X469100Y216000D03*
D37*
X330400Y262800D02*
X330300Y262700D01*
X330400Y262800D02*
X330400Y262900D01*
X330800Y263300D01*
X330425Y263300D01*
X330200Y263525D01*
X330300Y262700D02*
X330000Y262700D01*
X330000Y215000D01*
D38*
X330000Y215000D03*
M02*
