G04 EAGLE Gerber RS-274X export*
G75*
%MOMM*%
%FSLAX34Y34*%
%LPD*%
%IN*%
%IPPOS*%
%AMOC8*
5,1,8,0,0,1.08239X$1,22.5*%
G01*
%ADD10C,0.254000*%


D10*
X45720Y-88900D02*
X1981200Y-88900D01*
X1981200Y1092200D01*
X45720Y1092200D01*
X45720Y-88900D01*
X99000Y-57635D02*
X98923Y-58901D01*
X98770Y-60161D01*
X98542Y-61410D01*
X98238Y-62642D01*
X97860Y-63853D01*
X97410Y-65040D01*
X96889Y-66197D01*
X96300Y-67321D01*
X95643Y-68407D01*
X94922Y-69452D01*
X94140Y-70451D01*
X93298Y-71401D01*
X92401Y-72298D01*
X91451Y-73140D01*
X90452Y-73922D01*
X89407Y-74643D01*
X88321Y-75300D01*
X87197Y-75889D01*
X86040Y-76410D01*
X84853Y-76860D01*
X83642Y-77238D01*
X82410Y-77542D01*
X81161Y-77770D01*
X79901Y-77923D01*
X78635Y-78000D01*
X77365Y-78000D01*
X76099Y-77923D01*
X74839Y-77770D01*
X73591Y-77542D01*
X72358Y-77238D01*
X71147Y-76860D01*
X69960Y-76410D01*
X68803Y-75889D01*
X67679Y-75300D01*
X66593Y-74643D01*
X65548Y-73922D01*
X64549Y-73140D01*
X63599Y-72298D01*
X62702Y-71401D01*
X61861Y-70451D01*
X61078Y-69452D01*
X60357Y-68407D01*
X59700Y-67321D01*
X59111Y-66197D01*
X58590Y-65040D01*
X58140Y-63853D01*
X57762Y-62642D01*
X57458Y-61410D01*
X57230Y-60161D01*
X57077Y-58901D01*
X57000Y-57635D01*
X57000Y-56365D01*
X57077Y-55099D01*
X57230Y-53839D01*
X57458Y-52591D01*
X57762Y-51358D01*
X58140Y-50147D01*
X58590Y-48960D01*
X59111Y-47803D01*
X59700Y-46679D01*
X60357Y-45593D01*
X61078Y-44548D01*
X61861Y-43549D01*
X62702Y-42599D01*
X63599Y-41702D01*
X64549Y-40861D01*
X65548Y-40078D01*
X66593Y-39357D01*
X67679Y-38700D01*
X68803Y-38111D01*
X69960Y-37590D01*
X71147Y-37140D01*
X72358Y-36762D01*
X73591Y-36458D01*
X74839Y-36230D01*
X76099Y-36077D01*
X77365Y-36000D01*
X78635Y-36000D01*
X79901Y-36077D01*
X81161Y-36230D01*
X82410Y-36458D01*
X83642Y-36762D01*
X84853Y-37140D01*
X86040Y-37590D01*
X87197Y-38111D01*
X88321Y-38700D01*
X89407Y-39357D01*
X90452Y-40078D01*
X91451Y-40861D01*
X92401Y-41702D01*
X93298Y-42599D01*
X94140Y-43549D01*
X94922Y-44548D01*
X95643Y-45593D01*
X96300Y-46679D01*
X96889Y-47803D01*
X97410Y-48960D01*
X97860Y-50147D01*
X98238Y-51358D01*
X98542Y-52591D01*
X98770Y-53839D01*
X98923Y-55099D01*
X99000Y-56365D01*
X99000Y-57635D01*
X99000Y1064365D02*
X98923Y1063099D01*
X98770Y1061839D01*
X98542Y1060591D01*
X98238Y1059358D01*
X97860Y1058147D01*
X97410Y1056960D01*
X96889Y1055803D01*
X96300Y1054679D01*
X95643Y1053593D01*
X94922Y1052548D01*
X94140Y1051549D01*
X93298Y1050599D01*
X92401Y1049702D01*
X91451Y1048861D01*
X90452Y1048078D01*
X89407Y1047357D01*
X88321Y1046700D01*
X87197Y1046111D01*
X86040Y1045590D01*
X84853Y1045140D01*
X83642Y1044762D01*
X82410Y1044458D01*
X81161Y1044230D01*
X79901Y1044077D01*
X78635Y1044000D01*
X77365Y1044000D01*
X76099Y1044077D01*
X74839Y1044230D01*
X73591Y1044458D01*
X72358Y1044762D01*
X71147Y1045140D01*
X69960Y1045590D01*
X68803Y1046111D01*
X67679Y1046700D01*
X66593Y1047357D01*
X65548Y1048078D01*
X64549Y1048861D01*
X63599Y1049702D01*
X62702Y1050599D01*
X61861Y1051549D01*
X61078Y1052548D01*
X60357Y1053593D01*
X59700Y1054679D01*
X59111Y1055803D01*
X58590Y1056960D01*
X58140Y1058147D01*
X57762Y1059358D01*
X57458Y1060591D01*
X57230Y1061839D01*
X57077Y1063099D01*
X57000Y1064365D01*
X57000Y1065635D01*
X57077Y1066901D01*
X57230Y1068161D01*
X57458Y1069410D01*
X57762Y1070642D01*
X58140Y1071853D01*
X58590Y1073040D01*
X59111Y1074197D01*
X59700Y1075321D01*
X60357Y1076407D01*
X61078Y1077452D01*
X61861Y1078451D01*
X62702Y1079401D01*
X63599Y1080298D01*
X64549Y1081140D01*
X65548Y1081922D01*
X66593Y1082643D01*
X67679Y1083300D01*
X68803Y1083889D01*
X69960Y1084410D01*
X71147Y1084860D01*
X72358Y1085238D01*
X73591Y1085542D01*
X74839Y1085770D01*
X76099Y1085923D01*
X77365Y1086000D01*
X78635Y1086000D01*
X79901Y1085923D01*
X81161Y1085770D01*
X82410Y1085542D01*
X83642Y1085238D01*
X84853Y1084860D01*
X86040Y1084410D01*
X87197Y1083889D01*
X88321Y1083300D01*
X89407Y1082643D01*
X90452Y1081922D01*
X91451Y1081140D01*
X92401Y1080298D01*
X93298Y1079401D01*
X94140Y1078451D01*
X94922Y1077452D01*
X95643Y1076407D01*
X96300Y1075321D01*
X96889Y1074197D01*
X97410Y1073040D01*
X97860Y1071853D01*
X98238Y1070642D01*
X98542Y1069410D01*
X98770Y1068161D01*
X98923Y1066901D01*
X99000Y1065635D01*
X99000Y1064365D01*
X1975000Y1059365D02*
X1974923Y1058099D01*
X1974770Y1056839D01*
X1974542Y1055591D01*
X1974238Y1054358D01*
X1973860Y1053147D01*
X1973410Y1051960D01*
X1972889Y1050803D01*
X1972300Y1049679D01*
X1971643Y1048593D01*
X1970922Y1047548D01*
X1970140Y1046549D01*
X1969298Y1045599D01*
X1968401Y1044702D01*
X1967451Y1043861D01*
X1966452Y1043078D01*
X1965407Y1042357D01*
X1964321Y1041700D01*
X1963197Y1041111D01*
X1962040Y1040590D01*
X1960853Y1040140D01*
X1959642Y1039762D01*
X1958410Y1039458D01*
X1957161Y1039230D01*
X1955901Y1039077D01*
X1954635Y1039000D01*
X1953365Y1039000D01*
X1952099Y1039077D01*
X1950839Y1039230D01*
X1949591Y1039458D01*
X1948358Y1039762D01*
X1947147Y1040140D01*
X1945960Y1040590D01*
X1944803Y1041111D01*
X1943679Y1041700D01*
X1942593Y1042357D01*
X1941548Y1043078D01*
X1940549Y1043861D01*
X1939599Y1044702D01*
X1938702Y1045599D01*
X1937861Y1046549D01*
X1937078Y1047548D01*
X1936357Y1048593D01*
X1935700Y1049679D01*
X1935111Y1050803D01*
X1934590Y1051960D01*
X1934140Y1053147D01*
X1933762Y1054358D01*
X1933458Y1055591D01*
X1933230Y1056839D01*
X1933077Y1058099D01*
X1933000Y1059365D01*
X1933000Y1060635D01*
X1933077Y1061901D01*
X1933230Y1063161D01*
X1933458Y1064410D01*
X1933762Y1065642D01*
X1934140Y1066853D01*
X1934590Y1068040D01*
X1935111Y1069197D01*
X1935700Y1070321D01*
X1936357Y1071407D01*
X1937078Y1072452D01*
X1937861Y1073451D01*
X1938702Y1074401D01*
X1939599Y1075298D01*
X1940549Y1076140D01*
X1941548Y1076922D01*
X1942593Y1077643D01*
X1943679Y1078300D01*
X1944803Y1078889D01*
X1945960Y1079410D01*
X1947147Y1079860D01*
X1948358Y1080238D01*
X1949591Y1080542D01*
X1950839Y1080770D01*
X1952099Y1080923D01*
X1953365Y1081000D01*
X1954635Y1081000D01*
X1955901Y1080923D01*
X1957161Y1080770D01*
X1958410Y1080542D01*
X1959642Y1080238D01*
X1960853Y1079860D01*
X1962040Y1079410D01*
X1963197Y1078889D01*
X1964321Y1078300D01*
X1965407Y1077643D01*
X1966452Y1076922D01*
X1967451Y1076140D01*
X1968401Y1075298D01*
X1969298Y1074401D01*
X1970140Y1073451D01*
X1970922Y1072452D01*
X1971643Y1071407D01*
X1972300Y1070321D01*
X1972889Y1069197D01*
X1973410Y1068040D01*
X1973860Y1066853D01*
X1974238Y1065642D01*
X1974542Y1064410D01*
X1974770Y1063161D01*
X1974923Y1061901D01*
X1975000Y1060635D01*
X1975000Y1059365D01*
X1970000Y-56635D02*
X1969923Y-57901D01*
X1969770Y-59161D01*
X1969542Y-60410D01*
X1969238Y-61642D01*
X1968860Y-62853D01*
X1968410Y-64040D01*
X1967889Y-65197D01*
X1967300Y-66321D01*
X1966643Y-67407D01*
X1965922Y-68452D01*
X1965140Y-69451D01*
X1964298Y-70401D01*
X1963401Y-71298D01*
X1962451Y-72140D01*
X1961452Y-72922D01*
X1960407Y-73643D01*
X1959321Y-74300D01*
X1958197Y-74889D01*
X1957040Y-75410D01*
X1955853Y-75860D01*
X1954642Y-76238D01*
X1953410Y-76542D01*
X1952161Y-76770D01*
X1950901Y-76923D01*
X1949635Y-77000D01*
X1948365Y-77000D01*
X1947099Y-76923D01*
X1945839Y-76770D01*
X1944591Y-76542D01*
X1943358Y-76238D01*
X1942147Y-75860D01*
X1940960Y-75410D01*
X1939803Y-74889D01*
X1938679Y-74300D01*
X1937593Y-73643D01*
X1936548Y-72922D01*
X1935549Y-72140D01*
X1934599Y-71298D01*
X1933702Y-70401D01*
X1932861Y-69451D01*
X1932078Y-68452D01*
X1931357Y-67407D01*
X1930700Y-66321D01*
X1930111Y-65197D01*
X1929590Y-64040D01*
X1929140Y-62853D01*
X1928762Y-61642D01*
X1928458Y-60410D01*
X1928230Y-59161D01*
X1928077Y-57901D01*
X1928000Y-56635D01*
X1928000Y-55365D01*
X1928077Y-54099D01*
X1928230Y-52839D01*
X1928458Y-51591D01*
X1928762Y-50358D01*
X1929140Y-49147D01*
X1929590Y-47960D01*
X1930111Y-46803D01*
X1930700Y-45679D01*
X1931357Y-44593D01*
X1932078Y-43548D01*
X1932861Y-42549D01*
X1933702Y-41599D01*
X1934599Y-40702D01*
X1935549Y-39861D01*
X1936548Y-39078D01*
X1937593Y-38357D01*
X1938679Y-37700D01*
X1939803Y-37111D01*
X1940960Y-36590D01*
X1942147Y-36140D01*
X1943358Y-35762D01*
X1944591Y-35458D01*
X1945839Y-35230D01*
X1947099Y-35077D01*
X1948365Y-35000D01*
X1949635Y-35000D01*
X1950901Y-35077D01*
X1952161Y-35230D01*
X1953410Y-35458D01*
X1954642Y-35762D01*
X1955853Y-36140D01*
X1957040Y-36590D01*
X1958197Y-37111D01*
X1959321Y-37700D01*
X1960407Y-38357D01*
X1961452Y-39078D01*
X1962451Y-39861D01*
X1963401Y-40702D01*
X1964298Y-41599D01*
X1965140Y-42549D01*
X1965922Y-43548D01*
X1966643Y-44593D01*
X1967300Y-45679D01*
X1967889Y-46803D01*
X1968410Y-47960D01*
X1968860Y-49147D01*
X1969238Y-50358D01*
X1969542Y-51591D01*
X1969770Y-52839D01*
X1969923Y-54099D01*
X1970000Y-55365D01*
X1970000Y-56635D01*
M02*
