G04 EAGLE Gerber RS-274X export*
G75*
%MOMM*%
%FSLAX34Y34*%
%LPD*%
%INSoldermask Bottom*%
%IPPOS*%
%AMOC8*
5,1,8,0,0,1.08239X$1,22.5*%
G01*
%ADD10C,4.403200*%
%ADD11C,1.711200*%
%ADD12C,1.711200*%
%ADD13C,1.625600*%
%ADD14C,1.879600*%
%ADD15R,1.879600X1.879600*%
%ADD16C,1.727200*%
%ADD17P,1.869504X8X22.500000*%
%ADD18C,1.727200*%
%ADD19C,1.993900*%
%ADD20P,1.649562X8X22.500000*%
%ADD21P,1.649562X8X292.500000*%
%ADD22P,1.869504X8X202.500000*%
%ADD23P,1.869504X8X112.500000*%
%ADD24P,1.649562X8X202.500000*%
%ADD25P,1.649562X8X112.500000*%
%ADD26C,1.524000*%
%ADD27P,1.869504X8X292.500000*%
%ADD28C,1.209600*%
%ADD29C,1.409600*%


D10*
X78000Y-57000D03*
X78000Y1065000D03*
X1954000Y1060000D03*
X1949000Y-56000D03*
D11*
X1701800Y284560D02*
X1701800Y299640D01*
X1676400Y299640D02*
X1676400Y284560D01*
X1651000Y284560D02*
X1651000Y299640D01*
X1625600Y299640D02*
X1625600Y284560D01*
X1600200Y284560D02*
X1600200Y299640D01*
X1574800Y299640D02*
X1574800Y284560D01*
X1574800Y767160D02*
X1574800Y782240D01*
X1549400Y782240D02*
X1549400Y767160D01*
X1524000Y767160D02*
X1524000Y782240D01*
X1498600Y782240D02*
X1498600Y767160D01*
X1473200Y767160D02*
X1473200Y782240D01*
X1447800Y782240D02*
X1447800Y767160D01*
X1422400Y767160D02*
X1422400Y782240D01*
X1397000Y782240D02*
X1397000Y767160D01*
X1346200Y767160D02*
X1346200Y782240D01*
X1320800Y782240D02*
X1320800Y767160D01*
X1270000Y767160D02*
X1270000Y782240D01*
X1244600Y782240D02*
X1244600Y767160D01*
X1219200Y767160D02*
X1219200Y782240D01*
X1193800Y782240D02*
X1193800Y767160D01*
X1168400Y767160D02*
X1168400Y782240D01*
X1790700Y782240D02*
X1790700Y767160D01*
X1765300Y767160D02*
X1765300Y782240D01*
X1739900Y782240D02*
X1739900Y767160D01*
X1714500Y767160D02*
X1714500Y782240D01*
X1689100Y782240D02*
X1689100Y767160D01*
X1663700Y767160D02*
X1663700Y782240D01*
X1638300Y782240D02*
X1638300Y767160D01*
X1612900Y767160D02*
X1612900Y782240D01*
D12*
X1066800Y342900D03*
X1092200Y342900D03*
X1092200Y368300D03*
X1066800Y368300D03*
X1066800Y393700D03*
X1092200Y393700D03*
X1092200Y419100D03*
X1066800Y419100D03*
X1066800Y444500D03*
X1092200Y444500D03*
X1066800Y469900D03*
X1092200Y469900D03*
X1092200Y495300D03*
X1066800Y495300D03*
X1066800Y520700D03*
X1092200Y520700D03*
X1092200Y546100D03*
X1066800Y546100D03*
X1092200Y571500D03*
X1066800Y571500D03*
X1066800Y596900D03*
X1092200Y596900D03*
X1092200Y622300D03*
X1066800Y622300D03*
X1066800Y647700D03*
X1092200Y647700D03*
X1066800Y673100D03*
X1092200Y673100D03*
X1092200Y698500D03*
X1066800Y698500D03*
X1066800Y723900D03*
X1092200Y723900D03*
X1092200Y749300D03*
X1066800Y749300D03*
X1092200Y774700D03*
X1066800Y774700D03*
D11*
X1295400Y767160D02*
X1295400Y782240D01*
X1295400Y299640D02*
X1295400Y284560D01*
X1270000Y284560D02*
X1270000Y299640D01*
X1219200Y299640D02*
X1219200Y284560D01*
X1193800Y284560D02*
X1193800Y299640D01*
X1168400Y299640D02*
X1168400Y284560D01*
X1143000Y284560D02*
X1143000Y299640D01*
X1117600Y299640D02*
X1117600Y284560D01*
X1244600Y284560D02*
X1244600Y299640D01*
X1524000Y299640D02*
X1524000Y284560D01*
X1498600Y284560D02*
X1498600Y299640D01*
X1447800Y299640D02*
X1447800Y284560D01*
X1422400Y284560D02*
X1422400Y299640D01*
X1397000Y299640D02*
X1397000Y284560D01*
X1371600Y284560D02*
X1371600Y299640D01*
X1346200Y299640D02*
X1346200Y284560D01*
X1473200Y284560D02*
X1473200Y299640D01*
D13*
X1701800Y704088D02*
X1701800Y718312D01*
X1727200Y718312D02*
X1727200Y704088D01*
X1752600Y704088D02*
X1752600Y718312D01*
X1778000Y718312D02*
X1778000Y704088D01*
X1727200Y299212D02*
X1727200Y284988D01*
X1752600Y284988D02*
X1752600Y299212D01*
X1816100Y767588D02*
X1816100Y781812D01*
X1841500Y781812D02*
X1841500Y767588D01*
D14*
X1371600Y571500D03*
X1371600Y546100D03*
X1371600Y520700D03*
X1397000Y520700D03*
X1397000Y546100D03*
D15*
X1397000Y571500D03*
D11*
X1790700Y767160D02*
X1790700Y782240D01*
D16*
X1600200Y901700D03*
D17*
X1625600Y901700D03*
X1651000Y901700D03*
X1600200Y927100D03*
X1625600Y927100D03*
X1651000Y927100D03*
D16*
X1485900Y901700D03*
D17*
X1511300Y901700D03*
X1536700Y901700D03*
X1485900Y927100D03*
X1511300Y927100D03*
X1536700Y927100D03*
D18*
X134620Y584200D02*
X119380Y584200D01*
X119380Y609600D02*
X134620Y609600D01*
X134620Y635000D02*
X119380Y635000D01*
X119380Y685800D02*
X134620Y685800D01*
X134620Y711200D02*
X119380Y711200D01*
X119380Y736600D02*
X134620Y736600D01*
D19*
X394100Y-16447D02*
X394100Y-34354D01*
X444100Y-34354D02*
X444100Y-16447D01*
X521100Y-16447D02*
X521100Y-34354D01*
X571100Y-34354D02*
X571100Y-16447D01*
D20*
X1231900Y177800D03*
X1257300Y177800D03*
X1320800Y177800D03*
X1346200Y177800D03*
X1422400Y177800D03*
X1447800Y177800D03*
D21*
X1282700Y152400D03*
X1282700Y50800D03*
X1384300Y152400D03*
X1384300Y50800D03*
X1485900Y152400D03*
X1485900Y50800D03*
D17*
X444500Y927100D03*
X469900Y927100D03*
X495300Y927100D03*
X520700Y927100D03*
X444500Y952500D03*
X469900Y952500D03*
X495300Y952500D03*
X520700Y952500D03*
X330200Y927100D03*
X355600Y927100D03*
X381000Y927100D03*
X406400Y927100D03*
X330200Y952500D03*
X355600Y952500D03*
X381000Y952500D03*
X406400Y952500D03*
D19*
X161354Y520300D02*
X143447Y520300D01*
X143447Y470300D02*
X161354Y470300D01*
D18*
X1295400Y20320D02*
X1295400Y5080D01*
X1320800Y5080D02*
X1320800Y20320D01*
X1346200Y20320D02*
X1346200Y5080D01*
D17*
X558800Y736600D03*
X711200Y736600D03*
X558800Y787400D03*
X711200Y787400D03*
X558800Y685800D03*
X711200Y685800D03*
X558800Y838200D03*
X711200Y838200D03*
X558800Y889000D03*
X711200Y889000D03*
X558800Y939800D03*
X711200Y939800D03*
D22*
X711200Y635000D03*
X558800Y635000D03*
X711200Y584200D03*
X558800Y584200D03*
X533400Y774700D03*
X381000Y774700D03*
X711200Y533400D03*
X558800Y533400D03*
X533400Y876300D03*
X381000Y876300D03*
X533400Y825500D03*
X381000Y825500D03*
D20*
X495300Y723900D03*
X520700Y723900D03*
X431800Y723900D03*
X457200Y723900D03*
X495300Y685800D03*
X520700Y685800D03*
X431800Y685800D03*
X457200Y685800D03*
X495300Y647700D03*
X520700Y647700D03*
X431800Y647700D03*
X457200Y647700D03*
X495300Y609600D03*
X520700Y609600D03*
X431800Y609600D03*
X457200Y609600D03*
X431800Y571500D03*
X457200Y571500D03*
X495300Y571500D03*
X520700Y571500D03*
X431800Y533400D03*
X457200Y533400D03*
X495300Y533400D03*
X520700Y533400D03*
D16*
X1206500Y901700D03*
D17*
X1231900Y901700D03*
X1257300Y901700D03*
X1206500Y927100D03*
X1231900Y927100D03*
X1257300Y927100D03*
D18*
X1054100Y932180D02*
X1054100Y947420D01*
X1079500Y947420D02*
X1079500Y932180D01*
X1104900Y932180D02*
X1104900Y947420D01*
D23*
X444500Y254000D03*
X444500Y406400D03*
X254000Y254000D03*
X254000Y406400D03*
D20*
X596900Y254000D03*
X622300Y254000D03*
D24*
X685800Y355600D03*
X660400Y355600D03*
D20*
X850900Y406400D03*
X876300Y406400D03*
X850900Y355600D03*
X876300Y355600D03*
D24*
X685800Y406400D03*
X660400Y406400D03*
D20*
X596900Y317500D03*
X622300Y317500D03*
D18*
X134620Y787400D02*
X119380Y787400D01*
X119380Y812800D02*
X134620Y812800D01*
X134620Y838200D02*
X119380Y838200D01*
X119380Y863600D02*
X134620Y863600D01*
D17*
X508000Y203200D03*
X660400Y203200D03*
D16*
X1524000Y0D03*
D17*
X1549400Y0D03*
X1574800Y0D03*
X1524000Y25400D03*
X1549400Y25400D03*
X1574800Y25400D03*
D19*
X267100Y-16447D02*
X267100Y-34354D01*
X317100Y-34354D02*
X317100Y-16447D01*
X140100Y-16447D02*
X140100Y-34354D01*
X190100Y-34354D02*
X190100Y-16447D01*
D18*
X1104900Y5080D02*
X1104900Y20320D01*
X1130300Y20320D02*
X1130300Y5080D01*
X1155700Y5080D02*
X1155700Y20320D01*
X1181100Y20320D02*
X1181100Y5080D01*
X1206500Y5080D02*
X1206500Y20320D01*
X1231900Y20320D02*
X1231900Y5080D01*
D25*
X850900Y647700D03*
X850900Y673100D03*
X889000Y520700D03*
X889000Y622300D03*
X927100Y647700D03*
X927100Y673100D03*
X927100Y520700D03*
X927100Y622300D03*
D20*
X787400Y863600D03*
X812800Y863600D03*
X787400Y939800D03*
X812800Y939800D03*
D18*
X1714500Y922020D02*
X1714500Y906780D01*
X1739900Y906780D02*
X1739900Y922020D01*
X1765300Y922020D02*
X1765300Y906780D01*
X1790700Y906780D02*
X1790700Y922020D01*
X1397000Y20320D02*
X1397000Y5080D01*
X1422400Y5080D02*
X1422400Y20320D01*
X1447800Y20320D02*
X1447800Y5080D01*
X1473200Y5080D02*
X1473200Y20320D01*
D22*
X468630Y190500D03*
X318770Y190500D03*
X278130Y190500D03*
X128270Y190500D03*
D18*
X1412240Y910590D02*
X1412240Y925830D01*
X1386840Y925830D02*
X1386840Y910590D01*
X1361440Y910590D02*
X1361440Y925830D01*
X1336040Y925830D02*
X1336040Y910590D01*
D20*
X850900Y254000D03*
X876300Y254000D03*
X850900Y304800D03*
X876300Y304800D03*
D24*
X685800Y304800D03*
X660400Y304800D03*
X685800Y254000D03*
X660400Y254000D03*
D13*
X977900Y-30988D02*
X977900Y-45212D01*
X952500Y-45212D02*
X952500Y-30988D01*
X927100Y-30988D02*
X927100Y-45212D01*
X706500Y14788D02*
X706500Y29012D01*
X681100Y29012D02*
X681100Y14788D01*
X655700Y14788D02*
X655700Y29012D01*
D20*
X482600Y76200D03*
X508000Y76200D03*
D13*
X946900Y103688D02*
X946900Y117912D01*
X921500Y117912D02*
X921500Y103688D01*
D24*
X660400Y101600D03*
X635000Y101600D03*
D26*
X749300Y6604D02*
X749300Y-6604D01*
X774700Y-6604D02*
X774700Y6604D01*
X800100Y6604D02*
X800100Y-6604D01*
X825500Y-6604D02*
X825500Y6604D01*
X850900Y6604D02*
X850900Y-6604D01*
X876300Y-6604D02*
X876300Y6604D01*
X901700Y6604D02*
X901700Y-6604D01*
X927100Y-6604D02*
X927100Y6604D01*
X952500Y6604D02*
X952500Y-6604D01*
X977900Y-6604D02*
X977900Y6604D01*
X1003300Y6604D02*
X1003300Y-6604D01*
X1028700Y-6604D02*
X1028700Y6604D01*
X1028700Y145796D02*
X1028700Y159004D01*
X1003300Y159004D02*
X1003300Y145796D01*
X977900Y145796D02*
X977900Y159004D01*
X952500Y159004D02*
X952500Y145796D01*
X927100Y145796D02*
X927100Y159004D01*
X901700Y159004D02*
X901700Y145796D01*
X876300Y145796D02*
X876300Y159004D01*
X850900Y159004D02*
X850900Y145796D01*
X825500Y145796D02*
X825500Y159004D01*
X800100Y159004D02*
X800100Y145796D01*
X774700Y145796D02*
X774700Y159004D01*
X749300Y159004D02*
X749300Y145796D01*
D25*
X353600Y1030300D03*
X353600Y1055700D03*
X419300Y1029200D03*
X419300Y1054600D03*
D20*
X213800Y963000D03*
X239200Y963000D03*
X220100Y903000D03*
X245500Y903000D03*
D23*
X118000Y902500D03*
X118000Y1054900D03*
D27*
X167700Y1053300D03*
X167700Y900900D03*
D24*
X1083500Y118500D03*
X1058100Y118500D03*
D17*
X251200Y547000D03*
X403600Y547000D03*
D19*
X1837000Y1028747D02*
X1837000Y1046654D01*
X1787000Y1046654D02*
X1787000Y1028747D01*
D22*
X1281200Y-55000D03*
X1128800Y-55000D03*
D24*
X1100700Y-54000D03*
X1075300Y-54000D03*
D20*
X1157300Y1025000D03*
X1182700Y1025000D03*
D28*
X1536700Y673100D03*
X1536700Y863600D03*
X1587500Y889000D03*
X1562100Y889000D03*
X1511300Y863600D03*
X1511300Y825500D03*
X1511300Y812800D03*
X1511300Y673100D03*
X1587500Y914400D03*
X1562100Y914400D03*
X1485900Y863600D03*
X1485900Y825500D03*
X1485900Y812800D03*
X1485900Y790400D03*
X1485900Y759000D03*
X1485900Y673100D03*
X1549400Y876300D03*
X1498600Y876300D03*
X1574800Y876300D03*
X862600Y967200D03*
X838200Y952500D03*
X861600Y784400D03*
X800100Y850900D03*
X787400Y495300D03*
X812800Y495300D03*
X863600Y622300D03*
X865600Y647700D03*
X806600Y416600D03*
X863600Y419100D03*
X800100Y355600D03*
X863600Y342900D03*
X812800Y292100D03*
X863600Y292100D03*
X1147000Y890500D03*
X1168400Y901700D03*
X1270000Y914400D03*
X1333500Y889000D03*
X1397000Y889000D03*
X1447800Y889000D03*
X1460500Y914400D03*
X342900Y939800D03*
X393700Y939800D03*
X940000Y886000D03*
X905000Y849000D03*
X888000Y849000D03*
X890000Y780000D03*
X940000Y676000D03*
X930000Y725000D03*
X366000Y468000D03*
X418000Y520000D03*
X1676400Y177800D03*
X1676400Y127000D03*
X1358900Y-63500D03*
X1358900Y-25400D03*
X1219400Y939800D03*
X1435100Y939800D03*
X901700Y711200D03*
X901700Y685800D03*
X850900Y520700D03*
X856400Y465900D03*
X825500Y431800D03*
X803100Y431300D03*
X838200Y406400D03*
X838200Y368300D03*
X850900Y279400D03*
X812800Y304800D03*
X838200Y304800D03*
X850900Y927100D03*
X952500Y927100D03*
X1028700Y952500D03*
X1143000Y939800D03*
X978400Y823000D03*
X1041400Y876300D03*
X1028700Y889000D03*
X1016000Y927100D03*
X800100Y368300D03*
X1257300Y38100D03*
X1104900Y38100D03*
X980600Y203200D03*
X927100Y241300D03*
X323000Y1047000D03*
X324000Y1021000D03*
X812800Y1016000D03*
X1728000Y1019000D03*
X1716000Y942000D03*
X343000Y495000D03*
X404000Y528000D03*
X586000Y745000D03*
X583000Y709000D03*
X583000Y651000D03*
X444000Y548000D03*
X795000Y235000D03*
X1117600Y342900D03*
X1155700Y342900D03*
X1219200Y508000D03*
X1219200Y596900D03*
X1358900Y685800D03*
X1371600Y762000D03*
X1371600Y825500D03*
X1371600Y863600D03*
X1397000Y863600D03*
X1435100Y863600D03*
X1231900Y495300D03*
X1231900Y596900D03*
X1592500Y685800D03*
X1592500Y760500D03*
X1598700Y789400D03*
X1600200Y863600D03*
X1231900Y152400D03*
X1257300Y88900D03*
X1371600Y88900D03*
X1333500Y165100D03*
X1447800Y161600D03*
X1473200Y50800D03*
X1295400Y177800D03*
X1295400Y152400D03*
X979900Y990600D03*
X964900Y838200D03*
X1371600Y342900D03*
X1320800Y406400D03*
X1231900Y482600D03*
X1206500Y482600D03*
X1168400Y482600D03*
X1143000Y482600D03*
X1130300Y482600D03*
X1104900Y482600D03*
X1079300Y482600D03*
X1028700Y508000D03*
X1244600Y221400D03*
X1244600Y190500D03*
X1244600Y152400D03*
X1244600Y114300D03*
X1259000Y-1000D03*
X1212000Y-52000D03*
X609600Y190500D03*
X609600Y215900D03*
X726400Y358100D03*
X673100Y342900D03*
X711200Y419100D03*
X688300Y420100D03*
X660400Y469900D03*
X647700Y419100D03*
X533400Y239300D03*
X569300Y229100D03*
X533400Y292100D03*
X558800Y292100D03*
X220000Y1065000D03*
X205000Y1035000D03*
X952500Y850900D03*
X942800Y866600D03*
X914400Y838200D03*
X914400Y815300D03*
X927100Y885500D03*
X914400Y863600D03*
X609600Y825500D03*
X584200Y825500D03*
X546100Y812800D03*
X469900Y812800D03*
X469900Y762000D03*
X431800Y939800D03*
X431800Y889000D03*
X469900Y889000D03*
X469900Y863600D03*
X469000Y738000D03*
X393700Y965200D03*
X315500Y952500D03*
X368300Y685800D03*
X393700Y685800D03*
X495300Y660400D03*
X558800Y660400D03*
X685800Y774700D03*
X685800Y800100D03*
X685800Y825500D03*
X685800Y850900D03*
X736600Y850900D03*
X736600Y825500D03*
X850900Y825500D03*
X876300Y825500D03*
X317500Y762000D03*
X342900Y762000D03*
X990600Y889000D03*
X1003300Y990600D03*
X939800Y838200D03*
X938300Y815800D03*
X945000Y660000D03*
X1040000Y660000D03*
X955000Y650000D03*
X1040000Y645000D03*
X1016000Y952500D03*
X977900Y1003300D03*
X546100Y952500D03*
X520700Y762000D03*
X533400Y736600D03*
X495300Y622300D03*
X533400Y622300D03*
X939800Y927100D03*
X914400Y927100D03*
X508000Y901700D03*
X495300Y889000D03*
X495300Y762000D03*
X508000Y736600D03*
X890000Y968700D03*
X889000Y1003300D03*
X481100Y647700D03*
X480600Y709200D03*
X457200Y709200D03*
X432300Y708700D03*
X412600Y724400D03*
X417100Y749800D03*
X304800Y838200D03*
X876300Y977900D03*
X838200Y965200D03*
X546100Y965200D03*
X508000Y965200D03*
X342900Y876300D03*
X419100Y850900D03*
X482600Y914400D03*
X457200Y939800D03*
X457200Y863600D03*
X398900Y723900D03*
X406400Y673100D03*
X406400Y660400D03*
X406400Y635000D03*
X482600Y977900D03*
X571500Y927100D03*
X800100Y914400D03*
X825500Y901700D03*
X838200Y901700D03*
X850900Y914400D03*
X520700Y593900D03*
X469900Y596900D03*
X393700Y914400D03*
X381000Y901700D03*
X292100Y800100D03*
X685800Y952500D03*
X800100Y927100D03*
X825500Y927100D03*
X584200Y939800D03*
X533400Y914400D03*
X520700Y901700D03*
X444500Y838200D03*
X431800Y863600D03*
X406400Y863600D03*
X381000Y850900D03*
X330200Y889000D03*
X381000Y736600D03*
X317500Y736600D03*
X393700Y584200D03*
X419100Y584200D03*
X292100Y889000D03*
X482600Y736600D03*
X482600Y762000D03*
X419100Y876300D03*
X419100Y927100D03*
X825500Y769700D03*
X740900Y762000D03*
X673100Y762000D03*
X558800Y711200D03*
X495300Y711200D03*
X968000Y815000D03*
X825500Y876300D03*
X800100Y876300D03*
X786900Y877300D03*
X762000Y876300D03*
X723900Y876300D03*
X673100Y876300D03*
X571500Y850900D03*
X571500Y812800D03*
X431800Y977900D03*
X444500Y990600D03*
X368300Y914400D03*
X368300Y889000D03*
X381000Y723900D03*
X381000Y698500D03*
X457200Y990600D03*
X711200Y955500D03*
X749300Y939800D03*
X774700Y901700D03*
X774700Y850900D03*
X787400Y812800D03*
X355600Y912400D03*
X355600Y889000D03*
X419300Y698500D03*
X468200Y698500D03*
X558800Y698500D03*
X495300Y698500D03*
X673100Y711200D03*
X733900Y711200D03*
X1143000Y787400D03*
X1143000Y812800D03*
X1193800Y863600D03*
X1193800Y901700D03*
X1130300Y762000D03*
X1130300Y711200D03*
X1016000Y825500D03*
X1054100Y838200D03*
X1117600Y850900D03*
X1155700Y850900D03*
X1181100Y863600D03*
X1181100Y889000D03*
X1371600Y368300D03*
X1397000Y355600D03*
X1409700Y203200D03*
X1409700Y114300D03*
X1371600Y254000D03*
X1422400Y254000D03*
X1422400Y203200D03*
X1435100Y114300D03*
X1358900Y203200D03*
X1358900Y114300D03*
X1282700Y190500D03*
X1270000Y165100D03*
X1267000Y152400D03*
X1267000Y114300D03*
X1016000Y850900D03*
X1041400Y863600D03*
X1117600Y914400D03*
X1104900Y927100D03*
X1117600Y508000D03*
X1117600Y596900D03*
X1143000Y711200D03*
X1143000Y762000D03*
X1151700Y774400D03*
X1163200Y811800D03*
X1181100Y838200D03*
X1144000Y877300D03*
X1003300Y850900D03*
X1003300Y876300D03*
X1066800Y901700D03*
X1079500Y927100D03*
X977900Y787400D03*
X1054100Y812800D03*
X1066800Y825500D03*
X1066800Y889000D03*
X1054100Y889000D03*
X1041400Y927100D03*
X190500Y241300D03*
X241300Y241300D03*
X381000Y241300D03*
X431800Y241300D03*
X279400Y596900D03*
X279400Y571500D03*
X444500Y368300D03*
X533400Y368300D03*
X622300Y368300D03*
X660400Y373300D03*
X673100Y368300D03*
X698500Y368300D03*
X698500Y330200D03*
X673100Y330200D03*
X659900Y339900D03*
X635000Y342900D03*
X508000Y406400D03*
X457200Y444500D03*
X177800Y584200D03*
X152400Y584200D03*
X96000Y750000D03*
X80000Y705000D03*
X838200Y266700D03*
X1605000Y185000D03*
X1635000Y185000D03*
X802000Y255000D03*
X553100Y261700D03*
X576000Y266200D03*
X609600Y241300D03*
X635000Y241300D03*
X635000Y215900D03*
X635000Y190500D03*
X635000Y406400D03*
X635000Y469900D03*
X508000Y381000D03*
X444500Y431800D03*
X304800Y571500D03*
X292100Y596900D03*
X254000Y596900D03*
X254000Y571500D03*
X406400Y419100D03*
X419100Y342900D03*
X444500Y342900D03*
X508000Y342900D03*
X1565000Y170000D03*
X1640000Y165000D03*
X1536700Y215900D03*
X1536700Y190500D03*
X1536700Y177800D03*
X1536700Y127000D03*
X1524000Y203200D03*
X1524000Y127000D03*
X1473200Y241300D03*
X1498600Y228600D03*
X1511300Y203200D03*
X1511300Y114300D03*
X1524000Y63500D03*
X1371600Y203200D03*
X1371600Y114300D03*
X1397000Y101600D03*
X1435100Y101600D03*
X1473200Y215900D03*
X1498600Y215900D03*
X1498600Y203200D03*
X1498600Y114300D03*
X1460500Y203200D03*
X1460500Y114300D03*
X1028700Y431800D03*
X1028700Y406400D03*
X1028700Y254000D03*
X1028700Y203200D03*
X1130300Y254000D03*
X1130300Y177800D03*
X1041400Y254000D03*
X1041400Y203200D03*
X1117600Y368300D03*
X1143000Y355600D03*
X1155700Y254000D03*
X1168400Y203200D03*
X1181100Y127000D03*
X1181100Y101600D03*
X1054100Y381000D03*
X1016000Y381000D03*
X1003300Y406400D03*
X1003300Y431800D03*
X901700Y495300D03*
X901700Y520700D03*
X1371600Y469900D03*
X1397000Y469900D03*
X1485900Y203200D03*
X1473200Y152400D03*
X1384300Y203200D03*
X1397000Y838200D03*
X1435100Y838200D03*
X1663700Y838200D03*
X1739900Y850900D03*
X1397000Y850900D03*
X1435100Y850900D03*
X1155700Y330200D03*
X1117600Y317500D03*
X1054100Y317500D03*
X1016000Y317500D03*
X901700Y393700D03*
X866800Y393200D03*
X927100Y596900D03*
X812800Y469900D03*
X803100Y444000D03*
X1039600Y609600D03*
X1117600Y711200D03*
X1117600Y762000D03*
X1130300Y787400D03*
X1130300Y812800D03*
X927100Y495300D03*
X914400Y520700D03*
X203200Y228600D03*
X419100Y254000D03*
X444500Y279400D03*
X482600Y292100D03*
X673100Y381000D03*
X749300Y381000D03*
X622300Y419100D03*
X660400Y391700D03*
X101600Y292100D03*
X419100Y317500D03*
X444500Y317500D03*
X482600Y317500D03*
X444500Y228600D03*
X340000Y230000D03*
X1590000Y160000D03*
X1640000Y115000D03*
X1104900Y406400D03*
X1117600Y419100D03*
X1181100Y508000D03*
X1181100Y596900D03*
X1206500Y711200D03*
X1206500Y759000D03*
X1206500Y790900D03*
X1206500Y812800D03*
X1308100Y-50800D03*
X1295400Y-25400D03*
X812800Y482600D03*
X850900Y444500D03*
X914400Y431800D03*
X914400Y393700D03*
X1003300Y254000D03*
X1003300Y203200D03*
X469900Y977900D03*
X558800Y956000D03*
X584200Y952500D03*
X596900Y939800D03*
X673100Y939800D03*
X673100Y914400D03*
X660400Y889000D03*
X660400Y825500D03*
X660400Y800100D03*
X723900Y723900D03*
X749300Y723900D03*
X749300Y698500D03*
X1665000Y140000D03*
X1655000Y200000D03*
D29*
X584200Y38100D03*
X546100Y38100D03*
D28*
X685800Y228600D03*
X685800Y190500D03*
X711200Y431800D03*
X673100Y396900D03*
X685800Y266700D03*
X685800Y292100D03*
X533400Y304800D03*
X558800Y317500D03*
X635000Y330200D03*
X660400Y319000D03*
X673100Y317500D03*
X698500Y317500D03*
X580000Y481000D03*
X580000Y357000D03*
X1673000Y1020000D03*
X1655000Y886000D03*
X1627000Y864000D03*
X1625000Y790000D03*
X1625000Y757000D03*
X1626000Y674000D03*
X1418000Y481000D03*
X1419000Y459000D03*
X1410000Y332000D03*
X1322000Y332000D03*
X469000Y128000D03*
X497000Y128000D03*
X545000Y131000D03*
X627000Y131000D03*
X660000Y131000D03*
X699000Y131000D03*
X791000Y223000D03*
X872000Y279000D03*
X904000Y279000D03*
X930000Y279000D03*
X1013000Y279000D03*
X1056000Y279000D03*
X1113000Y263000D03*
X1173000Y263000D03*
X1226000Y263000D03*
X1263000Y263000D03*
X311000Y470000D03*
X311000Y443000D03*
X299000Y303000D03*
X299000Y276000D03*
X467000Y141000D03*
X497000Y141000D03*
X545000Y146000D03*
X628000Y146000D03*
X661000Y146000D03*
X687000Y146000D03*
X769000Y325000D03*
X876000Y325000D03*
X904000Y325000D03*
X927000Y325000D03*
X1005000Y332000D03*
X1051000Y332000D03*
X1080000Y379000D03*
X1039000Y457000D03*
X1015000Y482000D03*
X1015000Y507000D03*
X1006000Y554000D03*
X1049000Y675000D03*
X295000Y469000D03*
X290000Y440000D03*
X285000Y305000D03*
X285000Y270000D03*
X395000Y150000D03*
X430000Y150000D03*
X1281000Y-13000D03*
X469100Y216000D03*
X330000Y215000D03*
M02*
