M48
;GenerationSoftware,Autodesk,EAGLE,9.6.2*%
;CreationDate,2022-03-13T20:03:18Z*%
FMAT,2
ICI,OFF
METRIC,TZ,000.000
T9C0.600
T8C0.700
T7C0.800
T6C0.813
T5C0.914
T4C1.000
T3C1.016
T2C1.194
T1C4.200
%
G90
M71
T1
X194900Y-5600
X7800Y-5700
X7800Y106500
X195400Y106000
T2
X57110Y-2540
X39410Y-2540
X44410Y-2540
X52110Y-2540
X15240Y52030
X15240Y47030
X26710Y-2540
X31710Y-2540
X14010Y-2540
X19010Y-2540
X183700Y103770
X178700Y103770
T3
X110490Y93980
X107950Y93980
X105410Y93980
X125730Y92710
X123190Y92710
X120650Y92710
X71120Y58420
X160020Y90170
X162560Y90170
X165100Y90170
X160020Y92710
X162560Y92710
X165100Y92710
X148590Y90170
X151130Y90170
X153670Y90170
X148590Y92710
X151130Y92710
X153670Y92710
X12700Y58420
X12700Y60960
X12700Y63500
X12700Y68580
X12700Y71120
X12700Y73660
X125730Y90170
X123190Y90170
X44450Y40640
X120650Y90170
X38100Y82550
X53340Y82550
X55880Y58420
X38100Y87630
X53340Y87630
X55880Y53340
X71120Y53340
X38100Y77470
X53340Y77470
X44450Y92710
X46990Y92710
X49530Y92710
X52070Y92710
X44450Y95250
X46990Y95250
X49530Y95250
X52070Y95250
X33020Y92710
X35560Y92710
X38100Y92710
X40640Y92710
X33020Y95250
X35560Y95250
X38100Y95250
X40640Y95250
X12700Y86360
X154940Y0
X129540Y1270
X132080Y1270
X134620Y1270
X55880Y73660
X71120Y73660
X55880Y78740
X71120Y78740
X55880Y68580
X71120Y68580
X55880Y83820
X71120Y83820
X55880Y88900
X71120Y88900
X55880Y93980
X71120Y93980
X71120Y63500
X55880Y63500
X66040Y20320
X50800Y20320
X12700Y83820
X157480Y0
X152400Y2540
X154940Y2540
X157480Y2540
X152400Y0
X12700Y81280
X12700Y78740
X25400Y40640
X110490Y1270
X113030Y1270
X115570Y1270
X118110Y1270
X120650Y1270
X123190Y1270
X171450Y91440
X173990Y91440
X176530Y91440
X179070Y91440
X139700Y1270
X142240Y1270
X144780Y1270
X147320Y1270
X46863Y19050
X31877Y19050
X27813Y19050
X12827Y19050
X141224Y91821
X138684Y91821
X136144Y91821
X133604Y91821
X11800Y90250
X11800Y105490
X16770Y105330
X16770Y90090
X25120Y54700
X40360Y54700
X25400Y25400
X44450Y25400
X128120Y-5500
X112880Y-5500
T4
X109220Y49530
X106680Y49530
X106680Y52070
X109220Y52070
X109220Y54610
X106680Y54610
X109220Y57150
X106680Y57150
X106680Y59690
X109220Y59690
X109220Y62230
X106680Y62230
X106680Y64770
X109220Y64770
X106680Y67310
X109220Y67310
X109220Y69850
X106680Y69850
X106680Y72390
X109220Y72390
X109220Y74930
X106680Y74930
X109220Y77470
X106680Y77470
X129540Y77470
X129540Y29210
X127000Y29210
X121920Y29210
X119380Y29210
X116840Y29210
X114300Y29210
X111760Y29210
X124460Y29210
X152400Y29210
X149860Y29210
X144780Y29210
X142240Y29210
X139700Y29210
X137160Y29210
X134620Y29210
X147320Y29210
X179070Y77470
X106680Y41910
X170180Y29210
X167640Y29210
X165100Y29210
X162560Y29210
X160020Y29210
X157480Y29210
X157480Y77470
X154940Y77470
X152400Y77470
X149860Y77470
X147320Y77470
X144780Y77470
X142240Y77470
X139700Y77470
X134620Y77470
X132080Y77470
X127000Y77470
X124460Y77470
X121920Y77470
X119380Y77470
X116840Y77470
X179070Y77470
X176530Y77470
X173990Y77470
X171450Y77470
X168910Y77470
X166370Y77470
X163830Y77470
X161290Y77470
X106680Y34290
X109220Y34290
X109220Y36830
X106680Y36830
X106680Y39370
X109220Y39370
X109220Y41910
X106680Y44450
X109220Y44450
X106680Y46990
X109220Y46990
T5
X97790Y-3810
X92150Y11080
X94690Y11080
X65570Y2190
X68110Y2190
X70650Y2190
X92710Y-3810
X95250Y-3810
T6
X62230Y31750
X110070Y-5400
X144780Y17780
X107530Y-5400
X115730Y102500
X59690Y25400
X62230Y25400
X68580Y35560
X66040Y35560
X85090Y40640
X87630Y40640
X85090Y35560
X87630Y35560
X68580Y40640
X66040Y40640
X59690Y31750
X49530Y72390
X118270Y102500
X148590Y5080
X148590Y15240
X138430Y5080
X138430Y15240
X128270Y5080
X128270Y15240
X142240Y17780
X134620Y17780
X52070Y72390
X43180Y72390
X45720Y72390
X49530Y68580
X52070Y68580
X85090Y64770
X85090Y67310
X88900Y52070
X88900Y62230
X92710Y64770
X92710Y67310
X92710Y52070
X92710Y62230
X78740Y86360
X81280Y86360
X78740Y93980
X81280Y93980
X43180Y68580
X49530Y64770
X52070Y64770
X43180Y64770
X45720Y64770
X49530Y60960
X52070Y60960
X43180Y60960
X45720Y60960
X43180Y57150
X45720Y57150
X49530Y57150
X52070Y57150
X43180Y53340
X45720Y53340
X85090Y25400
X45720Y68580
X85090Y30480
X87630Y30480
X68580Y30480
X66040Y30480
X68580Y25400
X66040Y25400
X48260Y7620
X50800Y7620
X87630Y25400
X66040Y10160
X63500Y10160
X74930Y0
X77470Y0
X80010Y0
X82550Y0
X85090Y0
X87630Y0
X90170Y0
X92710Y0
X95250Y0
X97790Y0
X100330Y0
X102870Y0
X102870Y15240
X100330Y15240
X97790Y15240
X95250Y15240
X92710Y15240
X90170Y15240
X87630Y15240
X85090Y15240
X82550Y15240
X80010Y15240
X77470Y15240
X74930Y15240
X35360Y103030
X35360Y105570
X41930Y102920
X41930Y105460
X21380Y96300
X23920Y96300
X22010Y90300
X24550Y90300
X49530Y53340
X52070Y53340
X132080Y17780
X125730Y17780
X108350Y11850
X105810Y11850
X123190Y17780
T7
X184150Y77470
X181610Y77470
X175260Y29210
X172720Y29210
X58420Y3810
X177800Y71120
X54610Y3810
X170180Y71120
X172720Y71120
X175260Y71120
T8
X137160Y57150
X139700Y57150
X139700Y54610
X139700Y52070
X137160Y52070
X137160Y54610
T9
X67310Y33020
X65990Y33990
X63500Y34290
X50800Y40640
X45720Y44450
X17780Y58420
X15240Y58420
X9600Y75000
X8000Y70500
X83820Y26670
X160500Y18500
X163500Y18500
X80200Y25500
X55310Y26170
X57600Y26620
X60960Y24130
X63500Y24130
X63500Y21590
X63500Y19050
X63500Y40640
X63500Y46990
X50800Y38100
X44450Y43180
X30480Y57150
X29210Y59690
X25400Y59690
X25400Y57150
X40640Y41910
X41910Y34290
X44450Y34290
X50800Y34290
X156500Y17000
X164000Y16500
X153670Y21590
X153670Y19050
X153670Y17780
X153670Y12700
X152400Y20320
X152400Y12700
X147320Y24130
X149860Y22860
X151130Y20320
X151130Y11430
X152400Y6350
X137160Y20320
X137160Y11430
X139700Y10160
X143510Y10160
X147320Y21590
X149860Y21590
X149860Y20320
X149860Y11430
X146050Y20320
X146050Y11430
X102870Y43180
X102870Y40640
X102870Y25400
X102870Y20320
X113030Y25400
X113030Y17780
X104140Y25400
X104140Y20320
X111760Y36830
X114300Y35560
X115570Y25400
X116840Y20320
X118110Y12700
X118110Y10160
X105410Y38100
X101600Y38100
X100330Y40640
X100330Y43180
X90170Y49530
X90170Y52070
X137160Y46990
X139700Y46990
X148590Y20320
X147320Y15240
X138430Y20320
X139700Y83820
X143510Y83820
X166370Y83820
X173990Y85090
X139700Y85090
X143510Y85090
X115570Y33020
X111760Y31750
X105410Y31750
X101600Y31750
X90170Y39370
X86680Y39320
X92710Y59690
X81280Y46990
X80310Y44400
X103960Y60960
X111760Y71120
X111760Y76200
X113030Y78740
X113030Y81280
X92710Y49530
X91440Y52070
X20320Y22860
X41910Y25400
X44450Y27940
X48260Y29210
X67310Y38100
X74930Y38100
X62230Y41910
X66040Y39170
X129540Y17780
X41910Y31750
X44450Y31750
X48260Y31750
X44450Y22860
X34000Y23000
X159000Y16000
X164000Y11500
X110490Y40640
X111760Y41910
X118110Y50800
X118110Y59690
X120650Y71120
X120650Y75900
X120650Y79090
X120650Y81280
X130810Y-5080
X129540Y-2540
X81280Y48260
X85090Y44450
X91440Y43180
X91440Y39370
X100330Y25400
X100330Y20320
X46990Y97790
X55880Y95600
X58420Y95250
X59690Y93980
X67310Y93980
X67310Y91440
X66040Y88900
X66040Y82550
X66040Y80010
X72390Y72390
X74930Y72390
X74930Y69850
X166500Y14000
X165500Y20000
X153670Y67310
X153670Y86360
X68580Y22860
X68580Y19050
X71120Y43180
X67310Y39690
X68580Y26670
X68580Y29210
X53340Y30480
X55880Y31750
X63500Y33020
X66040Y31900
X67310Y31750
X69850Y31750
X58000Y48100
X58000Y35700
X167300Y102000
X165500Y88600
X162700Y86400
X162500Y79000
X162500Y75700
X162600Y67400
X141800Y48100
X141900Y45900
X141000Y33200
X132200Y33200
X46900Y12800
X49700Y12800
X54500Y13100
X62700Y13100
X66000Y13100
X69900Y13100
X79100Y22300
X87200Y27900
X90400Y27900
X93000Y27900
X101300Y27900
X105600Y27900
X111300Y26300
X117300Y26300
X122600Y26300
X126300Y26300
X31100Y47000
X31100Y44300
X29900Y30300
X29900Y27600
X46700Y14100
X49700Y14100
X54500Y14600
X62800Y14600
X66100Y14600
X68700Y14600
X76900Y32500
X87600Y32500
X90400Y32500
X92700Y32500
X100500Y33200
X105100Y33200
X108000Y37900
X103900Y45700
X101500Y48200
X101500Y50700
X100600Y55400
X104900Y67500
X29500Y46900
X29000Y44000
X28500Y30500
X28500Y27000
X39500Y15000
X43000Y15000
X128100Y-1300
X46910Y21600
X33000Y21500
X158750Y88900
X156210Y88900
X151130Y86360
X10160Y29210
X151130Y82550
X151130Y81280
X151130Y67310
X158750Y91440
X156210Y91440
X148590Y86360
X148590Y82550
X148590Y81280
X148590Y79040
X148590Y75900
X148590Y67310
X154940Y87630
X149860Y87630
X157480Y87630
X86260Y96720
X83820Y95250
X86160Y78440
X80010Y85090
X78740Y49530
X81280Y49530
X86360Y62230
X86560Y64770
X80660Y41660
X86360Y41910
X80010Y35560
X86360Y34290
X81280Y29210
X86360Y29210
X114700Y89050
X116840Y90170
X127000Y91440
X133350Y88900
X139700Y88900
X144780Y88900
X146050Y91440
X34290Y93980
X39370Y93980
X94000Y88600
X90500Y84900
X88800Y84900
X89000Y78000
X94000Y67600
X93000Y72500
X36600Y46800
X41800Y52000
X167640Y17780
X167640Y12700
X135890Y-6350
X135890Y-2540
X121940Y93980
X143510Y93980
X90170Y71120
X90170Y68580
X85090Y52070
X85640Y46590
X82550Y43180
X80310Y43130
X83820Y40640
X83820Y36830
X85090Y27940
X81280Y30480
X83820Y30480
X85090Y92710
X95250Y92710
X102870Y95250
X114300Y93980
X97840Y82300
X104140Y87630
X102870Y88900
X101600Y92710
X80010Y36830
X125730Y3810
X110490Y3810
X98060Y20320
X92710Y24130
X32300Y104700
X32400Y102100
X81280Y101600
X172800Y101900
X171600Y94200
X34300Y49500
X40400Y52800
X58600Y74500
X58300Y70900
X58300Y65100
X44400Y54800
X79500Y23500
X111760Y34290
X115570Y34290
X121920Y50800
X121920Y59690
X135890Y68580
X137160Y76200
X137160Y82550
X137160Y86360
X139700Y86360
X143510Y86360
X123190Y49530
X123190Y59690
X159250Y68580
X159250Y76050
X159870Y78940
X160020Y86360
X123190Y15240
X125730Y8890
X137160Y8890
X133350Y16510
X144780Y16160
X147320Y5080
X129540Y15240
X97990Y99060
X96490Y83820
X137160Y34290
X132080Y40640
X123190Y48260
X120650Y48260
X116840Y48260
X114300Y48260
X113030Y48260
X110490Y48260
X107930Y48260
X102870Y50800
X124460Y22140
X124460Y19050
X124460Y15240
X124460Y11430
X125900Y-100
X121200Y-5200
X60960Y19050
X60960Y21590
X72640Y35810
X67310Y34290
X71120Y41910
X68830Y42010
X66040Y46990
X64770Y41910
X53340Y23930
X56930Y22910
X53340Y29210
X55880Y29210
X22000Y106500
X20500Y103500
X95250Y85090
X94280Y86660
X91440Y83820
X91440Y81530
X92710Y88550
X91440Y86360
X60960Y82550
X58420Y82550
X54610Y81280
X46990Y81280
X46990Y76200
X43180Y93980
X43180Y88900
X46990Y88900
X46990Y86360
X46900Y73800
X39370Y96520
X31550Y95250
X36830Y68580
X39370Y68580
X49530Y66040
X55880Y66040
X68580Y77470
X68580Y80010
X68580Y82550
X68580Y85090
X73660Y85090
X73660Y82550
X85090Y82550
X87630Y82550
X31750Y76200
X34290Y76200
X99060Y88900
X100330Y99060
X93980Y83820
X93830Y81580
X94500Y66000
X104000Y66000
X95500Y65000
X104000Y64500
X101600Y95250
X97790Y100330
X54610Y95250
X52070Y76200
X53340Y73660
X49530Y62230
X53340Y62230
X93980Y92710
X91440Y92710
X50800Y90170
X49530Y88900
X49530Y76200
X50800Y73660
X89000Y96870
X88900Y100330
X48110Y64770
X48060Y70920
X45720Y70920
X43230Y70870
X41260Y72440
X41710Y74980
X30480Y83820
X87630Y97790
X83820Y96520
X54610Y96520
X50800Y96520
X34290Y87630
X41910Y85090
X48260Y91440
X45720Y93980
X45720Y86360
X39890Y72390
X40640Y67310
X40640Y66040
X40640Y63500
X48260Y97790
X57150Y92710
X80010Y91440
X82550Y90170
X83820Y90170
X85090Y91440
X52070Y59390
X46990Y59690
X39370Y91440
X38100Y90170
X29210Y80010
X62230Y36830
X68580Y95250
X80010Y92710
X82550Y92710
X58420Y93980
X53340Y91440
X52070Y90170
X44450Y83820
X43180Y86360
X40640Y86360
X38100Y85090
X33020Y88900
X38100Y73660
X31750Y73660
X39370Y58420
X41910Y58420
X29210Y88900
X48260Y73660
X48260Y76200
X41910Y87630
X41910Y92710
X82550Y76970
X74090Y76200
X67310Y76200
X55880Y71120
X49530Y71120
X96800Y81500
X82550Y87630
X80010Y87630
X78690Y87730
X76200Y87630
X72390Y87630
X67310Y87630
X57150Y85090
X57150Y81280
X43180Y97790
X44450Y99060
X36830Y91440
X36830Y88900
X38100Y72390
X38100Y69850
X45720Y99060
X71120Y95550
X74930Y93980
X77470Y90170
X77470Y85090
X78740Y81280
X35560Y91240
X35560Y88900
X41930Y69850
X46820Y69850
X55880Y69850
X49530Y69850
X67310Y71120
X73390Y71120
X114300Y78740
X114300Y81280
X119380Y86360
X119380Y90170
X113030Y76200
X113030Y71120
X101600Y82550
X105410Y83820
X111760Y85090
X115570Y85090
X118110Y86360
X118110Y88900
X137160Y36830
X139700Y35560
X140970Y20320
X140970Y11430
X137160Y25400
X142240Y25400
X142240Y20320
X143510Y11430
X135890Y20320
X135890Y11430
X128270Y19050
X127000Y16510
X126700Y15240
X126700Y11430
X101600Y85090
X104140Y86360
X111760Y91440
X110490Y92710
X111760Y50800
X111760Y59690
X114300Y71120
X114300Y76200
X115170Y77440
X116320Y81180
X118110Y83820
X114400Y87730
X100330Y85090
X100330Y87630
X106680Y90170
X107950Y92710
X97790Y78740
X105410Y81280
X106680Y82550
X106680Y88900
X105410Y88900
X104140Y92710
X19050Y24130
X24130Y24130
X38100Y24130
X43180Y24130
X27940Y59690
X27940Y57150
X44450Y36830
X53340Y36830
X66040Y37330
X67310Y36830
X69850Y36830
X69850Y33020
M30